<?xml version="1.0" encoding="UTF-8"?>
<svg width="111px" height="110px" viewBox="0 0 111 110" version="1.1" xmlns="http://www.w3.org/2000/svg" xmlns:xlink="http://www.w3.org/1999/xlink">
    <!-- Generator: sketchtool 55.1 (78136) - https://sketchapp.com -->
    <title>BBE00272-A504-482E-8C06-D71FCE527B78</title>
    <desc>Created with sketchtool.</desc>
    <g id="Page-1" stroke="none" stroke-width="1" fill="none" fill-rule="evenodd">
        <g id="Bike-Bazaar-new-header" transform="translate(-674.000000, -1933.000000)">
            <g id="Group-7" transform="translate(558.500000, 1899.000000)">
                <g id="Group-6" transform="translate(81.000000, 0.000000)">
                    <g id="6month-warranty-icon" transform="translate(35.000000, 35.000000)">
                        <text id="6" font-family="Montserrat-ExtraLight, Montserrat" font-size="70" font-weight="300" letter-spacing="2.071795" fill="#EB2C2D">
                            <tspan x="32.1041025" y="79">6</tspan>
                        </text>
                        <g id="Group">
                            <text id="6" font-family="Montserrat-ExtraLight, Montserrat" font-size="70" font-weight="300" letter-spacing="2.071795" fill="#EB2C2D">
                                <tspan x="33.1041025" y="79">6</tspan>
                            </text>
                            <path d="M108.666667,54 C108.666667,49.3333333 105.4,45.6 100.966667,44.9 C104.7,42.5666667 106.333333,37.6666667 104.466667,33.4666667 C102.833333,29.2666667 98.1666667,26.9333333 93.9666667,27.8666667 C96.5333333,24.1333333 96.0666667,19.2333333 92.8,15.9666667 C89.5333333,12.7 84.6333333,12.4666667 80.9,14.8 C81.8333333,10.6 79.5,5.93333333 75.3,4.3 C71.1,2.43333333 66.4333333,4.06666667 63.8666667,7.8 C63.1666667,3.36666667 59.2,0.1 54.7666667,0.1 C50.1,0.1 46.3666667,3.36666667 45.6666667,7.8 C43.3333333,4.06666667 38.4333333,2.43333333 34.2333333,4.3 C30.0333333,5.93333333 27.7,10.6 28.6333333,14.8 C24.9,12.2333333 20,12.7 16.7333333,15.9666667 C13.4666667,19.2333333 13.2333333,24.1333333 15.5666667,27.8666667 C11.3666667,26.9333333 6.7,29.2666667 5.06666667,33.4666667 C3.43333333,37.6666667 4.83333333,42.3333333 8.56666667,44.9 C4.13333333,45.6 0.866666667,49.5666667 0.866666667,54 C0.866666667,58.6666667 4.13333333,62.4 8.56666667,63.1 C4.83333333,65.4333333 3.2,70.3333333 5.06666667,74.5333333 C6.93333333,78.7333333 11.3666667,81.0666667 15.5666667,80.1333333 C13,83.8666667 13.4666667,88.7666667 16.7333333,92.0333333 C20,95.3 24.9,95.5333333 28.6333333,93.2 C27.7,97.4 30.0333333,102.066667 34.2333333,103.7 C38.4333333,105.566667 43.1,103.933333 45.6666667,100.2 C46.3666667,104.633333 50.3333333,107.9 54.7666667,107.9 C59.4333333,107.9 63.1666667,104.633333 63.8666667,100.2 C66.2,103.933333 71.1,105.566667 75.3,103.7 C79.5,102.066667 81.8333333,97.4 80.9,93.2 C84.6333333,95.7666667 89.5333333,95.3 92.8,92.0333333 C96.0666667,88.7666667 96.3,83.8666667 93.9666667,80.1333333 C98.1666667,81.0666667 102.833333,78.7333333 104.466667,74.5333333 C106.1,70.3333333 104.7,65.6666667 100.966667,63.1 C105.4,62.4 108.666667,58.6666667 108.666667,54 Z" id="Path" stroke="#231F20" stroke-width="2" stroke-linejoin="round"></path>
                        </g>
                        <circle id="Oval" stroke="#231F20" stroke-width="2" stroke-linecap="round" stroke-linejoin="round" cx="54" cy="54" r="41.3913043"></circle>
                    </g>
                </g>
            </g>
        </g>
    </g>
</svg>