<?xml version="1.0" encoding="utf-8"?>
<!-- Generator: Adobe Illustrator 16.0.0, SVG Export Plug-In . SVG Version: 6.00 Build 0)  -->
<!DOCTYPE svg PUBLIC "-//W3C//DTD SVG 1.1//EN" "http://www.w3.org/Graphics/SVG/1.1/DTD/svg11.dtd">
<svg version="1.1" xmlns="http://www.w3.org/2000/svg" xmlns:xlink="http://www.w3.org/1999/xlink" x="0px" y="0px" width="280px"
	 height="170px" viewBox="0 0 280 170" enable-background="new 0 0 280 170" xml:space="preserve">
<g id="Layer_1">
	<g>
		<ellipse opacity="0.7" cx="139.128" cy="136.163" rx="89.122" ry="2.782"/>
		<g>
			<g>
				<g>
					<path fill="#373636" d="M79.726,79.645c0-0.424,0.212-0.424,0.212-0.424l0,0c0.213,0,0.213,0.424,0.213,0.424v52.276
						c0,0.424-0.213,0.424-0.213,0.424l0,0c-0.212,0-0.212-0.424-0.212-0.424"/>
					<path fill="#373636" d="M53.801,105.996c-0.424,0-0.424-0.213-0.424-0.213l0,0c0-0.214,0.424-0.214,0.424-0.214h52.276
						c0.425,0,0.425,0.214,0.425,0.214l0,0c0,0.213-0.425,0.213-0.425,0.213"/>
					<path fill="#373636" d="M69.979,81.616c-0.158-0.394,0.039-0.473,0.039-0.473l0,0c0.198-0.08,0.357,0.314,0.357,0.314
						l19.523,48.492c0.158,0.396-0.038,0.474-0.038,0.474l0,0c-0.198,0.08-0.356-0.314-0.356-0.314"/>
					<path fill="#373636" d="M55.772,115.742c-0.394,0.158-0.474-0.039-0.474-0.039l0,0c-0.079-0.196,0.315-0.354,0.315-0.354
						l48.493-19.524c0.395-0.159,0.473,0.039,0.473,0.039l0,0c0.08,0.196-0.314,0.356-0.314,0.356"/>
					<path fill="#373636" d="M60.258,88.582c-0.318-0.282-0.177-0.442-0.177-0.442l0,0c0.141-0.157,0.458,0.125,0.458,0.125
						l39.08,34.719c0.318,0.283,0.177,0.441,0.177,0.441l0,0c-0.141,0.159-0.459-0.123-0.459-0.123"/>
					<path fill="#373636" d="M62.738,125.465c-0.282,0.317-0.441,0.175-0.441,0.175l0,0c-0.16-0.141,0.124-0.459,0.124-0.459
						L97.14,86.102c0.283-0.317,0.441-0.176,0.441-0.176l0,0c0.16,0.142-0.123,0.459-0.123,0.459"/>
					<path fill="#373636" d="M60.18,88.582c-0.317-0.282-0.176-0.442-0.176-0.442l0,0c0.142-0.157,0.459,0.125,0.459,0.125
						l39.08,34.719c0.318,0.283,0.176,0.441,0.176,0.441l0,0c-0.141,0.159-0.459-0.123-0.459-0.123"/>
					<path fill="#373636" d="M62.66,125.465c-0.282,0.317-0.441,0.175-0.441,0.175l0,0c-0.16-0.141,0.123-0.459,0.123-0.459
						l34.72-39.079c0.282-0.317,0.441-0.176,0.441-0.176l0,0c0.159,0.142-0.124,0.459-0.124,0.459"/>
					<path fill="#373636" d="M54.989,97.986c-0.404-0.128-0.339-0.33-0.339-0.33l0,0c0.065-0.203,0.469-0.073,0.469-0.073
						l49.768,15.996c0.405,0.129,0.34,0.331,0.34,0.331l0,0c-0.065,0.203-0.47,0.074-0.47,0.074"/>
					<path fill="#373636" d="M72.143,130.732c-0.13,0.404-0.332,0.339-0.332,0.339l0,0c-0.203-0.066-0.072-0.47-0.072-0.47
						l15.996-49.767c0.13-0.405,0.332-0.34,0.332-0.34l0,0c0.203,0.066,0.073,0.47,0.073,0.47"/>
				</g>
				<g>
					<path fill="#373636" d="M197.884,79.645c0-0.424,0.212-0.424,0.212-0.424l0,0c0.213,0,0.213,0.424,0.213,0.424v52.276
						c0,0.424-0.213,0.424-0.213,0.424l0,0c-0.212,0-0.212-0.424-0.212-0.424"/>
					<path fill="#373636" d="M171.959,105.996c-0.425,0-0.425-0.213-0.425-0.213l0,0c0-0.214,0.425-0.214,0.425-0.214h52.275
						c0.425,0,0.425,0.214,0.425,0.214l0,0c0,0.213-0.425,0.213-0.425,0.213"/>
					<path fill="#373636" d="M188.138,81.616c-0.158-0.394,0.039-0.473,0.039-0.473l0,0c0.197-0.08,0.354,0.314,0.354,0.314
						l19.524,48.492c0.157,0.396-0.039,0.474-0.039,0.474l0,0c-0.196,0.08-0.355-0.314-0.355-0.314"/>
					<path fill="#373636" d="M173.93,115.742c-0.395,0.158-0.474-0.039-0.474-0.039l0,0c-0.08-0.196,0.314-0.354,0.314-0.354
						l48.493-19.524c0.394-0.159,0.473,0.039,0.473,0.039l0,0c0.081,0.196-0.314,0.356-0.314,0.356"/>
					<path fill="#373636" d="M178.415,88.582c-0.318-0.282-0.175-0.442-0.175-0.442l0,0c0.141-0.157,0.458,0.125,0.458,0.125
						l39.079,34.719c0.318,0.283,0.177,0.441,0.177,0.441l0,0c-0.141,0.159-0.458-0.123-0.458-0.123"/>
					<path fill="#373636" d="M180.896,125.465c-0.283,0.317-0.441,0.175-0.441,0.175l0,0c-0.16-0.141,0.123-0.459,0.123-0.459
						l34.72-39.079c0.282-0.317,0.442-0.176,0.442-0.176l0,0c0.157,0.142-0.125,0.459-0.125,0.459"/>
					<path fill="#373636" d="M178.337,88.582c-0.316-0.282-0.176-0.442-0.176-0.442l0,0c0.142-0.157,0.46,0.125,0.46,0.125
						l39.079,34.719c0.318,0.283,0.176,0.441,0.176,0.441l0,0c-0.141,0.159-0.459-0.123-0.459-0.123"/>
					<path fill="#373636" d="M180.817,125.465c-0.282,0.317-0.44,0.175-0.44,0.175l0,0c-0.16-0.141,0.123-0.459,0.123-0.459
						l34.72-39.079c0.282-0.317,0.441-0.176,0.441-0.176l0,0c0.159,0.142-0.123,0.459-0.123,0.459"/>
					<path fill="#373636" d="M173.146,97.986c-0.403-0.128-0.339-0.33-0.339-0.33l0,0c0.066-0.203,0.471-0.073,0.471-0.073
						l49.768,15.996c0.404,0.129,0.34,0.331,0.34,0.331l0,0c-0.066,0.203-0.471,0.074-0.471,0.074"/>
					<path fill="#373636" d="M190.3,130.732c-0.129,0.404-0.331,0.339-0.331,0.339l0,0c-0.202-0.066-0.073-0.47-0.073-0.47
						l15.997-49.767c0.13-0.405,0.332-0.34,0.332-0.34l0,0c0.203,0.066,0.073,0.47,0.073,0.47"/>
				</g>
				<circle fill="none" stroke="#282828" stroke-width="7" stroke-miterlimit="10" cx="79.901" cy="106.062" r="26.573"/>
				<circle fill="none" stroke="#282828" stroke-width="7" stroke-miterlimit="10" cx="198.092" cy="106.062" r="26.575"/>
				<g>
					<g>
						<g>
							<path fill="#282828" d="M193.462,61.176c-4.365,0-7.903-3.539-7.903-7.903c0-4.364,3.538-7.903,7.903-7.903V61.176z"/>
							<path fill="#FBAB20" d="M194.783,61.176h-1.321V45.37h1.321c0.732,0,1.325,0.593,1.325,1.323v13.16
								C196.108,60.584,195.516,61.176,194.783,61.176z"/>
							<g>
								<path fill="#484848" d="M204.778,107.056c-0.618,3.842-4.233,6.454-8.074,5.838c-3.843-0.619-6.457-4.233-5.84-8.075
									c0.62-3.841,4.233-6.454,8.077-5.838C202.781,99.599,205.396,103.214,204.778,107.056z"/>
							</g>
							<polygon fill="#282828" points="105.802,71.052 117.626,112.587 154.801,112.572 165.41,82.9 162.233,71.113 128.067,71.043 
															"/>
							<g>
								<path fill="#484848" d="M80.859,102.087c1.312,0,2.38,1.066,2.38,2.38c0,1.313-1.069,2.381-2.38,2.381
									c-1.313,0-2.381-1.068-2.381-2.381C78.478,103.153,79.546,102.087,80.859,102.087 M80.859,92.089
									c-6.826,0-12.379,5.552-12.379,12.378c0,6.825,5.553,12.379,12.379,12.379c6.826,0,12.378-5.554,12.378-12.379
									C93.237,97.641,87.685,92.089,80.859,92.089L80.859,92.089z"/>
								
									<rect x="96.612" y="78.068" transform="matrix(0.0991 0.9951 -0.9951 0.0991 191.9952 -7.5781)" fill="#282828" width="7.142" height="48.346"/>
								<path fill="#282828" d="M81.941,117.637c-3.771,0-12.633-1.097-14.032-11.232c-0.476-3.455,0.216-6.41,2.058-8.791
									c3.492-4.508,9.827-5.294,10.094-5.325l0.05-0.006l0.051,0.001l41.348,1.074l-0.036,1.428l-41.292-1.072
									c-0.564,0.078-6.118,0.937-9.091,4.782c-1.593,2.063-2.188,4.657-1.766,7.713c1.548,11.23,13.094,10.058,14.07,9.937
									l43.072-12.258l0.39,1.375l-43.172,12.286l-0.051,0.006C83.605,117.558,82.958,117.637,81.941,117.637z"/>
							</g>
							<g>
								<polygon fill="#8F8F8E" points="81.688,103.901 80.77,103.407 88.484,72.821 89.402,73.314 								"/>
								<polygon fill="#222222" points="82.989,102.734 80.541,101.494 83.688,88.707 86.136,89.348 								"/>
								
									<ellipse transform="matrix(0.9966 -0.0822 0.0822 0.9966 -5.7469 7.5565)" fill="#B1B2AC" cx="88.873" cy="73.554" rx="1.449" ry="1.996"/>
								
									<ellipse transform="matrix(0.9966 -0.0825 0.0825 0.9966 -8.3122 7.0279)" fill="#373636" cx="80.841" cy="104.043" rx="1.449" ry="1.593"/>
								<polygon fill="#222222" points="90.277,79.988 84.768,77.024 85.561,73.878 91.071,76.842 								"/>
								<polygon fill="#222222" points="84.746,102.138 79.235,99.175 80.03,96.027 85.541,98.992 								"/>
								<g>
									<path fill="#222222" d="M85.046,98.394c-0.024,0.002-0.049,0-0.074-0.005l-4.338-1.004
										c-0.177-0.041-0.304-0.27-0.283-0.511c0.021-0.241,0.181-0.405,0.358-0.363l4.338,1.004c0.178,0.04,0.304,0.27,0.283,0.511
										C85.313,98.231,85.192,98.382,85.046,98.394z"/>
									<path fill="#222222" d="M85.545,96.364c-0.024,0.003-0.049,0.001-0.074-0.004l-4.338-1.003
										c-0.178-0.042-0.304-0.27-0.284-0.511c0.02-0.243,0.182-0.408,0.358-0.363l4.338,1.003c0.177,0.041,0.304,0.27,0.283,0.511
										C85.811,96.206,85.69,96.354,85.545,96.364z"/>
									<path fill="#222222" d="M86.043,94.338c-0.024,0.003-0.049,0.001-0.074-0.005l-4.337-1.004
										c-0.178-0.042-0.305-0.27-0.285-0.511c0.021-0.243,0.18-0.406,0.358-0.362l4.338,1.003c0.178,0.04,0.304,0.269,0.284,0.511
										C86.309,94.178,86.188,94.325,86.043,94.338z"/>
									<path fill="#222222" d="M86.542,92.311c-0.025,0.001-0.049,0-0.074-0.006l-4.337-1.003
										c-0.178-0.04-0.305-0.271-0.285-0.512c0.02-0.241,0.18-0.406,0.358-0.361l4.338,1.002c0.177,0.042,0.304,0.269,0.284,0.512
										C86.808,92.147,86.688,92.299,86.542,92.311z"/>
									<path fill="#222222" d="M87.04,90.282c-0.025,0.002-0.049,0-0.074-0.006l-4.337-1.002
										c-0.178-0.042-0.305-0.271-0.285-0.512c0.02-0.241,0.181-0.407,0.358-0.363l4.337,1.003
										c0.178,0.041,0.304,0.271,0.285,0.512C87.307,90.12,87.186,90.27,87.04,90.282z"/>
									<path fill="#222222" d="M87.539,88.254c-0.025,0.002-0.049,0.001-0.074-0.006l-4.339-1.003
										c-0.177-0.041-0.304-0.27-0.283-0.511c0.02-0.242,0.181-0.406,0.358-0.362l4.338,1.003c0.177,0.04,0.305,0.271,0.284,0.51
										C87.805,88.093,87.685,88.242,87.539,88.254z"/>
									<path fill="#222222" d="M88.036,86.226c-0.024,0.003-0.049,0.001-0.074-0.005l-4.338-1.002
										c-0.177-0.042-0.304-0.271-0.284-0.512c0.021-0.241,0.18-0.406,0.358-0.362l4.337,1.003
										c0.178,0.041,0.305,0.269,0.285,0.51C88.304,86.065,88.183,86.213,88.036,86.226z"/>
									<path fill="#222222" d="M88.535,84.199c-0.024,0.002-0.048,0-0.074-0.005l-4.338-1.004
										c-0.177-0.041-0.304-0.27-0.284-0.511c0.021-0.242,0.181-0.407,0.358-0.362l4.337,1.003
										c0.178,0.041,0.306,0.269,0.284,0.511C88.802,84.038,88.681,84.187,88.535,84.199z"/>
									<path fill="#222222" d="M89.033,82.171c-0.024,0.001-0.048,0-0.073-0.006l-4.338-1.002
										c-0.177-0.042-0.304-0.27-0.284-0.511c0.021-0.241,0.182-0.407,0.359-0.362l4.337,1.002
										c0.178,0.041,0.305,0.27,0.285,0.511C89.299,82.01,89.179,82.159,89.033,82.171z"/>
									<path fill="#222222" d="M89.532,80.143c-0.024,0.002-0.049,0-0.074-0.006l-4.338-1.003
										c-0.177-0.041-0.305-0.27-0.284-0.511c0.021-0.242,0.182-0.406,0.358-0.363l4.337,1.003
										c0.178,0.041,0.304,0.27,0.284,0.511C89.798,79.982,89.677,80.131,89.532,80.143z"/>
								</g>
							</g>
							<path fill="#ED2224" d="M70.759,69.221c0,0,1.254-0.923-2.597-0.289c-5.048,0.83-19.092,10.211-19.092,10.211
								s1.347,4.338,3.251,4.338c1.904,0,17.649-10.452,21.197-9.856c3.55,0.596,7.422,1.203,10.723,2.327
								s24.761-1.333,24.761-1.333l-1.678-2.541c0,0-26.339-2.568-28.851-2.857C75.959,68.933,70.759,69.221,70.759,69.221z"/>
							<path fill="#373636" d="M92.166,71.129l-0.795,2.398c0,0,4.572,0.466,9.69,3.564c5.118,3.098,12.378,12.621,12.378,12.621
								l-4.915-17.762L92.166,71.129z"/>
							<polygon fill="#8F8F8E" points="195.711,106.325 175.681,43.083 179.249,42.145 199.746,105.388 							"/>
							<polygon fill="#282828" points="173.525,51.323 175.849,50.702 175.332,49.011 183.259,46.313 183.883,48.126 
								188.089,62.759 188.563,64.548 180.473,66.883 179.233,63.104 167.859,64.931 172.326,53.059 							"/>
							<g>
								<path fill="#A41D21" d="M174.842,68.538c-1.542,3.977-5.123,4.147-5.123,4.147h-40.66c0,0-2.776-6.64-2.074-10.292
									c0.408-2.165,1.133-4.147,3.128-6.417c0.499-0.573,1.042-1.147,1.699-1.747c1.202-1.096,2.675-2.27,4.533-3.573
									c7.049-4.93,22.039-3.469,26.757-3.063c4.76,0.449,6.649,0.941,8.489,2.703c2.31,1.93,3.25,4.601,3.25,4.601
									S177.34,61.871,174.842,68.538z"/>
							</g>
							<g>
								<path fill="#ED2224" d="M168.303,66.121c-1.112,2.867-3.692,2.99-3.692,2.99h-29.313c0,0-2.002-4.787-1.496-7.419
									c0.295-1.562,0.817-2.991,2.255-4.626c0.36-0.413,0.752-0.826,1.226-1.259c0.866-0.79,1.928-1.636,3.269-2.576
									c5.081-3.554,15.888-2.501,19.288-2.208c3.432,0.324,4.794,0.678,6.12,1.948c1.667,1.392,2.344,3.317,2.344,3.317
									S170.104,61.315,168.303,66.121z"/>
							</g>
							<path fill="#8F8F8E" d="M143.439,96.059l0.264-0.101c0.516-0.194,1.074-0.295,1.638-0.295h6.432
								c1.108,0,2.171,0.39,2.944,1.077l0.029,0.025c1.021,0.908,1.407,2.217,1.015,3.439l-0.406,1.262
								c-0.26,0.812-0.845,1.516-1.649,1.989l-3.144,1.853c-0.683,0.399-1.485,0.612-2.312,0.612h-0.563
								c-0.907,0-1.791-0.26-2.51-0.74l-2.286-1.528c-0.291-0.193-0.549-0.418-0.77-0.672l-0.521-0.597
								c-0.695-0.797-0.971-1.809-0.762-2.791l0.194-0.914C141.282,97.513,142.184,96.529,143.439,96.059z"/>
							<g>
								<polygon fill="#282828" points="178.829,38.503 173.004,40.755 174.345,42.973 177.425,45.686 179.522,44.93 179.94,41.016 
																	"/>
								<path fill="#282828" d="M176.484,42.134c-0.614-0.065-1.121-0.549-1.194-1.187c-0.313-2.745-1.192-5.671-1.826-6.095
									c-0.729-0.075-1.146-0.05-1.358-0.021l-0.04,0.064l-8.875,2.693c-0.705,0.238-1.469-0.142-1.706-0.847
									c-0.236-0.705,0.145-1.468,0.849-1.705l8.2-2.468c0.976-0.634,2.653-0.455,3.273-0.389c2.82,0.3,3.817,5.433,4.16,8.465
									c0.082,0.739-0.449,1.406-1.188,1.489C176.679,42.144,176.579,42.144,176.484,42.134z"/>
								<path fill="#8F8F8E" d="M166.271,41.579c-0.133-0.014-0.261-0.078-0.353-0.191l-0.521-0.646l0.187-0.313
									c0.055-0.091,1.352-2.256,2.94-3.317c1.464-0.978,4.317-1.225,4.921-1.267l1.126-0.559l-1.247-2.823
									c-0.116-0.264,0.004-0.573,0.269-0.69c0.265-0.115,0.572,0.003,0.689,0.268l1.648,3.736l-2.21,1.098l-0.107,0.006
									c-0.031,0.002-3.136,0.185-4.509,1.1c-1.067,0.713-2.032,2.072-2.43,2.678l0.059,0.072c0.181,0.225,0.146,0.554-0.08,0.735
									C166.543,41.557,166.404,41.593,166.271,41.579z"/>
								<circle fill="#282828" cx="172.752" cy="33.065" r="1.845"/>
								<path fill="#8F8F8E" d="M162.245,37.945c-0.597-0.064-1.128-0.467-1.324-1.074c-0.27-0.823,0.181-1.708,1.004-1.977
									l9.183-2.993c0.823-0.269,1.708,0.183,1.976,1.006c0.27,0.823-0.181,1.708-1.005,1.976l-9.182,2.992
									C162.68,37.946,162.458,37.967,162.245,37.945z"/>
								<circle fill="#282828" cx="162.432" cy="36.532" r="1.225"/>
							</g>
							<path fill="#373636" d="M130.332,71.483l-1.323-5.711c-0.014,0.003-0.028,0.005-0.042,0.008l0.042-0.015l-0.992-6.708
								c0,0-12.462,1.229-18.193,1.229c-8.019,0-34.722-2.271-37.818-2.757c-3.097-0.486-3.151-1.18-5.954-1.493
								c-2.801-0.313-2.714,6.05-2.714,6.05l-0.872,1.042c-0.013-0.004-0.026-0.008-0.039-0.012l-1.701,2.034
								c0,0,2.713,2.396,4.892,3.749c0.544,0.338,1.148,0.638,1.748,0.896c1.724,0.744,21.407,1.199,23.272,1.416
								c3.298,0.387,10.712,1.159,20.02,1.541c12.703,0.521,16.932,0.084,18.39-0.02C130.506,72.629,130.332,71.483,130.332,71.483z
								"/>
							<path fill="#ED2224" d="M168.013,81.786c0,0,3.464-7.823,17.678-12.33c14.213-4.508,25.327,0.055,25.327,0.055
								s-1.104,3.342-3.848,4.998s-7.681-1.771-17.393,1.271c-9.433,2.955-8.954,4.092-13.937,7.403
								c-1.163,0.773-4.029-0.058-5.561-0.55C169.004,82.225,168.013,81.786,168.013,81.786z"/>
							<path fill="#8F8F8E" d="M61.35,110.976h0.434h1.164h1.677h2.021h5.326h3.257h3.589h20.458l12.835,1.554l4.75,1.319h0.302
								h0.075c0,0-0.013,0.008-0.032,0h0.038h0.155h0.62h1.029h1.144h1.345h11h11h5.392c0,0,1.772-0.005,2.649-0.005h0.164h0.041
								c-0.204,0.009-0.033,0-0.066,0.002l0.08-0.007l0.328-0.025l0.326-0.027c0.099-0.012,0.137-0.042,0.205-0.059
								c0.131-0.053,0.241-0.039,0.396-0.118c0.146-0.068,0.295-0.133,0.444-0.194c0.57-0.326,1.069-0.798,1.455-1.364
								c0.088-0.151,0.187-0.292,0.272-0.442c0.066-0.163,0.136-0.325,0.21-0.484l0.056-0.123l0.062-0.169l0.121-0.335l0.242-0.668
								c0.646-1.776,1.278-3.515,1.894-5.209c1.229-3.385,2.392-6.585,3.438-9.553c0.264-0.739,0.521-1.465,0.774-2.175
								c0.126-0.355,0.25-0.705,0.373-1.051c0.058-0.158,0.247-0.751,0.241-0.87c0.021-0.102,0.043-0.212,0.051-0.352
								c0.013-0.13,0.03-0.261,0.023-0.391c0.01-0.26-0.014-0.517-0.046-0.765c-0.071-0.499-0.221-0.969-0.434-1.377
								c-0.421-0.821-1.048-1.398-1.709-1.68c-0.084-0.033-0.167-0.066-0.247-0.099c-0.076-0.033-0.218-0.073-0.322-0.109
								c-0.223-0.074-0.442-0.146-0.656-0.217c-0.43-0.142-2.898-0.845-2.898-0.845l-3.606-0.438l-2.834-0.011l0.848-3.267
								l2.81,0.098l3.563,0.614c0,0,2.463,0.731,2.889,0.887c0.212,0.078,0.429,0.158,0.65,0.24
								c0.117,0.045,0.206,0.071,0.354,0.135c0.143,0.062,0.285,0.123,0.431,0.187c1.14,0.548,2.246,1.568,2.956,3.009
								c0.718,1.437,1.021,3.237,0.634,5.124l-0.081,0.373l-0.081,0.267l-0.078,0.262l-0.067,0.206l-0.046,0.129
								c-0.121,0.348-0.244,0.698-0.368,1.053c-0.249,0.713-0.501,1.44-0.761,2.182c-1.044,2.969-2.146,6.198-3.314,9.613
								c-0.581,1.708-1.18,3.463-1.793,5.256l-0.229,0.674l-0.115,0.339l-0.059,0.171l-0.082,0.203l-0.354,0.828
								c-0.139,0.264-0.297,0.514-0.45,0.77c-0.648,0.986-1.496,1.813-2.477,2.378l-0.765,0.354
								c-0.246,0.123-0.576,0.184-0.865,0.265c-0.144,0.031-0.315,0.079-0.435,0.094l-0.325,0.032l-0.329,0.029l-0.08,0.01
								c-0.063,0.004,0.08-0.001-0.151,0.008h-0.041h-0.164c-0.877,0-2.649,0-2.649,0h-5.392h-11h-11h-1.37h-1.548h-1.602h-0.648
								h-0.163h-0.04c-0.045-0.019-0.111,0-0.111,0h-0.081h-0.319l-5.407,1.32l-11.162,1.477h-22.98h-3.795c0,0-3.512,0.034-3.404,0
								c0.107-0.034-5.502,0-5.502,0h-1.987h-1.284h-0.672h-0.195L61.35,110.976z"/>
							<circle fill="#373636" cx="197.811" cy="105.825" r="1.439"/>
							<polygon fill="#373636" points="141.979,86.053 155.604,86.053 152.71,94.673 144.578,94.673 							"/>
							<path fill="#8F8F8E" d="M155.599,86.055h-13.61v-3.341c0-2.09,1.693-3.785,3.784-3.785h6.044
								c2.089,0,3.782,1.695,3.782,3.785V86.055z"/>
							<g>
								<path fill="#373636" d="M138.309,78.331c0,0-0.237,10.499-2.23,12.226c-1.993,1.728-3.057,1.402-3.057,1.402h-12.226
									c0,0-2.259-0.339-3.189-1.27c-0.931-0.93-2.392-4.784-3.323-6.776c-0.93-1.994-1.391-4.652-1.391-4.652
									s-0.204-0.597,0.793-1.263c0.996-0.664,5.116-0.332,5.116-0.332s7.044,0.332,8.173,0.398
									c1.129,0.066,9.502,0.332,10.166,0.066c0.665-0.265,1.168-0.199,1.168-0.199V78.331z"/>
								<path fill="#8F8F8E" d="M136.246,79.546c0,0-0.195,8.661-1.838,10.086c-1.645,1.423-2.521,1.156-2.521,1.156h-10.085
									c0,0-1.863-0.28-2.631-1.047c-0.767-0.768-1.973-3.947-2.74-5.591c-0.768-1.644-1.148-3.836-1.148-3.836
									s-0.167-0.493,0.654-1.042c0.823-0.548,4.221-0.274,4.221-0.274s5.81,0.274,6.741,0.329
									c0.932,0.054,7.837,0.273,8.386,0.054c0.547-0.219,0.961-0.164,0.961-0.164V79.546z"/>
							</g>
						</g>
					</g>
				</g>
			</g>
		</g>
	</g>
</g>
<g id="Layer_2">
</g>
</svg>
