<svg id="Layer_1" data-name="Layer 1" xmlns="http://www.w3.org/2000/svg" viewBox="0 0 96.04 13.04">
  <g>
    <path d="M6.13,12h-4V2.78H5.68A5.2,5.2,0,0,1,7.3,3a2.29,2.29,0,0,1,1,.61,2.39,2.39,0,0,1,.62,1.61,1.88,1.88,0,0,1-.7,1.6,2,2,0,0,1-.33.23l-.33.16A2.35,2.35,0,0,1,8.94,8a2.12,2.12,0,0,1,.51,1.45,2.47,2.47,0,0,1-.66,1.7A3.45,3.45,0,0,1,6.13,12m-2-5.48h1A3.16,3.16,0,0,0,6.4,6.32a.77.77,0,0,0,.42-.79.82.82,0,0,0-.39-.81,2.87,2.87,0,0,0-1.29-.2h-1Zm0,3.74h1.4A3.23,3.23,0,0,0,6.89,10a.86.86,0,0,0,.44-.86.83.83,0,0,0-.47-.84,4.14,4.14,0,0,0-1.49-.2H4.16Z" fill="#fff"/>
    <rect x="10.78" y="2.78" width="2.05" height="9.21" fill="#fff"/>
    <polygon points="31.01 2.78 31.01 4.61 26.43 4.61 26.43 6.51 30.55 6.51 30.55 8.26 26.43 8.26 26.43 10.17 31.16 10.17 31.16 11.99 24.37 11.99 24.37 2.78 31.01 2.78" fill="#fff"/>
    <polygon points="17.07 11.99 17.07 10.24 15.52 11.99 17.07 11.99" fill="#fff"/>
    <path d="M19.73,7.27,18.34,8.82,20.7,12h2.39c-.42-.59-1.05-1.49-1.91-2.68l-1.45-2" fill="#fff"/>
    <polygon points="22.18 0.96 17.07 6.56 17.07 2.78 15.02 2.78 15.02 11.41 15.02 11.99 17.07 9.64 18.09 8.48 19.47 6.91 20.77 5.43 23.09 2.78 24.69 0.96 22.18 0.96" fill="#fff"/>
    <path d="M38.21,11.82h-4V2.71h3.54a5.07,5.07,0,0,1,1.6.22,2.2,2.2,0,0,1,1,.6A2.32,2.32,0,0,1,41,5.12a1.89,1.89,0,0,1-.68,1.59,2.86,2.86,0,0,1-.34.23l-.32.15A2.39,2.39,0,0,1,41,7.85a2.16,2.16,0,0,1,.5,1.44A2.48,2.48,0,0,1,40.85,11a3.47,3.47,0,0,1-2.64.85M35.76,6.49h2c1.11,0,1.67-.38,1.67-1.14A1.09,1.09,0,0,0,39,4.41a2.18,2.18,0,0,0-1.25-.28h-2Zm0,3.91h2.42a2.53,2.53,0,0,0,1.29-.27,1.08,1.08,0,0,0,.45-1c0-.81-.65-1.21-1.94-1.21H35.76Z" fill="#fff"/>
    <path d="M44.61,9.74l-.91,2.08H42.06l4-9.11h1.64l4,9.11H50.09l-.91-2.08Zm3.94-1.42L46.89,4.57,45.24,8.32Z" fill="#fff"/>
    <polygon points="57.65 4.12 52.51 4.12 52.51 2.71 59.78 2.71 59.78 3.91 54.49 10.36 54.49 10.4 59.86 10.4 59.86 11.82 52.34 11.82 52.34 10.63 57.65 4.15 57.65 4.12" fill="#fff"/>
    <path d="M63.08,9.74l-.91,2.08H60.53l4-9.11h1.64l4,9.11H68.55l-.91-2.08ZM67,8.32,65.36,4.57,63.71,8.32Z" fill="#fff"/>
    <path d="M72.75,9.74l-.91,2.08H70.2l4-9.11h1.64l4,9.11H78.23l-.92-2.08Zm3.94-1.42L75,4.57,73.38,8.32Z" fill="#fff"/>
    <path d="M88.4,5.67a2.64,2.64,0,0,1-2,2.84l2.38,3.31H86.87L84.69,8.75h-2v3.07H81.13V2.71h3.39a4.87,4.87,0,0,1,3,.7,2.69,2.69,0,0,1,.9,2.26M86.36,7a1.65,1.65,0,0,0,.47-1.3,1.38,1.38,0,0,0-.49-1.23,3.21,3.21,0,0,0-1.72-.33h-2V7.36h1.92A2.82,2.82,0,0,0,86.36,7" fill="#fff"/>
    <polygon points="89.64 1.76 88.77 1.76 88.77 1.25 91.14 1.25 91.14 1.76 90.27 1.76 90.27 3.96 89.64 3.96 89.64 1.76" fill="#fff"/>
    <polygon points="93.95 3.96 93.95 2.33 93.15 3.68 92.86 3.68 92.07 2.37 92.07 3.96 91.48 3.96 91.48 1.25 92 1.25 93.01 2.93 94.02 1.25 94.53 1.25 94.54 3.96 93.95 3.96" fill="#fff"/>
  </g>
</svg>
