<?xml version="1.0" encoding="UTF-8"?>
<svg width="290px" height="179px" viewBox="0 0 290 179" version="1.1" xmlns="http://www.w3.org/2000/svg" xmlns:xlink="http://www.w3.org/1999/xlink">
    <!-- Generator: sketchtool 55.1 (78136) - https://sketchapp.com -->
    <title>88460452-B7FC-4514-A4AA-1E9A352D71E7</title>
    <desc>Created with sketchtool.</desc>
    <g id="Page-1" stroke="none" stroke-width="1" fill="none" fill-rule="evenodd">
        <g id="Bike-Bazaar-new-header" transform="translate(-82.000000, -1278.000000)" fill="#000000">
            <g id="Motorcycle" transform="translate(40.000000, 1229.000000)">
                <g id="motorcycle-icon" transform="translate(187.000000, 138.500000) scale(-1, 1) translate(-187.000000, -138.500000) translate(42.000000, 49.000000)">
                    <g id="Group">
                        <path d="M27.9250181,133.806019 C27.9250181,142.920871 35.5409321,150.212752 44.6074965,150.212752 C53.6740608,150.212752 60.9273122,142.920871 60.9273122,133.806019 C60.9273122,129.066297 59.1139994,124.691168 55.8500362,121.774416 L51.1354228,130.889267 L48.2341222,136.722772 L48.2341222,136.722772 C47.508797,138.181148 46.0581468,138.545742 44.2448339,138.545742 L44.2448339,138.545742 C43.5195087,138.181148 43.1568462,138.181148 42.431521,137.816554 C41.7061959,137.816554 41.3435333,137.45196 40.9808707,137.087366 C39.5302204,135.62899 39.1675579,134.170614 39.892883,132.347643 L39.892883,132.347643 L43.5195087,125.420356 L47.508797,117.399287 C37.354245,115.576317 27.9250181,123.232792 27.9250181,133.806019 Z M48.9594473,129.066297 L45.6954842,126.878732 L44.970159,128.337109 C46.0581468,128.337109 47.1461345,129.066297 47.8714596,129.795485 L47.8714596,129.795485 C48.2341222,129.795485 48.2341222,130.160079 48.5967848,130.524673 L48.9594473,129.066297 Z M44.6074965,131.253861 L44.970159,131.253861 L44.6074965,131.253861 L44.6074965,131.253861 L44.6074965,131.253861 Z M43.5195087,132.712237 L43.5195087,132.347643 L43.5195087,132.347643 L43.5195087,132.347643 L43.5195087,132.712237 Z M44.970159,134.170614 L44.6074965,134.170614 L44.6074965,134.170614 L44.6074965,134.170614 L44.970159,134.170614 Z M46.4208093,132.347643 L46.4208093,132.712237 L46.4208093,132.347643 L46.4208093,132.347643 L46.4208093,132.347643 Z" id="Shape"></path>
                        <path d="M166.462121,82.3982572 C166.462121,82.3982572 163.56082,70.7312474 156.307569,64.5331484 C149.054317,57.9704553 138.537103,55.4182969 128.019888,54.3245147 C128.019888,53.9599207 128.019888,52.8661385 128.019888,52.1369504 C128.019888,51.0431682 127.294563,50.3139801 126.206575,50.3139801 L118.227999,50.3139801 C117.502674,50.3139801 116.777348,51.0431682 116.777348,52.1369504 L116.777348,53.9599207 C118.953324,53.9599207 105.534809,53.2307325 100.457533,53.5953266 L93.5669438,65.6269305 L99.7322075,82.3982572 L166.462121,82.3982572 Z" id="Path"></path>
                        <path d="M244.797237,78.3877226 C259.666402,72.1896236 250.9625,53.5953266 250.237175,55.0537028 L240.445286,58.6996434 C228.840083,56.8766731 223.037482,60.5226137 212.157605,64.5331484 L169.000759,63.0747721 C164.286146,63.0747721 163.56082,63.4393662 159.934195,65.9915246 C163.923483,71.0958414 166.099458,76.2001582 167.912771,82.3982572 C186.771225,82.0336632 229.202746,84.9504156 244.797237,78.3877226 Z" id="Path"></path>
                        <path d="M167.187446,116.305505 L164.648808,117.034693 L164.648808,115.576317 L153.043606,115.576317 L153.043606,112.659564 L146.153017,112.659564 L145.790354,105.732277 C145.790354,105.732277 141.438403,105.732277 138.17444,105.732277 L139.625091,114.11794 L139.625091,114.11794 L139.625091,114.847128 L139.987753,116.305505 L138.537103,116.305505 L138.17444,116.670099 L121.129299,120.316039 L120.766637,120.316039 L119.678649,120.680633 L118.953324,119.586851 L118.953324,119.222257 L118.227999,117.763881 L116.052023,118.493069 L122.942612,141.097901 L166.099458,141.097901 C165.736796,140.733307 165.736796,140.004118 165.736796,139.27493 C165.736796,138.181148 166.099458,137.087366 166.824784,136.358178 L166.824784,136.358178 C167.187446,136.358178 167.187446,135.993584 167.912771,135.62899 L168.275434,135.264396 C169.726084,133.441425 170.814072,131.983049 171.90206,130.160079 L171.90206,118.493069 L169.000759,118.493069 L167.912771,118.493069 L167.550109,117.763881 L167.187446,116.305505 Z M134.547815,119.951445 C129.107876,119.951445 125.118588,124.326574 125.118588,129.430891 C125.118588,134.535208 129.107876,138.910336 134.547815,138.910336 C139.625091,138.910336 143.614379,134.535208 143.614379,129.430891 C143.614379,124.326574 139.625091,119.951445 134.547815,119.951445 Z M156.670231,119.951445 C151.592955,119.951445 147.603667,124.326574 147.603667,129.430891 C147.603667,134.535208 151.592955,138.910336 156.670231,138.910336 C162.11017,138.910336 166.099458,134.535208 166.099458,129.430891 C166.099458,124.326574 162.11017,119.951445 156.670231,119.951445 Z" id="Shape"></path>
                        <path d="M128.745213,123.597386 C130.195864,122.13901 132.009177,121.409821 134.547815,121.409821 C136.72379,121.409821 138.537103,122.13901 139.987753,123.597386 C141.438403,125.055762 142.526391,127.243326 142.526391,129.430891 C142.526391,131.618455 141.438403,133.806019 139.987753,135.264396 C138.537103,136.722772 136.72379,137.816554 134.547815,137.816554 C132.009177,137.816554 130.195864,136.722772 128.745213,135.264396 C127.294563,133.806019 126.206575,131.618455 126.206575,129.430891 C126.206575,127.243326 127.294563,125.055762 128.745213,123.597386 Z" id="Path"></path>
                        <path d="M156.670231,121.409821 C161.384845,121.409821 165.011471,125.055762 165.011471,129.430891 C165.011471,133.806019 161.384845,137.816554 156.670231,137.816554 C152.318281,137.816554 148.691655,133.806019 148.691655,129.430891 C148.691655,125.055762 152.318281,121.409821 156.670231,121.409821 Z" id="Path"></path>
                        <path d="M204.904354,86.7733859 L209.618967,93.700673 L193.299151,117.399287 L184.59525,117.399287 C184.232587,117.034693 183.507262,116.670099 182.781937,116.670099 L182.419274,116.670099 L179.517974,115.576317 C179.155311,115.211723 178.792648,115.211723 178.429986,114.847128 C178.067323,114.847128 177.704661,114.482534 177.341998,114.482534 L177.341998,114.482534 L176.979336,114.482534 L176.979336,114.482534 L176.979336,114.482534 C176.25401,114.482534 175.528685,114.847128 175.166023,115.576317 L175.166023,115.576317 C174.80336,115.940911 174.440698,116.670099 174.440698,117.399287 L169.000759,117.034693 L166.099458,109.378218 L157.395557,109.378218 L157.395557,91.5131087 L162.472833,91.5131087 L167.187446,86.7733859 L192.211164,86.7733859 C192.211164,87.13798 191.848501,87.5025741 191.848501,87.8671681 C191.848501,88.9609503 192.936489,89.6901384 194.024476,90.4193265 L194.024476,90.4193265 C195.112464,90.7839206 196.200452,90.7839206 197.651102,90.7839206 C199.101753,90.7839206 200.18974,90.7839206 201.277728,90.4193265 L201.277728,90.4193265 C202.728378,89.6901384 203.453703,88.9609503 203.453703,87.8671681 C203.453703,87.5025741 203.453703,87.13798 203.091041,86.7733859 L204.904354,86.7733859 Z M167.912771,103.909307 L169.726084,110.836594 L170.814072,110.472 L169.000759,103.544713 L167.912771,103.909307 Z M170.814072,103.909307 L172.990047,110.836594 L174.078035,110.472 L171.90206,103.544713 L170.814072,103.909307 Z M173.715372,103.909307 L175.891348,110.836594 L176.979336,110.472 L174.80336,103.544713 L173.715372,103.909307 Z M165.374133,95.5236433 L167.550109,102.45093 L168.638096,102.086336 L166.462121,95.1590493 L165.374133,95.5236433 Z M168.275434,95.5236433 L170.451409,102.45093 L171.539397,102.086336 L169.363422,95.1590493 L168.275434,95.5236433 Z M171.176734,95.5236433 L173.35271,102.45093 L174.440698,102.086336 L172.264722,95.1590493 L171.176734,95.5236433 Z" id="Shape"></path>
                        <ellipse id="Oval" cx="197.651102" cy="87.8671681" rx="4.35195087" ry="1.82297029"></ellipse>
                        <path d="M253.138476,72.9188117 C269.820954,75.4709701 279.250181,81.3044751 289.404733,103.180119 L274.89823,98.0758017 C271.271605,92.2422968 267.644979,88.5963562 263.65569,86.4087919 C267.644979,79.4815048 256.765102,72.9188117 253.863801,80.2106929 L247.698537,80.2106929 C245.885224,80.2106929 245.159899,81.3044751 245.159899,82.7628513 C243.346586,82.7628513 240.082623,82.3982572 237.543985,81.6690691 C243.709249,80.5752869 250.237175,78.7523166 253.138476,72.9188117 Z" id="Path"></path>
                        <path d="M259.666402,87.8671681 C261.479715,87.13798 262.930365,85.3150097 262.930365,83.1274453 C262.930365,80.939881 261.479715,79.1169107 259.666402,78.7523166 L259.666402,87.8671681 Z" id="Path"></path>
                        <path d="M258.215752,88.2317622 L258.215752,78.3877226 C256.402439,78.3877226 255.314451,79.8460988 254.951789,81.6690691 L247.698537,81.6690691 C246.247887,81.6690691 246.247887,84.2212275 247.698537,84.2212275 L254.951789,84.2212275 C255.314451,86.4087919 256.402439,88.2317622 258.215752,88.2317622 Z" id="Path"></path>
                        <path d="M105.897471,114.11794 L114.601373,136.358178 C116.414686,138.181148 118.227999,140.004118 120.403974,141.462495 L109.161434,110.836594 C107.710784,111.930376 106.985459,112.659564 105.897471,114.11794 Z" id="Path" fill-rule="nonzero"></path>
                        <path d="M95.7429192,51.0431682 L87.7643426,64.8977424 L103.721496,107.555247 C104.446821,106.461465 105.534809,105.732277 106.985459,105.003089 L92.1162935,65.2623365 L99.0068824,53.2307325 L95.7429192,51.0431682 Z" id="Path" fill-rule="nonzero"></path>
                        <path d="M229.928071,90.0547325 L233.91736,102.086336 L237.906648,110.836594 L237.181323,114.11794 L236.81866,115.940911 L237.906648,115.576317 L238.631973,112.659564 L239.719961,115.576317 C240.445286,115.576317 241.170611,115.576317 241.895936,115.576317 L246.61055,101.357148 C247.698537,101.357148 248.423862,101.721742 249.149188,101.721742 L247.698537,116.670099 C248.0612,117.034693 248.423862,117.034693 248.786525,117.399287 L250.9625,115.211723 L250.599838,117.034693 L252.050488,116.670099 L252.413151,113.753346 L259.666402,106.826059 C261.117052,107.555247 262.20504,108.649029 263.293028,109.742812 L255.677114,115.211723 L258.578414,114.11794 L259.30374,114.11794 L264.381016,110.472 C265.106341,111.565782 265.831666,112.29497 266.556991,113.388752 L265.831666,114.482534 L266.194328,115.576317 L267.282316,114.482534 C268.007641,115.211723 268.732967,115.940911 269.095629,117.034693 L267.282316,118.493069 L267.644979,119.586851 L269.820954,118.128475 C270.546279,119.586851 271.271605,121.045227 271.634267,122.503604 L269.458292,122.868198 L268.007641,124.326574 L271.99693,123.597386 C272.359592,125.420356 272.722255,126.878732 273.084917,128.337109 L264.018353,127.972515 L260.75439,129.066297 L273.44758,129.430891 C273.44758,130.524673 273.44758,131.253861 273.44758,132.347643 L268.007641,133.076831 L268.370304,134.535208 L273.44758,133.441425 C273.44758,134.535208 273.44758,135.62899 273.44758,136.722772 L268.370304,137.087366 L268.370304,138.181148 L273.084917,137.816554 C273.084917,139.639524 272.722255,141.097901 271.99693,142.920871 L268.370304,140.733307 L267.282316,141.462495 L271.99693,144.014653 C271.271605,145.473029 270.546279,146.931406 269.820954,148.389782 L264.381016,143.650059 L263.293028,144.379247 L269.458292,149.483564 L269.095629,149.848158 L257.853089,145.473029 L254.589126,145.837623 L255.677114,148.025188 L253.138476,146.566812 C252.775813,147.296 252.050488,147.660594 251.325163,148.025188 L256.402439,162.244356 C255.677114,162.60895 254.951789,162.973544 254.226464,163.338138 L246.247887,150.577346 C245.885224,150.94194 245.159899,150.94194 244.797237,150.94194 L244.434574,153.858693 L242.983924,151.306534 C242.258599,151.306534 241.533274,151.306534 241.170611,151.306534 L236.81866,165.890297 C235.36801,165.525703 234.280022,165.161109 232.829372,164.796514 L234.642685,150.212752 C233.91736,149.848158 233.554697,149.848158 233.192034,149.483564 L231.016059,151.671128 L231.378721,149.483564 L230.290734,149.848158 L229.565409,153.129505 L222.312157,160.056792 C221.224169,159.327604 219.773519,158.233821 218.685531,157.140039 L228.840083,149.848158 L225.938783,150.212752 L217.960206,156.046257 C217.234881,155.681663 216.872219,154.952475 216.509556,154.587881 L219.048194,151.306534 L217.234881,151.671128 L215.421568,153.494099 C215.058906,153.129505 215.058906,152.764911 214.696243,152.035722 L201.277728,154.223287 C208.893642,168.442455 223.762807,178.286495 241.170611,178.286495 C265.831666,178.286495 285.778107,158.233821 285.778107,133.441425 C285.778107,103.909307 258.215752,82.7628513 229.928071,90.0547325 Z M245.885224,152.035722 L253.138476,163.702732 C252.050488,164.067326 250.9625,164.43192 249.874513,164.796514 L245.159899,155.681663 L245.885224,152.035722 Z M241.895936,152.035722 L244.071912,155.681663 L242.621261,165.890297 C242.258599,165.890297 241.533274,165.890297 241.170611,165.890297 C240.082623,165.890297 238.994636,165.890297 237.906648,165.890297 L241.895936,152.035722 Z M245.159899,157.504633 L248.786525,165.161109 C247.335875,165.525703 245.522562,165.890297 244.071912,165.890297 L245.159899,157.504633 Z M233.192034,150.94194 L231.741384,164.796514 C230.653396,164.43192 229.928071,164.067326 228.840083,163.702732 L230.653396,153.494099 L233.192034,150.94194 Z M229.202746,154.952475 L227.752096,162.973544 C226.301445,162.60895 224.850795,161.515168 223.400145,160.78598 L229.202746,154.952475 Z M240.807948,114.847128 L238.994636,110.836594 L240.807948,100.992554 C242.258599,100.62796 244.071912,100.992554 245.522562,100.992554 L240.807948,114.847128 Z M238.26931,108.649029 L234.642685,101.357148 C236.455998,100.992554 237.906648,100.992554 239.719961,100.992554 L238.26931,108.649029 Z M248.786525,115.576317 L250.237175,102.086336 C251.325163,102.45093 252.413151,102.815525 253.501138,103.180119 L251.325163,113.024158 L248.786525,115.576317 Z M252.775813,111.565782 L254.589126,103.544713 C256.039776,104.273901 257.490427,105.003089 258.578414,106.096871 L252.775813,111.565782 Z M255.677114,145.837623 L268.370304,150.94194 C268.007641,152.035722 267.282316,152.764911 266.556991,153.494099 L257.490427,148.754376 L255.677114,145.837623 Z M252.775813,147.660594 L256.402439,149.848158 L261.479715,158.96301 C260.029065,159.692198 258.941077,160.78598 257.490427,161.515168 L252.775813,147.660594 Z M258.215752,150.577346 L265.831666,154.587881 C264.743678,155.681663 263.65569,157.140039 262.20504,158.233821 L258.215752,150.577346 Z" id="Shape"></path>
                        <path d="M225.938783,116.305505 L221.586832,107.555247 C222.312157,106.826059 223.400145,106.096871 224.488133,105.367683 L220.498844,93.336079 C218.322869,94.7944552 216.509556,95.8882374 214.333581,97.3466136 C216.509556,94.4298612 218.322869,91.5131087 220.136182,88.9609503 C218.685531,87.5025741 218.685531,85.3150097 219.773519,83.4920394 L219.773519,83.4920394 C209.98163,98.0758017 181.331286,137.45196 177.341998,143.285465 L122.942612,143.285465 C125.48125,145.108435 128.382551,146.566812 130.558526,147.296 L171.90206,147.296 L171.90206,146.931406 L171.90206,145.837623 L173.35271,145.837623 L179.155311,145.473029 L180.968624,144.743841 C183.507262,141.097901 190.397851,131.253861 198.376427,120.316039 C196.925777,124.326574 196.563114,128.701703 196.563114,133.441425 C196.563114,135.264396 196.563114,137.087366 196.563114,138.545742 L208.530979,133.806019 C208.530979,133.076831 208.530979,132.347643 208.893642,131.618455 L217.597544,130.160079 L222.312157,128.337109 L218.685531,129.066297 L209.98163,124.691168 C210.344292,122.868198 211.069617,121.409821 211.43228,119.951445 L223.037482,128.337109 L224.12547,127.60792 L212.157605,118.857663 C212.520268,118.128475 213.245593,117.034693 213.608255,115.940911 L227.389433,122.13901 C227.752096,121.774416 227.752096,121.409821 228.114758,121.045227 L226.664108,118.128475 L229.565409,119.586851 L230.290734,118.857663 L225.938783,116.305505 Z M216.872219,129.430891 L208.893642,130.524673 C208.893642,128.701703 209.256305,127.243326 209.618967,125.78495 L216.872219,129.430891 Z M226.664108,120.316039 L214.333581,114.847128 C215.058906,114.11794 215.784231,113.388752 216.146893,112.29497 L224.850795,117.399287 L226.664108,120.316039 Z M224.12547,115.576317 L217.234881,111.565782 C218.322869,110.472 219.410857,109.378218 220.498844,108.284435 L224.12547,115.576317 Z" id="Shape"></path>
                        <polygon id="Path" fill-rule="nonzero" points="136.361127 104.273901 139.262428 102.815525 136.72379 92.9714849 110.974747 100.62796 113.513385 110.107406 116.414686 109.378218 120.403974 118.857663 138.17444 115.211723"></polygon>
                        <path d="M264.155642,53.2179918 L262.505717,60.3607715 L260.891679,66.707972 L264.155642,66.707972 L270.699949,82.9087679 C270.699949,82.9087679 269.879638,83.7193278 268.428987,83.7193278 C264.439699,76.4274466 259.941776,70.4543222 255.589825,66.4437875 L258.261755,51.7956406 L264.155642,53.2179918 Z" id="Path" transform="translate(263.144887, 67.757484) rotate(-23.000000) translate(-263.144887, -67.757484) "></path>
                        <polygon id="Path" transform="translate(263.369148, 59.359787) rotate(2.000000) translate(-263.369148, -59.359787) " points="265.711437 53.941131 260.978286 54.1064163 261.045396 56.028185 261.045396 64.0492543 261.045396 64.4138483 261.070387 64.7649052 265.760009 64.7784424"></polygon>
                        <path d="M228.114758,88.2317622 L226.664108,88.5963562 C226.664108,88.9609503 226.664108,88.9609503 226.301445,89.3255443 C225.57612,90.0547325 224.488133,90.4193265 223.400145,90.4193265 C222.67482,90.4193265 222.312157,90.4193265 221.949495,90.0547325 L221.224169,90.4193265 L226.664108,108.649029 L233.554697,106.461465 L228.114758,88.2317622 Z" id="Path"></path>
                        <ellipse id="Oval" cx="223.400145" cy="86.0441978" rx="2.90130058" ry="2.91675247"></ellipse>
                        <path d="M109.88676,102.45093 L108.073447,103.180119 C108.436109,103.909307 108.436109,105.003089 108.798772,105.732277 C83.7750543,118.128475 116.414686,152.400316 132.734502,153.494099 C138.17444,153.858693 173.715372,154.223287 173.715372,154.223287 C173.715372,154.223287 173.35271,155.681663 178.067323,155.681663 C180.605961,156.046257 209.618967,151.671128 232.829372,148.025188 C235.36801,149.11897 238.26931,149.848158 241.170611,149.848158 C245.885224,149.848158 250.237175,148.025188 253.138476,144.743841 L262.567703,143.285465 L267.282316,139.639524 L266.919654,133.441425 L261.117052,130.889267 C258.457527,130.160079 257.006877,129.430891 256.765102,128.701703 L263.65569,126.514138 L267.644979,122.868198 L264.743678,115.576317 L258.941077,115.576317 L249.51185,119.222257 C245.885224,117.034693 241.533274,116.305505 237.181323,117.399287 L238.994636,123.232792 L233.192034,125.78495 L231.016059,120.316039 C228.114758,122.503604 226.301445,125.420356 225.213458,128.701703 L179.517974,146.931406 L173.35271,146.931406 L173.35271,149.483564 C160.296857,149.483564 147.241005,149.483564 134.185152,149.11897 C122.217287,149.11897 89.2149929,120.680633 109.524097,109.013624 L109.88676,110.107406 L112.062735,109.378218 L109.88676,102.45093 Z M225.938783,140.004118 L183.507262,151.306534 L225.213458,138.181148 C225.57612,138.910336 225.938783,139.639524 225.938783,140.004118 Z" id="Shape"></path>
                        <polygon id="Path" points="237.181323 122.503604 235.36801 114.847128 230.653396 116.670099 233.91736 123.96198"></polygon>
                        <path d="M227.902691,108.882396 L233.83047,108.891123 C234.2507,108.891741 234.591208,109.232252 234.591824,109.652481 C234.592437,110.071117 234.253563,110.410987 233.834926,110.4116 C233.834184,110.411601 233.833441,110.411601 233.832699,110.4116 L227.90492,110.402873 C227.484691,110.402255 227.144183,110.061744 227.143567,109.641515 C227.142953,109.222879 227.481828,108.883009 227.900464,108.882396 C227.901207,108.882394 227.901949,108.882394 227.902691,108.882396 Z" id="Rectangle" transform="translate(230.867695, 109.646998) scale(-1, 1) rotate(16.790355) translate(-230.867695, -109.646998) "></path>
                        <path d="M229.304175,111.264249 L234.026361,111.271126 C234.44659,111.271737 234.7871,111.61225 234.78771,112.032479 C234.788317,112.451134 234.449422,112.791012 234.030768,112.791619 C234.030033,112.79162 234.029299,112.79162 234.028565,112.791619 L229.306379,112.784743 C228.88615,112.784131 228.54564,112.443619 228.54503,112.023389 C228.544423,111.604735 228.883318,111.264856 229.301972,111.264249 C229.302707,111.264248 229.303441,111.264248 229.304175,111.264249 Z" id="Rectangle" transform="translate(231.666370, 112.027934) scale(-1, 1) rotate(16.582452) translate(-231.666370, -112.027934) "></path>
                        <path d="M90.6656432,49.2201979 L89.5776555,48.4910098 L90.6656432,45.5742573 L102.633508,33.5426534 L107.348122,33.5426534 L109.524097,36.0948118 L110.249422,35.7302177 C110.612085,36.0948118 110.974747,36.0948118 111.700072,36.0948118 C112.425398,36.0948118 113.513385,35.7302177 113.876048,35.3656237 L120.041312,36.4594059 C121.854624,37.553188 124.0306,36.0948118 124.0306,33.9072474 C124.0306,32.0842772 122.942612,30.990495 121.491962,30.6259009 L114.601373,30.6259009 C114.23871,29.8967128 113.513385,29.1675247 112.78806,28.8029306 L111.33741,26.6153663 L109.524097,26.2507722 L108.073447,28.4383366 L105.172146,28.4383366 L106.622796,15.3129505 L107.348122,15.3129505 C108.073447,17.1359208 109.524097,16.4067326 109.161434,14.9483564 L112.062735,14.2191683 L112.78806,16.7713267 C113.150723,17.8651089 114.601373,17.8651089 114.23871,16.7713267 C113.513385,12.760792 112.78806,9.11485146 112.062735,5.46891088 C111.700072,4.3751287 110.249422,4.73972276 110.249422,5.46891088 C110.612085,7.65647523 110.974747,9.84403958 110.974747,11.6670099 L108.436109,12.760792 L105.172146,0.729188117 C104.809484,8.32667268e-16 103.721496,0.364594059 103.721496,1.09378218 C104.084158,3.28134653 104.446821,5.83350494 104.446821,8.02106929 L96.4682444,12.0316039 L103.358833,29.1675247 L99.369545,33.1780593 L87.7643426,43.751287 L87.4016801,44.4804751 L85.5883672,42.2929108 L86.3136923,41.5637227 L76.1591403,30.2613069 L73.6205023,32.4488712 L81.2364163,43.0220989 L83.4123918,43.0220989 L84.8630421,46.3034454 L72.169852,71.0958414 L78.3351157,74.0125939 L90.6656432,49.2201979 Z M106.622796,13.4899802 L105.897471,11.6670099 L99.7322075,13.1253861 L104.084158,26.9799603 L104.809484,13.8545742 L106.622796,13.4899802 Z" id="Shape"></path>
                        <polygon id="Path" points="87.4016801 40.4699405 89.5776555 38.2823761 80.1484286 27.3445544 77.6097906 29.5321187"></polygon>
                        <path d="M87.7643426,144.379247 L90.6656432,147.296 L92.8416187,147.296 C97.1935695,122.868198 87.7643426,103.180119 72.169852,92.6068909 C71.8071894,93.700673 70.7192017,94.0652671 69.9938766,94.0652671 L64.1912754,105.003089 C65.6419257,105.732277 67.4552386,107.555247 68.5432263,108.649029 L59.1139994,115.211723 L58.0260117,117.399287 L69.2685514,109.378218 C69.9938766,110.107406 70.7192017,111.201188 71.4445269,111.930376 L59.8393245,124.326574 C59.8393245,124.691168 60.2019871,125.055762 60.2019871,125.420356 L63.4659503,125.055762 L61.2899748,126.878732 C61.2899748,127.60792 61.6526374,128.337109 61.6526374,128.701703 L78.6977783,129.430891 C78.6977783,130.160079 78.6977783,131.253861 78.6977783,131.983049 L62.3779625,134.899802 C62.3779625,135.264396 62.3779625,135.993584 62.0153,136.358178 L64.553938,137.816554 L62.0153,137.816554 C61.6526374,138.545742 61.6526374,139.27493 61.2899748,140.004118 L74.3458274,150.577346 L74.3458274,150.577346 L58.7513368,144.379247 C58.7513368,144.743841 58.3886742,145.108435 58.0260117,145.473029 L59.1139994,148.025188 L56.9380239,146.566812 C56.2126988,147.296 55.4873737,147.660594 55.1247111,148.025188 L60.5646497,164.067326 C59.8393245,164.067326 59.1139994,164.43192 58.7513368,164.796514 L49.6847725,150.94194 C49.3221099,150.94194 48.5967848,150.94194 48.2341222,151.306534 L47.8714596,153.858693 L46.7834719,151.306534 C46.0581468,151.671128 45.3328216,151.671128 44.2448339,151.671128 L39.892883,167.348673 C38.4422327,167.348673 37.354245,166.984079 36.2662573,166.984079 L38.0795702,150.212752 C35.9035947,149.483564 36.6289199,149.483564 34.4529444,151.306534 L35.1782696,148.754376 C34.4529444,148.389782 33.7276193,148.025188 33.3649567,147.660594 L19.9464415,157.140039 C19.2211164,156.775445 18.8584538,156.410851 18.4957912,156.046257 L29.3756684,143.285465 C29.0130058,142.920871 29.0130058,142.556277 28.6503433,141.827089 L25.7490427,142.556277 L27.9250181,140.368713 C27.5623555,139.639524 27.5623555,139.27493 27.199693,138.545742 L10.5172146,138.545742 C10.5172146,137.816554 10.5172146,137.087366 10.154552,136.358178 L26.8370304,132.347643 C26.8370304,131.983049 26.8370304,131.618455 26.8370304,131.253861 L23.9357298,129.795485 L27.199693,129.430891 C27.199693,128.701703 27.5623555,127.972515 27.5623555,127.60792 L13.7811778,117.763881 C14.5065029,116.670099 14.8691655,115.940911 15.2318281,115.211723 L30.8263187,122.13901 C31.1889813,121.774416 31.5516438,121.409821 31.9143064,121.045227 L30.1009935,118.128475 L33.3649567,119.586851 C33.7276193,119.222257 34.0902819,119.222257 34.4529444,118.857663 L29.3756684,102.45093 C30.1009935,102.086336 31.1889813,101.357148 31.9143064,100.992554 L40.2555456,116.305505 C40.6182082,115.940911 40.9808707,115.940911 41.7061959,115.940911 L42.0688585,112.659564 L43.5195087,115.576317 L44.970159,115.576317 L50.7727602,99.534178 C51.4980853,99.534178 52.2234105,99.534178 52.9487356,99.898772 L51.8607479,108.284435 L53.6740608,105.003089 L54.0367234,100.263366 C54.7620485,100.263366 55.1247111,100.62796 55.8500362,100.62796 L61.6526374,89.3255443 C60.9273122,88.5963562 60.9273122,87.8671681 61.2899748,87.13798 C46.7834719,82.0336632 29.738331,83.8566335 13.7811778,94.7944552 L17.4078035,97.7112077 C6.89058888,105.732277 0,118.857663 0,133.441425 C0,158.233821 19.9464415,178.286495 44.6074965,178.286495 C65.2792631,178.286495 82.6870666,163.702732 87.7643426,144.379247 Z M49.3221099,152.035722 L57.6633491,165.161109 C56.5753614,165.890297 55.4873737,166.254891 54.3993859,166.254891 L48.5967848,155.681663 L49.3221099,152.035722 Z M45.6954842,151.671128 L47.508797,155.681663 L46.0581468,167.713267 C45.3328216,167.713267 44.970159,167.713267 44.6074965,167.713267 C43.1568462,167.713267 42.0688585,167.713267 40.9808707,167.713267 L45.6954842,151.671128 Z M48.5967848,157.504633 L53.3113982,166.619485 C51.1354228,167.348673 49.3221099,167.713267 47.1461345,167.713267 L48.5967848,157.504633 Z M36.6289199,150.94194 L35.1782696,166.619485 C34.0902819,166.254891 33.0022941,165.890297 31.9143064,165.525703 L34.0902819,153.494099 L36.6289199,150.94194 Z M34.0902819,148.389782 L33.0022941,152.764911 L24.661055,161.515168 C23.2104047,160.421386 21.7597544,159.327604 20.6717667,158.233821 L34.0902819,148.389782 Z M32.6396316,154.952475 L30.8263187,165.161109 C29.0130058,164.067326 27.199693,163.338138 25.3863801,162.244356 L32.6396316,154.952475 Z M27.9250181,143.285465 L17.7704661,154.952475 C17.0451409,154.223287 16.3198158,153.129505 15.9571532,152.400316 L24.2983924,143.650059 L27.9250181,143.285465 Z M27.199693,139.639524 L23.9357298,142.556277 L11.9678649,144.743841 C11.6052023,142.920871 11.2425398,141.462495 10.8798772,139.639524 L27.199693,139.639524 Z M22.4850795,144.014653 L15.2318281,151.306534 C14.1438403,149.483564 13.0558526,147.660594 12.3305275,145.837623 L22.4850795,144.014653 Z M25.0237175,131.618455 L10.154552,135.264396 C10.154552,134.535208 10.154552,133.806019 10.154552,133.441425 C10.154552,132.712237 10.154552,132.347643 10.154552,131.983049 L22.1224169,130.160079 L25.0237175,131.618455 Z M26.4743678,128.337109 L22.1224169,128.701703 L11.6052023,123.597386 C11.9678649,121.774416 12.6931901,120.316039 13.4185152,118.857663 L26.4743678,128.337109 Z M20.3091041,129.066297 L10.154552,130.524673 C10.5172146,128.701703 10.8798772,126.514138 11.2425398,124.691168 L20.3091041,129.066297 Z M30.1009935,120.316039 L15.9571532,114.11794 C16.6824784,113.024158 17.4078035,112.29497 18.1331286,111.565782 L28.6503433,117.034693 L30.1009935,120.316039 Z M33.3649567,118.493069 L29.3756684,116.305505 L23.9357298,105.732277 C25.3863801,104.638495 26.8370304,103.544713 28.2876807,102.815525 L33.3649567,118.493069 Z M27.5623555,115.211723 L18.8584538,110.472 C19.9464415,109.013624 21.3970918,107.555247 23.2104047,106.461465 L27.5623555,115.211723 Z M40.6182082,114.11794 L33.0022941,100.62796 C34.0902819,100.263366 35.1782696,99.898772 36.2662573,99.898772 L41.3435333,110.836594 L40.6182082,114.11794 Z M44.2448339,114.482534 L42.431521,110.472 L44.6074965,98.8049899 C46.4208093,98.8049899 47.8714596,98.8049899 49.6847725,99.1695839 L44.2448339,114.482534 Z M41.7061959,108.649029 L37.354245,99.534178 C39.5302204,99.1695839 41.3435333,98.8049899 43.5195087,98.8049899 L41.7061959,108.649029 Z M61.6526374,123.96198 L72.169852,113.024158 C72.8951771,113.753346 73.6205023,114.847128 73.9831649,115.576317 L64.9166005,123.597386 L61.6526374,123.96198 Z M62.0153,127.60792 L65.2792631,124.691168 L77.6097906,123.597386 C77.9724532,125.055762 78.3351157,126.878732 78.3351157,128.337109 L62.0153,127.60792 Z M67.092576,123.597386 L74.70849,116.670099 C75.4338152,118.493069 76.5218029,120.316039 77.247128,122.13901 L67.092576,123.597386 Z M63.4659503,135.62899 L78.6977783,133.076831 L78.6977783,133.441425 C78.6977783,134.170614 78.6977783,135.264396 78.6977783,136.358178 L66.7299134,137.45196 L63.4659503,135.62899 Z M62.0153,139.27493 L66.3672508,138.545742 L76.8844655,144.743841 C76.5218029,146.202217 75.7964777,148.025188 75.0711526,149.483564 L62.0153,139.27493 Z M68.5432263,138.545742 L78.6977783,137.45196 C78.3351157,139.639524 77.9724532,141.827089 77.247128,143.650059 L68.5432263,138.545742 Z M59.1139994,145.837623 L73.6205023,151.671128 C72.8951771,152.400316 72.5325146,153.494099 71.8071894,154.223287 L60.9273122,148.754376 L59.1139994,145.837623 Z M56.2126988,147.660594 L60.2019871,149.483564 L65.6419257,160.421386 C64.553938,161.515168 63.1032877,162.60895 61.6526374,163.338138 L56.2126988,147.660594 Z M62.0153,150.577346 L71.0818643,155.317069 C69.631214,156.775445 68.1805637,158.233821 66.7299134,159.692198 L62.0153,150.577346 Z" id="Shape"></path>
                        <path d="M82.324404,48.1264157 L71.0818643,39.3761583 L66.3672508,39.3761583 L66.3672508,66.7207127 L70.3565391,66.7207127 L73.2578397,65.6269305 L74.70849,63.0747721 C73.2578397,61.2518018 67.8179011,56.5120791 67.8179011,54.3245147 C67.8179011,49.584792 78.6977783,48.8556038 82.324404,48.1264157 Z" id="Path"></path>
                        <path d="M81.5990789,49.584792 C77.6097906,50.3139801 69.2685514,51.4077623 69.2685514,54.3245147 C69.2685514,55.4182969 72.8951771,59.4288315 75.4338152,61.6163959 L81.5990789,49.584792 Z" id="Path"></path>
                        <path d="M64.9166005,39.3761583 C62.0153,39.3761583 59.8393245,45.5742573 59.8393245,53.2307325 C59.8393245,60.5226137 62.0153,66.7207127 64.9166005,66.7207127 L64.9166005,39.3761583 Z" id="Path"></path>
                        <path d="M70.2394563,74.2124332 L78.3170694,74.1942483 C78.7347212,74.1933081 79.0740571,74.5311195 79.0749974,74.9487714 C79.0749999,74.9499047 79.0749999,74.9510381 79.0749974,74.9521715 C79.0740543,75.3722567 78.733744,75.7125692 78.3136588,75.7135149 L70.2360457,75.7316998 C69.8183939,75.73264 69.479058,75.3948285 69.4781177,74.9771767 C69.4781152,74.9760433 69.4781152,74.97491 69.4781177,74.9737766 C69.4790607,74.5536914 69.8193711,74.2133789 70.2394563,74.2124332 Z" id="Rectangle" transform="translate(74.276558, 74.962974) scale(-1, 1) rotate(-28.914530) translate(-74.276558, -74.962974) "></path>
                        <path d="M76.8844655,79.1169107 C74.3458274,78.0231285 71.8071894,76.5647523 69.631214,75.1063761 C69.2685514,75.1063761 68.9058888,75.1063761 68.5432263,75.4709701 C68.5432263,75.4709701 68.5432263,75.4709701 68.5432263,75.8355642 C68.1805637,75.8355642 68.5432263,76.5647523 68.9058888,76.5647523 C71.0818643,78.0231285 73.6205023,79.1169107 76.1591403,80.5752869 C76.1591403,80.939881 76.8844655,80.5752869 76.8844655,80.2106929 C76.8844655,80.2106929 76.8844655,80.2106929 76.8844655,80.2106929 C77.247128,79.8460988 76.8844655,79.4815048 76.8844655,79.1169107 Z" id="Path"></path>
                        <path d="M75.0711526,82.3982572 C72.8951771,80.939881 70.3565391,79.4815048 67.8179011,78.3877226 C67.8179011,78.0231285 67.092576,78.0231285 67.092576,78.3877226 C67.092576,78.3877226 67.092576,78.7523166 67.092576,78.7523166 C66.7299134,79.1169107 67.092576,79.4815048 67.092576,79.4815048 C69.631214,80.939881 72.169852,82.3982572 74.3458274,83.4920394 C74.70849,83.8566335 75.0711526,83.4920394 75.4338152,83.1274453 C75.4338152,83.1274453 75.4338152,83.1274453 75.4338152,83.1274453 C75.7964777,82.7628513 75.4338152,82.3982572 75.0711526,82.3982572 Z" id="Path"></path>
                        <path d="M73.6205023,85.3150097 C71.4445269,83.8566335 68.9058888,82.3982572 66.3672508,81.3044751 C66.0045883,80.939881 65.6419257,81.3044751 65.6419257,81.3044751 C65.6419257,81.6690691 65.6419257,81.6690691 65.6419257,81.6690691 C65.2792631,82.0336632 65.2792631,82.3982572 65.6419257,82.3982572 C68.1805637,83.8566335 70.7192017,85.3150097 72.8951771,86.4087919 C73.2578397,86.7733859 73.6205023,86.4087919 73.9831649,86.4087919 C73.9831649,86.0441978 73.9831649,86.0441978 73.9831649,86.0441978 C73.9831649,85.6796038 73.9831649,85.3150097 73.6205023,85.3150097 Z" id="Path"></path>
                        <path d="M72.169852,88.2317622 C69.631214,86.7733859 67.4552386,85.3150097 64.9166005,84.2212275 C64.553938,83.8566335 64.1912754,84.2212275 64.1912754,84.5858216 C64.1912754,84.5858216 63.8286128,84.5858216 63.8286128,84.5858216 C63.8286128,84.9504156 63.8286128,85.3150097 64.1912754,85.3150097 C66.7299134,86.7733859 68.9058888,88.2317622 71.4445269,89.3255443 C71.8071894,89.6901384 72.169852,89.6901384 72.5325146,89.3255443 C72.5325146,89.3255443 72.5325146,88.9609503 72.5325146,88.9609503 C72.5325146,88.5963562 72.5325146,88.2317622 72.169852,88.2317622 Z" id="Path"></path>
                        <path d="M70.7192017,91.1485146 C68.1805637,89.6901384 66.0045883,88.5963562 63.4659503,87.13798 C63.1032877,86.7733859 62.7406251,87.13798 62.3779625,87.5025741 C62.3779625,87.5025741 62.3779625,87.5025741 62.3779625,87.5025741 C62.3779625,87.8671681 62.3779625,88.2317622 62.7406251,88.5963562 C65.2792631,89.6901384 67.4552386,91.1485146 69.9938766,92.6068909 C70.3565391,92.6068909 70.7192017,92.6068909 70.7192017,92.2422968 C70.7192017,92.2422968 70.7192017,92.2422968 71.0818643,91.8777028 C71.0818643,91.8777028 71.0818643,91.1485146 70.7192017,91.1485146 Z" id="Path"></path>
                        <path d="M68.9058888,92.9714849 L62.7406251,89.6901384 L40.9808707,133.076831 C39.5302204,136.358178 45.6954842,138.545742 47.1461345,135.993584 L68.9058888,92.9714849 Z M44.970159,129.795485 C43.5195087,129.795485 42.0688585,131.253861 42.0688585,132.712237 C42.0688585,134.170614 43.5195087,135.62899 44.970159,135.62899 C46.4208093,135.62899 47.8714596,134.170614 47.8714596,132.712237 C47.8714596,131.253861 46.4208093,129.795485 44.970159,129.795485 Z" id="Shape"></path>
                        <ellipse id="Oval" cx="44.970159" cy="132.712237" rx="1.45065029" ry="1.45837623"></ellipse>
                        <path d="M131.646514,83.8566335 L134.547815,90.4193265 L145.065029,90.4193265 L145.065029,86.0441978 L151.592955,86.0441978 L151.592955,92.2422968 L155.944906,92.2422968 L155.944906,99.898772 L152.318281,99.898772 L152.318281,100.992554 L153.406268,100.992554 L153.406268,103.180119 L142.526391,103.180119 L142.526391,100.992554 L143.977041,100.992554 L143.977041,99.898772 C143.977041,99.898772 141.801066,99.898772 139.987753,99.898772 C139.262428,96.9820196 138.537103,94.0652671 137.811778,91.1485146 C127.657226,94.0652671 117.865336,96.9820196 108.073447,100.263366 L108.436109,96.9820196 L111.700072,96.9820196 L110.612085,93.336079 L110.612085,88.2317622 L113.150723,88.2317622 L113.150723,83.8566335 L131.646514,83.8566335 Z" id="Path"></path>
                        <path d="M230.779769,113.622299 L234.061455,113.627079 C234.481685,113.627691 234.822195,113.968203 234.822804,114.388433 C234.823411,114.807087 234.484517,115.146965 234.065863,115.147572 C234.065128,115.147573 234.064394,115.147573 234.06366,115.147572 L230.781974,115.142793 C230.361744,115.142181 230.021234,114.801668 230.020625,114.381439 C230.020018,113.962785 230.358912,113.622906 230.777566,113.622299 C230.778301,113.622298 230.779035,113.622298 230.779769,113.622299 Z" id="Rectangle" transform="translate(232.421715, 114.384936) scale(-1, 1) rotate(16.585299) translate(-232.421715, -114.384936) "></path>
                        <path d="M176.25401,118.493069 C176.25401,125.420356 174.440698,130.160079 170.088747,135.264396 C170.814072,135.62899 171.539397,135.993584 172.264722,136.358178 L172.264722,136.358178 C172.627385,136.722772 172.627385,137.087366 172.990047,137.45196 C178.429986,130.889267 178.792648,127.60792 179.517974,119.951445 L179.517974,119.951445 L179.517974,119.586851 L180.243299,119.951445 L179.880636,119.951445 L179.880636,119.951445 C179.880636,118.857663 180.243299,118.493069 180.605961,117.763881 L180.605961,117.763881 L180.968624,117.763881 L178.429986,116.670099 C178.429986,116.305505 177.704661,115.940911 177.341998,115.940911 C176.25401,115.940911 175.891348,116.670099 175.891348,117.399287 C175.891348,117.763881 175.891348,118.128475 176.25401,118.493069 Z" id="Path"></path>
                        <ellipse id="Oval" cx="169.363422" cy="139.27493" rx="2.53863801" ry="2.55215841"></ellipse>
                        <path d="M182.781937,118.128475 C182.056612,118.128475 181.331286,118.857663 181.331286,119.951445 C181.331286,120.680633 182.056612,121.045227 183.144599,121.045227 C183.869924,121.045227 184.232587,120.316039 184.232587,119.586851 C184.232587,118.857663 183.507262,118.128475 182.781937,118.128475 Z" id="Path"></path>
                        <polygon id="Path" fill-rule="nonzero" points="91.7536309 51.4077623 86.6763549 60.1580197 88.4896678 61.2518018 93.5669438 52.5015444"></polygon>
                    </g>
                </g>
            </g>
        </g>
    </g>
</svg>