<?xml version="1.0" encoding="UTF-8"?>
<svg width="291px" height="163px" viewBox="0 0 291 163" version="1.1" xmlns="http://www.w3.org/2000/svg" xmlns:xlink="http://www.w3.org/1999/xlink">
    <!-- Generator: sketchtool 55.1 (78136) - https://sketchapp.com -->
    <title>D4C74DDE-773D-4342-828A-545559CCEE8B</title>
    <desc>Created with sketchtool.</desc>
    <g id="Page-1" stroke="none" stroke-width="1" fill="none" fill-rule="evenodd">
        <g id="Bike-Bazaar-new-header" transform="translate(-1070.000000, -1294.000000)" fill="#000000" fill-rule="nonzero">
            <g id="SuperBike" transform="translate(1031.000000, 1229.000000)">
                <g id="Group-8">
                    <g id="high-end-bike-icon" transform="translate(39.000000, 63.000000)">
                        <path d="M263.125748,79.7216107 L266.877254,76.8879949 C266.877254,76.8879949 255.575361,71.2089196 247.719998,71.7359662 C243.998101,71.9846848 240.702579,72.8759266 237.759409,74.2349962 C256.265259,61.2394478 268.052746,65.2988912 271.95822,60.072839 C274.954687,56.0548488 261.2041,40.0006534 250.873394,28.3138388 C246.825795,23.7362316 241.197055,18.9306324 235.855527,14.7794001 C235.89698,13.3551898 235.787425,5.99134181 229.291131,2 L225.652141,7.30303649 C222.217455,4.91652202 219.925691,3.45381961 219.925691,3.45381961 C219.925691,3.45381961 198.79349,10.8828082 201.846215,13.6779318 C204.653182,16.2509853 227.544179,23.3424272 234.66523,31.5086888 L230.283045,37.1996079 L233.184762,40.2464111 C233.184762,40.2464111 234.863613,38.7511384 235.369933,41.0784342 C236.05687,44.2259092 230.191256,42.2716914 230.191256,42.2716914 L225.113251,36.7021707 L225.113251,26.9340426 L216.203794,26.9340426 L213.734373,24.227747 C213.734373,24.227747 201.331012,25.5808948 199.930489,29.5219007 C199.083662,31.4257826 201.011231,37.9901779 201.011231,37.9901779 L198.85567,38.0642013 C198.663209,37.288436 198.115436,36.2402646 196.747483,35.3312573 C195.909538,34.7716404 191.103939,32.5835086 184.518817,30.155541 C184.3382,29.000776 183.621654,28.0443936 182.56756,27.7305344 L179.446734,26.8067223 C178.517,26.5313553 177.533969,26.821527 176.775969,27.4906986 C166.445264,24.1922158 154.278777,21.3822875 145.8105,22.56074 C142.947275,23.2417553 130.463968,24.645239 123.316269,40.7320047 L93.2923771,41.7920198 C86.9382083,40.5513876 80.190235,38.3218027 73.9160115,34.4696249 C72.2164342,33.4273754 71.2718956,33.8419064 70.7330052,34.5229217 C69.0067795,32.5450164 67.5618427,30.5463846 66.5610463,28.5862449 C67.0732883,28.6454636 67.4493272,28.6484246 67.6565927,28.5892059 C69.6374589,27.3515346 71.6272079,17.8587736 69.3413653,17.6100549 C67.0584836,17.3554144 27.8083151,12.9525025 26.1531519,12.7837291 C25.176043,12.6830573 23.7163015,13.4529007 23.8080905,14.548447 L11.7985338,13.7341896 L16.6041331,21.5717874 C9.71699577,22.7739274 7.8634498,25.1663638 7.8634498,25.1663638 L3.54344408,25.1663638 L3.54344408,29.2346899 L6.24085683,33.954422 L26.9170734,43.2103081 L26.0287926,44.8625105 L7.35416879,46.642033 L7.35416879,48.3889853 L10.910253,50.9590778 L10.910253,54.7698025 L13.1960956,54.7698025 L15.9912193,50.9590778 L20.3082641,50.9590778 C20.3082641,50.9590778 12.1923383,58.2933165 11.8103776,58.2933165 C11.2566825,58.2933165 7.79534827,58.2933165 7.79534827,58.2933165 L1.00296094,74.3297462 L5.44732597,73.1868249 L7.73316861,68.2331788 L9.891691,68.2331788 L35.4268036,46.642033 L58.4332768,51.2610933 C60.6806273,53.1590533 64.4854302,55.1606461 70.7863021,57.0053093 C83.0445774,60.5910028 83.0445774,60.5910028 83.0445774,60.5910028 L76.3262135,65.8288987 L62.9516653,63.1462907 L68.3257642,72.7574891 L87.7613486,84.3169835 L81.4782422,88.8087235 C73.0928713,79.0109861 60.6362133,72.8019032 46.7286966,72.8019032 C21.4719119,72.8019032 1,93.2738151 1,118.533561 C1.00296094,143.781462 21.4778338,164.253374 46.7316575,164.253374 C69.9927712,164.253374 89.1974025,146.881563 92.0843152,124.402136 C94.9741888,123.454636 98.1187029,122.424231 101.55635,121.307958 L104.745278,129.838415 L100.591085,131.463968 L92.8956117,142.135182 L202.855894,142.135182 C202.855894,142.135182 202.855894,142.055237 202.861816,141.916073 L202.912152,140.07141 C203.083886,134.241326 203.63462,117.719303 204.555472,112.827837 C205.209838,109.351698 206.379408,106.473668 207.90429,103.915419 C205.887893,108.901636 204.762737,114.346797 204.762737,120.061404 C204.762737,143.876212 224.071001,163.178555 247.879888,163.178555 C271.697658,163.178555 291,143.873252 291,120.061404 C291,101.617733 279.413857,85.8833187 263.125748,79.7216107 Z M248.646771,45.5139164 C250.85859,45.7952053 254.980213,47.2756734 259.933859,47.4059545 C267.602683,47.6013763 270.696861,55.8801536 269.944784,58.2814727 C269.160136,60.7864246 264.310122,60.3452451 260.526046,59.8093157 C253.849135,58.867738 245.890139,45.1674869 248.646771,45.5139164 Z M52.5084438,89.7503012 C52.6268812,89.4423638 52.7601233,89.1729187 52.9081701,88.9301219 C59.1942374,90.132262 64.7607972,93.3596823 68.894264,97.9165629 L67.2627882,99.0802107 L54.8979192,99.3348512 L54.8979192,98.9528905 L50.1308121,98.9528905 C50.5719916,95.8172592 51.3655225,92.7526904 52.5084438,89.7503012 Z M56.200731,103.681505 C55.8572625,103.47424 55.6855282,103.850279 55.4545752,103.983521 C55.2650752,104.098997 55.0785363,104.14045 54.9008801,104.14045 L54.9008801,101.878295 L63.6060321,101.697678 L58.4924956,105.345551 C58.471769,105.315942 58.4540034,105.292255 58.427355,105.265606 C58.2496988,105.090911 58.0394723,105.046497 57.8114803,105.144208 C57.6693553,105.203427 57.5420351,105.295216 57.3939883,105.345551 C56.760348,105.546895 56.2865982,105.200466 56.3606216,104.569786 C56.3961528,104.252966 56.5619652,103.900615 56.200731,103.681505 Z M47.0277511,116.229952 C47.9337976,116.235874 48.7362112,117.103429 48.7214065,118.05685 C48.7095628,119.039881 47.8420085,119.815646 46.7908762,119.786037 C45.9825407,119.762349 45.2186192,118.888873 45.227502,117.982827 C45.2363848,116.958343 45.9914235,116.218109 47.0277511,116.229952 Z M27.4352372,136.755161 C27.0769639,136.986114 26.7275735,137.148966 26.3900268,137.246677 C25.2382226,137.587184 24.2137387,137.154888 23.3402626,135.985318 C21.3268261,133.290866 19.7693737,130.433563 18.688632,127.392681 L20.8264279,126.43926 L20.1779829,124.991362 L18.1971167,125.882604 C17.5161014,123.5938 17.0956484,121.204325 16.9594454,118.717139 C16.9091095,117.763717 16.9091095,116.825101 16.9860938,115.889445 C17.0749219,114.749484 17.7352106,113.917461 18.736007,113.600641 C18.9403116,113.538462 19.153499,113.485165 19.3814911,113.461477 C20.3467562,113.381532 21.3120214,113.298626 21.9515836,113.328235 C25.0516836,113.351923 27.9918932,113.680586 30.8432746,114.257969 C30.7129934,114.986359 30.6063997,115.744359 30.5560638,116.546773 C30.1800249,122.267301 31.5598211,126.862674 34.6510384,130.199649 C34.7487493,130.29736 34.852382,130.389149 34.9500929,130.495742 C32.7086643,132.840804 30.224439,134.946029 27.4352372,136.755161 Z M32.2763676,109.786956 C28.9808458,108.2828 25.8925895,106.375957 22.9908721,104.101958 C22.6474036,103.829552 22.3720365,103.545302 22.1588491,103.246248 C26.3219252,95.8083764 33.6709685,90.4017071 42.3583549,88.8649813 C42.4767924,89.0455984 42.5833861,89.2410202 42.6722142,89.4630904 C43.886198,92.5276592 44.6915726,95.6988218 45.1771661,98.9499296 L43.7944089,98.9499296 L43.7944089,100.587327 C39.856364,101.836842 34.8790304,104.439505 32.2763676,109.786956 Z M47.4452431,146.330828 C43.1193155,146.330828 39.02138,145.377407 35.3350146,143.67783 C35.3261318,143.440955 35.3350146,143.198158 35.3883114,142.943518 C35.8324519,140.764269 36.614139,138.685692 37.4668886,136.639685 C37.9228727,135.547099 38.4232709,134.478201 38.9562394,133.43003 C39.6076453,133.770538 40.2590513,134.060709 40.9163791,134.31535 C40.9785587,134.339037 41.0436993,134.362725 41.105879,134.383451 C41.9112536,134.685467 42.7107063,134.928264 43.4805497,135.117764 C43.5960262,135.153295 43.7115027,135.176982 43.8269792,135.203631 C46.0772906,135.724755 48.0788834,135.846154 49.2958281,135.857998 C49.6037655,135.863919 49.90282,135.863919 50.1989136,135.863919 C52.8311858,135.863919 55.0252394,135.730677 57.3969492,135.348717 C58.3770191,137.465786 59.1735109,139.656879 59.816034,141.913112 C59.9581589,142.416471 60.0736354,142.91983 60.0617917,143.446877 C56.248106,145.297462 51.9665925,146.330828 47.4452431,146.330828 Z M68.7284515,137.00388 C68.5093423,136.935778 68.2931939,136.84695 68.0800065,136.71963 C66.6528354,135.881685 65.3411407,134.874967 64.0679382,133.820874 C66.5047885,133.133936 69.3709747,132.230851 72.9596292,131.061281 C71.7989422,133.222764 70.3776929,135.221396 68.7284515,137.00388 Z M74.4134488,127.913806 C68.8261624,129.758469 64.9206878,130.996141 61.7909783,131.822242 C61.3142676,131.372179 60.8434788,130.919156 60.3874946,130.451328 C60.5148149,130.445406 60.6332523,130.403953 60.7368851,130.282555 C60.9500725,130.021993 60.6924711,129.808805 60.5858774,129.583774 C60.5503461,129.509751 60.5059321,129.432766 60.4733618,129.352821 C60.2187213,128.704376 60.6154867,128.201017 61.3083458,128.30465 C61.5126503,128.334259 61.7110331,128.396439 61.9153376,128.420126 C62.2736109,128.461579 62.4009312,128.280962 62.2351187,127.95822 C62.1048376,127.697658 61.9153376,127.466705 61.7998611,127.200221 C61.6044394,126.744236 61.8857283,126.279369 62.3802046,126.223112 C62.5341733,126.205346 62.688142,126.21719 62.8421106,126.229034 C63.3277042,126.252721 63.5556962,125.912213 63.333626,125.476956 C63.2714464,125.355557 63.1737355,125.251925 63.0908293,125.14237 C62.8835637,124.869964 62.7473607,124.582753 62.9042903,124.239284 C63.055298,123.910621 63.3513916,123.84548 63.6770946,123.833636 C63.934696,123.821792 64.2307897,123.815871 64.3314615,123.525699 C64.4410161,123.214801 64.1745319,123.057871 63.9702273,122.912785 C63.6297196,122.669988 63.6237978,122.335403 63.6741337,121.988973 C63.7244696,121.666231 63.9583835,121.485614 64.2574381,121.405669 C64.5061567,121.337567 64.7874456,121.307958 64.8437034,120.994099 C64.9058831,120.653591 64.6009067,120.576607 64.3966021,120.443364 C64.07386,120.230177 63.9021257,120.005146 63.8725164,119.777154 C67.8964285,119.116865 72.2045905,118.429928 76.394315,117.763717 C76.34694,121.349411 75.6451982,124.760409 74.4134488,127.913806 Z M88.4778951,63.3209859 C88.7325356,63.2558453 93.4167364,64.6563681 93.4167364,64.6563681 L75.8998387,72.532458 L88.4778951,63.3209859 Z M92.3537604,121.642544 C92.4218619,120.606216 92.4603541,119.566927 92.4603541,118.524678 C92.4603541,117.51796 92.4248229,116.529007 92.3626432,115.545976 C96.4220865,114.909375 99.0217884,114.51557 99.0217884,114.51557 L100.668069,118.921443 C97.6804844,119.89263 94.917931,120.798677 92.3537604,121.642544 Z M100.928631,106.826019 L92.1287292,108.380511 C91.5868779,105.881481 90.8318393,103.471279 89.9021053,101.152866 L105.843785,100.81828 L100.928631,106.826019 Z M91.9866043,98.5650079 L98.8944682,95.2665251 C98.9299994,95.4056891 101.052991,96.9542586 102.98056,98.3399767 L91.9866043,98.5650079 Z M108.481979,88.4089972 L78.1235017,75.8339017 L96.4635396,67.2590309 C96.4635396,67.2590309 107.975659,79.7719467 108.481979,81.93343 C108.994221,84.0919524 108.481979,88.4089972 108.481979,88.4089972 Z M120.361255,75.8339017 L115.724429,71.8307161 L110.898103,75.8339017 L107.753589,70.9750056 L110.898103,67.8304915 L120.361255,71.0075759 L120.361255,75.8339017 L120.361255,75.8339017 Z M150.370342,105.623879 C144.335954,107.353066 138.041004,103.859162 136.311817,97.8218129 C134.582631,91.7844643 138.076535,85.4895142 144.110923,83.7632885 C144.19679,83.739601 144.279696,83.7218354 144.365563,83.6981479 C144.374446,83.7218354 144.38629,83.7425619 144.395173,83.7632885 C139.062527,85.9099671 136.09863,91.7726205 137.715301,97.4220865 C139.376386,103.216638 145.253844,106.66909 151.066162,105.389965 C150.83817,105.478794 150.607217,105.555778 150.370342,105.623879 Z M165.382287,113.251251 C162.326601,115.107758 158.341182,114.124727 156.490596,111.06608 C154.640011,108.007433 155.61712,104.027935 158.678728,102.17735 C158.800127,102.103326 158.918564,102.038186 159.042923,101.976006 C156.259643,103.906537 155.424659,107.696535 157.204182,110.633783 C158.983705,113.576954 162.723367,114.595516 165.731678,113.029181 C165.616201,113.109126 165.503686,113.183149 165.382287,113.251251 Z M175.881767,97.9728206 L153.354965,85.2704049 L192.990055,97.9728206 L175.881767,97.9728206 Z M210.027281,68.3545772 C210.027281,68.3545772 186.695105,82.9549529 178.718344,83.4050152 C174.765494,83.7662494 170.522472,81.6876723 169.255192,81.054032 C167.981989,80.4233526 169.255192,79.5942905 169.255192,79.5942905 L201.191848,64.381001 C201.191848,64.381001 208.688938,64.9198914 210.853383,66.1309142 C212.360499,66.974781 210.027281,68.3545772 210.027281,68.3545772 Z M254.841049,92.8237528 C255.077924,92.2670969 255.371056,91.8288783 255.714525,91.5031753 C264.102857,93.6202446 271.037369,99.3733434 274.735578,106.994793 C274.540156,107.311613 274.276633,107.613628 273.924282,107.874191 C271.555533,109.638909 269.018011,111.101611 266.350207,112.333361 C263.886708,106.470707 258.636969,102.067795 252.256152,100.78571 C252.866104,98.0734925 253.73662,95.4234547 254.841049,92.8237528 Z M248.439505,118.394397 C249.348512,118.400319 250.145004,119.267873 250.13316,120.221294 C250.118356,121.204325 249.253762,121.98009 248.205591,121.950481 C247.394295,121.926793 246.630373,121.047395 246.639256,120.147271 C246.645178,119.116865 247.403177,118.382553 248.439505,118.394397 Z M244.457046,90.9198709 C244.661351,91.1597068 244.833085,91.4498785 244.954483,91.7785424 C245.289069,92.6816279 245.611811,93.5876743 245.748014,94.20651 C246.301709,96.3176574 246.686631,98.3932736 246.935349,100.457046 C246.011537,100.519226 245.111413,100.652468 244.229054,100.844929 L240.415368,91.7933471 C241.727063,91.4113863 243.074289,91.1182537 244.457046,90.9198709 Z M228.165976,137.800372 C227.712953,138.072778 227.251047,138.321496 226.732883,138.442895 C226.647016,138.466582 226.561148,138.478426 226.478242,138.49027 C222.161197,133.418186 219.549652,126.847869 219.549652,119.667599 C219.549652,118.047967 219.688816,116.457944 219.943456,114.909375 C220.224745,114.793898 220.535644,114.725797 220.879112,114.702109 C222.321088,114.616242 223.760103,114.6725 225.190235,114.805742 L224.426314,117.245553 L222.38919,119.667599 L223.917033,126.261604 L229.800412,125.71087 C230.70942,128.609626 232.284638,131.21525 234.339527,133.356007 C232.41788,135.014131 230.351147,136.488677 228.165976,137.800372 Z M229.758959,101.976006 L226.001532,106.57434 C225.578118,106.22791 225.160626,105.869637 224.743134,105.49952 C224.35229,105.147169 224.065079,104.782974 223.884462,104.406935 C226.457516,100.243859 230.058014,96.7854853 234.324723,94.3723224 L238.102877,103.335076 C236.948112,104.051622 235.876253,104.889567 234.902105,105.828184 L229.758959,101.976006 Z M259.537093,146.573625 C256.155704,147.95046 252.466378,148.714382 248.593474,148.714382 C248.469114,148.714382 248.344755,148.70846 248.220396,148.70846 L248.220396,146.567703 L246.639256,146.567703 L246.639256,148.637398 C242.514672,148.364992 238.626963,147.230953 235.150824,145.415899 C235.127136,145.075392 235.162668,144.728962 235.257418,144.367728 C235.734128,142.644463 236.429948,140.995222 237.179065,139.37559 C237.60544,138.454739 238.064385,137.554614 238.544057,136.675216 C241.43393,138.368871 244.794593,139.340058 248.386208,139.340058 C251.462621,139.340058 254.37026,138.623512 256.961079,137.356231 C257.742766,139.147598 258.403055,141.010026 258.918258,142.970166 C259.101836,143.873252 259.480836,144.862204 259.563742,145.92518 C259.584468,146.153172 259.566703,146.36636 259.537093,146.573625 Z M268.769292,140.554042 C268.405097,140.450409 268.026097,140.257949 267.629332,139.988503 C265.299075,138.374793 263.217537,136.494599 261.325499,134.424905 C265.334606,130.856977 267.863246,125.663495 267.863246,119.874865 C267.863246,119.025076 267.801066,118.187131 267.694472,117.363991 C270.50144,117.079741 273.329134,117.073819 276.183476,117.358069 C276.73421,117.411366 277.187233,117.541647 277.566233,117.734108 C277.613608,118.376631 277.640258,119.019154 277.640258,119.664638 C277.643217,127.872353 274.23518,135.274693 268.769292,140.554042 Z" id="Shape" transform="translate(146.000000, 83.126687) rotate(0.500000) translate(-146.000000, -83.126687) "></path>
                    </g>
                </g>
            </g>
        </g>
    </g>
</svg>