<?xml version="1.0" encoding="utf-8"?>
<!-- Generator: Adobe Illustrator 16.0.0, SVG Export Plug-In . SVG Version: 6.00 Build 0)  -->
<!DOCTYPE svg PUBLIC "-//W3C//DTD SVG 1.1//EN" "http://www.w3.org/Graphics/SVG/1.1/DTD/svg11.dtd">
<svg version="1.1" id="Layer_1" xmlns="http://www.w3.org/2000/svg" xmlns:xlink="http://www.w3.org/1999/xlink" x="0px" y="0px"
	 width="300px" height="300px" viewBox="0 0 300 300" enable-background="new 0 0 300 300" xml:space="preserve">
<g>
	<g>
		<g>
			<g>
				<g>
					<ellipse opacity="0.7" fill="#484848" cx="153.181" cy="269.658" rx="124.345" ry="3.207"/>
					<g>
						<g>
							<path fill="#373636" d="M62.393,185.21c0-0.639,0.32-0.639,0.32-0.639l0,0c0.314,0,0.314,0.639,0.314,0.639v78.522
								c0,0.64-0.314,0.64-0.314,0.64l0,0c-0.32,0-0.32-0.64-0.32-0.64"/>
							<path fill="#373636" d="M23.445,224.792c-0.637,0-0.637-0.32-0.637-0.32l0,0c0-0.321,0.637-0.321,0.637-0.321h78.523
								c0.641,0,0.641,0.321,0.641,0.321l0,0c0,0.32-0.641,0.32-0.641,0.32"/>
							<path fill="#373636" d="M47.748,188.169c-0.238-0.591,0.057-0.711,0.057-0.711l0,0c0.297-0.119,0.537,0.473,0.537,0.473
								l29.326,72.844c0.24,0.594-0.057,0.714-0.057,0.714l0,0c-0.299,0.117-0.537-0.477-0.537-0.477"/>
							<path fill="#373636" d="M26.406,239.431c-0.594,0.237-0.713-0.058-0.713-0.058l0,0c-0.119-0.297,0.477-0.534,0.477-0.534
								l72.84-29.327c0.595-0.237,0.713,0.058,0.713,0.058l0,0c0.119,0.296-0.473,0.533-0.473,0.533"/>
							<path fill="#373636" d="M33.145,198.632c-0.477-0.423-0.264-0.661-0.264-0.661l0,0c0.21-0.237,0.688,0.186,0.688,0.186
								l58.703,52.154c0.479,0.424,0.266,0.661,0.266,0.661l0,0c-0.211,0.24-0.689-0.187-0.689-0.187"/>
							<path fill="#373636" d="M36.868,254.035c-0.424,0.477-0.661,0.268-0.661,0.268l0,0c-0.238-0.216,0.186-0.69,0.186-0.69
								l52.154-58.703c0.422-0.478,0.664-0.264,0.664-0.264l0,0c0.236,0.21-0.188,0.688-0.188,0.688"/>
							<path fill="#373636" d="M33.026,198.632c-0.476-0.423-0.265-0.661-0.265-0.661l0,0c0.213-0.237,0.688,0.186,0.688,0.186
								l58.705,52.154c0.476,0.424,0.266,0.661,0.266,0.661l0,0c-0.214,0.24-0.688-0.187-0.688-0.187"/>
							<path fill="#373636" d="M36.752,254.035c-0.424,0.477-0.661,0.268-0.661,0.268l0,0c-0.237-0.216,0.185-0.69,0.185-0.69
								l52.154-58.703c0.424-0.478,0.661-0.264,0.661-0.264l0,0c0.243,0.21-0.181,0.688-0.181,0.688"/>
							<path fill="#373636" d="M25.231,212.763c-0.61-0.197-0.509-0.502-0.509-0.502l0,0c0.098-0.305,0.702-0.108,0.702-0.108
								l74.761,24.03c0.607,0.196,0.512,0.499,0.512,0.499l0,0c-0.099,0.306-0.709,0.108-0.709,0.108"/>
							<path fill="#373636" d="M50.998,261.95c-0.197,0.606-0.501,0.508-0.501,0.508l0,0c-0.306-0.098-0.106-0.702-0.106-0.702
								l24.031-74.76c0.193-0.61,0.496-0.511,0.496-0.511l0,0c0.305,0.096,0.108,0.706,0.108,0.706"/>
						</g>
						<g>
							<path fill="#373636" d="M239.878,185.21c0-0.639,0.32-0.639,0.32-0.639l0,0c0.32,0,0.32,0.639,0.32,0.639v78.522
								c0,0.64-0.32,0.64-0.32,0.64l0,0c-0.32,0-0.32-0.64-0.32-0.64"/>
							<path fill="#373636" d="M200.938,224.792c-0.642,0-0.642-0.32-0.642-0.32l0,0c0-0.321,0.642-0.321,0.642-0.321h78.521
								c0.642,0,0.642,0.321,0.642,0.321l0,0c0,0.32-0.642,0.32-0.642,0.32"/>
							<path fill="#373636" d="M225.238,188.169c-0.237-0.591,0.06-0.711,0.06-0.711l0,0c0.295-0.119,0.533,0.473,0.533,0.473
								l29.326,72.844c0.243,0.594-0.057,0.714-0.057,0.714l0,0c-0.294,0.117-0.532-0.477-0.532-0.477"/>
							<path fill="#373636" d="M203.897,239.431c-0.594,0.237-0.713-0.058-0.713-0.058l0,0c-0.118-0.297,0.47-0.534,0.47-0.534
								l72.847-29.327c0.594-0.237,0.713,0.058,0.713,0.058l0,0c0.119,0.296-0.473,0.533-0.473,0.533"/>
							<path fill="#373636" d="M210.636,198.632c-0.479-0.423-0.268-0.661-0.268-0.661l0,0c0.214-0.237,0.691,0.186,0.691,0.186
								l58.705,52.154c0.477,0.424,0.264,0.661,0.264,0.661l0,0c-0.212,0.24-0.687-0.187-0.687-0.187"/>
							<path fill="#373636" d="M214.358,254.035c-0.423,0.477-0.661,0.268-0.661,0.268l0,0c-0.238-0.216,0.188-0.69,0.188-0.69
								l52.155-58.703c0.424-0.478,0.661-0.264,0.661-0.264l0,0c0.236,0.21-0.187,0.688-0.187,0.688"/>
							<path fill="#373636" d="M210.518,198.632c-0.476-0.423-0.264-0.661-0.264-0.661l0,0c0.211-0.237,0.687,0.186,0.687,0.186
								l58.706,52.154c0.476,0.424,0.266,0.661,0.266,0.661l0,0c-0.214,0.24-0.689-0.187-0.689-0.187"/>
							<path fill="#373636" d="M214.243,254.035c-0.424,0.477-0.662,0.268-0.662,0.268l0,0c-0.24-0.216,0.184-0.69,0.184-0.69
								l52.156-58.703c0.423-0.478,0.661-0.264,0.661-0.264l0,0c0.238,0.21-0.186,0.688-0.186,0.688"/>
							<path fill="#373636" d="M202.726,212.763c-0.61-0.197-0.515-0.502-0.515-0.502l0,0c0.099-0.305,0.708-0.108,0.708-0.108
								l74.758,24.03c0.606,0.196,0.511,0.499,0.511,0.499l0,0c-0.098,0.306-0.708,0.108-0.708,0.108"/>
							<path fill="#373636" d="M228.488,261.95c-0.195,0.606-0.501,0.508-0.501,0.508l0,0c-0.304-0.098-0.108-0.702-0.108-0.702
								l24.028-74.76c0.198-0.61,0.502-0.511,0.502-0.511l0,0c0.305,0.096,0.107,0.706,0.107,0.706"/>
						</g>
						<path fill="none" stroke="#282828" stroke-width="10" stroke-miterlimit="10" d="M102.57,224.889
							c0,22.048-17.874,39.918-39.917,39.918c-22.047,0-39.918-17.87-39.918-39.918c0-22.043,17.871-39.916,39.918-39.916
							C84.696,184.973,102.57,202.846,102.57,224.889z"/>
						<path fill="none" stroke="#282828" stroke-width="10" stroke-miterlimit="10" d="M280.11,224.889
							c0,22.048-17.871,39.918-39.918,39.918c-22.043,0-39.914-17.87-39.914-39.918c0-22.043,17.871-39.916,39.914-39.916
							C262.239,184.973,280.11,202.846,280.11,224.889z"/>
						<g>
							<g>
								<g>
									<path fill="#282828" d="M233.237,157.464c-6.557,0-11.874-5.314-11.874-11.872c0-6.556,5.317-11.869,11.874-11.869V157.464
										z"/>
									<path fill="#FBAB20" d="M235.222,157.464h-1.984v-23.741h1.984c1.102,0,1.99,0.889,1.99,1.987v19.767
										C237.212,156.572,236.323,157.464,235.222,157.464z"/>
									<g>
										<path fill="#484848" d="M250.233,226.384c-0.925,5.772-6.355,9.696-12.125,8.769c-5.772-0.929-9.697-6.359-8.772-12.128
											c0.928-5.772,6.355-9.699,12.13-8.771C247.238,215.181,251.162,220.611,250.233,226.384z"/>
									</g>
									<polygon fill="#282828" points="101.56,172.3 119.32,234.697 175.163,234.669 191.099,190.096 186.329,172.393 
										135.003,172.286 									"/>
									<g>
										<path fill="#484848" d="M64.092,218.92c1.969,0,3.576,1.604,3.576,3.575c0,1.971-1.607,3.578-3.576,3.578
											c-1.975,0-3.575-1.607-3.575-3.578C60.517,220.523,62.117,218.92,64.092,218.92 M64.092,203.901
											c-10.257,0-18.598,8.339-18.598,18.594c0,10.254,8.341,18.594,18.598,18.594c10.252,0,18.592-8.34,18.592-18.594
											C82.684,212.24,74.344,203.901,64.092,203.901L64.092,203.901z"/>
										
											<rect x="87.753" y="182.839" transform="matrix(0.0987 0.9951 -0.9951 0.0987 302.0074 104.8617)" fill="#282828" width="10.727" height="72.621"/>
										<path fill="#282828" d="M65.714,242.277c-5.663,0-18.974-1.646-21.077-16.873c-0.713-5.188,0.326-9.63,3.093-13.203
											c5.242-6.773,14.761-7.954,15.164-7.998l0.077-0.011l0.074,0.002l62.111,1.612l-0.055,2.144l-62.027-1.607
											c-0.848,0.115-9.193,1.407-13.654,7.182c-2.395,3.098-3.289,6.996-2.656,11.588c2.327,16.866,19.672,15.104,21.137,14.924
											l64.7-18.412l0.589,2.064l-64.85,18.454l-0.08,0.011C68.216,242.158,67.244,242.277,65.714,242.277z"/>
									</g>
									<g>
										<polygon fill="#8F8F8E" points="65.334,221.645 63.958,220.905 75.545,174.958 76.927,175.699 										"/>
										<polygon fill="#222222" points="67.291,219.893 63.611,218.03 68.34,198.821 72.018,199.784 										"/>
										<path fill="#B1B2AC" d="M78.297,175.878c0.14,1.648-0.723,3.066-1.92,3.168c-1.198,0.101-2.281-1.16-2.418-2.809
											s0.723-3.067,1.92-3.168C77.082,172.969,78.16,174.23,78.297,175.878z"/>
										<path fill="#373636" d="M66.23,221.679c0.109,1.317-0.774,2.467-1.975,2.565c-1.192,0.098-2.252-0.89-2.363-2.206
											c-0.111-1.315,0.775-2.466,1.972-2.566C65.063,219.373,66.123,220.363,66.23,221.679z"/>
										<polygon fill="#222222" points="78.24,185.725 69.959,181.271 71.155,176.545 79.432,180.998 										"/>
										<polygon fill="#222222" points="69.931,218.997 61.652,214.542 62.845,209.816 71.125,214.271 										"/>
										<g>
											<path fill="#222222" d="M70.381,213.371c-0.037,0.004-0.072,0-0.109-0.01l-6.519-1.506
												c-0.266-0.06-0.457-0.406-0.427-0.768c0.031-0.361,0.275-0.61,0.538-0.542l6.517,1.505
												c0.264,0.061,0.457,0.406,0.426,0.77C70.778,213.131,70.6,213.354,70.381,213.371z"/>
											<path fill="#222222" d="M71.127,210.326c-0.033,0.003-0.072,0-0.111-0.008l-6.513-1.506
												c-0.267-0.064-0.457-0.406-0.427-0.771c0.031-0.361,0.271-0.61,0.538-0.546l6.516,1.507
												c0.266,0.064,0.46,0.406,0.423,0.767C71.53,210.086,71.348,210.309,71.127,210.326z"/>
											<path fill="#222222" d="M71.879,207.28c-0.039,0-0.074,0-0.113-0.009l-6.517-1.508c-0.263-0.062-0.457-0.403-0.427-0.766
												c0.031-0.367,0.271-0.615,0.541-0.547l6.516,1.505c0.266,0.065,0.455,0.407,0.424,0.771
												C72.277,207.037,72.096,207.259,71.879,207.28z"/>
											<path fill="#222222" d="M72.627,204.231c-0.035,0.005-0.076,0.005-0.113-0.008l-6.516-1.506
												c-0.268-0.063-0.454-0.404-0.426-0.766c0.031-0.367,0.271-0.611,0.541-0.545l6.514,1.506
												c0.266,0.059,0.457,0.403,0.428,0.768C73.026,203.99,72.846,204.212,72.627,204.231z"/>
											<path fill="#222222" d="M73.373,201.187c-0.037,0.004-0.073,0-0.109-0.01l-6.516-1.506
												c-0.266-0.06-0.455-0.405-0.424-0.768c0.026-0.361,0.27-0.609,0.535-0.542l6.514,1.506
												c0.268,0.06,0.459,0.405,0.428,0.769C73.775,200.944,73.594,201.169,73.373,201.187z"/>
											<path fill="#222222" d="M74.124,198.141c-0.036,0.004-0.074,0-0.11-0.01l-6.516-1.506c-0.27-0.06-0.459-0.403-0.43-0.768
												c0.031-0.361,0.276-0.61,0.543-0.542l6.513,1.505c0.267,0.063,0.458,0.403,0.427,0.769
												C74.525,197.9,74.344,198.124,74.124,198.141z"/>
											<path fill="#222222" d="M74.873,195.096c-0.036,0-0.074,0-0.111-0.009l-6.516-1.506c-0.269-0.062-0.456-0.405-0.426-0.77
												c0.027-0.362,0.266-0.61,0.533-0.546l6.52,1.506c0.266,0.065,0.457,0.407,0.427,0.769
												C75.273,194.853,75.09,195.077,74.873,195.096z"/>
											<path fill="#222222" d="M75.62,192.046c-0.036,0.009-0.071,0.004-0.108-0.005l-6.519-1.507
												c-0.267-0.063-0.458-0.408-0.424-0.767c0.032-0.364,0.269-0.615,0.538-0.547l6.513,1.505
												c0.269,0.062,0.46,0.407,0.429,0.771C76.021,191.806,75.843,192.031,75.62,192.046z"/>
											<path fill="#222222" d="M76.369,189.003c-0.036,0.003-0.072,0.003-0.11-0.01l-6.514-1.507
												c-0.266-0.06-0.46-0.406-0.43-0.768c0.03-0.363,0.271-0.608,0.538-0.542l6.516,1.503c0.266,0.062,0.46,0.408,0.429,0.771
												C76.77,188.76,76.587,188.982,76.369,189.003z"/>
											<path fill="#222222" d="M77.119,185.956c-0.037,0.003-0.072,0-0.111-0.009l-6.52-1.508
												c-0.264-0.059-0.453-0.404-0.423-0.767c0.028-0.363,0.273-0.609,0.538-0.542l6.516,1.506
												c0.268,0.06,0.455,0.405,0.426,0.769C77.521,185.717,77.336,185.938,77.119,185.956z"/>
										</g>
									</g>
									<path fill="#ED2224" d="M48.92,169.548c0,0,1.881-1.383-3.903-0.434c-7.583,1.245-28.676,15.339-28.676,15.339
										s2.023,6.519,4.884,6.519c2.857,0,26.508-15.701,31.841-14.807c5.327,0.896,11.146,1.806,16.106,3.495
										c4.961,1.69,37.193-2.001,37.193-2.001l-2.521-3.816c0,0-39.565-3.86-43.34-4.295
										C56.729,169.116,48.92,169.548,48.92,169.548z"/>
									<path fill="#282828" d="M81.074,172.419l-1.196,3.599c0,0,6.87,0.703,14.558,5.355
										c7.688,4.653,18.596,18.957,18.596,18.957l-7.385-26.682L81.074,172.419z"/>
									<polygon fill="#8F8F8E" points="236.617,225.287 206.528,130.288 211.887,128.878 242.679,223.88 									"/>
									<polygon fill="#282828" points="203.291,142.662 206.776,141.731 206.003,139.191 217.911,135.136 218.847,137.862 
										225.167,159.841 225.88,162.528 213.727,166.037 211.863,160.361 194.775,163.107 201.49,145.27 									"/>
									<g>
										<path fill="#ED2224" d="M205.268,168.524c-2.315,5.972-7.697,6.228-7.697,6.228h-61.074c0,0-4.173-9.971-3.116-15.459
											c0.61-3.252,1.702-6.23,4.697-9.639c0.749-0.862,1.565-1.723,2.554-2.625c1.805-1.646,4.02-3.408,6.81-5.369
											c10.588-7.405,33.106-5.208,40.19-4.599c7.152,0.671,9.989,1.413,12.753,4.057c3.473,2.904,4.884,6.913,4.884,6.913
											S209.021,158.511,205.268,168.524z"/>
									</g>
									<path fill="#8F8F8E" d="M158.095,209.863l0.397-0.149c0.775-0.292,1.613-0.442,2.46-0.442h9.66
										c1.667,0,3.263,0.582,4.424,1.615l0.043,0.042c1.533,1.362,2.115,3.328,1.525,5.166l-0.61,1.896
										c-0.393,1.214-1.268,2.276-2.475,2.987l-4.728,2.776c-1.023,0.603-2.23,0.926-3.468,0.926h-0.846
										c-1.366,0-2.691-0.393-3.769-1.113l-3.437-2.297c-0.438-0.289-0.824-0.629-1.157-1.011l-0.781-0.892
										c-1.043-1.199-1.459-2.72-1.145-4.195l0.292-1.371C154.854,212.05,156.208,210.574,158.095,209.863z"/>
									<g>
										<polygon fill="#282828" points="211.256,123.407 202.503,126.79 204.522,130.122 209.148,134.196 212.3,133.062 
											212.926,127.182 										"/>
										<path fill="#282828" d="M207.731,128.861c-0.919-0.098-1.685-0.824-1.793-1.783c-0.47-4.124-1.787-8.519-2.743-9.156
											c-1.096-0.113-1.721-0.075-2.039-0.031l-0.062,0.096l-13.329,4.049c-1.06,0.356-2.21-0.214-2.563-1.274
											c-0.357-1.06,0.214-2.204,1.276-2.56l12.313-3.708c1.47-0.956,3.988-0.687,4.918-0.587
											c4.238,0.453,5.733,8.163,6.248,12.717c0.127,1.109-0.671,2.111-1.783,2.238
											C208.026,128.877,207.877,128.877,207.731,128.861z"/>
										<path fill="#8F8F8E" d="M192.396,128.029c-0.201-0.023-0.393-0.119-0.533-0.287l-0.779-0.974l0.28-0.471
											c0.081-0.134,2.028-3.389,4.417-4.981c2.201-1.468,6.484-1.839,7.392-1.901l1.687-0.84l-1.867-4.243
											c-0.177-0.396,0.003-0.857,0.402-1.032c0.396-0.174,0.861,0.002,1.033,0.4l2.476,5.612l-3.32,1.648l-0.159,0.01
											c-0.047,0.002-4.713,0.276-6.772,1.653c-1.604,1.072-3.057,3.111-3.65,4.023l0.091,0.105
											c0.271,0.338,0.215,0.832-0.119,1.105C192.798,127.995,192.591,128.05,192.396,128.029z"/>
										<path fill="#282828" d="M204.886,115.531c-0.161,1.522-1.528,2.625-3.05,2.461c-1.521-0.161-2.625-1.527-2.466-3.049
											c0.164-1.522,1.531-2.625,3.055-2.462C203.944,112.646,205.045,114.01,204.886,115.531z"/>
										<path fill="#8F8F8E" d="M186.345,122.567c-0.895-0.093-1.694-0.7-1.992-1.611c-0.4-1.239,0.274-2.567,1.512-2.97
											l13.791-4.498c1.24-0.4,2.568,0.277,2.971,1.514c0.403,1.235-0.272,2.566-1.508,2.969l-13.797,4.493
											C186.995,122.572,186.664,122.6,186.345,122.567z"/>
										<path fill="#282828" d="M188.456,120.643c-0.106,1.011-1.016,1.744-2.023,1.633c-1.013-0.106-1.744-1.013-1.638-2.023
											c0.108-1.012,1.015-1.743,2.028-1.638C187.833,118.723,188.566,119.629,188.456,120.643z"/>
									</g>
									<path fill="#282828" d="M138.405,172.948l-1.987-8.578c-0.021,0.003-0.045,0.008-0.062,0.011l0.062-0.02l-1.487-10.079
										c0,0-18.722,1.848-27.331,1.848c-12.045,0-52.158-3.411-56.809-4.141c-4.65-0.73-4.733-1.774-8.941-2.243
										c-4.209-0.469-4.074,9.088-4.074,9.088l-1.313,1.565c-0.019-0.005-0.043-0.011-0.063-0.021l-2.553,3.057
										c0,0,4.074,3.6,7.348,5.632c0.817,0.51,1.723,0.956,2.625,1.348c2.589,1.114,32.156,1.8,34.957,2.127
										c4.955,0.58,16.096,1.741,30.076,2.316c19.083,0.779,25.434,0.123,27.627-0.031
										C138.666,174.671,138.405,172.948,138.405,172.948z"/>
									<path fill="#ED2224" d="M195.011,188.424c0,0,5.2-11.75,26.555-18.521c21.351-6.772,38.043,0.085,38.043,0.085
										s-1.658,5.019-5.779,7.505c-4.122,2.488-11.538-2.661-26.126,1.912c-14.168,4.439-13.449,6.146-20.935,11.118
										c-1.747,1.162-6.052-0.086-8.354-0.821C196.498,189.083,195.011,188.424,195.011,188.424z"/>
									<path fill="#8F8F8E" d="M34.785,232.274h0.653h1.747h2.521h3.033h8.002h4.891h5.39h30.73l19.283,2.33l7.132,1.983h0.455
										h0.113c0,0-0.02,0.012-0.047,0h0.057h0.232h0.931h1.545h1.718h2.021h16.522h16.525h8.1c0,0,2.663-0.007,3.981-0.007h0.247
										h0.06c-0.305,0.016-0.049,0-0.101,0.003l0.122-0.011l0.49-0.038l0.493-0.039c0.147-0.019,0.202-0.066,0.305-0.088
										c0.2-0.081,0.364-0.061,0.595-0.181c0.223-0.104,0.445-0.202,0.67-0.29c0.859-0.491,1.604-1.199,2.186-2.052
										c0.132-0.228,0.276-0.437,0.408-0.665c0.101-0.244,0.204-0.484,0.318-0.725l0.082-0.184l0.09-0.253l0.185-0.507
										l0.366-1.003c0.967-2.671,1.917-5.28,2.839-7.823c1.849-5.087,3.595-9.895,5.167-14.352
										c0.396-1.113,0.784-2.201,1.16-3.269c0.192-0.529,0.378-1.057,0.563-1.577c0.088-0.238,0.372-1.129,0.361-1.306
										c0.032-0.149,0.065-0.316,0.078-0.529c0.016-0.197,0.046-0.394,0.036-0.587c0.016-0.391-0.021-0.775-0.072-1.148
										c-0.103-0.748-0.33-1.456-0.651-2.067c-0.63-1.235-1.57-2.102-2.568-2.524c-0.124-0.05-0.247-0.099-0.372-0.148
										c-0.111-0.046-0.324-0.11-0.48-0.163c-0.336-0.113-0.666-0.219-0.986-0.327c-0.643-0.212-4.354-1.271-4.354-1.271
										l-5.418-0.656l-4.257-0.016l1.272-4.909l4.225,0.15l5.348,0.92c0,0,3.7,1.098,4.338,1.334
										c0.318,0.118,0.649,0.237,0.979,0.358c0.183,0.069,0.309,0.111,0.533,0.204c0.212,0.093,0.43,0.186,0.646,0.281
										c1.715,0.821,3.373,2.356,4.438,4.518c1.08,2.159,1.538,4.861,0.956,7.698l-0.124,0.562l-0.119,0.397l-0.119,0.396
										l-0.103,0.306l-0.067,0.193c-0.181,0.522-0.367,1.052-0.55,1.586c-0.376,1.068-0.758,2.161-1.146,3.276
										c-1.566,4.457-3.224,9.31-4.979,14.439c-0.874,2.565-1.772,5.199-2.692,7.896l-0.344,1.011l-0.173,0.509l-0.089,0.253
										l-0.123,0.308l-0.532,1.245c-0.212,0.393-0.449,0.77-0.677,1.155c-0.973,1.484-2.248,2.725-3.722,3.573l-1.146,0.532
										c-0.369,0.183-0.869,0.276-1.303,0.397c-0.211,0.049-0.472,0.119-0.65,0.139l-0.491,0.05l-0.49,0.047l-0.124,0.011
										c-0.091,0.004,0.124-0.003-0.226,0.013h-0.06h-0.247c-1.318,0-3.981,0-3.981,0h-8.1h-16.525h-16.522h-2.057h-2.328h-2.402
										h-0.977h-0.243h-0.06c-0.067-0.028-0.167,0-0.167,0h-0.122h-0.478l-8.123,1.981l-16.766,2.22H56.947h-5.701
										c0,0-5.271,0.052-5.113,0c0.163-0.053-8.266,0-8.266,0h-2.982h-1.928h-1.01h-0.295L34.785,232.274z"/>
									<path fill="#373636" d="M241.902,224.877c-0.191,1.181-1.299,1.981-2.475,1.79c-1.181-0.19-1.981-1.3-1.793-2.476
										c0.189-1.179,1.298-1.983,2.478-1.793C241.288,222.588,242.095,223.696,241.902,224.877z"/>
									<polygon fill="#373636" points="155.904,194.835 176.369,194.835 172.021,207.786 159.81,207.786 									"/>
									<path fill="#8F8F8E" d="M176.361,194.837h-20.447v-5.018c0-3.142,2.543-5.686,5.685-5.686h9.078
										c3.14,0,5.685,2.544,5.685,5.686V194.837z"/>
									<g>
										<path fill="#373636" d="M150.385,183.232c0,0-0.352,15.772-3.348,18.369c-2.992,2.593-4.588,2.108-4.588,2.108h-18.365
											c0,0-3.396-0.513-4.793-1.91c-1.398-1.397-3.594-7.186-4.989-10.18c-1.399-2.996-2.093-6.986-2.093-6.986
											s-0.305-0.902,1.193-1.896c1.494-1.001,7.685-0.502,7.685-0.502s10.582,0.502,12.277,0.597
											c1.694,0.102,14.272,0.501,15.272,0.102c0.997-0.398,1.748-0.298,1.748-0.298V183.232z"/>
										<path fill="#8F8F8E" d="M147.29,185.061c0,0-0.29,13.008-2.759,15.15c-2.476,2.139-3.791,1.738-3.791,1.738h-15.146
											c0,0-2.801-0.421-3.954-1.572c-1.151-1.152-2.966-5.93-4.118-8.4c-1.152-2.47-1.721-5.762-1.721-5.762
											s-0.253-0.744,0.981-1.567c1.235-0.821,6.341-0.412,6.341-0.412s8.727,0.412,10.128,0.494
											c1.399,0.083,11.771,0.417,12.598,0.083c0.821-0.328,1.441-0.246,1.441-0.246V185.061z"/>
									</g>
								</g>
							</g>
						</g>
					</g>
				</g>
			</g>
			<ellipse fill="#545554" cx="140.441" cy="270.199" rx="27.205" ry="5.485"/>
			<g>
				<g>
					<path fill="#E19B68" d="M133.663,99.193c0,0-5.966,19.563,0.597,21.136c6.563,1.572,21.07-14.408,29.572-28.578l0.193-3.729
						c0,0-4.891,0.927-8.729,4.651c-3.837,3.724-10.362,10.309-13.718,12.435l0.918-10.243L133.663,99.193z"/>
					<path fill="#C1C0C0" d="M98.149,127.723c0,0-3.545,50.384,6.542,75.887l50.041,37.102l1.879-7.091l-38.9-37.551
						c0,0-5.804-22.929-2.867-36.941l7.751-1.787c0,0,1.596,64.708,4.784,101.122h7.146c0,0,7.073-101.993,2.901-124.59
						C133.256,111.276,98.149,127.723,98.149,127.723z"/>
					<g>
						<path fill="#989798" d="M124.111,202.246l5.924,4.915c-1.01-24.412-1.936-50.811-1.936-50.811l-5.505,0.99
							C122.713,161.8,123.4,184.121,124.111,202.246z"/>
						<path fill="#989798" d="M129.305,217.465c-0.08,1.438,1.765,4.271,1.688,5.644l23.74,17.603l0.973-3.672L129.305,217.465z"/>
						<path fill="#989798" d="M130.766,218.55l-20.15-14.94c-10.088-25.503-6.541-75.887-6.541-75.887s10.135-4.746,20.16-5.635
							c-11.487-1.202-26.085,5.635-26.085,5.635s-3.545,50.384,6.542,75.887l20.15,14.94c0.688,14.173,1.534,28.446,2.537,39.913
							h5.926C132.3,246.996,131.454,232.723,130.766,218.55z"/>
					</g>
					<path fill="#8C5E44" d="M127.379,258.463v9.875c0,0,13.714,3.066,23.787,4.356c0,0,1.995-4.292-15.883-11.989l-0.758-2.242
						H127.379z"/>
					<path fill="#715140" d="M133.544,258.463h-6.165v9.875c0,0,3.737-0.197,8.741,1.967
						C134.596,267.444,133.681,261.938,133.544,258.463z"/>
					<path fill="#583826" d="M127.379,268.211v1.641c0,0,13.714,1.553,23.787,2.843c0,0,0.135-0.643-0.137-1.664
						C140.969,269.692,127.379,268.211,127.379,268.211z"/>
					<path fill="#8C5E44" d="M156.171,235.281l10.065,7.38c0,0-2.756,14.331-7.212,15.802h-10.953c0,0-0.162-4.313,7.289-6.365
						l2.501-10.453l-2.823-2.09L156.171,235.281z"/>
					<path fill="#715140" d="M157.231,244.281c2.69,1.694,5.009,3.922,6.79,6.548c1.422-4.05,2.215-8.168,2.215-8.168l-10.065-7.38
						l-1.133,4.273l2.823,2.09L157.231,244.281z"/>
					<g>
						<path fill="#583826" d="M165.061,241.801c-0.391,1.918-3.051,14.185-7.156,15.541h-9.623c-0.225,0.673-0.21,1.121-0.21,1.121
							h10.953c4.456-1.471,7.212-15.802,7.212-15.802L165.061,241.801z"/>
					</g>
					<path fill="#484848" d="M97.824,140.004c0,0,22.315,8.894,41.906,4.254c0,0-7.848-36.85-2.691-58.503
						c0,0-19.359-16.81-36.804-5.982C100.235,79.773,90.003,88.576,97.824,140.004z"/>
					<path fill="#F3B27E" d="M76.719,150.76c2.953,1.96,0.602,1.675,2.238,4.783c0.352-0.216,7.457-2.897,7.638-3.279
						c4.55-9.563,11.021-62.514,11.021-62.514s-1.074-1.219-1.107-2.089c-1.403,0.125-2.855,0.171-4.361,0.171
						c-0.688,0,5.072-8.803,4.409-8.885c-0.04,0.67-7.716,0.676-8.995,10.323C82.318,128.856,83.695,151.002,76.719,150.76z"/>
					<g>
						<path fill="#DF9561" d="M96.508,87.66c-1.403,0.125-2.855,0.17-4.361,0.17c-0.688,0,5.072-8.802,4.409-8.884
							c-0.029,0.491-4.146,0.63-6.852,4.445c2.068-1.269,3.974-1.439,3.993-1.772c0.663,0.081-5.096,8.883-4.409,8.883
							c1.507,0,2.958-0.045,4.363-0.17c0.03,0.871,1.106,2.09,1.106,2.09s-5.885,48.146-10.375,60.91
							c1.203-0.505,2.148-0.933,2.212-1.068c4.55-9.563,11.021-62.514,11.021-62.514S96.541,88.53,96.508,87.66z"/>
						<path fill="#DF9561" d="M77.254,150.725c-0.174,0.023-0.352,0.04-0.535,0.035c0.145,0.096,0.267,0.183,0.387,0.269
							C77.155,150.931,77.205,150.826,77.254,150.725z"/>
					</g>
					<path fill="#484848" d="M107.39,71.06c0,0-10.173-3.215-15.921,4.263c-2.534,3.655-5.838,5.883-7.16,19.912
						c0,0,4.175,4.45,12.966,4.424l3.286-7.435l31.019,0.409l2.294,9.944l10.031-4.187c0,0,4.027-15.768-9.201-19.989
						C128.715,76.491,107.39,71.06,107.39,71.06z"/>
					<path fill="#F3B27E" d="M77.604,150.644c0,0-7.854,0.63-7.667,5.538c0,0,0.805,6.591,1.674,5.505c0,0,1.319-0.452,0.726-5.505
						c0,0-0.145,6.567,2.514,6.585c0.918,0.006,0.628-6.632,0.628-6.632s0.471,6.619,3.061,6.632
						c1.173,0.006,0.323-6.542,0.323-6.542s7.154,0.057,7.733-3.961S77.604,150.644,77.604,150.644z"/>
					<path fill="#DF9561" d="M85.457,150.326c-2.717,3.064-8.736,3.603-12.152,3.603c-0.766,0-1.66-0.083-2.609-0.246
						c-0.496,0.676-0.797,1.496-0.759,2.499c0,0,0.805,6.591,1.674,5.505c0,0,0.83-0.295,0.875-2.946
						c0.235,1.846,0.836,4.016,2.364,4.026c0.918,0.006,0.628-6.632,0.628-6.632s0.471,6.619,3.061,6.632
						c1.173,0.006,0.323-6.542,0.323-6.542s7.154,0.057,7.733-3.961C86.737,151.27,86.259,150.669,85.457,150.326z"/>
					<path fill="#F3B27E" d="M107.854,71.178c0,0-1.39,10.749,9.456,11.555c10.846,0.805,8.412-6.918,8.412-6.918L107.854,71.178z"
						/>
					<path fill="#F3B27E" d="M106.966,42.561c-3.599,12.003,1.69,24.62,12.06,27.304c11.867,3.073,21.494-4.161,25.094-16.164
						c3.599-12.003-1.801-24.229-12.061-27.304C121.799,23.32,110.564,30.558,106.966,42.561z"/>
					<path fill="#DF9561" d="M111.288,55.642c0.288-2.241,0.843-4.477,1.565-6.612c0.715-2.108,1.937-4.061,3.092-5.933
						c1.876-2.565,4.26-4.511,7.148-5.837c1.547-0.463,3.096-0.926,4.643-1.389c4.715-0.748,9.588,0.424,13.448,3.229
						c1.466,1.063,2.75,2.341,3.823,3.772c-1.061-7.808-5.834-14.342-12.949-16.476c-10.26-3.077-21.494,4.161-25.093,16.164
						c-3.007,10.028,0.194,20.478,7.372,25.213C111.945,64.311,110.721,60.042,111.288,55.642z"/>
					<path fill="#DF9561" d="M113.885,67.656l-1.719,8.482l8.213,2.809l1.705-8.107C119.01,70.711,116.222,69.515,113.885,67.656z"
						/>
					<path fill="#F3B27E" d="M118.142,72.72c-1.796,0-3.497-0.369-5.076-1.021l-0.899,4.439l8.213,2.809l1.34-6.371
						C120.564,72.681,119.376,72.72,118.142,72.72z"/>
					<path fill="#A8714D" d="M105.852,52.342c0.772,2.542,1.771,4.968,2.965,7.247c0.303,0.567,0.633,1.115,0.961,1.661
						c0.335,0.54,0.682,1.072,1.055,1.578c0.18,0.26,0.38,0.501,0.574,0.746c0.19,0.25,0.397,0.484,0.604,0.715
						c0.398,0.477,0.839,0.912,1.283,1.334l0.682,0.612l0.72,0.561c0.499,0.341,0.988,0.695,1.521,0.972
						c0.257,0.154,0.522,0.294,0.799,0.408c0.276,0.113,0.534,0.272,0.821,0.36l0.842,0.308l0.867,0.231
						c0.287,0.089,0.587,0.131,0.882,0.186c0.298,0.046,0.589,0.126,0.893,0.139c0.604,0.058,1.207,0.116,1.821,0.106
						c0.609,0.034,1.229-0.042,1.845-0.072c0.617-0.042,1.233-0.159,1.854-0.233l-0.117,0.029l1.861-0.58l0.938-0.282
						c0.32-0.079,0.606-0.219,0.908-0.331l1.806-0.711c0.56-0.299,1.137-0.578,1.714-0.867c0.301-0.129,0.543-0.333,0.813-0.501
						l0.804-0.53c0.277-0.167,0.499-0.398,0.754-0.596c0.242-0.211,0.51-0.401,0.737-0.633c0.224-0.235,0.45-0.47,0.684-0.702
						c0.241-0.225,0.447-0.488,0.667-0.739l1.322-1.525c-0.289,0.613-0.574,1.218-0.9,1.816c-0.162,0.298-0.31,0.605-0.502,0.891
						c-0.182,0.292-0.371,0.58-0.563,0.869c-0.195,0.287-0.435,0.539-0.653,0.813c-0.231,0.259-0.434,0.557-0.693,0.789
						l-0.782,0.702c-0.266,0.226-0.513,0.492-0.809,0.674c-0.571,0.394-1.143,0.806-1.732,1.185l-1.846,0.96
						c-0.31,0.154-0.614,0.337-0.935,0.453l-0.957,0.385l-1.926,0.752l-0.041,0.017l-0.074,0.013
						c-0.684,0.122-1.359,0.284-2.055,0.37c-0.698,0.072-1.393,0.166-2.104,0.156c-0.354,0-0.707,0.025-1.063,0.003l-1.066-0.084
						c-0.355-0.014-0.707-0.099-1.063-0.153c-0.351-0.063-0.709-0.107-1.053-0.215l-1.04-0.292l-1.013-0.38
						c-0.342-0.116-0.656-0.298-0.982-0.451c-0.328-0.151-0.643-0.328-0.945-0.521c-0.625-0.357-1.203-0.785-1.764-1.226l-0.807-0.7
						c-0.256-0.246-0.503-0.5-0.752-0.751c-0.475-0.521-0.936-1.053-1.346-1.619c-0.215-0.275-0.41-0.565-0.594-0.859
						c-0.188-0.293-0.381-0.581-0.546-0.885c-0.353-0.595-0.665-1.207-0.965-1.823c-0.294-0.618-0.538-1.256-0.778-1.891
						c-0.229-0.641-0.445-1.283-0.627-1.933c-0.17-0.654-0.329-1.307-0.461-1.966c-0.144-0.655-0.226-1.324-0.314-1.986
						C105.902,53.677,105.855,53.009,105.852,52.342z"/>
					<path fill="#714429" d="M115.541,67.364c-0.283-0.184-0.564-0.377-0.847-0.569l-0.72-0.561l-0.682-0.612
						c-0.444-0.422-0.885-0.857-1.283-1.334c-0.206-0.231-0.413-0.466-0.604-0.715c-0.194-0.244-0.395-0.485-0.574-0.746
						c-0.373-0.506-0.72-1.038-1.055-1.578c-0.328-0.545-0.658-1.094-0.961-1.661c-1.193-2.278-2.192-4.704-2.965-7.247
						c0.004,0.667,0.051,1.335,0.129,1.999c0.089,0.662,0.171,1.331,0.314,1.986c0.132,0.659,0.291,1.312,0.463,1.965
						c0.18,0.651,0.396,1.293,0.625,1.933c0.24,0.635,0.484,1.273,0.778,1.892c0.3,0.616,0.612,1.228,0.965,1.823
						c0.165,0.304,0.357,0.592,0.546,0.885c0.184,0.294,0.379,0.584,0.594,0.859c0.41,0.566,0.871,1.099,1.346,1.619
						c0.249,0.251,0.496,0.505,0.752,0.751l0.807,0.701c0.561,0.44,1.139,0.868,1.764,1.226c0.303,0.193,0.617,0.37,0.945,0.521
						c0.158,0.074,0.314,0.156,0.475,0.233C115.982,69.626,115.708,68.496,115.541,67.364z"/>
					<path fill="#ED2224" d="M148.374,44.654c0.147-10.186-5.829-19.222-15.464-21.896c-11.969-3.323-25.063,4.422-29.381,17.319
						c0,0-2.534,8.055,0,15.449c0,0,5.091-6.349,7.801-13.103h0.002l9.376-3.044l14.207,5.312l3.532,6.704l0,0
						c-0.969,3.199-1.681,8.144,1.283,12.016C139.73,63.41,149.492,55.526,148.374,44.654z"/>
					<g>
						<path fill="#A41D21" d="M104.922,56.919c1.151-1.388,2.205-2.86,3.221-4.348c2.127-3.114,3.35-6.601,5.227-9.805
							c1.863-3.18,10.076-0.956,12.596-0.242c2.549,0.722,4.958,1.827,7.164,3.291c0.879,0.583,4.063,3.308,3.638,4.361
							c-1.956,4.853-1.686,10.46,1.569,14.628c1.564,2.002,4.333-0.809,2.788-2.788c-3.835-4.911,1.042-10.032-1.529-15.044
							c-2.394-4.667-8.509-7.095-13.227-8.433c-4.448-1.26-10.486-2.137-14.635,0.474c-2.482,1.562-3.14,4.969-4.437,7.39
							c-1.451,2.708-3.198,5.359-5.162,7.728C100.525,56.073,103.299,58.878,104.922,56.919L104.922,56.919z"/>
					</g>
					<g>
						<path fill="#010101" d="M112.195,48.84c0,0-0.011-0.183,0.052-0.494c0.065-0.307,0.204-0.749,0.524-1.211
							c0.307-0.469,0.814-0.965,1.513-1.275c0.348-0.153,0.731-0.262,1.128-0.311c0.397-0.049,0.796-0.03,1.187,0.02l0.036,0.004
							l0.105,0.021l0.059,0.015l0.118,0.03l0.234,0.061c0.136,0.023,0.418,0.158,0.61,0.244c0.411,0.201,0.729,0.476,1.004,0.791
							c0.26,0.323,0.44,0.674,0.543,1.012c0.104,0.338,0.138,0.66,0.132,0.945c0.001,0.571-0.147,1.009-0.271,1.297
							c-0.128,0.289-0.241,0.433-0.241,0.433s-0.054-0.175-0.156-0.452c-0.1-0.276-0.252-0.655-0.454-1.035
							c-0.102-0.19-0.235-0.371-0.367-0.537c-0.134-0.167-0.291-0.3-0.448-0.418c-0.163-0.104-0.356-0.203-0.528-0.263
							c-0.106-0.021-0.106-0.053-0.289-0.09l-0.236-0.052l-0.119-0.026l-0.059-0.013l-0.008-0.001l-0.004-0.001
							c-0.017-0.003,0.134,0.027,0.069,0.014l-0.013,0l-0.023-0.002c-0.252-0.04-0.498-0.057-0.739-0.064
							c-0.238,0.005-0.471,0.021-0.702,0.054c-0.228,0.043-0.453,0.099-0.672,0.172c-0.214,0.082-0.431,0.163-0.628,0.263
							C112.771,48.376,112.195,48.84,112.195,48.84z"/>
					</g>
					<g>
						<path fill="#010101" d="M126.976,52.241c0,0,0.007-0.183,0.099-0.486c0.094-0.299,0.273-0.726,0.636-1.156
							c0.349-0.438,0.901-0.884,1.626-1.127c0.36-0.12,0.752-0.192,1.151-0.204c0.4-0.011,0.796,0.046,1.18,0.132l0.036,0.007
							l0.104,0.031l0.057,0.021l0.114,0.042l0.228,0.083c0.134,0.036,0.402,0.197,0.586,0.3c0.39,0.239,0.68,0.542,0.924,0.882
							c0.228,0.346,0.375,0.712,0.445,1.059s0.074,0.669,0.041,0.953c-0.053,0.569-0.241,0.991-0.391,1.266
							c-0.155,0.276-0.281,0.409-0.281,0.409s-0.037-0.18-0.113-0.465c-0.073-0.284-0.188-0.676-0.354-1.073
							c-0.083-0.199-0.198-0.392-0.314-0.569c-0.118-0.179-0.262-0.327-0.407-0.459c-0.152-0.119-0.336-0.236-0.501-0.312
							c-0.104-0.031-0.101-0.063-0.279-0.116l-0.23-0.074l-0.115-0.037l-0.058-0.019l-0.008-0.002l-0.004-0.001
							c-0.017-0.005,0.132,0.04,0.067,0.021l-0.012-0.002l-0.022-0.004c-0.248-0.063-0.491-0.104-0.73-0.134
							c-0.238-0.018-0.471-0.024-0.704-0.012c-0.23,0.021-0.46,0.056-0.686,0.108c-0.221,0.062-0.444,0.122-0.649,0.203
							C127.593,51.833,126.976,52.241,126.976,52.241z"/>
					</g>
					<path fill="#010101" d="M112.203,44.019c0,0,2.097-5.337,9.385-2.029l-1.461,1.848
						C120.127,43.837,116.837,42.439,112.203,44.019z"/>
					<path fill="#010101" d="M136.148,50.069c0,0,0.541-5.708-7.455-6.051l0.469,2.309
						C129.162,46.328,132.729,46.566,136.148,50.069z"/>
					<path fill="#DF9561" d="M125.164,52.166c0,0-0.227,3.011,1.963,3.014c2.19,0.003,1.324,3.376-1.353,3.324
						c-2.679-0.051-3.509-4.508-2.863-5.891C123.558,51.23,125.376,50.202,125.164,52.166z"/>
					<path fill="#FFFFFF" d="M113.229,56.377c0,0,9.649,5.843,16.771,4.466c0,0-2.957,3.549-8.411,2.567
						C114.746,62.178,113.229,56.377,113.229,56.377z"/>
					<g>
						<path fill="#DF9561" d="M116.896,63.582c0,0,0.541,0.133,1.301,0.365c0.377,0.112,0.816,0.243,1.288,0.383
							c0.469,0.127,0.959,0.288,1.457,0.39c0.491,0.137,0.987,0.21,1.452,0.289c0.233,0.024,0.459,0.048,0.674,0.071
							c0.212-0.002,0.416,0.003,0.609,0.012c0.19-0.014,0.365-0.028,0.521-0.04c0.163-0.002,0.291-0.047,0.408-0.064
							c0.237-0.041,0.373-0.063,0.373-0.063s-0.098,0.092-0.292,0.245c-0.099,0.069-0.212,0.185-0.371,0.247
							c-0.153,0.074-0.331,0.166-0.533,0.24c-0.407,0.133-0.905,0.228-1.439,0.232c-0.262-0.018-0.543,0.004-0.814-0.048
							c-0.272-0.044-0.553-0.079-0.822-0.149c-0.542-0.134-1.063-0.322-1.531-0.539c-0.47-0.214-0.886-0.456-1.225-0.689
							C117.267,64.004,116.896,63.582,116.896,63.582z"/>
					</g>
				</g>
			</g>
		</g>
		<g>
			<g>
				<path fill-rule="evenodd" clip-rule="evenodd" fill="#E99657" d="M158.296,93.921c0.029-0.053,0.11-0.076,0.124-0.049
					c0.026,0.049-0.001,0.114-0.061,0.149C158.34,93.989,158.317,93.956,158.296,93.921z"/>
			</g>
		</g>
	</g>
	<polygon fill="#FFFFFF" points="177.957,147.303 169.727,156.33 169.727,150.233 166.413,150.233 166.413,164.148 166.413,165.083 
		169.727,161.305 171.369,159.43 173.596,156.892 175.687,154.512 179.435,150.233 182.001,147.303 	"/>
	<g>
		<g>
			<g>
				<path fill="#E19B68" d="M171.678,90.605c0,0-0.262-0.985,0.422-1.721c0,0-1.756-0.533-1.586-2.02c0,0,0.707-1.405,1.86-1.133
					c0,0,1.521,0.281,1.733,2.351C174.32,90.151,172.984,91.689,171.678,90.605z"/>
				<path opacity="0.4" fill="#E19B68" d="M171.678,90.605c0,0-0.262-0.985,0.422-1.721c0,0-1.756-0.533-1.586-2.02
					c0,0,0.707-1.405,1.86-1.133c0,0,1.521,0.281,1.733,2.351C174.32,90.151,172.984,91.689,171.678,90.605z"/>
				<path fill="#E19B68" d="M172.839,90.47c0,0-0.052-0.048-0.09-0.138c-0.074-0.171-0.101-0.491,0.375-0.906
					c0,0-1.923-1.763-1.332-3.11c0,0,1.968-0.458,2.962,0.702c0.993,1.16,1.123,1.751,0.786,2.765
					c-0.337,1.015-1.339,1.866-1.339,1.866S172.277,91.857,172.839,90.47z"/>
				<path opacity="0.3" fill="#E19B68" d="M173.928,89.165c-0.367-0.264-0.559-0.775-0.422-1.208
					c-0.342-0.096-0.641-0.335-0.789-0.68c-0.148-0.347-0.114-0.733,0.055-1.048c-0.554-0.011-0.979,0.087-0.979,0.087
					c-0.591,1.347,1.332,3.11,1.332,3.11c-0.476,0.415-0.449,0.735-0.375,0.906c0.038,0.089,0.09,0.138,0.09,0.138
					c-0.495,1.224,0.943,1.207,1.289,1.186c-0.218-0.1-0.394-0.263-0.497-0.501c-0.145-0.339-0.078-0.685,0.116-0.985
					c0.002-0.005,0.004-0.009,0.007-0.014c0.056-0.085,0.129-0.158,0.213-0.216C173.853,89.694,173.842,89.419,173.928,89.165z"/>
				<path fill="#E19B68" d="M158.704,90.743c0,0,3.483-3.627,4.47-4.05c0.986-0.422,7.377-3.186,8.423-2.814
					c1.046,0.371,4.819,2.502,4.819,2.502s0.612,0.302,0.51,1.192c-0.102,0.89-0.839,3.783-1.057,4.118
					c-0.219,0.336-2.432,1.284-2.592,0.345c0,0-0.401-0.969,1.052-1.325c0,0-0.25-0.774,0.571-1.034c0,0-0.442-1.058,0.204-1.673
					c0,0-2.104-0.563-2.215-1.252c0,0-1.79,0.838-2.357,0.232c0,0-0.143,2.056-0.824,2.636c-0.685,0.579-5.339,2.665-6.128,2.327
					l-1.729,2.102L158.704,90.743z"/>
				<path fill="#E19B68" d="M160.175,89.821c0.191-0.163,0.385-0.321,0.582-0.478c0.446-0.415,0.92-0.804,1.386-1.192
					c1.333-1.114,2.786-2.009,4.425-2.603c0.94-0.341,1.89-0.629,2.842-0.905c0.694-0.271,1.391-0.535,2.094-0.787
					c-1.284-0.205-7.367,2.425-8.329,2.836c-0.986,0.423-4.47,4.05-4.47,4.05l0.321,0.339
					C159.382,90.634,159.741,90.191,160.175,89.821z"/>
				<path opacity="0.5" fill="#E19B68" d="M173.069,86.086c-0.214,0.287-0.677,0.569-1.022,0.717
					c-0.663,0.284-1.168,0.318-1.722-0.26c-0.013,0.056,0.018-0.054,0,0c0.066,1.943-0.308,2.343-0.555,3.017
					c0.047,0.078-0.018-0.051,0,0c0.624-0.637,0.762-2.577,0.762-2.577c0.567,0.606,2.357-0.232,2.357-0.232
					c0.111,0.689,2.215,1.252,2.215,1.252c-0.646,0.615-0.204,1.673-0.204,1.673c-0.821,0.26-0.571,1.034-0.571,1.034
					c-1.453,0.356-1.052,1.325-1.052,1.325c0.087,0.51,0.778,0.462,1.428,0.259c-0.007-0.017-0.018-0.034-0.025-0.052
					c-0.222-0.517-0.281-1.276-0.071-1.799c0.117-0.291,0.131-0.323,0.566-0.582c-0.039-0.081-0.074-0.164-0.104-0.249
					c-0.043-0.122-0.076-0.249-0.095-0.382c-0.094-0.686,0.379-1.384,0.944-1.793C174.715,88.044,173.105,87.031,173.069,86.086z"/>
				<g>
					<g>
						<path fill="none" stroke="#3A3D3A" stroke-width="0.5" stroke-miterlimit="10" d="M173.861,102.589
							c-1.464,0-2.651-1.187-2.651-2.65c0-1.464,1.188-2.65,2.651-2.65"/>
						<g>
							<g>
								<path fill="#A41D21" d="M176.365,90h-2.397h-2.397c-0.117,0,0.43,0.127,0.43,0.245v6.819c0,0.118-0.211,0.211-0.119,0.287
									c0.574,0.483,1.466,1.612,2.248,1.63c0.781-0.018,1.465-1.146,2.04-1.63c0.091-0.076-0.169-0.169-0.169-0.287v-6.819
									C176,90.127,176.483,90,176.365,90z M173.968,97.699c-0.323,0-0.586-0.263-0.586-0.586c0-0.324,0.263-0.586,0.586-0.586
									c0.324,0,0.586,0.263,0.586,0.586C174.554,97.436,174.292,97.699,173.968,97.699z"/>
								<path fill="#ED2224" d="M176.365,90h-2.397h-2.397c-0.117,0,0.43,0.233,0.43,0.352v6.818c0,0.118-0.211,0.211-0.119,0.288
									c0.574,0.483,1.466,1.612,2.248,1.629c0.781-0.017,1.465-1.146,2.04-1.629C176.26,97.381,176,97.288,176,97.17v-6.818
									C176,90.233,176.483,90,176.365,90z M173.968,97.806c-0.323,0-0.586-0.263-0.586-0.587c0-0.323,0.263-0.586,0.586-0.586
									c0.324,0,0.586,0.263,0.586,0.586C174.554,97.543,174.292,97.806,173.968,97.806z"/>
							</g>
						</g>
						<path fill="none" stroke="#3A3D3A" stroke-width="0.5" stroke-miterlimit="10" d="M173.861,97.288
							c1.464,0,2.65,1.186,2.65,2.65"/>
					</g>
					<g>
						<path fill="#727871" d="M176.029,103.979c0.134,0.119,0.162,0.311,0.078,0.46l-1.533,1.727
							c-0.139,0.101-0.333,0.096-0.467-0.023l-0.181-0.161l1.922-2.164L176.029,103.979z"/>
						
							<rect x="174.59" y="105.324" transform="matrix(0.6636 -0.7481 0.7481 0.6636 -19.8362 166.7167)" fill="#727871" width="1.753" height="0.183"/>
						<path fill="#727871" d="M171.638,104.805l1.339,1.188c0.223,0.198,0.551,0.199,0.775,0.018l2.104-2.369
							c0.152-0.244,0.114-0.57-0.109-0.768l-1.339-1.189c-0.248-0.221-0.628-0.198-0.849,0.05l-1.972,2.221
							C171.367,104.204,171.389,104.583,171.638,104.805z M173.158,102.877l0.555-0.622c0.151-0.173,0.417-0.189,0.59-0.036
							l0.228,0.204c0.087,0.076,0.062,0.218-0.047,0.259l-1.152,0.442C173.18,103.183,173.052,102.999,173.158,102.877z"/>
						<polygon fill="#727871" points="179.448,107.948 179.431,108.198 175.954,105.112 176.086,104.962 						"/>
						<polygon fill="#727871" points="178.697,108.674 178.094,108.751 177.894,108.573 177.896,108.316 177.667,108.372 
							177.185,107.943 177.137,107.625 176.844,107.642 176.204,107.073 176.167,106.87 175.916,106.817 175.665,106.593 
							175.663,106.291 175.369,106.332 175.09,106.084 175.395,105.742 						"/>
						<polygon fill="#727871" points="179.417,108.371 179.401,108.586 179.185,108.613 175.639,105.465 175.862,105.214 						"/>
					</g>
					<path fill="none" stroke="#3A3D3A" stroke-width="0.5" stroke-miterlimit="10" d="M176.512,99.938
						c0,1.464-1.187,2.65-2.65,2.65"/>
					<polygon fill="#FFFFFF" points="174.602,93.242 173.391,94.57 173.391,93.674 172.902,93.674 172.902,95.721 172.902,95.857 
						173.391,95.302 173.633,95.026 173.96,94.652 174.267,94.303 174.818,93.674 175.196,93.242 					"/>
				</g>
			</g>
			<g>
				<path fill="#E19B68" d="M163.206,91.727c0,0,2.669,2.292,6.223,0.573c0,0,0.644-0.257,1.105-0.058
					c0.463,0.199,3.896,0.794,4.473-0.267c0.578-1.062-2.016-1.461-2.016-1.461s-1.075-0.333-1.508-0.228
					c0,0-0.81-0.686-2.096-0.771C168.101,89.432,164.283,89.142,163.206,91.727z"/>
			</g>
		</g>
		<path fill="#F3B27E" d="M173.931,92.124c-0.218,0.011-0.396,0.058-0.935-0.021c0,0,0.096-1.063,0.177-1.087
			c0.204-0.063,1.024,0.131,1.105,0.25c0.062,0.093-0.025,0.53-0.08,0.683C174.143,92.101,174.024,92.12,173.931,92.124z"/>
	</g>
</g>
</svg>
