<?xml version="1.0" encoding="utf-8"?>
<!-- Generator: Adobe Illustrator 16.0.0, SVG Export Plug-In . SVG Version: 6.00 Build 0)  -->
<!DOCTYPE svg PUBLIC "-//W3C//DTD SVG 1.1//EN" "http://www.w3.org/Graphics/SVG/1.1/DTD/svg11.dtd">
<svg version="1.1" xmlns="http://www.w3.org/2000/svg" xmlns:xlink="http://www.w3.org/1999/xlink" x="0px" y="0px" width="6000px"
	 height="4000px" viewBox="0 0 6000 4000" enable-background="new 0 0 6000 4000" xml:space="preserve">
<g id="background">
</g>
<g id="object">
	<g>
		<g>
			<path fill="#A0A0A0" d="M1797.168,1825.13l-155.949,134.065l248.727,187.08c0,0,97.248,96.48,113.81,210.756
				c16.556,114.27,100.968,308.504-64.514,620.422l1317.054-2.408l546.648-914.041l53.432-113.468l-792.168-517.681
				l-411.188,227.921l-404.333,145.42L1797.168,1825.13z"/>
		</g>
		<g>
			<g>
				<path fill="#282828" d="M4889.084,3311.852c-396.927,0-719.835-322.908-719.835-719.832
					c0-396.912,322.908-719.822,719.835-719.822c396.919,0,719.827,322.91,719.827,719.822
					C5608.911,2988.943,5286.003,3311.852,4889.084,3311.852z M4889.084,2172.371c-231.391,0-419.64,188.252-419.64,419.648
					c0,231.398,188.249,419.646,419.64,419.646c231.402,0,419.649-188.248,419.649-419.646
					C5308.733,2360.623,5120.486,2172.371,4889.084,2172.371z"/>
			</g>
		</g>
		<g>
			<g>
				<path fill="#282828" d="M1257.137,3311.852c-396.925,0-719.835-322.908-719.835-719.832
					c0-396.912,322.91-719.822,719.835-719.822c396.902,0,719.812,322.91,719.812,719.822
					C1976.948,2988.943,1654.039,3311.852,1257.137,3311.852z M1257.137,2172.371c-231.408,0-419.657,188.252-419.657,419.648
					c0,231.398,188.249,419.646,419.657,419.646c231.385,0,419.634-188.248,419.634-419.646
					C1676.771,2360.623,1488.521,2172.371,1257.137,2172.371z"/>
			</g>
		</g>
		<path fill="#474747" d="M1254.473,2097.781c-271.168,0-490.994,219.803-490.994,490.971s219.826,490.967,490.994,490.967
			c271.144,0,490.97-219.799,490.97-490.967S1525.616,2097.781,1254.473,2097.781z M1616.835,2588.752
			c0,47.35-9.354,92.457-25.866,133.939l-184.381-128.752l187.398-130.871C1608.509,2502.283,1616.835,2544.492,1616.835,2588.752z
			 M1191.975,2945.361c-69.152-12.029-131.404-43.598-181.146-88.926l181.146-126.512V2945.361z M976.434,2821.021
			c-12.149-14.541-22.92-30.203-32.707-46.521l185.161-129.313c7.94,17.609,19.584,33.027,33.759,45.789L976.434,2821.021z
			 M892.086,2588.752c0-47.352,9.354-92.463,25.871-133.941l199.118,139.057c0,0,0,0.072,0,0.119l-195.999,136.889
			C902.441,2687.227,892.086,2639.191,892.086,2588.752z M1254.473,2226.365c9.646,0,19.125,0.707,28.57,1.436v226.084
			c-9.228-1.947-18.779-3.043-28.57-3.043c-9.715,0-19.165,1.047-28.301,2.969v-226.01
			C1235.549,2227.072,1244.902,2226.365,1254.473,2226.365z M1385.857,2548.975c-5.676-18.73-15.076-35.682-27.593-50.102
			l184.597-128.896c11.451,15.076,22.024,30.883,31.035,47.668L1385.857,2548.975z M1177.434,2447.77l-173.056-120.857
			c47.325-45.209,106.753-77.773,173.056-92.145V2447.77z M1156.074,2492.297c-13.33,13.592-23.532,30.008-30.35,48.18
			l-186.41-130.191c9.406-16.564,20.047-32.32,31.836-47.131L1156.074,2492.297z M1504.553,2850.59
			c-43.749,41.799-97.916,72.537-158.25,88.344v-198.852L1504.553,2850.59z M1352.855,2685.205
			c13.321-13.59,23.527-30.033,30.35-48.154l186.405,130.164c-9.382,16.563-20.047,32.322-31.84,47.131L1352.855,2685.205z
			 M1510.955,2332.779l-179.174,125.15v-223.09C1400.909,2249.893,1462.752,2284.48,1510.955,2332.779z M1240.713,2950.43v-225.156
			c4.58,0.463,9.039,1.385,13.76,1.385c15.152,0,29.473-3.041,43.116-7.549v229.227c-14.179,1.682-28.499,2.803-43.116,2.803
			C1249.824,2951.139,1245.316,2950.604,1240.713,2950.43z"/>
		<path fill="#474747" d="M4882.437,2095.32c-271.168,0-490.993,219.801-490.993,490.969s219.825,490.969,490.993,490.969
			c271.145,0,490.972-219.801,490.972-490.969S5153.581,2095.32,4882.437,2095.32z M5244.802,2586.289
			c0,47.35-9.354,92.459-25.867,133.941l-184.381-128.754l187.398-130.871C5236.475,2499.822,5244.802,2542.031,5244.802,2586.289z
			 M4819.939,2942.9c-69.151-12.029-131.403-43.598-181.145-88.926l181.145-126.514V2942.9z M4604.399,2818.561
			c-12.15-14.541-22.921-30.203-32.707-46.521l185.16-129.314c7.941,17.611,19.584,33.029,33.76,45.791L4604.399,2818.561z
			 M4520.052,2586.289c0-47.35,9.352-92.461,25.869-133.939l199.12,139.055c0,0,0,0.072,0,0.121l-195.999,136.889
			C4530.407,2684.764,4520.052,2636.73,4520.052,2586.289z M4882.437,2223.902c9.648,0,19.128,0.709,28.572,1.438v226.084
			c-9.228-1.947-18.778-3.045-28.572-3.045c-9.714,0-19.163,1.049-28.301,2.971v-226.01
			C4863.514,2224.611,4872.868,2223.902,4882.437,2223.902z M5013.822,2546.514c-5.675-18.73-15.077-35.682-27.592-50.102
			l184.598-128.896c11.448,15.076,22.022,30.881,31.032,47.668L5013.822,2546.514z M4805.398,2445.309l-173.055-120.857
			c47.325-45.209,106.752-77.775,173.055-92.145V2445.309z M4784.04,2489.836c-13.33,13.59-23.531,30.008-30.35,48.178
			l-186.411-130.191c9.407-16.563,20.047-32.318,31.836-47.129L4784.04,2489.836z M5132.518,2848.129
			c-43.748,41.799-97.915,72.535-158.248,88.342v-198.85L5132.518,2848.129z M4980.821,2682.744
			c13.321-13.592,23.525-30.033,30.35-48.154l186.405,130.164c-9.382,16.563-20.048,32.322-31.841,47.131L4980.821,2682.744z
			 M5138.921,2330.318l-179.176,125.15v-223.09C5028.875,2247.432,5090.718,2282.02,5138.921,2330.318z M4868.678,2947.969v-225.156
			c4.581,0.463,9.04,1.385,13.759,1.385c15.154,0,29.475-3.041,43.117-7.549v229.227c-14.18,1.68-28.498,2.801-43.117,2.801
			C4877.79,2948.676,4873.282,2948.141,4868.678,2947.969z"/>
		<g>
			<g>
				<path fill="#FF0000" d="M4090.193,2435.801c0,0,50.619-338.238,357.807-520.72c309.381-183.789,621.8-85.768,621.8-85.768
					s12.264,104.145-104.132,156.214c0,0-208.287,0-260.366,33.696c-52.077,33.691,87.371,218.004,87.371,218.004l-196.028,128.65
					c0,0-96.568-196.563-157.829-181.252c-61.279,15.318-140.907,226.674-140.907,226.674S4191.844,2500.129,4090.193,2435.801z"/>
			</g>
		</g>
		<g>
			<path fill="none" stroke="#8E8E8E" stroke-width="18" stroke-linecap="round" stroke-miterlimit="10" d="M3286.441,2922.258"/>
		</g>
		<g>
			<path fill="none" stroke="#8E8E8E" stroke-width="18" stroke-linecap="round" stroke-miterlimit="10" d="M3970.147,1170.738"/>
		</g>
		<g>
			<path fill="none" stroke="#8E8E8E" stroke-width="18" stroke-linecap="round" stroke-miterlimit="10" d="M3330.238,2927.246"/>
		</g>
		<g>
			<path fill="none" stroke="#8E8E8E" stroke-width="18" stroke-linecap="round" stroke-miterlimit="10" d="M3926.35,1165.748"/>
		</g>
		<g>
			<path fill="#A50000" d="M3054.731,1434.018c0,0,616.637-473.616,701.66-474.633c186.663-2.218,208.019,477.811,135.001,717.059
				C3818.374,1915.696,3054.731,1434.018,3054.731,1434.018z"/>
		</g>
		<g>
			<path fill="#606060" d="M3014.455,2046.791c0-125.189,101.492-226.669,226.677-226.669c125.181,0,226.667,101.48,226.667,226.669
				c0,125.186-101.486,226.662-226.667,226.662C3115.947,2273.453,3014.455,2171.977,3014.455,2046.791z"/>
		</g>
		<g>
			<path fill="#3D3D3D" d="M1255.005,2631.803c-8.558,0-16.87-4.496-21.378-12.486c-6.643-11.787-2.471-26.725,9.322-33.371
				l711.908-451.846c11.793-6.645,26.734-2.463,33.38,9.322c6.627,11.793,2.469,26.73-9.324,33.379l-711.907,451.836
				C1263.196,2630.787,1259.074,2631.803,1255.005,2631.803z"/>
		</g>
		<g>
			<path fill="#A50000" d="M2653.019,1657.776c0,0,27.569,122.52-165.412,220.545c-192.983,98.018-281.812,143.964-281.812,143.964
				s-36.752-49.004-107.195,0c-70.461,49.006-107.217,67.391-177.658,0c-70.46-67.392-293.777-249.83-143.968-346.13
				c42.878-27.57,95.854-39.163,241.982,42.883c149.754,84.079,276.536,63.88,330.806,33.691
				C2524.357,1655.619,2653.019,1657.776,2653.019,1657.776z"/>
		</g>
		<g>
			<g>
				<path fill="#FF0000" d="M1735.959,1718.418c-1.701,3.332-93.767-121.911-439.898-121.911s-609.555,226.42-676.959,344.483
					c0,0,89.074,155.958,248.118,99.669c151.239-53.513,214.431-105.804,413.519-105.804c220.547,0,401.268,170.128,425.775,206.888
					s51.657,77.986,183.779,0l-163.983-177.66l81.696-52.143L1735.959,1718.418z"/>
			</g>
		</g>
		<g>
			<g>
				<polygon fill="#A0A0A0" points="1807.605,2610.404 704.873,2610.404 619.102,2426.613 1807.605,2426.613 				"/>
			</g>
		</g>
		<g>
			<path fill="#282828" d="M2349.762,2579.768h-542.156v-122.523h542.156c148.611,0,168.073-23.668,212.654-105.801l107.681,58.447
				C2597.707,2543.258,2528.848,2579.768,2349.762,2579.768z"/>
		</g>
		<g>
			<path fill="#282828" d="M2616.197,2441.941c-9.862,0-19.882-2.396-29.169-7.43c-29.728-16.148-40.754-53.336-24.612-83.068
				c45.483-83.797,81.783-164.623,97.283-199.133c4.974-11.1,7.252-16.143,8.973-19.586c15.135-30.268,51.939-42.527,82.188-27.395
				c30.244,15.125,42.525,51.885,27.426,82.141c-1.146,2.365-3.46,7.551-6.814,15.021c-16.06,35.775-53.681,119.555-101.375,207.398
				C2659,2430.348,2637.941,2441.941,2616.197,2441.941z"/>
		</g>
		<g>
			<g>
				<polygon fill="#A0A0A0" points="1807.605,2870.76 868.753,2870.76 786.049,2686.98 1807.605,2686.98 				"/>
			</g>
		</g>
		<g>
			<path fill="#606060" d="M3017.762,2797.258c0,0-3.307-370.645-3.307-364.521c0,6.131,161.154-73.512,161.154-73.512v73.512
				h132.258v-73.512l146.784,73.512l-4.97,228.084l-107.843,136.438H3017.762z"/>
		</g>
		<g>
			<path fill="#606060" d="M2784.723,2644.098c0-43.73-29.289-85.77-87.09-85.77h-213.086c-47.364,0-85.77,38.393-85.77,85.77
				c0,47.359,38.405,85.762,85.77,85.762v7.229h238.914v-10.824C2758.893,2715.713,2784.723,2682.945,2784.723,2644.098z"/>
		</g>
		<g>
			<polygon fill="#606060" points="2654.377,1881.377 2702.032,2000.834 3121.672,1801.745 3069.596,1688.411 			"/>
		</g>
		<g>
			<polygon fill="#606060" points="3779.389,1873.179 3736.046,1987.567 3354.207,1796.926 3401.603,1688.411 			"/>
		</g>
		<g>
			<polygon fill="#606060" points="3112.364,2394.324 2857.932,1928.019 2890.197,1910.409 3144.629,2376.713 			"/>
		</g>
		<g>
			<polygon fill="#606060" points="3374.448,2394.309 3342.151,2376.73 3595.891,1910.426 3628.172,1928.004 			"/>
		</g>
		<g>
			<path fill="#2E2E2E" d="M3903.867,1271.481c-24.922,0.012-47.988-16.142-55.639-41.229l-86.082-282.226l-333.537,132.826
				c-29.865,11.88-63.715-2.681-75.593-32.546c-11.896-29.865,2.679-63.713,32.524-75.6l451.053-179.615l122.969,403.208
				c9.378,30.743-7.947,63.268-38.684,72.645C3915.209,1270.667,3909.485,1271.481,3903.867,1271.481z"/>
		</g>
		<g>
			<path fill="#606060" d="M1936.247,2149.301c0-22.021,17.844-39.871,39.882-39.871c22.023,0,39.869,17.85,39.869,39.871
				c0,22.031-17.846,39.883-39.869,39.883C1954.091,2189.184,1936.247,2171.332,1936.247,2149.301z"/>
		</g>
		<g>
			<polygon fill="#606060" points="2156.587,2152.369 2398.777,2006.91 2530.496,2245.891 2496.791,2353.104 2251.747,2385.521 			
				"/>
		</g>
		<g>
			<polygon fill="#606060" points="1837.486,2335.543 2079.676,2190.09 2168.506,2410.691 1869.111,2413.023 			"/>
		</g>
		<g>
			<g>
				<path fill="#2E2E2E" d="M4245.554,768.298c-123.491,0-284.871,100.119-284.871,223.611
					c0,123.499,161.38,223.606,284.871,223.606c6.297,0,12.54-0.323,18.717-0.836V769.142
					C4258.094,768.631,4251.851,768.298,4245.554,768.298z"/>
			</g>
			<g>
				<g>
					<path fill="#FFAC1A" d="M4469.15,991.91c0-117.187-90.149-213.248-204.88-222.768v445.537
						C4379.001,1205.165,4469.15,1109.093,4469.15,991.91z"/>
				</g>
			</g>
		</g>
		<g>
			<path fill="none" stroke="#000000" stroke-width="19" stroke-linecap="round" stroke-miterlimit="10" d="M3725.313,870.555"/>
		</g>
		<g>
			<path fill="none" stroke="#000000" stroke-width="19" stroke-linecap="round" stroke-miterlimit="10" d="M3333.021,1026.772"/>
		</g>
		<g>
			<path fill="#282828" d="M3286.515,2977.404c-2.61,0-5.254-0.193-7.916-0.564c-30.144-4.332-51.067-32.273-46.735-62.418
				l856.512-1554.037c4.332-30.147,32.25-51.05,62.411-46.747c30.141,4.339,51.064,32.273,46.732,62.419l-856.495,1554.037
				C3337.074,2957.584,3313.489,2977.404,3286.515,2977.404z"/>
		</g>
		<g>
			<g>
				<path fill="#FF0000" d="M2837.35,1660.838c-2.055,67.355,113.333,76.576,480.896,76.576
					c367.576,0,536.037,36.76,536.037-281.802s-283.083-263.428-509.111-168.475
					C3119.144,1382.098,2840.41,1559.754,2837.35,1660.838z"/>
			</g>
		</g>
		<g>
			<g>
				<path fill="#282828" d="M3201.158,2843.199H1807.605v-122.525h1393.553c152.577,0,172.336-21.781,217.354-97.328l105.263,62.707
					C3450.269,2809.422,3380.925,2843.199,3201.158,2843.199z"/>
			</g>
			<g>
				<path fill="#282828" d="M3471.092,2715.965c-10.68,0-21.48-2.781-31.309-8.635c-29.065-17.318-38.595-54.922-21.271-83.984
					c57.831-97.074,276.139-489.072,278.347-493.021c16.452-29.568,53.743-40.188,83.311-23.723
					c29.575,16.453,40.182,53.764,23.73,83.324c-9.01,16.18-221.388,397.529-280.125,496.127
					C3512.313,2705.287,3491.959,2715.965,3471.092,2715.965z"/>
			</g>
		</g>
		<g>
			<path fill="#8E8E8E" d="M4889.136,2647.166c-18.089,0-35.797-8.889-46.356-25.203l-918.936-1421.292
				c-16.521-25.563-9.203-59.7,16.369-76.232c25.566-16.524,59.711-9.201,76.235,16.366l918.938,1421.279
				c16.539,25.572,9.201,59.705-16.367,76.236C4909.762,2644.307,4899.396,2647.166,4889.136,2647.166z"/>
		</g>
		<g>
			<path fill="#8E8E8E" d="M3799.353,967.043c-9.588,0-17.653-7.425-18.314-17.127l-17.31-255.167l-99.925,10.303
				c-10.121,1.061-19.131-6.306-20.177-16.397c-1.044-10.101,6.313-19.126,16.404-20.172l118.865-12.253
				c4.972-0.494,9.914,1.029,13.724,4.235c3.808,3.206,6.155,7.837,6.503,12.811l18.597,274.147
				c0.679,10.122-6.978,18.89-17.098,19.577C3800.202,967.024,3799.769,967.043,3799.353,967.043z"/>
		</g>
		<g>
			<path fill="#8E8E8E" d="M3707.267,679.112c0,68.513-22.626,124.059-50.543,124.059s-50.544-55.546-50.544-124.059
				s22.627-124.049,50.544-124.049S3707.267,610.599,3707.267,679.112z"/>
		</g>
		<path fill="#2E2E2E" d="M4265.119,1432.452l-200.171,121.104c-11.859,7.174-27.447,3.336-34.605-8.524l-62.384-103.081
			c-7.16-11.86-3.336-27.436,8.529-34.61l200.165-121.106c11.865-7.174,27.452-3.336,34.611,8.529l62.382,103.076
			C4280.808,1409.702,4276.983,1425.277,4265.119,1432.452z"/>
		<path fill="#2E2E2E" d="M4520.473,1868.934l-151.624,91.705c-9.299,5.627-21.508,2.628-27.134-6.675l-48.083-79.476
			c-5.621-9.306-2.629-21.508,6.679-27.137l151.617-91.728c9.312-5.627,21.509-2.608,27.14,6.673l48.079,79.479
			C4532.772,1851.081,4529.783,1863.284,4520.473,1868.934z"/>
		<g>
			<g>
				<path fill="#0B0B0B" d="M975.424,2831.773L975.424,2831.773c6.846,0,12.448-5.604,12.448-12.447v-82.5
					c0-6.867-5.603-12.467-12.448-12.467l0,0c-6.865,0-12.473,5.6-12.473,12.467v82.5
					C962.951,2826.17,968.559,2831.773,975.424,2831.773z"/>
			</g>
			<g>
				<path fill="#0B0B0B" d="M1037.049,2831.773L1037.049,2831.773c6.871,0,12.444-5.604,12.444-12.447v-82.5
					c0-6.867-5.573-12.467-12.444-12.467l0,0c-6.841,0-12.443,5.6-12.443,12.467v82.5
					C1024.605,2826.17,1030.208,2831.773,1037.049,2831.773z"/>
			</g>
			<g>
				<path fill="#0B0B0B" d="M1096.385,2831.773L1096.385,2831.773c6.846,0,12.443-5.604,12.443-12.447v-82.5
					c0-6.867-5.598-12.467-12.443-12.467l0,0c-6.846,0-12.448,5.6-12.448,12.467v82.5
					C1083.937,2826.17,1089.539,2831.773,1096.385,2831.773z"/>
			</g>
		</g>
		<g>
			<g>
				<path fill="#0B0B0B" d="M849.53,2567.643L849.53,2567.643c6.847,0,12.448-5.602,12.448-12.445v-82.5
					c0-6.867-5.602-12.467-12.448-12.467l0,0c-6.865,0-12.473,5.6-12.473,12.467v82.5
					C837.058,2562.041,842.665,2567.643,849.53,2567.643z"/>
			</g>
			<g>
				<path fill="#0B0B0B" d="M911.156,2567.643L911.156,2567.643c6.87,0,12.443-5.602,12.443-12.445v-82.5
					c0-6.867-5.573-12.467-12.443-12.467l0,0c-6.842,0-12.443,5.6-12.443,12.467v82.5
					C898.713,2562.041,904.314,2567.643,911.156,2567.643z"/>
			</g>
			<g>
				<path fill="#0B0B0B" d="M970.492,2567.643L970.492,2567.643c6.846,0,12.443-5.602,12.443-12.445v-82.5
					c0-6.867-5.598-12.467-12.443-12.467l0,0c-6.847,0-12.449,5.6-12.449,12.467v82.5
					C958.043,2562.041,963.646,2567.643,970.492,2567.643z"/>
			</g>
		</g>
	</g>
</g>
<g id="Layer_3">
</g>
</svg>
