<?xml version="1.0" encoding="utf-8"?>
<!-- Generator: Adobe Illustrator 16.0.0, SVG Export Plug-In . SVG Version: 6.00 Build 0)  -->
<!DOCTYPE svg PUBLIC "-//W3C//DTD SVG 1.1//EN" "http://www.w3.org/Graphics/SVG/1.1/DTD/svg11.dtd">
<svg version="1.1" xmlns="http://www.w3.org/2000/svg" xmlns:xlink="http://www.w3.org/1999/xlink" x="0px" y="0px" width="280px"
	 height="170px" viewBox="0 0 280 170" enable-background="new 0 0 280 170" xml:space="preserve">
<g id="Layer_1">
	<g>
		<ellipse opacity="0.7" cx="141.463" cy="136.163" rx="94.539" ry="2.782"/>
		<g>
			<g>
				<g>
					<path fill="#282828" d="M89.921,77.418l-6.14,5.278l9.791,7.362c0,0,3.824,3.798,4.479,8.297
						c0.652,4.497,3.974,12.143-2.541,24.42l51.842-0.098l21.517-35.974l2.102-4.466l-31.181-20.375l-16.183,8.97l-15.914,5.723
						L89.921,77.418z"/>
				</g>
				<g>
					<g>
						<path fill="#282828" d="M211.615,135.936c-15.621,0-28.332-12.71-28.332-28.332c0-15.621,12.711-28.331,28.332-28.331
							c15.624,0,28.334,12.71,28.334,28.331C239.949,123.226,227.239,135.936,211.615,135.936z M211.615,91.086
							c-9.107,0-16.515,7.411-16.515,16.518c0,9.108,7.407,16.516,16.515,16.516c9.109,0,16.517-7.407,16.517-16.516
							C228.132,98.497,220.725,91.086,211.615,91.086z"/>
					</g>
				</g>
				<g>
					<g>
						<path fill="#282828" d="M68.666,135.936c-15.625,0-28.334-12.71-28.334-28.332c0-15.621,12.709-28.331,28.334-28.331
							c15.621,0,28.331,12.71,28.331,28.331C96.997,123.226,84.287,135.936,68.666,135.936z M68.666,91.086
							c-9.109,0-16.52,7.411-16.52,16.518c0,9.108,7.41,16.516,16.52,16.516c9.107,0,16.515-7.407,16.515-16.516
							C85.181,98.497,77.773,91.086,68.666,91.086z"/>
					</g>
				</g>
				<path fill="#484848" d="M68.559,88.151c-10.673,0-19.324,8.65-19.324,19.322c0,10.674,8.651,19.325,19.324,19.325
					c10.671,0,19.326-8.651,19.326-19.325C87.885,96.802,79.229,88.151,68.559,88.151z M82.823,107.474
					c0,1.864-0.368,3.644-1.02,5.272l-7.26-5.064l7.376-5.151C82.492,104.072,82.823,105.733,82.823,107.474z M66.1,121.511
					c-2.722-0.472-5.17-1.716-7.129-3.5l7.129-4.979V121.511z M57.618,116.619c-0.48-0.574-0.903-1.189-1.289-1.832l7.286-5.09
					c0.314,0.694,0.772,1.3,1.33,1.802L57.618,116.619z M54.296,107.474c0-1.863,0.368-3.637,1.02-5.269l7.834,5.472v0.006
					l-7.713,5.387C54.702,111.353,54.296,109.461,54.296,107.474z M68.559,93.213c0.38,0,0.752,0.028,1.125,0.056v8.899
					c-0.363-0.077-0.738-0.12-1.125-0.12c-0.381,0-0.754,0.041-1.112,0.115v-8.895C67.812,93.241,68.184,93.213,68.559,93.213z
					 M73.731,105.91c-0.225-0.738-0.593-1.404-1.086-1.971l7.264-5.074c0.451,0.595,0.868,1.215,1.223,1.874L73.731,105.91z
					 M65.527,101.926l-6.811-4.757c1.859-1.777,4.202-3.062,6.811-3.627V101.926z M64.688,103.681
					c-0.523,0.531-0.928,1.179-1.196,1.894l-7.339-5.122c0.372-0.653,0.789-1.272,1.255-1.855L64.688,103.681z M78.402,117.782
					c-1.722,1.646-3.852,2.855-6.229,3.477v-7.825L78.402,117.782z M72.432,111.272c0.524-0.534,0.927-1.185,1.196-1.897
					l7.335,5.125c-0.369,0.652-0.789,1.272-1.251,1.856L72.432,111.272z M78.654,97.399l-7.052,4.927v-8.781
					C74.324,94.14,76.755,95.498,78.654,97.399z M68.016,121.713v-8.864c0.183,0.02,0.358,0.056,0.543,0.056
					c0.597,0,1.162-0.12,1.7-0.296v9.02c-0.563,0.066-1.124,0.109-1.7,0.109C68.378,121.737,68.201,121.718,68.016,121.713z"/>
				<path fill="#484848" d="M211.356,88.056c-10.674,0-19.329,8.649-19.329,19.324c0,10.671,8.655,19.325,19.329,19.325
					c10.671,0,19.325-8.654,19.325-19.325C230.682,96.705,222.027,88.056,211.356,88.056z M225.616,107.38
					c0,1.861-0.368,3.639-1.016,5.272l-7.256-5.069l7.372-5.151C225.289,103.976,225.616,105.637,225.616,107.38z M208.896,121.415
					c-2.722-0.473-5.176-1.715-7.133-3.499l7.133-4.981V121.415z M200.41,116.52c-0.475-0.569-0.903-1.188-1.286-1.83l7.288-5.09
					c0.313,0.692,0.771,1.301,1.329,1.804L200.41,116.52z M197.092,107.38c0-1.866,0.369-3.641,1.021-5.273l7.834,5.473
					c0,0,0,0.004,0,0.005l-7.713,5.39C197.499,111.254,197.092,109.364,197.092,107.38z M211.356,93.114
					c0.379,0,0.75,0.028,1.123,0.057v8.898c-0.366-0.077-0.738-0.118-1.123-0.118c-0.382,0-0.754,0.04-1.113,0.115v-8.896
					C210.607,93.143,210.979,93.114,211.356,93.114z M216.527,105.813c-0.223-0.736-0.596-1.404-1.084-1.971l7.262-5.073
					c0.451,0.593,0.867,1.214,1.223,1.875L216.527,105.813z M208.324,101.83l-6.811-4.757c1.862-1.78,4.199-3.063,6.811-3.628
					V101.83z M207.48,103.583c-0.524,0.534-0.924,1.179-1.191,1.896l-7.34-5.124c0.372-0.653,0.793-1.271,1.254-1.854
					L207.48,103.583z M221.195,117.685c-1.719,1.645-3.851,2.855-6.226,3.477v-7.825L221.195,117.685z M215.229,111.175
					c0.524-0.533,0.924-1.183,1.196-1.895l7.335,5.123c-0.373,0.651-0.79,1.271-1.254,1.854L215.229,111.175z M221.451,97.303
					l-7.053,4.926V93.45C217.119,94.041,219.552,95.402,221.451,97.303z M210.814,121.614v-8.862
					c0.18,0.019,0.356,0.056,0.542,0.056c0.596,0,1.16-0.121,1.695-0.298v9.021c-0.559,0.067-1.12,0.112-1.695,0.112
					C211.174,121.644,210.994,121.621,210.814,121.614z"/>
				<g>
					<path fill="#ED1F24" d="M180.172,101.456c0,0,1.991-13.313,14.086-20.497c12.175-7.234,24.472-3.374,24.472-3.374
						s0.481,4.097-4.101,6.146c0,0-8.196,0-10.247,1.327c-2.051,1.326,3.439,8.581,3.439,8.581l-7.715,5.063
						c0,0-3.8-7.736-6.212-7.133c-2.411,0.602-5.547,8.92-5.547,8.92S184.173,103.988,180.172,101.456z"/>
				</g>
				<g>
					<path fill="none" stroke="#8F8F8E" stroke-width="18" stroke-linecap="round" stroke-miterlimit="10" d="M148.536,120.602"/>
				</g>
				<g>
					<path fill="none" stroke="#8F8F8E" stroke-width="18" stroke-linecap="round" stroke-miterlimit="10" d="M175.445,51.663"/>
				</g>
				<g>
					<path fill="none" stroke="#8F8F8E" stroke-width="18" stroke-linecap="round" stroke-miterlimit="10" d="M150.263,120.8"/>
				</g>
				<g>
					<path fill="none" stroke="#8F8F8E" stroke-width="18" stroke-linecap="round" stroke-miterlimit="10" d="M173.724,51.468"/>
				</g>
				<g>
					<path fill="#A41D21" d="M139.417,62.025c0,0,24.269-18.641,27.618-18.679c7.346-0.088,8.187,18.805,5.313,28.223
						C169.475,80.982,139.417,62.025,139.417,62.025z"/>
				</g>
				<g>
					<circle fill="#484848" cx="146.754" cy="86.144" r="8.922"/>
				</g>
				<g>
					<path fill="#373636" d="M68.579,109.172c-0.333,0-0.665-0.178-0.838-0.494c-0.264-0.463-0.098-1.05,0.364-1.313l28.02-17.786
						c0.467-0.261,1.055-0.095,1.313,0.367c0.263,0.465,0.101,1.054-0.365,1.313l-28.021,17.787
						C68.904,109.13,68.742,109.172,68.579,109.172z"/>
				</g>
				<g>
					<path fill="#A41D21" d="M123.606,70.833c0,0,1.085,4.822-6.512,8.681c-7.594,3.858-11.091,5.666-11.091,5.666
						s-1.447-1.928-4.22,0c-2.774,1.93-4.222,2.654-6.991,0c-2.773-2.652-11.563-9.833-5.668-13.622
						c1.688-1.085,3.772-1.54,9.523,1.686c5.895,3.31,10.887,2.516,13.023,1.329C118.542,70.747,123.606,70.833,123.606,70.833z"/>
				</g>
				<g>
					<path fill="#ED1F24" d="M87.51,73.219c-0.066,0.132-3.69-4.798-17.313-4.798s-23.99,8.911-26.644,13.559
						c0,0,3.504,6.138,9.766,3.922c5.953-2.104,8.439-4.164,16.275-4.164c8.678,0,15.792,6.697,16.758,8.143
						c0.965,1.446,2.033,3.07,7.236,0l-6.454-6.993l3.214-2.05L87.51,73.219z"/>
				</g>
				<g>
					<g>
						<polygon fill="#8F8F8E" points="90.331,108.327 46.93,108.327 43.553,101.096 90.331,101.096 						"/>
					</g>
				</g>
				<g>
					<path fill="#8F8F8E" d="M111.672,107.123H90.331v-4.825h21.341c5.85,0,6.611-0.932,8.367-4.162l4.239,2.3
						C121.428,105.685,118.72,107.123,111.672,107.123z"/>
				</g>
				<g>
					<path fill="#8F8F8E" d="M122.155,101.696c-0.386,0-0.781-0.093-1.146-0.293c-1.173-0.633-1.606-2.099-0.97-3.268
						c1.79-3.297,3.219-6.481,3.832-7.838c0.193-0.438,0.282-0.634,0.352-0.771c0.597-1.192,2.043-1.675,3.235-1.08
						c1.189,0.596,1.672,2.043,1.079,3.233c-0.045,0.094-0.135,0.298-0.27,0.593c-0.63,1.409-2.112,4.705-3.989,8.162
						C123.841,101.241,123.014,101.696,122.155,101.696z"/>
				</g>
				<g>
					<g>
						<polygon fill="#8F8F8E" points="90.331,118.575 53.379,118.575 50.119,111.342 90.331,111.342 						"/>
					</g>
				</g>
				<g>
					<path fill="#484848" d="M137.963,115.683c0,0-0.131-14.587-0.131-14.349c0,0.242,6.344-2.893,6.344-2.893v2.893h5.205v-2.893
						l5.778,2.893l-0.197,8.979l-4.245,5.369H137.963z"/>
				</g>
				<g>
					<path fill="#484848" d="M128.787,109.652c0-1.72-1.149-3.373-3.424-3.373h-8.39c-1.863,0-3.372,1.511-3.372,3.373
						c0,1.865,1.509,3.378,3.372,3.378v0.283h9.406v-0.425C127.771,112.474,128.787,111.183,128.787,109.652z"/>
				</g>
				<g>
					<polygon fill="#484848" points="123.657,79.634 125.536,84.334 142.053,76.5 140.003,72.039 					"/>
				</g>
				<g>
					<polygon fill="#484848" points="167.938,79.31 166.234,83.813 151.203,76.309 153.067,72.039 					"/>
				</g>
				<g>
					
						<rect x="126.86" y="89.575" transform="matrix(0.4789 0.8779 -0.8779 0.4789 150.822 -73.4888)" fill="#484848" width="20.907" height="1.447"/>
				</g>
				<g>
					<polygon fill="#484848" points="152.003,99.822 150.728,99.132 160.72,80.775 161.986,81.469 					"/>
				</g>
				<g>
					<path fill="#282828" d="M175.138,53.858c-0.977,0-1.888-0.636-2.188-1.622l-3.39-11.109l-13.127,5.228
						c-1.175,0.467-2.508-0.105-2.973-1.28c-0.473-1.178,0.103-2.508,1.277-2.977l17.754-7.07l4.842,15.87
						c0.368,1.209-0.314,2.491-1.523,2.86C175.587,53.824,175.362,53.858,175.138,53.858z"/>
				</g>
				<g>
					<circle fill="#373636" cx="96.963" cy="90.179" r="1.572"/>
				</g>
				<g>
					<polygon fill="#484848" points="104.067,90.298 113.602,84.575 118.785,93.98 117.456,98.199 107.813,99.478 					"/>
				</g>
				<g>
					<polygon fill="#484848" points="91.506,97.509 101.039,91.786 104.535,100.466 92.754,100.559 					"/>
				</g>
				<g>
					<g>
						<path fill="#282828" d="M186.288,35.823c-4.861,0-11.215,3.939-11.215,8.801c0,4.862,6.354,8.802,11.215,8.802
							c0.247,0,0.491-0.013,0.737-0.033V35.857C186.779,35.836,186.535,35.823,186.288,35.823z"/>
					</g>
					<g>
						<g>
							<path fill="#FBAB20" d="M195.087,44.624c0-4.613-3.545-8.393-8.062-8.766v17.535
								C191.542,53.019,195.087,49.238,195.087,44.624z"/>
						</g>
					</g>
				</g>
				<g>
					<path fill="none" stroke="#010101" stroke-width="19" stroke-linecap="round" stroke-miterlimit="10" d="M165.813,39.849"/>
				</g>
				<g>
					<path fill="none" stroke="#010101" stroke-width="19" stroke-linecap="round" stroke-miterlimit="10" d="M150.371,45.997"/>
				</g>
				<g>
					<path fill="#282828" d="M148.54,122.773c-0.104,0-0.207-0.01-0.31-0.022c-1.189-0.171-2.013-1.271-1.844-2.456l33.714-61.167
						c0.171-1.187,1.271-2.01,2.456-1.841c1.189,0.17,2.013,1.269,1.84,2.456l-33.714,61.167
						C150.531,121.993,149.601,122.773,148.54,122.773z"/>
				</g>
				<g>
					<path fill="#ED1F24" d="M130.862,70.955c-0.083,2.65,4.458,3.012,18.926,3.012c14.47,0,21.099,1.447,21.099-11.093
						c0-12.536-11.142-10.367-20.037-6.628C141.953,59.982,130.982,66.974,130.862,70.955z"/>
				</g>
				<g>
					<g>
						<path fill="#8F8F8E" d="M145.18,117.49H90.331v-4.821h54.849c6.006,0,6.785-0.857,8.557-3.832l4.141,2.469
							C154.986,116.16,152.258,117.49,145.18,117.49z"/>
					</g>
					<g>
						<path fill="#8F8F8E" d="M155.807,112.485c-0.425,0-0.847-0.114-1.233-0.343c-1.145-0.684-1.519-2.162-0.837-3.306
							c2.276-3.821,10.87-19.249,10.956-19.406c0.647-1.162,2.113-1.581,3.279-0.932c1.162,0.647,1.582,2.115,0.931,3.278
							c-0.352,0.637-8.715,15.646-11.025,19.528C157.425,112.063,156.627,112.485,155.807,112.485z"/>
					</g>
				</g>
				<g>
					<path fill="#8F8F8E" d="M211.621,109.773c-0.717,0-1.412-0.35-1.826-0.992l-36.169-55.94c-0.651-1.006-0.361-2.35,0.645-3.001
						c1.006-0.649,2.35-0.359,3.001,0.647l36.169,55.94c0.648,1.006,0.361,2.35-0.645,2.999
						C212.431,109.662,212.021,109.773,211.621,109.773z"/>
				</g>
				<path fill="#282828" d="M187.056,61.964l-7.876,4.767c-0.464,0.283-1.082,0.132-1.365-0.335l-2.452-4.057
					c-0.282-0.467-0.13-1.08,0.334-1.363l7.88-4.767c0.465-0.282,1.082-0.131,1.364,0.335l2.452,4.056
					C187.676,61.07,187.523,61.682,187.056,61.964z"/>
				<path fill="#282828" d="M197.109,79.146l-5.967,3.609c-0.369,0.219-0.848,0.1-1.069-0.265l-1.894-3.128
					c-0.222-0.367-0.1-0.846,0.266-1.069l5.967-3.609c0.365-0.222,0.844-0.104,1.067,0.262l1.892,3.128
					C197.592,78.44,197.475,78.923,197.109,79.146z"/>
			</g>
		</g>
	</g>
</g>
<g id="Layer_2">
</g>
</svg>
