<?xml version="1.0" encoding="UTF-8"?>
<svg width="300px" height="195px" viewBox="0 0 300 195" version="1.1" xmlns="http://www.w3.org/2000/svg" xmlns:xlink="http://www.w3.org/1999/xlink">
    <!-- Generator: Sketch 56 (81588) - https://sketch.com -->
    <title>high-end-bike-icon</title>
    <desc>Created with Sketch.</desc>
    <g id="Page-1" stroke="none" stroke-width="1" fill="none" fill-rule="evenodd">
        <g id="Bike-Bazaar-new-header" transform="translate(-1064.000000, -1261.000000)">
            <g id="SuperBike" transform="translate(1031.000000, 1229.000000)">
                <g id="Group-8">
                    <g id="high-end-bike-icon" transform="translate(33.000000, 32.000000)">
                        <rect id="Rectangle" fill="#FFFFFF" opacity="0.01" x="0" y="0" width="300" height="195" rx="4"></rect>
                        <path d="M267.323517,111.175572 L271.049327,108.361365 C271.049327,108.361365 259.824845,102.721187 252.023285,103.244624 C248.326881,103.491639 245.053931,104.376776 242.13092,105.726537 C260.510018,92.8199996 272.216768,96.8516385 276.095493,91.6613812 C279.071436,87.6709115 265.415031,71.7266764 255.155084,60.1199084 C251.135207,55.5736547 245.545021,50.8009705 240.240078,46.6781713 C240.281247,45.2637159 240.172443,37.9503052 233.720644,33.9863014 L230.106578,39.2530157 C226.695418,36.8828472 224.41935,35.4301633 224.41935,35.4301633 C224.41935,35.4301633 203.431891,42.8082684 206.463707,45.5842474 C209.251448,48.1396772 231.985657,55.1825475 239.057934,63.2928759 L234.705764,68.9448161 L237.587607,71.9707508 C237.587607,71.9707508 239.254958,70.4857197 239.75781,72.797075 C240.440043,75.922992 234.614604,73.9821593 234.614604,73.9821593 L229.571379,68.4507859 L229.571379,58.7495629 L220.722946,58.7495629 L218.270439,56.0618036 C218.270439,56.0618036 205.952033,57.4056832 204.561103,61.3196959 C203.720075,63.2105375 205.634442,69.7299712 205.634442,69.7299712 L203.493645,69.8034876 C203.302502,69.0330358 202.758481,67.9920437 201.399898,67.0892624 C200.567692,66.5334784 195.795008,64.3603339 189.25499,61.9489962 C189.07561,60.8021405 188.363971,59.8523087 187.317098,59.5405992 L184.217647,58.6231147 C183.294281,58.3496337 182.317983,58.6378179 181.565175,59.3024061 C171.305227,56.0265157 159.222073,53.2358335 150.811798,54.4062144 C147.968184,55.0825652 135.57038,56.476436 128.471637,72.4530183 L98.6533882,73.5057731 C92.3427411,72.2736383 85.6409869,70.0593246 79.4097375,66.2335316 C77.7218011,65.1984208 76.7837319,65.6101126 76.2485326,66.2864634 C74.5341303,64.3221054 73.0990904,62.3371628 72.1051488,60.3904487 C72.6138822,60.4492618 72.9873455,60.4522025 73.1931914,60.3933894 C75.16049,59.1641953 77.1366106,49.7364532 74.8664244,49.4894381 C72.5991789,49.2365417 33.6178472,44.8637867 31.9740207,44.6961694 C31.0036043,44.5961871 29.5538611,45.3607575 29.6450214,46.4488001 L17.717722,45.6401198 L22.4904061,53.4240354 C15.650441,54.6179416 13.8095906,56.9939914 13.8095906,56.9939914 L9.51917391,56.9939914 L9.51917391,61.0344523 L12.1981112,65.7218575 L32.7327099,74.9143471 L31.8505131,76.555233 L13.3037978,78.3225671 L13.3037978,80.0575539 L16.8355252,82.610043 L16.8355252,86.3946669 L19.1057114,86.3946669 L21.8816904,82.610043 L26.1691664,82.610043 C26.1691664,82.610043 18.1088292,89.8940472 17.7294846,89.8940472 C17.179582,89.8940472 13.7419555,89.8940472 13.7419555,89.8940472 L6.99609134,105.820638 L11.4100155,104.685545 L13.6802017,99.7658283 L15.8239397,99.7658283 L41.1841543,78.3225671 L64.0330489,82.9099899 C66.2650066,84.7949502 70.0437491,86.7828335 76.3014644,88.6148619 C88.4757789,92.175996 88.4757789,92.175996 88.4757789,92.175996 L81.8034312,97.3780159 L68.5204895,94.7137818 L73.8577795,104.25915 L93.1602434,115.73947 L86.9201721,120.200445 C78.5922352,110.469815 66.2208967,104.30326 52.408637,104.30326 C27.3248441,104.30326 6.99315068,124.634953 6.99315068,149.721687 C6.99609134,174.796658 27.3307254,195.128351 52.4115777,195.128351 C75.5133687,195.128351 94.5864614,177.875524 97.4536007,155.550067 C100.323681,154.609057 103.446657,153.585709 106.860758,152.477081 L110.027844,160.94911 L105.902104,162.56353 L98.2593404,173.161653 L207.46647,173.161653 C207.46647,173.161653 207.46647,173.082256 207.472352,172.944045 L207.522343,171.112016 C207.692901,165.321865 208.239863,148.913007 209.154407,144.055043 C209.804292,140.602714 210.965851,137.744396 212.480288,135.20367 C210.477702,140.155734 209.360253,145.5636 209.360253,151.239065 C209.360253,174.890759 228.536268,194.060893 252.182081,194.060893 C275.836715,194.060893 295.006849,174.887818 295.006849,151.239065 C295.006849,132.921721 283.500064,117.295077 267.323517,111.175572 Z M252.94371,77.2021772 C255.14038,77.4815395 259.233773,78.9518674 264.15349,79.0812562 C271.769788,79.2753395 274.842773,87.4974128 274.095847,89.8822845 C273.316573,92.3700792 268.499779,91.9319215 264.741621,91.3996629 C258.110442,90.4645344 250.20596,76.8581205 252.94371,77.2021772 Z M58.1487969,121.135573 C58.2664231,120.829745 58.3987526,120.562145 58.5457854,120.321011 C64.7887974,121.514918 70.3172301,124.720232 74.4223854,129.245901 L72.8020842,130.401579 L60.521906,130.654476 L60.521906,130.275131 L55.7874504,130.275131 C56.2256081,127.160977 57.0137038,124.117398 58.1487969,121.135573 Z M61.8157945,134.971358 C61.4746785,134.765512 61.3041204,135.138975 61.0747493,135.271305 C60.8865473,135.385991 60.701286,135.42716 60.5248467,135.42716 L60.5248467,133.180499 L69.1703744,133.001119 L64.091862,136.624007 C64.0712774,136.5946 64.0536335,136.571075 64.0271676,136.544609 C63.8507283,136.37111 63.6419417,136.327 63.4155112,136.424042 C63.2743597,136.482855 63.1479116,136.574015 63.0008788,136.624007 C62.3715785,136.823971 61.9010735,136.479914 61.9745899,135.853555 C62.0098778,135.538905 62.1745545,135.188967 61.8157945,134.971358 Z M52.7056432,147.433857 C53.6054839,147.439738 54.4024016,148.30135 54.3876983,149.248241 C54.3759357,150.224539 53.5143235,150.994991 52.4703908,150.965584 C51.6675918,150.942059 50.9089026,150.074566 50.9177246,149.174725 C50.9265465,148.157258 51.6764137,147.422094 52.7056432,147.433857 Z M33.2473246,167.818482 C32.8915053,168.047853 32.5445079,168.209589 32.2092731,168.306631 C31.0653581,168.644806 30.0478912,168.215471 29.1803978,167.053912 C27.1807519,164.377915 25.633967,161.540182 24.5606277,158.520129 L26.6837811,157.573238 L26.0397775,156.135257 L24.0724789,157.020394 C23.3961281,154.747268 22.978555,152.374158 22.8432848,149.904008 C22.7932937,148.957116 22.7932937,148.024929 22.8697507,147.095681 C22.9579704,145.963529 23.6137366,145.137205 24.6076782,144.822555 C24.8105835,144.760801 25.0223107,144.707869 25.2487411,144.684344 C26.2073949,144.604946 27.1660487,144.522608 27.8012303,144.552014 C30.8800968,144.57554 33.8001679,144.901952 36.6320193,145.47538 C36.5026304,146.198781 36.3967668,146.951589 36.3467757,147.748507 C35.9733124,153.429854 37.343658,157.993751 40.4137025,161.30787 C40.5107441,161.404912 40.6136671,161.496072 40.7107087,161.601936 C38.4846324,163.930935 36.0174222,166.021741 33.2473246,167.818482 Z M38.0552966,141.03499 C34.7823469,139.541137 31.715243,137.647355 28.8334004,135.388931 C28.4922844,135.118391 28.2188034,134.836088 28.0070762,134.539082 C32.1416381,127.152155 39.4403455,121.782517 48.0682292,120.256317 C48.1858555,120.435697 48.2917191,120.62978 48.3799387,120.85033 C49.5856076,123.893908 50.3854659,127.04335 50.8677334,130.27219 L49.4944472,130.27219 L49.4944472,131.898373 C45.5833752,133.13933 40.640133,135.724166 38.0552966,141.03499 Z M53.1202757,177.328563 C48.8239777,177.328563 44.7541103,176.381671 41.092994,174.693735 C41.084172,174.458483 41.092994,174.217349 41.1459258,173.964452 C41.5870241,171.80013 42.3633572,169.73579 43.210266,167.703796 C43.663127,166.618695 44.1600978,165.557118 44.6894158,164.516126 C45.3363601,164.854301 45.9833043,165.142485 46.6361299,165.395382 C46.6978837,165.418907 46.7625781,165.442432 46.8243319,165.463017 C47.6241902,165.762964 48.4181673,166.004097 49.1827377,166.192299 C49.2974233,166.227587 49.4121089,166.251113 49.5267944,166.277578 C51.7616928,166.795134 53.749576,166.915701 54.9581855,166.927463 C55.2640137,166.933345 55.5610199,166.933345 55.8550855,166.933345 C58.4693284,166.933345 60.6483542,166.801015 63.0038194,166.421671 C63.9771765,168.524239 64.7682128,170.700325 65.4063351,172.941104 C65.5474866,173.441016 65.6621722,173.940927 65.6504095,174.464364 C61.862845,176.302274 57.6106569,177.328563 53.1202757,177.328563 Z M74.2577087,168.065497 C74.0401002,167.997862 73.8254323,167.909642 73.6137051,167.783194 C72.1963091,166.950989 70.8935986,165.951166 69.6291167,164.904292 C72.0492763,164.22206 74.895831,163.32516 78.4599057,162.163601 C77.3071687,164.31028 75.8956539,166.295222 74.2577087,168.065497 Z M79.9037676,159.037684 C74.3547504,160.869713 70.4760255,162.098907 67.3677525,162.91935 C66.8943069,162.47237 66.4267426,162.02245 65.9738817,161.557826 C66.1003299,161.551945 66.2179561,161.510776 66.320879,161.390209 C66.5326062,161.131431 66.2767692,160.919704 66.1709056,160.696214 C66.1356177,160.622698 66.0915079,160.546241 66.0591607,160.466843 C65.8062643,159.822839 66.2003122,159.322928 66.8884256,159.425851 C67.0913308,159.455257 67.2883548,159.517011 67.49126,159.540536 C67.8470793,159.581705 67.9735275,159.402325 67.8088508,159.081794 C67.679462,158.823016 67.49126,158.593645 67.3765744,158.328986 C67.1824911,157.876125 67.4618534,157.414442 67.9529429,157.35857 C68.105857,157.340926 68.2587711,157.352688 68.4116852,157.364451 C68.8939528,157.387976 69.1203832,157.049801 68.8998341,156.617525 C68.8380803,156.496958 68.7410387,156.394035 68.6587003,156.28523 C68.4528544,156.01469 68.3175842,155.729447 68.473439,155.38833 C68.6234124,155.061918 68.917478,154.997223 69.2409501,154.985461 C69.4967872,154.973698 69.7908527,154.967817 69.890835,154.679632 C69.9996393,154.370864 69.7349803,154.215009 69.532075,154.070917 C69.1938996,153.829783 69.1880183,153.497489 69.2380095,153.153432 C69.2880006,152.832901 69.5203124,152.653521 69.8173186,152.574123 C70.0643337,152.506488 70.343696,152.477081 70.3995685,152.165372 C70.4613222,151.827196 70.1584347,151.750739 69.9555295,151.61841 C69.634998,151.406683 69.46444,151.183193 69.4350334,150.956762 C73.4313845,150.300996 77.7100385,149.618764 81.8710663,148.957116 C81.8240158,152.518251 81.1270804,155.905886 79.9037676,159.037684 Z M93.8718821,94.8872805 C94.1247785,94.8225861 98.7768958,96.2135162 98.7768958,96.2135162 L81.3799768,104.03566 L93.8718821,94.8872805 Z M97.7212004,152.809375 C97.7888355,151.780146 97.827064,150.747976 97.827064,149.712865 C97.827064,148.713042 97.7917761,147.730863 97.7300224,146.754565 C101.761661,146.122324 104.343557,145.731217 104.343557,145.731217 L105.978562,150.106913 C103.01144,151.071448 100.267808,151.971289 97.7212004,152.809375 Z M106.237339,138.094334 L97.4977106,139.638179 C96.9595706,137.156265 96.2097034,134.762572 95.2863375,132.460038 L111.118828,132.127744 L106.237339,138.094334 Z M97.3565591,129.889905 L104.217109,126.614015 C104.252397,126.752225 106.360847,128.290188 108.275214,129.666415 L97.3565591,129.889905 Z M113.738952,119.803456 L83.5884092,107.314491 L101.80283,98.7983526 C101.80283,98.7983526 113.2361,111.225563 113.738952,113.372242 C114.247685,115.51598 113.738952,119.803456 113.738952,119.803456 Z M125.536862,107.314491 L120.931796,103.338725 L116.138527,107.314491 L113.015551,102.488875 L116.138527,99.3658991 L125.536862,102.521223 L125.536862,107.314491 L125.536862,107.314491 Z M155.340408,136.900428 C149.347352,138.617771 143.095518,135.147797 141.378175,129.1518 C139.660832,123.155804 143.130805,116.90397 149.123862,115.189567 C149.209141,115.166042 149.291479,115.148398 149.376758,115.124873 C149.38558,115.148398 149.397343,115.168983 149.406165,115.189567 C144.110044,117.321543 141.166447,123.144041 142.772045,128.754812 C144.421753,134.509675 150.258955,137.93848 156.031462,136.668116 C155.805031,136.756336 155.57566,136.832793 155.340408,136.900428 Z M170.249532,144.475557 C167.214775,146.319348 163.256653,145.343051 161.418743,142.305353 C159.580833,139.267656 160.55125,135.315415 163.591888,133.477505 C163.712455,133.403989 163.830081,133.339294 163.953588,133.27754 C161.189372,135.194848 160.360107,138.958887 162.127441,141.876018 C163.894775,144.799029 167.608823,145.810615 170.596529,144.255008 C170.481844,144.334406 170.370099,144.407922 170.249532,144.475557 Z M180.677097,129.301774 L158.304589,116.686361 L197.668206,129.301774 L180.677097,129.301774 Z M214.588738,99.8863952 C214.588738,99.8863952 191.416372,114.386768 183.494245,114.833748 C179.56847,115.192508 175.35451,113.128168 174.09591,112.498867 C172.831428,111.872508 174.09591,111.049124 174.09591,111.049124 L205.813822,95.9400352 C205.813822,95.9400352 213.259562,96.4752346 215.409181,97.6779627 C216.905975,98.5160496 214.588738,99.8863952 214.588738,99.8863952 Z M259.095562,124.187974 C259.330815,123.63513 259.62194,123.199913 259.963056,122.876441 C268.293933,124.97901 275.180949,130.692704 278.853828,138.261952 C278.659744,138.576602 278.398026,138.876549 278.048088,139.135327 C275.695563,140.887957 273.175422,142.340641 270.525891,143.563954 C268.079265,137.741456 262.865483,133.368701 256.52837,132.095397 C257.134145,129.401756 257.998698,126.769869 259.095562,124.187974 Z M252.737865,149.583476 C253.640646,149.589357 254.431682,150.45097 254.41992,151.397861 C254.405216,152.374158 253.546545,153.14461 252.505553,153.115204 C251.699813,153.091678 250.941124,152.218304 250.949946,151.324344 C250.955827,150.300996 251.708635,149.571714 252.737865,149.583476 Z M248.782683,122.297132 C248.985588,122.535325 249.156146,122.823509 249.276713,123.149922 C249.609007,124.046822 249.929538,124.946663 250.064809,125.56126 C250.614711,127.657947 250.996996,129.719347 251.244011,131.768984 C250.326527,131.830738 249.432568,131.963067 248.556252,132.15421 L244.768688,123.164626 C246.071398,122.785281 247.409396,122.494156 248.782683,122.297132 Z M232.603195,168.856533 C232.153275,169.127074 231.694533,169.374089 231.179918,169.494656 C231.094639,169.518181 231.00936,169.529944 230.927021,169.541706 C226.639545,164.504363 224.045887,157.979048 224.045887,150.847958 C224.045887,149.239419 224.184098,147.660287 224.436994,146.122324 C224.716357,146.007639 225.025125,145.940004 225.366241,145.916479 C226.798341,145.8312 228.227499,145.887072 229.647836,146.019401 L228.889147,148.442502 L226.865976,150.847958 L228.383354,157.396798 L234.226437,156.849836 C235.129218,159.728738 236.693647,162.316515 238.734462,164.442609 C236.825977,166.089376 234.773399,167.553823 232.603195,168.856533 Z M234.185268,133.27754 L230.453576,137.844379 C230.033062,137.500322 229.61843,137.144503 229.203797,136.776921 C228.815631,136.426983 228.530387,136.065282 228.351007,135.691819 C230.906437,131.557257 234.482274,128.122571 238.719759,125.725937 L242.472036,134.627301 C241.32518,135.33894 240.260663,136.171146 239.293187,137.103333 L234.185268,133.27754 Z M263.759442,177.569696 C260.401213,178.937101 256.737156,179.69579 252.890779,179.69579 C252.767271,179.69579 252.643764,179.689909 252.520256,179.689909 L252.520256,177.563815 L250.949946,177.563815 L250.949946,179.619333 C246.853613,179.348793 242.992532,178.222522 239.540202,176.4199 C239.516677,176.081724 239.551964,175.737668 239.646065,175.378908 C240.119511,173.667446 240.810565,172.029501 241.554551,170.420962 C241.978005,169.506418 242.433807,168.612459 242.910193,167.739084 C245.780273,169.421139 249.117917,170.385674 252.684933,170.385674 C255.740274,170.385674 258.627998,169.674036 261.201072,168.415435 C261.977405,170.194532 262.633171,172.044204 263.144845,173.990918 C263.327166,174.887818 263.70357,175.869997 263.785908,176.925693 C263.806493,177.152123 263.788849,177.36385 263.759442,177.569696 Z M272.928406,171.591343 C272.566706,171.48842 272.190302,171.297278 271.796254,171.029678 C269.481958,169.427021 267.414677,167.559704 265.535598,165.504186 C269.517246,161.960696 272.028566,156.802786 272.028566,151.053804 C272.028566,150.209836 271.966812,149.37763 271.860948,148.560128 C274.64869,148.277825 277.457016,148.271944 280.291808,148.554247 C280.83877,148.607178 281.288691,148.736567 281.665094,148.92771 C281.712145,149.565832 281.738613,150.203955 281.738613,150.845017 C281.741552,158.996515 278.356857,166.348154 272.928406,171.591343 Z" id="Shape" fill="#000000" fill-rule="nonzero" transform="translate(151.000000, 114.557326) rotate(0.200000) translate(-151.000000, -114.557326) "></path>
                    </g>
                </g>
            </g>
        </g>
    </g>
</svg>