<?xml version="1.0" encoding="utf-8"?>
<!-- Generator: Adobe Illustrator 24.3.0, SVG Export Plug-In . SVG Version: 6.00 Build 0)  -->
<svg version="1.1" id="Layer_1" xmlns="http://www.w3.org/2000/svg" xmlns:xlink="http://www.w3.org/1999/xlink" x="0px" y="0px"
	 viewBox="0 0 280 170" style="enable-background:new 0 0 280 170;" xml:space="preserve">
<style type="text/css">
	.st0{opacity:0.7;enable-background:new    ;}
	.st1{fill:#282828;}
	.st2{fill:#484848;}
	.st3{fill:#FF0000;}
	.st4{fill:none;stroke:#8F8F8E;stroke-width:18;stroke-linecap:round;stroke-miterlimit:10;}
	.st5{fill:#CC0000;}
	.st6{fill:#373636;}
	.st7{fill:#8F8F8E;}
	.st8{fill:#FBAB20;}
	.st9{fill:none;stroke:#010101;stroke-width:19;stroke-linecap:round;stroke-miterlimit:10;}
	.st10{fill:#FFFFFF;}
</style>
<g id="Layer_1_1_">
	<g>
		<ellipse class="st0" cx="141.5" cy="136.2" rx="94.5" ry="2.8"/>
		<g>
			<g>
				<g>
					<path class="st1" d="M89.9,77.4l-6.1,5.3l9.8,7.4c0,0,3.8,3.8,4.5,8.3c0.7,4.5,4,12.1-2.5,24.4l51.8-0.1l21.5-36l2.1-4.5
						l-31.2-20.4l-16.2,9l-15.9,5.7L89.9,77.4z"/>
				</g>
				<g>
					<g>
						<path class="st1" d="M211.6,135.9c-15.6,0-28.3-12.7-28.3-28.3c0-15.6,12.7-28.3,28.3-28.3c15.6,0,28.3,12.7,28.3,28.3
							C239.9,123.2,227.2,135.9,211.6,135.9z M211.6,91.1c-9.1,0-16.5,7.4-16.5,16.5c0,9.1,7.4,16.5,16.5,16.5
							c9.1,0,16.5-7.4,16.5-16.5C228.1,98.5,220.7,91.1,211.6,91.1z"/>
					</g>
				</g>
				<g>
					<g>
						<path class="st1" d="M68.7,135.9c-15.6,0-28.3-12.7-28.3-28.3C40.3,92,53,79.3,68.7,79.3C84.3,79.3,97,92,97,107.6
							C97,123.2,84.3,135.9,68.7,135.9z M68.7,91.1c-9.1,0-16.5,7.4-16.5,16.5c0,9.1,7.4,16.5,16.5,16.5c9.1,0,16.5-7.4,16.5-16.5
							C85.2,98.5,77.8,91.1,68.7,91.1z"/>
					</g>
				</g>
				<path class="st2" d="M68.6,88.2c-10.7,0-19.3,8.7-19.3,19.3c0,10.7,8.7,19.3,19.3,19.3c10.7,0,19.3-8.7,19.3-19.3
					C87.9,96.8,79.2,88.2,68.6,88.2z M82.8,107.5c0,1.9-0.4,3.6-1,5.3l-7.3-5.1l7.4-5.2C82.5,104.1,82.8,105.7,82.8,107.5z
					 M66.1,121.5c-2.7-0.5-5.2-1.7-7.1-3.5l7.1-5V121.5z M57.6,116.6c-0.5-0.6-0.9-1.2-1.3-1.8l7.3-5.1c0.3,0.7,0.8,1.3,1.3,1.8
					L57.6,116.6z M54.3,107.5c0-1.9,0.4-3.6,1-5.3l7.8,5.5v0l-7.7,5.4C54.7,111.4,54.3,109.5,54.3,107.5z M68.6,93.2
					c0.4,0,0.8,0,1.1,0.1v8.9c-0.4-0.1-0.7-0.1-1.1-0.1c-0.4,0-0.8,0-1.1,0.1v-8.9C67.8,93.2,68.2,93.2,68.6,93.2z M73.7,105.9
					c-0.2-0.7-0.6-1.4-1.1-2l7.3-5.1c0.5,0.6,0.9,1.2,1.2,1.9L73.7,105.9z M65.5,101.9l-6.8-4.8c1.9-1.8,4.2-3.1,6.8-3.6V101.9z
					 M64.7,103.7c-0.5,0.5-0.9,1.2-1.2,1.9l-7.3-5.1c0.4-0.7,0.8-1.3,1.3-1.9L64.7,103.7z M78.4,117.8c-1.7,1.6-3.9,2.9-6.2,3.5
					v-7.8L78.4,117.8z M72.4,111.3c0.5-0.5,0.9-1.2,1.2-1.9l7.3,5.1c-0.4,0.7-0.8,1.3-1.3,1.9L72.4,111.3z M78.7,97.4l-7.1,4.9v-8.8
					C74.3,94.1,76.8,95.5,78.7,97.4z M68,121.7v-8.9c0.2,0,0.4,0.1,0.5,0.1c0.6,0,1.2-0.1,1.7-0.3v9c-0.6,0.1-1.1,0.1-1.7,0.1
					C68.4,121.7,68.2,121.7,68,121.7z"/>
				<path class="st2" d="M211.4,88.1c-10.7,0-19.3,8.6-19.3,19.3c0,10.7,8.7,19.3,19.3,19.3c10.7,0,19.3-8.7,19.3-19.3
					C230.7,96.7,222,88.1,211.4,88.1z M225.6,107.4c0,1.9-0.4,3.6-1,5.3l-7.3-5.1l7.4-5.2C225.3,104,225.6,105.6,225.6,107.4z
					 M208.9,121.4c-2.7-0.5-5.2-1.7-7.1-3.5l7.1-5V121.4z M200.4,116.5c-0.5-0.6-0.9-1.2-1.3-1.8l7.3-5.1c0.3,0.7,0.8,1.3,1.3,1.8
					L200.4,116.5z M197.1,107.4c0-1.9,0.4-3.6,1-5.3l7.8,5.5c0,0,0,0,0,0l-7.7,5.4C197.5,111.3,197.1,109.4,197.1,107.4z
					 M211.4,93.1c0.4,0,0.8,0,1.1,0.1v8.9c-0.4-0.1-0.7-0.1-1.1-0.1c-0.4,0-0.8,0-1.1,0.1v-8.9C210.6,93.1,211,93.1,211.4,93.1z
					 M216.5,105.8c-0.2-0.7-0.6-1.4-1.1-2l7.3-5.1c0.5,0.6,0.9,1.2,1.2,1.9L216.5,105.8z M208.3,101.8l-6.8-4.8
					c1.9-1.8,4.2-3.1,6.8-3.6V101.8z M207.5,103.6c-0.5,0.5-0.9,1.2-1.2,1.9l-7.3-5.1c0.4-0.7,0.8-1.3,1.3-1.9L207.5,103.6z
					 M221.2,117.7c-1.7,1.6-3.9,2.9-6.2,3.5v-7.8L221.2,117.7z M215.2,111.2c0.5-0.5,0.9-1.2,1.2-1.9l7.3,5.1
					c-0.4,0.7-0.8,1.3-1.3,1.9L215.2,111.2z M221.5,97.3l-7.1,4.9v-8.8C217.1,94,219.6,95.4,221.5,97.3z M210.8,121.6v-8.9
					c0.2,0,0.4,0.1,0.5,0.1c0.6,0,1.2-0.1,1.7-0.3v9c-0.6,0.1-1.1,0.1-1.7,0.1C211.2,121.6,211,121.6,210.8,121.6z"/>
				<g>
					<path class="st3" d="M180.2,101.5c0,0,2-13.3,14.1-20.5c12.2-7.2,24.5-3.4,24.5-3.4s0.5,4.1-4.1,6.1c0,0-8.2,0-10.2,1.3
						c-2.1,1.3,3.4,8.6,3.4,8.6l-7.7,5.1c0,0-3.8-7.7-6.2-7.1c-2.4,0.6-5.5,8.9-5.5,8.9S184.2,104,180.2,101.5z"/>
				</g>
				<g>
					<path class="st5" d="M139.4,62c0,0,24.3-18.6,27.6-18.7c7.3-0.1,8.2,18.8,5.3,28.2C169.5,81,139.4,62,139.4,62z"/>
				</g>
				<g>
					<circle class="st2" cx="146.8" cy="86.1" r="8.9"/>
				</g>
				<g>
					<path class="st6" d="M68.6,109.2c-0.3,0-0.7-0.2-0.8-0.5c-0.3-0.5-0.1-1.1,0.4-1.3l28-17.8c0.5-0.3,1.1-0.1,1.3,0.4
						c0.3,0.5,0.1,1.1-0.4,1.3l-28,17.8C68.9,109.1,68.7,109.2,68.6,109.2z"/>
				</g>
				<g>
					<path class="st5" d="M123.6,70.8c0,0,1.1,4.8-6.5,8.7c-7.6,3.9-11.1,5.7-11.1,5.7s-1.4-1.9-4.2,0c-2.8,1.9-4.2,2.7-7,0
						c-2.8-2.7-11.6-9.8-5.7-13.6c1.7-1.1,3.8-1.5,9.5,1.7c5.9,3.3,10.9,2.5,13,1.3C118.5,70.7,123.6,70.8,123.6,70.8z"/>
				</g>
				<g>
					<path class="st3" d="M87.5,73.2c-0.1,0.1-3.7-4.8-17.3-4.8s-24,8.9-26.6,13.6c0,0,3.5,6.1,9.8,3.9c6-2.1,8.4-4.2,16.3-4.2
						c8.7,0,15.8,6.7,16.8,8.1c1,1.4,2,3.1,7.2,0l-6.5-7l3.2-2.1L87.5,73.2z"/>
				</g>
				<g>
					<g>
						<polygon class="st7" points="90.3,108.3 46.9,108.3 43.6,101.1 90.3,101.1 						"/>
					</g>
				</g>
				<g>
					<path class="st7" d="M111.7,107.1H90.3v-4.8h21.3c5.8,0,6.6-0.9,8.4-4.2l4.2,2.3C121.4,105.7,118.7,107.1,111.7,107.1z"/>
				</g>
				<g>
					<path class="st7" d="M122.2,101.7c-0.4,0-0.8-0.1-1.1-0.3c-1.2-0.6-1.6-2.1-1-3.3c1.8-3.3,3.2-6.5,3.8-7.8
						c0.2-0.4,0.3-0.6,0.4-0.8c0.6-1.2,2-1.7,3.2-1.1c1.2,0.6,1.7,2,1.1,3.2c0,0.1-0.1,0.3-0.3,0.6c-0.6,1.4-2.1,4.7-4,8.2
						C123.8,101.2,123,101.7,122.2,101.7z"/>
				</g>
				<g>
					<g>
						<polygon class="st7" points="90.3,118.6 53.4,118.6 50.1,111.3 90.3,111.3 						"/>
					</g>
				</g>
				<g>
					<path class="st2" d="M138,115.7c0,0-0.1-14.6-0.1-14.3c0,0.2,6.3-2.9,6.3-2.9v2.9h5.2v-2.9l5.8,2.9l-0.2,9l-4.2,5.4L138,115.7
						L138,115.7z"/>
				</g>
				<g>
					<path class="st2" d="M128.8,109.7c0-1.7-1.1-3.4-3.4-3.4H117c-1.9,0-3.4,1.5-3.4,3.4c0,1.9,1.5,3.4,3.4,3.4v0.3h9.4v-0.4
						C127.8,112.5,128.8,111.2,128.8,109.7z"/>
				</g>
				<g>
					<polygon class="st2" points="123.7,79.6 125.5,84.3 142.1,76.5 140,72 					"/>
				</g>
				<g>
					<polygon class="st2" points="167.9,79.3 166.2,83.8 151.2,76.3 153.1,72 					"/>
				</g>
				<g>
					
						<rect x="136.6" y="79.8" transform="matrix(0.8779 -0.4789 0.4789 0.8779 -26.4762 76.7833)" class="st2" width="1.4" height="20.9"/>
				</g>
				<g>
					<polygon class="st2" points="152,99.8 150.7,99.1 160.7,80.8 162,81.5 					"/>
				</g>
				<g>
					<path class="st1" d="M175.1,53.9c-1,0-1.9-0.6-2.2-1.6l-3.4-11.1l-13.1,5.2c-1.2,0.5-2.5-0.1-3-1.3c-0.5-1.2,0.1-2.5,1.3-3
						l17.8-7.1l4.8,15.9c0.4,1.2-0.3,2.5-1.5,2.9C175.6,53.8,175.4,53.9,175.1,53.9z"/>
				</g>
				<g>
					<circle class="st6" cx="97" cy="90.2" r="1.6"/>
				</g>
				<g>
					<polygon class="st2" points="104.1,90.3 113.6,84.6 118.8,94 117.5,98.2 107.8,99.5 					"/>
				</g>
				<g>
					<polygon class="st2" points="91.5,97.5 101,91.8 104.5,100.5 92.8,100.6 					"/>
				</g>
				<g>
					<g>
						<path class="st1" d="M186.3,35.8c-4.9,0-11.2,3.9-11.2,8.8s6.4,8.8,11.2,8.8c0.2,0,0.5,0,0.7,0V35.9
							C186.8,35.8,186.5,35.8,186.3,35.8z"/>
					</g>
					<g>
						<g>
							<path class="st8" d="M195.1,44.6c0-4.6-3.5-8.4-8.1-8.8v17.5C191.5,53,195.1,49.2,195.1,44.6z"/>
						</g>
					</g>
				</g>
				<g>
					<path class="st1" d="M148.5,122.8c-0.1,0-0.2,0-0.3,0c-1.2-0.2-2-1.3-1.8-2.5l33.7-61.2c0.2-1.2,1.3-2,2.5-1.8
						c1.2,0.2,2,1.3,1.8,2.5l-33.7,61.2C150.5,122,149.6,122.8,148.5,122.8z"/>
				</g>
				<g>
					<path class="st3" d="M130.9,71c-0.1,2.7,4.5,3,18.9,3c14.5,0,21.1,1.4,21.1-11.1c0-12.5-11.1-10.4-20-6.6
						C142,60,131,67,130.9,71z"/>
				</g>
				<g>
					<g>
						<path class="st7" d="M145.2,117.5H90.3v-4.8h54.8c6,0,6.8-0.9,8.6-3.8l4.1,2.5C155,116.2,152.3,117.5,145.2,117.5z"/>
					</g>
					<g>
						<path class="st7" d="M155.8,112.5c-0.4,0-0.8-0.1-1.2-0.3c-1.1-0.7-1.5-2.2-0.8-3.3c2.3-3.8,10.9-19.2,11-19.4
							c0.6-1.2,2.1-1.6,3.3-0.9c1.2,0.6,1.6,2.1,0.9,3.3c-0.4,0.6-8.7,15.6-11,19.5C157.4,112.1,156.6,112.5,155.8,112.5z"/>
					</g>
				</g>
				<g>
					<path class="st7" d="M211.6,109.8c-0.7,0-1.4-0.3-1.8-1l-36.2-55.9c-0.7-1-0.4-2.3,0.6-3c1-0.6,2.4-0.4,3,0.6l36.2,55.9
						c0.6,1,0.4,2.3-0.6,3C212.4,109.7,212,109.8,211.6,109.8z"/>
				</g>
				<path class="st1" d="M187.1,62l-7.9,4.8c-0.5,0.3-1.1,0.1-1.4-0.3l-2.5-4.1c-0.3-0.5-0.1-1.1,0.3-1.4l7.9-4.8
					c0.5-0.3,1.1-0.1,1.4,0.3l2.5,4.1C187.7,61.1,187.5,61.7,187.1,62z"/>
				<path class="st1" d="M197.1,79.1l-6,3.6c-0.4,0.2-0.8,0.1-1.1-0.3l-1.9-3.1c-0.2-0.4-0.1-0.8,0.3-1.1l6-3.6
					c0.4-0.2,0.8-0.1,1.1,0.3l1.9,3.1C197.6,78.4,197.5,78.9,197.1,79.1z"/>
			</g>
		</g>
	</g>
</g>
<polygon class="st10" points="160.4,59.5 156.2,64.1 156.2,61 154.6,61 154.6,68 154.6,68.5 156.2,66.6 157.1,65.6 158.2,64.3 
	159.2,63.1 161.1,61 162.4,59.5 "/>
</svg>
