<?xml version="1.0" encoding="UTF-8"?>
<svg width="114px" height="110px" viewBox="0 0 114 110" version="1.1" xmlns="http://www.w3.org/2000/svg" xmlns:xlink="http://www.w3.org/1999/xlink">
    <!-- Generator: sketchtool 55.1 (78136) - https://sketchapp.com -->
    <title>B0B77C4A-56A3-4FC1-AB51-5128BECEF9B6</title>
    <desc>Created with sketchtool.</desc>
    <g id="Page-1" stroke="none" stroke-width="1" fill="none" fill-rule="evenodd" stroke-linejoin="round">
        <g id="Bike-Bazaar-new-header" transform="translate(-369.000000, -2371.000000)" stroke-width="2">
            <g id="Group-7" transform="translate(206.000000, 2337.000000)">
                <g id="Group-6" transform="translate(131.000000, 0.000000)">
                    <g id="emi-icon" transform="translate(33.000000, 35.000000)">
                        <rect id="Rectangle" stroke="#231F20" x="0" y="63.8181818" width="19.4782609" height="36.8181818"></rect>
                        <path d="M19.4782609,95.7272727 C70.6086957,112.909091 53.5652174,112.909091 112,83.4545455 C106.886957,78.3 102.747826,77.0727273 97.3913043,78.5454545 L75.7217391,85.6636364" id="Path" stroke="#231F20" stroke-linecap="round"></path>
                        <path d="M19.4782609,68.7272727 L34.0869565,68.7272727 C45.5304348,68.7272727 53.5652174,76.0909091 56,78.5454545 C56,78.5454545 63.3043478,78.5454545 70.6086957,78.5454545 C78.4,78.5454545 78.4,88.3636364 70.6086957,88.3636364 L43.826087,88.3636364" id="Path" stroke="#231F20" stroke-linecap="round"></path>
                        <ellipse id="Oval" stroke="#EB2C2D" stroke-linecap="round" cx="80.3478261" cy="14.7272727" rx="14.6086957" ry="14.7272727"></ellipse>
                        <ellipse id="Oval" stroke="#EB2C2D" stroke-linecap="round" cx="58.4347826" cy="49.0909091" rx="14.6086957" ry="14.7272727"></ellipse>
                        <path d="M58.4347826,44.1818182 L58.4347826,54" id="Path" stroke="#EB2C2D" stroke-linecap="round"></path>
                        <path d="M80.3478261,9.81818182 L80.3478261,19.6363636" id="Path" stroke="#EB2C2D" stroke-linecap="round"></path>
                    </g>
                </g>
            </g>
        </g>
    </g>
</svg>