<?xml version="1.0" encoding="utf-8"?>
<!-- Generator: Adobe Illustrator 16.0.0, SVG Export Plug-In . SVG Version: 6.00 Build 0)  -->
<!DOCTYPE svg PUBLIC "-//W3C//DTD SVG 1.1//EN" "http://www.w3.org/Graphics/SVG/1.1/DTD/svg11.dtd">
<svg version="1.1" xmlns="http://www.w3.org/2000/svg" xmlns:xlink="http://www.w3.org/1999/xlink" x="0px" y="0px" width="6000px"
	 height="4000px" viewBox="0 0 6000 4000" enable-background="new 0 0 6000 4000" xml:space="preserve">
<g id="background">
</g>
<g id="object">
	<g>
		<path fill="#474747" d="M2009.612,1966.505c0-8.947,4.479-8.947,4.479-8.947l0,0c4.479,0,4.479,8.947,4.479,8.947v1101.549
			c0,8.96-4.479,8.96-4.479,8.96l0,0c-4.479,0-4.479-8.96-4.479-8.96"/>
		<path fill="#474747" d="M1463.312,2521.765c-8.946,0-8.946-4.479-8.946-4.479l0,0c0-4.479,8.946-4.479,8.946-4.479H2564.86
			c8.959,0,8.959,4.479,8.959,4.479l0,0c0,4.479-8.959,4.479-8.959,4.479"/>
		<path fill="#474747" d="M1804.236,2008.031c-3.342-8.299,0.813-9.972,0.813-9.972l0,0c4.155-1.673,7.497,6.626,7.497,6.626
			l411.397,1021.842c3.346,8.313-0.81,9.984-0.81,9.984l0,0c-4.156,1.674-7.501-6.638-7.501-6.638"/>
		<path fill="#474747" d="M1504.838,2727.142c-8.298,3.341-9.972-0.814-9.972-0.814l0,0c-1.674-4.155,6.627-7.497,6.627-7.497
			l1021.842-411.396c8.312-3.346,9.983,0.81,9.983,0.81l0,0c1.674,4.155-6.638,7.502-6.638,7.502"/>
		<path fill="#474747" d="M1599.369,2154.817c-6.689-5.942-3.714-9.292-3.714-9.292l0,0c2.975-3.348,9.664,2.595,9.664,2.595
			l823.488,731.625c6.697,5.952,3.723,9.3,3.723,9.3l0,0c-2.976,3.35-9.673-2.603-9.673-2.603"/>
		<path fill="#1A1A1A" d="M1651.622,2932.01c-5.939,6.688-9.288,3.712-9.288,3.712l0,0c-3.351-2.974,2.593-9.663,2.593-9.663
			l731.625-823.488c5.949-6.697,9.299-3.722,9.299-3.722l0,0c3.35,2.976-2.602,9.673-2.602,9.673"/>
		<path fill="#474747" d="M1597.731,2154.817c-6.688-5.942-3.714-9.292-3.714-9.292l0,0c2.976-3.348,9.665,2.595,9.665,2.595
			l823.488,731.625c6.697,5.952,3.722,9.3,3.722,9.3l0,0c-2.976,3.35-9.672-2.603-9.672-2.603"/>
		<path fill="#474747" d="M1649.985,2932.01c-5.939,6.688-9.289,3.712-9.289,3.712l0,0c-3.351-2.974,2.594-9.663,2.594-9.663
			l731.626-823.488c5.948-6.697,9.298-3.722,9.298-3.722l0,0c3.35,2.976-2.601,9.673-2.601,9.673"/>
		<path fill="#474747" d="M1488.361,2353.011c-8.519-2.736-7.146-7.001-7.146-7.001l0,0c1.37-4.265,9.887-1.527,9.887-1.527
			l1048.711,337.071c8.528,2.743,7.159,7.008,7.159,7.008l0,0c-1.373,4.266-9.901,1.523-9.901,1.523"/>
		<path fill="#474747" d="M1849.816,3043.018c-2.735,8.517-7.001,7.145-7.001,7.145l0,0c-4.266-1.368-1.526-9.887-1.526-9.887
			l337.073-1048.709c2.741-8.529,7.005-7.158,7.005-7.158l0,0c4.266,1.37,1.524,9.899,1.524,9.899"/>
	</g>
	<g>
		<path fill="#474747" d="M4499.432,1966.505c0-8.947,4.48-8.947,4.48-8.947l0,0c4.479,0,4.479,8.947,4.479,8.947v1101.549
			c0,8.96-4.479,8.96-4.479,8.96l0,0c-4.48,0-4.48-8.96-4.48-8.96"/>
		<path fill="#474747" d="M3953.132,2521.765c-8.946,0-8.946-4.479-8.946-4.479l0,0c0-4.479,8.946-4.479,8.946-4.479h1101.549
			c8.959,0,8.959,4.479,8.959,4.479l0,0c0,4.479-8.959,4.479-8.959,4.479"/>
		<path fill="#474747" d="M4294.057,2008.031c-3.342-8.299,0.813-9.972,0.813-9.972l0,0c4.155-1.673,7.497,6.626,7.497,6.626
			l411.396,1021.842c3.347,8.313-0.81,9.984-0.81,9.984l0,0c-4.156,1.674-7.5-6.638-7.5-6.638"/>
		<path fill="#474747" d="M3994.658,2727.142c-8.298,3.341-9.972-0.814-9.972-0.814l0,0c-1.674-4.155,6.627-7.497,6.627-7.497
			l1021.843-411.396c8.312-3.346,9.981,0.81,9.981,0.81l0,0c1.674,4.155-6.637,7.502-6.637,7.502"/>
		<path fill="#474747" d="M4089.189,2154.817c-6.689-5.942-3.714-9.292-3.714-9.292l0,0c2.975-3.348,9.664,2.595,9.664,2.595
			l823.488,731.625c6.697,5.952,3.722,9.3,3.722,9.3l0,0c-2.976,3.35-9.672-2.603-9.672-2.603"/>
		<path fill="#474747" d="M4141.442,2932.01c-5.939,6.688-9.289,3.712-9.289,3.712l0,0c-3.352-2.974,2.594-9.663,2.594-9.663
			l731.626-823.488c5.948-6.697,9.298-3.722,9.298-3.722l0,0c3.35,2.976-2.602,9.673-2.602,9.673"/>
		<path fill="#474747" d="M4087.552,2154.817c-6.689-5.942-3.715-9.292-3.715-9.292l0,0c2.977-3.348,9.666,2.595,9.666,2.595
			l823.488,731.625c6.697,5.952,3.722,9.3,3.722,9.3l0,0c-2.976,3.35-9.673-2.603-9.673-2.603"/>
		<path fill="#474747" d="M4139.806,2932.01c-5.939,6.688-9.289,3.712-9.289,3.712l0,0c-3.352-2.974,2.594-9.663,2.594-9.663
			l731.625-823.488c5.949-6.697,9.299-3.722,9.299-3.722l0,0c3.35,2.976-2.602,9.673-2.602,9.673"/>
		<path fill="#474747" d="M3978.182,2353.011c-8.519-2.736-7.146-7.001-7.146-7.001l0,0c1.37-4.265,9.887-1.527,9.887-1.527
			l1048.712,337.071c8.526,2.743,7.158,7.008,7.158,7.008l0,0c-1.372,4.266-9.901,1.523-9.901,1.523"/>
		<path fill="#474747" d="M4339.636,3043.018c-2.734,8.517-7,7.145-7,7.145l0,0c-4.266-1.368-1.526-9.887-1.526-9.887
			l337.072-1048.709c2.742-8.529,7.005-7.158,7.005-7.158l0,0c4.266,1.37,1.524,9.899,1.524,9.899"/>
	</g>
	<circle fill="none" stroke="#282828" stroke-width="150" stroke-miterlimit="10" cx="2013.299" cy="2523.151" r="559.952"/>
	<circle fill="none" stroke="#282828" stroke-width="150" stroke-miterlimit="10" cx="4503.831" cy="2523.151" r="559.952"/>
	<g>
		<g>
			<g>
				<path fill="#282828" d="M4406.234,1577.328c-91.973,0-166.532-74.558-166.532-166.53c0-91.974,74.56-166.532,166.532-166.532
					V1577.328z"/>
				<path fill="#FFAC1A" d="M4434.116,1577.328h-27.882v-333.062h27.882c15.398,0,27.885,12.483,27.885,27.884v277.295
					C4462.001,1564.845,4449.515,1577.328,4434.116,1577.328z"/>
				<g>
					<circle fill="#474747" cx="4498.114" cy="2520.523" r="148.468"/>
				</g>
				<polygon fill="#282828" points="2559.084,1785.428 2808.246,2660.691 3591.557,2660.332 3815.141,2035.086 3748.207,1786.719 
					3028.229,1785.244 				"/>
				<g>
					<path fill="#474747" d="M2033.469,2439.388c27.658,0,50.162,22.503,50.162,50.162c0,27.66-22.504,50.163-50.162,50.163
						c-27.657,0-50.163-22.503-50.163-50.163C1983.306,2461.891,2005.812,2439.388,2033.469,2439.388 M2033.469,2228.705
						c-143.835,0-260.845,117.01-260.845,260.845c0,143.836,117.01,260.846,260.845,260.846
						c143.836,0,260.846-117.01,260.846-260.846C2294.314,2345.715,2177.305,2228.705,2033.469,2228.705L2033.469,2228.705z"/>
					<polygon fill="#282828" points="1941.256,2567.997 1926.345,2418.255 2940.079,2317.283 2954.989,2467.025 					"/>
					<path fill="#282828" d="M2056.276,2767.08c-79.455,0-266.211-23.121-295.674-236.703
						c-10.033-72.787,4.557-135.106,43.363-185.229c73.58-95.016,207.065-111.573,212.711-112.229l1.066-0.119l1.069,0.031
						l871.28,22.631l-0.783,30.079l-870.105-22.594c-11.875,1.637-128.923,19.743-191.548,100.767
						c-33.587,43.462-46.116,98.15-37.229,162.548c32.623,236.617,275.933,211.897,296.498,209.351l907.618-258.269l8.229,28.942
						l-909.734,258.885l-1.077,0.137C2091.344,2765.395,2077.704,2767.08,2056.276,2767.08z"/>
				</g>
				<g>
					<polygon fill="#8E8E8E" points="2050.949,2477.637 2031.604,2467.23 2194.159,1822.714 2213.511,1833.119 					"/>
					<polygon fill="#222222" points="2078.371,2453.063 2026.779,2426.936 2093.089,2144.82 2144.686,2170.949 					"/>
					
						<ellipse transform="matrix(0.9966 -0.0825 0.0825 0.9966 -144.1899 188.032)" fill="#B0B1AC" cx="2202.347" cy="1838.142" rx="30.534" ry="42.054"/>
					
						<ellipse transform="matrix(0.9966 -0.0825 0.0825 0.9966 -197.7883 176.2517)" fill="#333333" cx="2033.091" cy="2480.619" rx="30.535" ry="33.576"/>
					<polygon fill="#222222" points="2231.944,1973.733 2115.83,1911.267 2132.568,1844.983 2248.683,1907.452 					"/>
					<polygon fill="#222222" points="2115.386,2440.476 1999.27,2378.01 2016.007,2311.726 2132.124,2374.193 					"/>
					<g>
						<path fill="#222222" d="M2121.71,2361.571c-0.512,0.043-1.032,0.013-1.563-0.118l-91.402-21.139
							c-3.739-0.863-6.411-5.684-5.982-10.77c0.438-5.085,3.813-8.547,7.546-7.639l91.405,21.142
							c3.736,0.862,6.413,5.684,5.979,10.77C2127.323,2358.183,2124.781,2361.317,2121.71,2361.571z"/>
						<path fill="#222222" d="M2132.211,2318.841c-0.506,0.043-1.028,0.012-1.558-0.119l-91.402-21.14
							c-3.739-0.862-6.416-5.681-5.985-10.768c0.43-5.087,3.822-8.559,7.548-7.64l91.4,21.14c3.741,0.864,6.416,5.685,5.982,10.771
							C2137.829,2315.451,2135.285,2318.587,2132.211,2318.841z"/>
						<path fill="#222222" d="M2142.716,2276.109c-0.507,0.043-1.029,0.011-1.561-0.119l-91.401-21.138
							c-3.741-0.865-6.413-5.685-5.986-10.771c0.432-5.097,3.784-8.563,7.55-7.637l91.403,21.137
							c3.738,0.864,6.414,5.685,5.981,10.771C2148.331,2272.72,2145.79,2275.855,2142.716,2276.109z"/>
						<path fill="#222222" d="M2153.22,2233.376c-0.51,0.042-1.031,0.014-1.559-0.118l-91.404-21.13
							c-3.737-0.862-6.412-5.684-5.983-10.768c0.424-5.097,3.797-8.556,7.546-7.639l91.403,21.131
							c3.738,0.863,6.415,5.683,5.984,10.77C2158.843,2229.987,2156.291,2233.121,2153.22,2233.376z"/>
						<path fill="#222222" d="M2163.722,2190.646c-0.508,0.042-1.029,0.011-1.56-0.118l-91.401-21.131
							c-3.737-0.862-6.414-5.684-5.982-10.769c0.416-5.094,3.809-8.574,7.546-7.639l91.402,21.13
							c3.736,0.864,6.413,5.685,5.982,10.77C2169.345,2187.257,2166.797,2190.391,2163.722,2190.646z"/>
						<path fill="#222222" d="M2174.226,2147.914c-0.51,0.042-1.032,0.012-1.561-0.119l-91.41-21.13
							c-3.734-0.864-6.41-5.682-5.98-10.769c0.427-5.086,3.824-8.549,7.548-7.637l91.408,21.128
							c3.736,0.863,6.414,5.684,5.981,10.77C2179.849,2144.523,2177.302,2147.659,2174.226,2147.914z"/>
						<path fill="#222222" d="M2184.724,2105.182c-0.509,0.042-1.031,0.013-1.563-0.119l-91.4-21.129
							c-3.738-0.863-6.416-5.684-5.981-10.77c0.424-5.086,3.789-8.563,7.547-7.637l91.4,21.129
							c3.739,0.865,6.414,5.684,5.984,10.771C2190.348,2101.792,2187.798,2104.928,2184.724,2105.182z"/>
						<path fill="#222222" d="M2195.228,2062.459c-0.509,0.042-1.03,0.013-1.561-0.119l-91.404-21.139
							c-3.736-0.862-6.414-5.684-5.98-10.769c0.43-5.087,3.8-8.573,7.546-7.638l91.403,21.14c3.74,0.863,6.413,5.683,5.981,10.77
							C2200.842,2059.07,2198.302,2062.205,2195.228,2062.459z"/>
						<path fill="#222222" d="M2205.732,2019.729c-0.512,0.042-1.034,0.012-1.559-0.119l-91.407-21.141
							c-3.734-0.863-6.412-5.681-5.982-10.768c0.425-5.086,3.812-8.556,7.549-7.637l91.401,21.139
							c3.737,0.863,6.416,5.684,5.983,10.77C2211.344,2016.338,2208.806,2019.473,2205.732,2019.729z"/>
						<path fill="#222222" d="M2216.234,1976.996c-0.51,0.042-1.031,0.012-1.56-0.119l-91.404-21.137
							c-3.736-0.865-6.413-5.683-5.982-10.771c0.432-5.096,3.824-8.566,7.549-7.637l91.401,21.139
							c3.737,0.865,6.414,5.684,5.983,10.77C2221.852,1973.607,2219.308,1976.742,2216.234,1976.996z"/>
					</g>
				</g>
				<path fill="#FF0000" d="M1820.643,1746.847c0,0,26.426-19.444-54.729-6.104c-106.378,17.486-402.294,215.185-402.294,215.185
					s28.394,91.418,68.51,91.418c40.119,0,371.876-220.238,446.659-207.697c74.786,12.54,156.381,25.348,225.939,49.041
					c69.562,23.694,521.755-28.103,521.755-28.103l-35.357-53.544c0,0-555.021-54.122-607.961-60.196
					C1930.226,1740.775,1820.643,1746.847,1820.643,1746.847z"/>
				<path fill="#363636" d="M2271.715,1787.067l-16.749,50.53c0,0,96.341,9.827,204.193,75.107
					c107.849,65.279,260.844,265.931,260.844,265.931l-103.586-374.295L2271.715,1787.067z"/>
				<polygon fill="#8E8E8E" points="4453.643,2528.719 4031.558,1196.058 4106.753,1176.304 4538.662,2508.965 				"/>
				<polygon fill="#282828" points="3986.149,1369.702 4035.097,1356.614 4024.19,1320.991 4191.231,1264.113 4204.401,1302.332 
					4293.052,1610.674 4303.018,1648.366 4132.531,1697.594 4106.427,1617.949 3866.718,1656.466 3960.87,1406.274 				"/>
				<g>
					<path fill="#A50000" d="M4013.88,1732.446c-32.479,83.804-107.934,87.395-107.934,87.395h-856.781
						c0,0-58.521-139.916-43.717-216.872c8.596-45.61,23.882-87.396,65.908-135.208c10.512-12.089,21.973-24.179,35.819-36.819
						c25.313-23.094,56.356-47.825,95.518-75.306c148.524-103.874,464.38-73.089,563.804-64.545
						c100.305,9.465,140.142,19.833,178.889,56.941c48.708,40.67,68.494,96.958,68.494,96.958S4066.531,1591.964,4013.88,1732.446z"
						/>
				</g>
				<g>
					<path fill="#FF0000" d="M3876.093,1681.531c-23.413,60.416-77.813,63.004-77.813,63.004h-617.667
						c0,0-42.191-100.868-31.517-156.347c6.197-32.881,17.216-63.006,47.512-97.474c7.58-8.715,15.843-17.431,25.825-26.543
						c18.249-16.648,40.627-34.478,68.859-54.29c107.073-74.884,334.78-52.691,406.458-46.532
						c72.312,6.823,101.028,14.298,128.963,41.05c35.113,29.32,49.379,69.9,49.379,69.9S3914.049,1580.255,3876.093,1681.531z"/>
				</g>
				<path fill="#8E8E8E" d="M3352.163,2312.358l5.568-2.096c10.887-4.093,22.627-6.204,34.494-6.204h135.539
					c23.369,0,45.748,8.181,62.051,22.683l0.609,0.542c21.51,19.135,29.655,46.733,21.382,72.463l-8.549,26.592
					c-5.497,17.097-17.816,31.953-34.767,41.927l-66.252,38.983c-14.356,8.448-31.313,12.965-48.67,12.965h-11.863
					c-19.144,0-37.747-5.493-52.904-15.62l-48.182-32.194c-6.103-4.077-11.548-8.841-16.196-14.166l-10.962-12.564
					c-14.648-16.786-20.483-38.129-16.082-58.823l4.098-19.263C3306.702,2343.013,3325.705,2322.308,3352.163,2312.358z"/>
				<g>
					<polygon fill="#282828" points="4062.742,1055.517 3945.694,1115.711 3978.767,1159.187 4049.364,1209.142 4091.626,1188.626 
						4091.626,1105.68 					"/>
					<path fill="#282828" d="M4021.707,1136.834c-13.002,0-24.729-8.995-27.673-22.209c-12.678-56.82-37.658-116.171-51.896-123.646
						c-15.423,0.08-24.133,1.536-28.503,2.621l-0.712,1.434l-179.918,76.285c-14.235,6.548-31.103,0.292-37.625-13.951
						c-6.54-14.245-0.291-31.086,13.951-37.626l166.312-70.046c19.045-15.473,54.58-15.473,67.707-15.473
						c59.781,0,92.125,105.301,106.084,168.074c3.396,15.297-6.24,30.445-21.537,33.857
						C4025.824,1136.613,4023.749,1136.834,4021.707,1136.834z"/>
					<path fill="#8E8E8E" d="M3806.494,1148.035c-2.817,0-5.642-1.076-7.794-3.226l-12.362-12.385l3.19-6.955
						c0.934-2.044,23.262-50.296,54.203-76.076c28.514-23.763,87.731-35.315,100.291-37.545l22.314-14.227l-32.402-56.35
						c-3.025-5.277-1.212-12.01,4.059-15.044c5.277-3.004,12.005-1.212,15.043,4.06l42.892,74.605l-43.843,27.937l-2.238,0.366
						c-0.645,0.107-65.318,10.878-92.017,33.122c-20.794,17.332-37.954,47.965-44.925,61.54l1.385,1.377
						c4.295,4.309,4.295,11.279-0.008,15.582C3812.132,1146.959,3809.314,1148.035,3806.494,1148.035z"/>
					<circle fill="#282828" cx="3923.256" cy="955.141" r="38.877"/>
					<path fill="#8E8E8E" d="M3714,1080.88c-12.627,0-24.683-7.271-30.175-19.54c-7.466-16.651-0.015-36.2,16.645-43.663
						l185.702-83.218c16.672-7.472,36.196-0.007,43.663,16.642c7.463,16.651,0.013,36.2-16.645,43.664l-185.703,83.219
						C3723.099,1079.948,3718.509,1080.88,3714,1080.88z"/>
					<circle fill="#282828" cx="3714.767" cy="1050.862" r="25.824"/>
				</g>
				<g>
					<path fill="#363636" d="M3037.917,1676.727l7.65-2.687l-6.998-141.362c0,0-273.974,25.916-394.742,25.916
						c-168.961,0-731.657-47.858-796.904-58.099c-65.245-10.241-66.412-24.869-125.444-31.452
						c-59.032-6.582-57.2,127.493-57.2,127.493l-19.197,22.958C1989.255,1728.811,2684.044,1748.719,3037.917,1676.727z"/>
					<path fill="#363636" d="M3045.567,1674.177c-353.873,71.992-1056.313,53.359-1400.486-55.958l-35.842,42.871
						c0,0,57.168,50.47,103.068,78.995c11.478,7.132,24.201,13.44,36.839,18.891c36.32,15.669,451.085,25.25,490.371,29.845
						c69.523,8.133,225.742,24.415,421.864,32.453c267.703,10.971,331.523,11.892,362.242,9.696
						c30.72-2.193,27.043-26.332,27.043-26.332L3045.567,1674.177z"/>
				</g>
				<path fill="#FF0000" d="M3869.992,2011.629c0,0,72.976-164.851,372.485-259.834c299.51-94.984,533.693,1.185,533.693,1.185
					s-23.254,70.39-81.08,105.297c-57.827,34.906-147.313-56.178-353.828,1.502c-206.525,57.68-201.321,111.53-306.317,181.291
					c-24.521,16.288-84.891-1.219-117.181-11.576C3890.864,2020.866,3869.992,2011.629,3869.992,2011.629z"/>
				<path fill="#8E8E8E" d="M1622.378,2626.695h9.145h24.518h35.359h42.566h112.249h68.613h75.623h431.092l270.461,32.742
					l100.106,27.831h6.347h1.589c0,0-0.286,0.15-0.686,0h0.813h3.262h13.064h21.675h24.091h28.352h231.793h231.79h113.616
					c0,0,37.354-0.12,55.847-0.13l3.462-0.001l0.868-0.003c-4.306,0.203-0.699,0.018-1.435,0.045l1.727-0.137l6.898-0.548
					l6.883-0.548c2.055-0.271,2.845-0.9,4.328-1.255c2.74-1.097,5.059-0.812,8.286-2.51c3.109-1.443,6.237-2.802,9.397-4.085
					c12.024-6.854,22.514-16.801,30.667-28.756c1.836-3.163,3.912-6.137,5.704-9.317c1.427-3.437,2.902-6.821,4.44-10.174
					l1.174-2.602l1.278-3.547l2.562-7.069l5.122-14.08c13.613-37.445,26.938-74.081,39.902-109.744
					c25.885-71.349,50.383-138.794,72.447-201.315c5.551-15.613,10.989-30.899,16.306-45.84c2.655-7.469,5.28-14.854,7.88-22.149
					c1.214-3.347,5.224-15.84,5.076-18.305c0.443-2.136,0.898-4.468,1.062-7.433c0.266-2.754,0.659-5.482,0.522-8.228
					c0.203-5.465-0.283-10.864-0.981-16.112c-1.489-10.51-4.673-20.421-9.16-28.998c-8.864-17.313-22.062-29.493-36.003-35.426
					c-1.764-0.69-3.508-1.376-5.234-2.053c-1.563-0.692-4.565-1.558-6.735-2.313c-4.718-1.561-9.34-3.087-13.856-4.576
					c-9.026-2.983-61.069-17.815-61.069-17.815l-76.011-9.238l-59.712-0.218l17.869-68.85l59.23,2.069l75.052,12.937
					c0,0,51.895,15.405,60.84,18.697c4.475,1.646,9.055,3.33,13.732,5.052c2.506,0.965,4.331,1.496,7.47,2.845
					c2.988,1.294,6.013,2.601,9.064,3.923c24.049,11.554,47.34,33.071,62.3,63.401c15.123,30.281,21.517,68.218,13.361,107.963
					l-1.723,7.857l-1.686,5.63l-1.679,5.529l-1.415,4.309l-0.953,2.738c-2.557,7.316-5.135,14.72-7.749,22.212
					c-5.228,14.982-10.574,30.311-16.036,45.967c-22,62.548-45.236,130.593-69.834,202.551
					c-12.277,35.989-24.89,72.963-37.78,110.752l-4.845,14.212l-2.433,7.13l-1.233,3.568l-1.749,4.303l-7.454,17.452
					c-2.922,5.538-6.261,10.828-9.479,16.21c-13.659,20.827-31.542,38.201-52.209,50.136l-16.091,7.457
					c-5.173,2.576-12.149,3.846-18.237,5.548c-3.007,0.697-6.637,1.68-9.145,2.008l-6.88,0.652l-6.893,0.654l-1.723,0.165
					c-1.312,0.063,1.717-0.032-3.159,0.168l-0.868-0.002l-3.462-0.001c-18.493-0.009-55.847-0.011-55.847-0.011h-113.616h-231.79
					h-231.793h-28.863h-32.625h-33.76h-13.661h-3.405h-0.854c-0.953-0.376-2.348,0-2.348,0h-1.691h-6.738l-113.939,27.831
					l-235.191,31.105h-484.248h-79.98c0,0-73.995,0.728-71.734,0c2.261-0.729-115.932,0-115.932,0h-41.868h-27.05h-14.171h-4.132
					L1622.378,2626.695z"/>
				<circle fill="#777C7F" cx="4497.885" cy="2518.146" r="30.326"/>
				<polygon fill="#363636" points="3354.273,2104.047 3592.069,2104.047 3547.53,2285.734 3376.2,2285.734 				"/>
				<path fill="#8E8E8E" d="M3608.401,2101.563h-286.814v-70.4c0-44.039,35.701-79.74,79.74-79.74h127.336
					c44.037,0,79.738,35.701,79.738,79.74V2101.563z"/>
				<g>
					<path fill="#363636" d="M3244.036,1938.822c0,0-4.979,221.221-46.981,257.625c-42.004,36.403-64.407,29.546-64.407,29.546
						h-257.626c0,0-47.604-7.144-67.206-26.745c-19.602-19.603-50.406-100.811-70.007-142.814
						c-19.603-42.005-29.327-98.01-29.327-98.01s-4.275-12.602,16.726-26.602c21.003-14.003,107.812-7.002,107.812-7.002
						s148.414,7.002,172.217,8.401c23.802,1.4,200.22,7.001,214.22,1.4c14.002-5.601,24.581-4.2,24.581-4.2V1938.822z"/>
					<path fill="#8E8E8E" d="M3221.856,1961.883c0,0-4.305,191.249-40.615,222.721c-36.313,31.472-55.681,25.542-55.681,25.542
						H2902.84c0,0-41.157-6.176-58.101-23.122c-16.943-16.944-43.577-87.15-60.522-123.464
						c-16.946-36.313-25.353-84.731-25.353-84.731s-3.695-10.894,14.461-22.997c18.155-12.105,93.202-6.053,93.202-6.053
						s128.306,6.053,148.884,7.263c20.577,1.211,173.092,6.052,185.196,1.211c12.104-4.842,21.249-3.631,21.249-3.631V1961.883z"/>
				</g>
			</g>
		</g>
	</g>
</g>
<g id="Layer_3">
</g>
</svg>
