<?xml version="1.0" encoding="utf-8"?>
<!-- Generator: Adobe Illustrator 24.3.0, SVG Export Plug-In . SVG Version: 6.00 Build 0)  -->
<svg version="1.1" id="Layer_1" xmlns="http://www.w3.org/2000/svg" xmlns:xlink="http://www.w3.org/1999/xlink" x="0px" y="0px"
	 viewBox="0 0 280 170" style="enable-background:new 0 0 280 170;" xml:space="preserve">
<style type="text/css">
	.st0{opacity:0.7;enable-background:new    ;}
	.st1{fill:#373636;}
	.st2{fill:none;stroke:#282828;stroke-width:7;stroke-miterlimit:10;}
	.st3{fill:#282828;}
	.st4{fill:#FBAB20;}
	.st5{fill:#484848;}
	.st6{fill:#8F8F8E;}
	.st7{fill:#222222;}
	.st8{fill:#B1B2AC;}
	.st9{fill:#FF0000;}
	.st10{fill:#CC0000;}
	.st11{fill:#FFFFFF;}
</style>
<g id="Layer_1_1_">
	<g>
		<ellipse class="st0" cx="139.1" cy="136.2" rx="89.1" ry="2.8"/>
		<g>
			<g>
				<g>
					<path class="st1" d="M79.7,79.6c0-0.4,0.2-0.4,0.2-0.4l0,0c0.2,0,0.2,0.4,0.2,0.4v52.3c0,0.4-0.2,0.4-0.2,0.4l0,0
						c-0.2,0-0.2-0.4-0.2-0.4"/>
					<path class="st1" d="M53.8,106c-0.4,0-0.4-0.2-0.4-0.2l0,0c0-0.2,0.4-0.2,0.4-0.2h52.3c0.4,0,0.4,0.2,0.4,0.2l0,0
						c0,0.2-0.4,0.2-0.4,0.2"/>
					<path class="st1" d="M70,81.6c-0.2-0.4,0-0.5,0-0.5l0,0c0.2-0.1,0.4,0.3,0.4,0.3l19.5,48.5c0.2,0.4,0,0.5,0,0.5l0,0
						c-0.2,0.1-0.4-0.3-0.4-0.3"/>
					<path class="st1" d="M55.8,115.7c-0.4,0.2-0.5,0-0.5,0l0,0c-0.1-0.2,0.3-0.4,0.3-0.4l48.5-19.5c0.4-0.2,0.5,0,0.5,0l0,0
						c0.1,0.2-0.3,0.4-0.3,0.4"/>
					<path class="st1" d="M60.3,88.6c-0.3-0.3-0.2-0.4-0.2-0.4l0,0c0.1-0.2,0.5,0.1,0.5,0.1L99.6,123c0.3,0.3,0.2,0.4,0.2,0.4l0,0
						c-0.1,0.2-0.5-0.1-0.5-0.1"/>
					<path class="st1" d="M62.7,125.5c-0.3,0.3-0.4,0.2-0.4,0.2l0,0c-0.2-0.1,0.1-0.5,0.1-0.5l34.7-39.1c0.3-0.3,0.4-0.2,0.4-0.2
						l0,0c0.2,0.1-0.1,0.5-0.1,0.5"/>
					<path class="st1" d="M60.2,88.6c-0.3-0.3-0.2-0.4-0.2-0.4l0,0c0.1-0.2,0.5,0.1,0.5,0.1L99.5,123c0.3,0.3,0.2,0.4,0.2,0.4l0,0
						c-0.1,0.2-0.5-0.1-0.5-0.1"/>
					<path class="st1" d="M62.7,125.5c-0.3,0.3-0.4,0.2-0.4,0.2l0,0c-0.2-0.1,0.1-0.5,0.1-0.5l34.7-39.1c0.3-0.3,0.4-0.2,0.4-0.2
						l0,0c0.2,0.1-0.1,0.5-0.1,0.5"/>
					<path class="st1" d="M55,98c-0.4-0.1-0.3-0.3-0.3-0.3l0,0c0.1-0.2,0.5-0.1,0.5-0.1l49.8,16c0.4,0.1,0.3,0.3,0.3,0.3l0,0
						c-0.1,0.2-0.5,0.1-0.5,0.1"/>
					<path class="st1" d="M72.1,130.7c-0.1,0.4-0.3,0.3-0.3,0.3l0,0c-0.2-0.1-0.1-0.5-0.1-0.5l16-49.8c0.1-0.4,0.3-0.3,0.3-0.3l0,0
						c0.2,0.1,0.1,0.5,0.1,0.5"/>
				</g>
				<g>
					<path class="st1" d="M197.9,79.6c0-0.4,0.2-0.4,0.2-0.4l0,0c0.2,0,0.2,0.4,0.2,0.4v52.3c0,0.4-0.2,0.4-0.2,0.4l0,0
						c-0.2,0-0.2-0.4-0.2-0.4"/>
					<path class="st1" d="M172,106c-0.4,0-0.4-0.2-0.4-0.2l0,0c0-0.2,0.4-0.2,0.4-0.2h52.3c0.4,0,0.4,0.2,0.4,0.2l0,0
						c0,0.2-0.4,0.2-0.4,0.2"/>
					<path class="st1" d="M188.1,81.6c-0.2-0.4,0-0.5,0-0.5l0,0c0.2-0.1,0.4,0.3,0.4,0.3l19.5,48.5c0.2,0.4,0,0.5,0,0.5l0,0
						c-0.2,0.1-0.4-0.3-0.4-0.3"/>
					<path class="st1" d="M173.9,115.7c-0.4,0.2-0.5,0-0.5,0l0,0c-0.1-0.2,0.3-0.4,0.3-0.4l48.5-19.5c0.4-0.2,0.5,0,0.5,0l0,0
						c0.1,0.2-0.3,0.4-0.3,0.4"/>
					<path class="st1" d="M178.4,88.6c-0.3-0.3-0.2-0.4-0.2-0.4l0,0c0.1-0.2,0.5,0.1,0.5,0.1l39.1,34.7c0.3,0.3,0.2,0.4,0.2,0.4l0,0
						c-0.1,0.2-0.5-0.1-0.5-0.1"/>
					<path class="st1" d="M180.9,125.5c-0.3,0.3-0.4,0.2-0.4,0.2l0,0c-0.2-0.1,0.1-0.5,0.1-0.5l34.7-39.1c0.3-0.3,0.4-0.2,0.4-0.2
						l0,0c0.2,0.1-0.1,0.5-0.1,0.5"/>
					<path class="st1" d="M178.3,88.6c-0.3-0.3-0.2-0.4-0.2-0.4l0,0c0.1-0.2,0.5,0.1,0.5,0.1l39.1,34.7c0.3,0.3,0.2,0.4,0.2,0.4l0,0
						c-0.1,0.2-0.5-0.1-0.5-0.1"/>
					<path class="st1" d="M180.8,125.5c-0.3,0.3-0.4,0.2-0.4,0.2l0,0c-0.2-0.1,0.1-0.5,0.1-0.5l34.7-39.1c0.3-0.3,0.4-0.2,0.4-0.2
						l0,0c0.2,0.1-0.1,0.5-0.1,0.5"/>
					<path class="st1" d="M173.1,98c-0.4-0.1-0.3-0.3-0.3-0.3l0,0c0.1-0.2,0.5-0.1,0.5-0.1l49.8,16c0.4,0.1,0.3,0.3,0.3,0.3l0,0
						c-0.1,0.2-0.5,0.1-0.5,0.1"/>
					<path class="st1" d="M190.3,130.7c-0.1,0.4-0.3,0.3-0.3,0.3l0,0c-0.2-0.1-0.1-0.5-0.1-0.5l16-49.8c0.1-0.4,0.3-0.3,0.3-0.3l0,0
						c0.2,0.1,0.1,0.5,0.1,0.5"/>
				</g>
				<circle class="st2" cx="79.9" cy="106.1" r="26.6"/>
				<circle class="st2" cx="198.1" cy="106.1" r="26.6"/>
				<g>
					<g>
						<g>
							<path class="st3" d="M193.5,61.2c-4.4,0-7.9-3.5-7.9-7.9s3.5-7.9,7.9-7.9V61.2z"/>
							<path class="st4" d="M194.8,61.2h-1.3V45.4h1.3c0.7,0,1.3,0.6,1.3,1.3v13.2C196.1,60.6,195.5,61.2,194.8,61.2z"/>
							<g>
								<path class="st5" d="M204.8,107.1c-0.6,3.8-4.2,6.5-8.1,5.8c-3.8-0.6-6.5-4.2-5.8-8.1c0.6-3.8,4.2-6.5,8.1-5.8
									C202.8,99.6,205.4,103.2,204.8,107.1z"/>
							</g>
							<polygon class="st3" points="105.8,71.1 117.6,112.6 154.8,112.6 165.4,82.9 162.2,71.1 128.1,71 							"/>
							<g>
								<path class="st5" d="M80.9,102.1c1.3,0,2.4,1.1,2.4,2.4c0,1.3-1.1,2.4-2.4,2.4c-1.3,0-2.4-1.1-2.4-2.4
									C78.5,103.2,79.5,102.1,80.9,102.1 M80.9,92.1c-6.8,0-12.4,5.6-12.4,12.4c0,6.8,5.6,12.4,12.4,12.4s12.4-5.6,12.4-12.4
									C93.2,97.6,87.7,92.1,80.9,92.1L80.9,92.1z"/>
								
									<rect x="76" y="98.7" transform="matrix(0.9951 -9.909778e-02 9.909778e-02 0.9951 -9.6392 10.4312)" class="st3" width="48.3" height="7.1"/>
								<path class="st3" d="M81.9,117.6c-3.8,0-12.6-1.1-14-11.2c-0.5-3.5,0.2-6.4,2.1-8.8c3.5-4.5,9.8-5.3,10.1-5.3l0.1,0l0.1,0
									l41.3,1.1l0,1.4l-41.3-1.1c-0.6,0.1-6.1,0.9-9.1,4.8c-1.6,2.1-2.2,4.7-1.8,7.7c1.5,11.2,13.1,10.1,14.1,9.9l43.1-12.3
									l0.4,1.4l-43.2,12.3l-0.1,0C83.6,117.6,83,117.6,81.9,117.6z"/>
							</g>
							<g>
								<polygon class="st6" points="81.7,103.9 80.8,103.4 88.5,72.8 89.4,73.3 								"/>
								<polygon class="st7" points="83,102.7 80.5,101.5 83.7,88.7 86.1,89.3 								"/>
								
									<ellipse transform="matrix(0.9966 -8.220130e-02 8.220130e-02 0.9966 -5.7456 7.5542)" class="st8" cx="88.9" cy="73.6" rx="1.4" ry="2"/>
								
									<ellipse transform="matrix(0.9966 -8.249927e-02 8.249927e-02 0.9966 -8.3083 7.0237)" class="st1" cx="80.8" cy="104" rx="1.4" ry="1.6"/>
								<polygon class="st7" points="90.3,80 84.8,77 85.6,73.9 91.1,76.8 								"/>
								<polygon class="st7" points="84.7,102.1 79.2,99.2 80,96 85.5,99 								"/>
								<g>
									<path class="st7" d="M85,98.4C85,98.4,85,98.4,85,98.4l-4.4-1c-0.2,0-0.3-0.3-0.3-0.5c0-0.2,0.2-0.4,0.4-0.4l4.3,1
										c0.2,0,0.3,0.3,0.3,0.5C85.3,98.2,85.2,98.4,85,98.4z"/>
									<path class="st7" d="M85.5,96.4C85.5,96.4,85.5,96.4,85.5,96.4l-4.4-1c-0.2,0-0.3-0.3-0.3-0.5c0-0.2,0.2-0.4,0.4-0.4l4.3,1
										c0.2,0,0.3,0.3,0.3,0.5C85.8,96.2,85.7,96.4,85.5,96.4z"/>
									<path class="st7" d="M86,94.3C86,94.3,86,94.3,86,94.3l-4.4-1c-0.2,0-0.3-0.3-0.3-0.5c0-0.2,0.2-0.4,0.4-0.4l4.3,1
										c0.2,0,0.3,0.3,0.3,0.5C86.3,94.2,86.2,94.3,86,94.3z"/>
									<path class="st7" d="M86.5,92.3C86.5,92.3,86.5,92.3,86.5,92.3l-4.4-1c-0.2,0-0.3-0.3-0.3-0.5s0.2-0.4,0.4-0.4l4.3,1
										c0.2,0,0.3,0.3,0.3,0.5C86.8,92.1,86.7,92.3,86.5,92.3z"/>
									<path class="st7" d="M87,90.3C87,90.3,87,90.3,87,90.3l-4.4-1c-0.2,0-0.3-0.3-0.3-0.5s0.2-0.4,0.4-0.4l4.3,1
										c0.2,0,0.3,0.3,0.3,0.5C87.3,90.1,87.2,90.3,87,90.3z"/>
									<path class="st7" d="M87.5,88.3C87.5,88.3,87.5,88.3,87.5,88.3l-4.4-1c-0.2,0-0.3-0.3-0.3-0.5c0-0.2,0.2-0.4,0.4-0.4l4.3,1
										c0.2,0,0.3,0.3,0.3,0.5C87.8,88.1,87.7,88.2,87.5,88.3z"/>
									<path class="st7" d="M88,86.2C88,86.2,88,86.2,88,86.2l-4.4-1c-0.2,0-0.3-0.3-0.3-0.5c0-0.2,0.2-0.4,0.4-0.4l4.3,1
										c0.2,0,0.3,0.3,0.3,0.5C88.3,86.1,88.2,86.2,88,86.2z"/>
									<path class="st7" d="M88.5,84.2C88.5,84.2,88.5,84.2,88.5,84.2l-4.4-1c-0.2,0-0.3-0.3-0.3-0.5c0-0.2,0.2-0.4,0.4-0.4l4.3,1
										c0.2,0,0.3,0.3,0.3,0.5C88.8,84,88.7,84.2,88.5,84.2z"/>
									<path class="st7" d="M89,82.2C89,82.2,89,82.2,89,82.2l-4.4-1c-0.2,0-0.3-0.3-0.3-0.5c0-0.2,0.2-0.4,0.4-0.4l4.3,1
										c0.2,0,0.3,0.3,0.3,0.5C89.3,82,89.2,82.2,89,82.2z"/>
									<path class="st7" d="M89.5,80.1C89.5,80.1,89.5,80.1,89.5,80.1l-4.4-1c-0.2,0-0.3-0.3-0.3-0.5c0-0.2,0.2-0.4,0.4-0.4l4.3,1
										c0.2,0,0.3,0.3,0.3,0.5C89.8,80,89.7,80.1,89.5,80.1z"/>
								</g>
							</g>
							<path class="st9" d="M70.8,69.2c0,0,1.3-0.9-2.6-0.3c-5,0.8-19.1,10.2-19.1,10.2s1.3,4.3,3.3,4.3S70,73,73.5,73.6
								c3.6,0.6,7.4,1.2,10.7,2.3s24.8-1.3,24.8-1.3l-1.7-2.5c0,0-26.3-2.6-28.9-2.9C76,68.9,70.8,69.2,70.8,69.2z"/>
							<path class="st1" d="M92.2,71.1l-0.8,2.4c0,0,4.6,0.5,9.7,3.6c5.1,3.1,12.4,12.6,12.4,12.6L108.5,72L92.2,71.1z"/>
							<polygon class="st6" points="195.7,106.3 175.7,43.1 179.2,42.1 199.7,105.4 							"/>
							<polygon class="st3" points="173.5,51.3 175.8,50.7 175.3,49 183.3,46.3 183.9,48.1 188.1,62.8 188.6,64.5 180.5,66.9 
								179.2,63.1 167.9,64.9 172.3,53.1 							"/>
							<g>
								<path class="st10" d="M174.8,68.5c-1.5,4-5.1,4.1-5.1,4.1h-40.7c0,0-2.8-6.6-2.1-10.3c0.4-2.2,1.1-4.1,3.1-6.4
									c0.5-0.6,1-1.1,1.7-1.7c1.2-1.1,2.7-2.3,4.5-3.6c7-4.9,22-3.5,26.8-3.1c4.8,0.4,6.6,0.9,8.5,2.7c2.3,1.9,3.3,4.6,3.3,4.6
									S177.3,61.9,174.8,68.5z"/>
							</g>
							<g>
								<path class="st9" d="M168.3,66.1c-1.1,2.9-3.7,3-3.7,3h-29.3c0,0-2-4.8-1.5-7.4c0.3-1.6,0.8-3,2.3-4.6
									c0.4-0.4,0.8-0.8,1.2-1.3c0.9-0.8,1.9-1.6,3.3-2.6c5.1-3.6,15.9-2.5,19.3-2.2c3.4,0.3,4.8,0.7,6.1,1.9
									c1.7,1.4,2.3,3.3,2.3,3.3S170.1,61.3,168.3,66.1z"/>
							</g>
							<path class="st6" d="M143.4,96.1l0.3-0.1c0.5-0.2,1.1-0.3,1.6-0.3h6.4c1.1,0,2.2,0.4,2.9,1.1l0,0c1,0.9,1.4,2.2,1,3.4
								l-0.4,1.3c-0.3,0.8-0.8,1.5-1.6,2l-3.1,1.9c-0.7,0.4-1.5,0.6-2.3,0.6h-0.6c-0.9,0-1.8-0.3-2.5-0.7l-2.3-1.5
								c-0.3-0.2-0.5-0.4-0.8-0.7l-0.5-0.6c-0.7-0.8-1-1.8-0.8-2.8l0.2-0.9C141.3,97.5,142.2,96.5,143.4,96.1z"/>
							<g>
								<polygon class="st3" points="178.8,38.5 173,40.8 174.3,43 177.4,45.7 179.5,44.9 179.9,41 								"/>
								<path class="st3" d="M176.5,42.1c-0.6-0.1-1.1-0.5-1.2-1.2c-0.3-2.7-1.2-5.7-1.8-6.1c-0.7-0.1-1.1,0-1.4,0l0,0.1l-8.9,2.7
									c-0.7,0.2-1.5-0.1-1.7-0.8c-0.2-0.7,0.1-1.5,0.8-1.7l8.2-2.5c1-0.6,2.7-0.5,3.3-0.4c2.8,0.3,3.8,5.4,4.2,8.5
									c0.1,0.7-0.4,1.4-1.2,1.5C176.7,42.1,176.6,42.1,176.5,42.1z"/>
								<path class="st6" d="M166.3,41.6c-0.1,0-0.3-0.1-0.4-0.2l-0.5-0.6l0.2-0.3c0.1-0.1,1.4-2.3,2.9-3.3c1.5-1,4.3-1.2,4.9-1.3
									l1.1-0.6l-1.2-2.8c-0.1-0.3,0-0.6,0.3-0.7c0.3-0.1,0.6,0,0.7,0.3l1.6,3.7l-2.2,1.1l-0.1,0c0,0-3.1,0.2-4.5,1.1
									c-1.1,0.7-2,2.1-2.4,2.7l0.1,0.1c0.2,0.2,0.1,0.6-0.1,0.7C166.5,41.6,166.4,41.6,166.3,41.6z"/>
								<circle class="st3" cx="172.8" cy="33.1" r="1.8"/>
								<path class="st6" d="M162.2,37.9c-0.6-0.1-1.1-0.5-1.3-1.1c-0.3-0.8,0.2-1.7,1-2l9.2-3c0.8-0.3,1.7,0.2,2,1
									c0.3,0.8-0.2,1.7-1,2l-9.2,3C162.7,37.9,162.5,38,162.2,37.9z"/>
								<circle class="st3" cx="162.4" cy="36.5" r="1.2"/>
							</g>
							<path class="st3" d="M130.3,71.5l-1.3-5.7c0,0,0,0,0,0l0,0l-1-6.7c0,0-12.5,1.2-18.2,1.2c-8,0-34.7-2.3-37.8-2.8
								c-3.1-0.5-3.2-1.2-6-1.5c-2.8-0.3-2.7,6-2.7,6l-0.9,1c0,0,0,0,0,0l-1.7,2c0,0,2.7,2.4,4.9,3.7c0.5,0.3,1.1,0.6,1.7,0.9
								c1.7,0.7,21.4,1.2,23.3,1.4c3.3,0.4,10.7,1.2,20,1.5c12.7,0.5,16.9,0.1,18.4,0C130.5,72.6,130.3,71.5,130.3,71.5z"/>
							<path class="st9" d="M168,81.8c0,0,3.5-7.8,17.7-12.3c14.2-4.5,25.3,0.1,25.3,0.1s-1.1,3.3-3.8,5s-7.7-1.8-17.4,1.3
								c-9.4,3-9,4.1-13.9,7.4c-1.2,0.8-4-0.1-5.6-0.6C169,82.2,168,81.8,168,81.8z"/>
							<path class="st6" d="M61.3,111h0.4h1.2h1.7h2H72h3.3h3.6h20.5l12.8,1.6l4.8,1.3h0.3h0.1c0,0,0,0,0,0h0h0.2h0.6h1h1.1h1.3h11
								h11h5.4c0,0,1.8,0,2.6,0h0.2h0c-0.2,0,0,0-0.1,0l0.1,0l0.3,0l0.3,0c0.1,0,0.1,0,0.2-0.1c0.1-0.1,0.2,0,0.4-0.1
								c0.1-0.1,0.3-0.1,0.4-0.2c0.6-0.3,1.1-0.8,1.5-1.4c0.1-0.2,0.2-0.3,0.3-0.4c0.1-0.2,0.1-0.3,0.2-0.5l0.1-0.1l0.1-0.2l0.1-0.3
								l0.2-0.7c0.6-1.8,1.3-3.5,1.9-5.2c1.2-3.4,2.4-6.6,3.4-9.6c0.3-0.7,0.5-1.5,0.8-2.2c0.1-0.4,0.3-0.7,0.4-1.1
								c0.1-0.2,0.2-0.8,0.2-0.9c0-0.1,0-0.2,0.1-0.4c0-0.1,0-0.3,0-0.4c0-0.3,0-0.5,0-0.8c-0.1-0.5-0.2-1-0.4-1.4
								c-0.4-0.8-1-1.4-1.7-1.7c-0.1,0-0.2-0.1-0.2-0.1c-0.1,0-0.2-0.1-0.3-0.1c-0.2-0.1-0.4-0.1-0.7-0.2c-0.4-0.1-2.9-0.8-2.9-0.8
								l-3.6-0.4l-2.8,0l0.8-3.3l2.8,0.1l3.6,0.6c0,0,2.5,0.7,2.9,0.9c0.2,0.1,0.4,0.2,0.6,0.2c0.1,0,0.2,0.1,0.4,0.1
								c0.1,0.1,0.3,0.1,0.4,0.2c1.1,0.5,2.2,1.6,3,3c0.7,1.4,1,3.2,0.6,5.1l-0.1,0.4l-0.1,0.3l-0.1,0.3l-0.1,0.2l0,0.1
								c-0.1,0.3-0.2,0.7-0.4,1.1c-0.2,0.7-0.5,1.4-0.8,2.2c-1,3-2.1,6.2-3.3,9.6c-0.6,1.7-1.2,3.5-1.8,5.3l-0.2,0.7l-0.1,0.3
								l-0.1,0.2l-0.1,0.2l-0.4,0.8c-0.1,0.3-0.3,0.5-0.4,0.8c-0.6,1-1.5,1.8-2.5,2.4l-0.8,0.4c-0.2,0.1-0.6,0.2-0.9,0.3
								c-0.1,0-0.3,0.1-0.4,0.1l-0.3,0l-0.3,0l-0.1,0c-0.1,0,0.1,0-0.2,0h0h-0.2c-0.9,0-2.6,0-2.6,0h-5.4h-11h-11h-1.4h-1.5H117
								h-0.6h-0.2h0c0,0-0.1,0-0.1,0H116h-0.3l-5.4,1.3L99.1,120h-23h-3.8c0,0-3.5,0-3.4,0c0.1,0-5.5,0-5.5,0h-2h-1.3h-0.7h-0.2
								L61.3,111z"/>
							<circle class="st1" cx="197.8" cy="105.8" r="1.4"/>
							<polygon class="st1" points="142,86.1 155.6,86.1 152.7,94.7 144.6,94.7 							"/>
							<path class="st6" d="M155.6,86.1H142v-3.3c0-2.1,1.7-3.8,3.8-3.8h6c2.1,0,3.8,1.7,3.8,3.8V86.1z"/>
							<g>
								<path class="st1" d="M138.3,78.3c0,0-0.2,10.5-2.2,12.2c-2,1.7-3.1,1.4-3.1,1.4h-12.2c0,0-2.3-0.3-3.2-1.3
									c-0.9-0.9-2.4-4.8-3.3-6.8c-0.9-2-1.4-4.7-1.4-4.7s-0.2-0.6,0.8-1.3c1-0.7,5.1-0.3,5.1-0.3s7,0.3,8.2,0.4
									c1.1,0.1,9.5,0.3,10.2,0.1c0.7-0.3,1.2-0.2,1.2-0.2V78.3z"/>
								<path class="st6" d="M136.2,79.5c0,0-0.2,8.7-1.8,10.1c-1.6,1.4-2.5,1.2-2.5,1.2h-10.1c0,0-1.9-0.3-2.6-1
									c-0.8-0.8-2-3.9-2.7-5.6c-0.8-1.6-1.1-3.8-1.1-3.8s-0.2-0.5,0.7-1c0.8-0.5,4.2-0.3,4.2-0.3s5.8,0.3,6.7,0.3
									c0.9,0.1,7.8,0.3,8.4,0.1c0.5-0.2,1-0.2,1-0.2V79.5z"/>
							</g>
						</g>
					</g>
				</g>
			</g>
		</g>
	</g>
</g>
<polygon class="st11" points="155.7,56.1 151.7,60.6 151.7,57.5 150,57.5 150,64.5 150,64.9 151.7,63 152.5,62.1 153.6,60.8 
	154.6,59.7 156.5,57.5 157.8,56.1 "/>
</svg>
