<?xml version="1.0" encoding="utf-8"?>
<!-- Generator: Adobe Illustrator 24.1.3, SVG Export Plug-In . SVG Version: 6.00 Build 0)  -->
<svg version="1.1" id="Layer_1" xmlns="http://www.w3.org/2000/svg" xmlns:xlink="http://www.w3.org/1999/xlink" x="0px" y="0px"
	 viewBox="0 0 100 94.09" enable-background="new 0 0 100 94.09" xml:space="preserve">
<path fill="#FFFFFF" d="M97.005,74.253c-0.153,0.665-0.408,1.302-0.756,1.889c-2.676,4.374-5.943,8.358-9.711,11.836
	c-1.125,0.902-2.309,1.729-3.542,2.475l-2.834,0.179c-1.37-0.179-2.768-0.34-4.109-0.586c-6.061-1.243-11.877-3.477-17.211-6.612
	c-9.153-5.101-17.343-11.506-25.193-18.411c-7.191-6.178-13.768-13.036-19.639-20.48c-4.034-5.252-7.585-10.769-9.739-17.098
	c-0.529-1.559-0.888-3.174-1.322-4.723l-0.179-2.881c1.2-3.58,3.618-6.338,6.159-8.993c1.889-1.946,3.835-3.779,5.819-5.602
	c1.661-1.536,3.965-2.17,6.178-1.7c1.265,0.189,2.405,0.868,3.174,1.889c4.062,5.384,8.077,10.807,12.28,16.059
	c1.767,2.111,2.17,5.047,1.039,7.557c-0.51,1.351-1.181,2.645-1.795,3.958c-0.718,1.521-1.436,3.051-2.22,4.544
	c-0.345,0.458-0.27,1.106,0.17,1.474c2.834,2.9,5.536,5.932,8.502,8.719C47.532,53.061,53.435,57.896,59.72,62.2
	c0.556,0.489,1.39,0.489,1.946,0c2.295-1.559,4.629-3.07,6.99-4.544c1.646-1.162,3.67-1.662,5.668-1.398
	c0.61,0.099,1.198,0.303,1.738,0.605c6.247,3.558,12.482,7.135,18.704,10.731C96.769,68.727,97.704,71.561,97.005,74.253z"/>
</svg>
