<?xml version="1.0" encoding="utf-8"?>
<!-- Generator: Adobe Illustrator 16.0.0, SVG Export Plug-In . SVG Version: 6.00 Build 0)  -->
<!DOCTYPE svg PUBLIC "-//W3C//DTD SVG 1.1//EN" "http://www.w3.org/Graphics/SVG/1.1/DTD/svg11.dtd">
<svg version="1.1" id="Layer_3" xmlns="http://www.w3.org/2000/svg" xmlns:xlink="http://www.w3.org/1999/xlink" x="0px" y="0px"
	 width="512px" height="512px" viewBox="0 0 512 512" enable-background="new 0 0 512 512" xml:space="preserve">
<g>
	<path fill="#282828" d="M254.656,255.946c0,0,1.875-27.364-15.424-29.882c-17.3-2.517-114.167,0-122.978,0
		c-8.804,0-22,0.946-22.007,29.882l3.004,5.546H244.53L254.656,255.946z"/>
	<path fill="#474747" d="M57.316,282.891c-9.448,3.279,0.72-19.785,4.46-19.785c3.739,0,11.602,0,11.602,0
		S70.763,278.224,57.316,282.891z"/>
	<path fill="#A50000" d="M57.523,295.159c-4.727-12.454,5.275-23.018,15.182-31.509c9.911-8.492,20.215-4.998,20.215-4.998
		s-1.365,17.288-18.3,28.747C57.683,298.861,57.523,295.159,57.523,295.159z"/>
	<path fill="#282828" d="M369.941,371.353c0,28.911,23.431,52.346,52.341,52.346c28.912,0,52.345-23.435,52.345-52.346
		c0-28.913-23.433-52.349-52.345-52.349C393.372,319.004,369.941,342.439,369.941,371.353z"/>
	<path fill="#EBECEE" d="M389.753,371.353c0,17.966,14.567,32.531,32.529,32.531c17.967,0,32.531-14.565,32.531-32.531
		c0-17.971-14.564-32.537-32.531-32.537C404.32,338.815,389.753,353.382,389.753,371.353z"/>
	<path fill="#474747" d="M393.759,371.353c0,15.757,12.774,28.528,28.523,28.528c15.755,0,28.528-12.771,28.528-28.528
		s-12.773-28.53-28.528-28.53C406.533,342.822,393.759,355.596,393.759,371.353z"/>
	<path fill="#F1F2F4" d="M404.542,371.353c0,9.798,7.944,17.745,17.74,17.745c9.797,0,17.748-7.947,17.748-17.745
		c0-9.801-7.951-17.748-17.748-17.748C412.486,353.604,404.542,361.552,404.542,371.353z"/>
	<path fill="#A50000" d="M404.55,295.165c8.222-0.637,21.454-1.639,35.48,2.283c22.515,6.299,36.625,21.816,33.949,30.303
		c-2.688,8.484-34.239,0.163-53.897,13.11c-19.639,12.951-30.329,33.163-50.568,30.197c-9.487-1.388-14.772-6.954-14.309-15.755
		C355.205,355.304,360.913,298.529,404.55,295.165z"/>
	<path opacity="0.15" fill="#71A29F" d="M404.602,304.851c-10.741,11.713-19.03,4.392-27.335,21.96
		c-5.261,11.152-10.901,27.26-19.243,38.329c-0.495-0.636-0.932-1.316-1.304-2.042c-0.015-0.029-0.021-0.057-0.039-0.082
		c-0.346-0.692-0.636-1.424-0.867-2.192c-0.067-0.222-0.097-0.461-0.151-0.688c-0.151-0.615-0.296-1.231-0.372-1.892
		c-0.1-0.937-0.14-1.91-0.085-2.94c0,0,5.708-56.774,49.345-60.139c1.467-0.117,3.145-0.235,4.907-0.341
		C409.163,298.037,407.734,301.432,404.602,304.851z"/>
	<path fill="#FF0000" d="M354.613,190.801c0,0,3.178,15.049,11.688,38.092c5.375,14.566,9.429,35.226,27.457,44.368
		c9.108,4.624,17.808,16.108,7.076,27.821c-10.742,11.712-19.032,4.391-27.336,21.96c-8.291,17.569-17.498,47.489-36.76,50.529
		c-11.955,1.886-118.258,0-126.125,0c-7.864,0-13.794-3.575-16.665-12.518c-7.251-22.593-147.506-8.56-147.506-8.56
		s-10.648,1.576-10.361-5.934c0.741-19.375,11.937-46.901,31.434-60.112c19.496-13.208,26.73-30.503,26.73-30.503h160.409
		c1.255,16.356-7.242,19.813-9.751,23.268c-2.521,3.459-25.168,22.964-16.68,48.752c8.494,25.787,25.794,29.562,51.271,30.506
		c25.473,0.943,40.122-11.044,47.671-28.972c7.551-17.927,17.333-39,18.667-70.333c0.62-14.577-9.719-63.924-9.719-63.924
		S349.601,187.192,354.613,190.801z"/>
	<g opacity="0.73">
		<path fill="#DD0000" d="M337.444,195.243c0,0,21.693,62.897,23.581,77.365c1.89,14.471-7.861,51.896-15.414,69.823
			c-5.945,14.112-26.896,16.529-47.969,16.459c20.617-0.036,40.819-2.643,46.639-16.459c7.551-17.927,17.303-55.353,15.413-69.823
			c-1.886-14.468-23.579-77.365-23.579-77.365s9.673-5.772,15.677-5.348C345.792,190.263,337.444,195.243,337.444,195.243z"/>
		<path fill="#DD0000" d="M67.518,286.449c19.496-13.208,26.73-30.503,26.73-30.503h1.331c0,0-7.235,17.295-26.73,30.503
			c-19.497,13.211-30.692,40.737-31.434,60.112c-0.19,4.962,4.383,5.953,7.515,6.057c-2.924,0.113-9.065-0.323-8.845-6.057
			C36.824,327.187,48.021,299.66,67.518,286.449z"/>
	</g>
	<path fill="#474747" d="M355.004,192.505c-1.933,2.463-14.003,5.625-18.135,4.941c-0.476-1.395-0.754-2.204-0.754-2.204
		s13.485-8.051,18.498-4.442C354.613,190.801,354.741,191.398,355.004,192.505z"/>
	<path fill="#282828" d="M244.82,362.876c-15.968-3.858-16.289-33.281-17.05-36.442c0,0,0.05,0,0.058,0
		c0.145,0.516,0.23,1.013,0.398,1.532c8.494,25.787,25.794,29.562,51.271,30.506c25.473,0.943,45.96-25.029,45.96-25.029
		l0.378-0.942l0.001,0.004c0,0-11.335,33.329-29.501,33.162C271.668,365.439,265.334,367.833,244.82,362.876z"/>
	<path fill="#282828" d="M329.168,157.416c0,0-5.99,0.072-6.832-3.932c-0.835-4.004,6.083-5.123,6.083-5.123
		c3.932-0.135,12.079,1.798,8.95,6.478C335.356,157.841,329.168,157.416,329.168,157.416z"/>
	<path fill="#FF0000" d="M336.115,195.243c-3.421-1.462-10.763-31.293-8.813-38.37c3.476-12.561,33.527-9.487,35.62-9.134
		c13.176,2.194,12.216,30.438,2.375,32.273c-6.812,1.267-11.464,0-10.003,9.759C355.697,192.435,339.525,196.708,336.115,195.243z"
		/>
	<path fill="#FF4040" d="M342.584,160.09c3.936,1.887,3.932,3.621,4.246,7.079c0.315,3.454-2.508,7.23-14.464,10.531
		c-0.955,0.265-1.806,0.49-2.614,0.698c-1.242-5.2-2.228-10.659-2.603-14.969C333.007,161.341,339.881,158.795,342.584,160.09z"/>
	<g>
		<path fill="#282828" d="M77.923,371.353c0,28.911,23.433,52.346,52.342,52.346c28.912,0,52.345-23.435,52.345-52.346
			c0-28.913-23.433-52.349-52.345-52.349C101.355,319.004,77.923,342.439,77.923,371.353z"/>
		<path fill="#EBECEE" d="M97.738,371.353c0,17.966,14.566,32.531,32.527,32.531c17.967,0,32.531-14.565,32.531-32.531
			c0-17.971-14.564-32.537-32.531-32.537C112.304,338.815,97.738,353.382,97.738,371.353z"/>
		<path fill="#474747" d="M101.741,371.353c0,15.757,12.775,28.528,28.524,28.528c15.756,0,28.529-12.771,28.529-28.528
			s-12.773-28.53-28.529-28.53C114.516,342.822,101.741,355.596,101.741,371.353z"/>
		<path fill="#F1F2F4" d="M112.523,371.353c0,9.798,7.946,17.745,17.742,17.745c9.797,0,17.746-7.947,17.746-17.745
			c0-9.801-7.949-17.748-17.746-17.748C120.469,353.604,112.523,361.552,112.523,371.353z"/>
	</g>
	<path fill="#282828" d="M159.997,361.42c0,0-4.685,12.058-19.896,12.058c-7.878,0-19.674,0-24.124,0
		c-9.867,0-14.037-7.324-15.442-12.821l14.157-6.451l37.939,1.58L159.997,361.42z"/>
	<path opacity="0.73" fill="#71A29F" d="M48.649,328.279c6.768-17.098,41.198-58.813,93.09-61.013
		c1.795-0.077,3.527-0.092,5.222-0.072c-1.276,0.004-2.561,0.015-3.892,0.072c-51.89,2.2-86.324,43.915-93.09,61.013
		c-5.981,15.1-4.01,32.083,3.772,32.075c2.516-0.002,63.109,0.7,104.852,0.701c-41.775,0.013-103.641-0.703-106.183-0.701
		C44.637,360.362,42.668,343.379,48.649,328.279z"/>
	<g>
		<path opacity="0.54" fill="#71A29F" d="M55.847,360.354c-7.784,0.008-9.753-16.976-3.772-32.075
			c6.768-17.098,41.197-58.813,93.09-61.013c51.892-2.202,61.011,37.111,65.104,57.554c4.091,20.444-5.351,33.963-10.693,35.539
			C194.23,361.934,59.622,360.351,55.847,360.354z"/>
		<path fill="#FF5757" d="M48.306,328.279c6.768-17.098,41.2-58.813,93.09-61.013c1.795-0.077,3.526-0.092,5.222-0.072
			c-1.276,0.004-2.561,0.015-3.891,0.072c-51.892,2.2-86.324,43.915-93.091,61.013c-5.981,15.1-4.012,32.083,3.773,32.075
			c2.514-0.002,63.106-5.212,104.852-5.21c-41.775,0.013-103.641,5.208-106.183,5.21C44.295,360.362,42.324,343.379,48.306,328.279z
			"/>
		<path fill="#A50000" d="M52.078,360.354c-7.783,0.008-9.754-16.976-3.772-32.075c6.768-17.098,41.2-58.813,93.09-61.013
			c51.894-2.202,61.014,37.111,65.105,57.554c4.091,20.444-5.349,33.963-10.696,35.539
			C190.459,361.934,55.854,360.351,52.078,360.354z"/>
	</g>
	<path fill="#FFAC1A" d="M365.277,180.367c-2.05,0.38-3.902,0.541-5.469,0.827c-5.521-18.025-1.044-34.057-1.029-34.098
		c2.154,0.141,3.668,0.313,4.08,0.383C376.284,149.716,375.307,178.496,365.277,180.367z"/>
	<path fill="#282828" d="M314.518,166.936c0,0,4.554-0.785,6.132,4.245c1.576,5.029-2.678,6.764-6.132,7.547
		c-3.458,0.785-13.049,3.617-13.049,3.617s-4.281,0.626-5.224-6.136C295.297,169.453,314.518,166.936,314.518,166.936z"/>
	<path fill="#A50000" d="M314.518,166.936c0,0-0.997-1.884,4.561-2.99c5.557-1.107,18.391-7.391,22.328-5.501
		c3.938,1.885,3.931,3.618,4.246,7.076c0.316,3.455-2.506,7.23-14.465,10.533c-11.955,3.303-11.731,2.051-12.785,1.258"/>
	<path fill="#474747" d="M296.245,176.209c-0.213-1.516,0.623-2.812,2.001-3.923c0.093,0.023,8.987,2.377,3.223,10.059
		C301.469,182.345,297.188,182.971,296.245,176.209z"/>
</g>
</svg>
