<?xml version="1.0" encoding="utf-8"?>
<!-- Generator: Adobe Illustrator 24.3.0, SVG Export Plug-In . SVG Version: 6.00 Build 0)  -->
<svg version="1.1" id="Layer_1" xmlns="http://www.w3.org/2000/svg" xmlns:xlink="http://www.w3.org/1999/xlink" x="0px" y="0px"
	 viewBox="0 0 280 170" style="enable-background:new 0 0 280 170;" xml:space="preserve">
<style type="text/css">
	.st0{opacity:0.7;enable-background:new    ;}
	.st1{fill:#D3D3D3;}
	.st2{fill:#373636;}
	.st3{fill:#FBAB20;}
	.st4{fill:#CC0000;}
	.st5{fill:#282828;}
	.st6{fill:#484848;}
	.st7{fill:#C02026;}
	.st8{fill:#FF0000;}
	.st9{opacity:0.73;}
	.st10{fill:#DB1F26;}
	.st11{fill:#A41D21;}
	.st12{opacity:0.73;fill:#71A3A0;enable-background:new    ;}
	.st13{opacity:0.54;fill:#A91E22;enable-background:new    ;}
	.st14{fill:#F15A5A;}
	.st15{fill:#8F8F8E;}
	.st16{fill:#FFFFFF;}
</style>
<g id="Layer_1_1_">
	<g>
		<ellipse class="st0" cx="142.6" cy="136.1" rx="76.3" ry="3"/>
		<g>
			<circle class="st1" cx="194.3" cy="118.3" r="7.7"/>
			<circle class="st1" cx="94.3" cy="118.3" r="7.7"/>
			<g>
				<path class="st2" d="M137,78.8c0,0,0.6-9.4-5.3-10.3c-5.9-0.9-39.2,0-42.2,0c-3,0-7.6,0.3-7.6,10.3l1,1.9h50.5L137,78.8z"/>
				<path class="st3" d="M69.3,88.1c-3.2,1.1,0.2-6.8,1.5-6.8c1.3,0,4,0,4,0S73.9,86.5,69.3,88.1z"/>
				<path class="st4" d="M69.3,92.3c-1.6-4.3,1.8-7.9,5.2-10.8c3.4-2.9,6.9-1.7,6.9-1.7s-0.5,5.9-6.3,9.9
					C69.4,93.6,69.3,92.3,69.3,92.3z"/>
				<path class="st5" d="M194.5,100.5c-9.9,0-18,8-18,18c0,9.9,8,18,18,18c9.9,0,18-8,18-18C212.5,108.5,204.4,100.5,194.5,100.5z
					 M194.5,129.6c-6.2,0-11.2-5-11.2-11.2c0-6.2,5-11.2,11.2-11.2c6.2,0,11.2,5,11.2,11.2C205.7,124.6,200.7,129.6,194.5,129.6z"/>
				<path class="st6" d="M194.5,108.6c-5.4,0-9.8,4.4-9.8,9.8c0,5.4,4.4,9.8,9.8,9.8c5.4,0,9.8-4.4,9.8-9.8
					C204.3,113,199.9,108.6,194.5,108.6z M194.5,124.5c-3.4,0-6.1-2.7-6.1-6.1s2.7-6.1,6.1-6.1c3.4,0,6.1,2.7,6.1,6.1
					S197.9,124.5,194.5,124.5z"/>
				<path class="st4" d="M188.4,92.3c2.8-0.2,7.4-0.6,12.2,0.8c7.7,2.2,12.6,7.5,11.6,10.4c-0.9,2.9-11.8,0.1-18.5,4.5
					c-6.7,4.4-10.4,11.4-17.4,10.4c-3.3-0.5-5.1-2.4-4.9-5.4C171.5,112.9,173.5,93.4,188.4,92.3z"/>
				<path class="st7" d="M188.4,95.6c-3.7,4-6.5,1.5-9.4,7.5c-1.8,3.8-3.7,9.4-6.6,13.2c-0.2-0.2-0.3-0.5-0.4-0.7c0,0,0,0,0,0
					c-0.1-0.2-0.2-0.5-0.3-0.8c0-0.1,0-0.2-0.1-0.2c-0.1-0.2-0.1-0.4-0.1-0.6c0-0.3,0-0.7,0-1c0,0,2-19.5,16.9-20.6
					c0.5,0,1.1-0.1,1.7-0.1C190,93.3,189.5,94.4,188.4,95.6z"/>
				<path class="st8" d="M171.3,56.5c0,0,1.1,5.2,4,13.1c1.8,5,3.2,12.1,9.4,15.2c3.1,1.6,6.1,5.5,2.4,9.5c-3.7,4-6.5,1.5-9.4,7.5
					c-2.8,6-6,16.3-12.6,17.3c-4.1,0.6-40.6,0-43.3,0c-2.7,0-4.7-1.2-5.7-4.3c-2.5-7.8-50.6-2.9-50.6-2.9s-3.7,0.5-3.6-2
					c0.3-6.6,4.1-16.1,10.8-20.6c6.7-4.5,9.2-10.5,9.2-10.5h55c0.4,5.6-2.5,6.8-3.3,8c-0.9,1.2-8.6,7.9-5.7,16.7
					c2.9,8.8,8.9,10.1,17.6,10.5c8.7,0.3,13.8-3.8,16.4-9.9c2.6-6.2,5.9-13.4,6.4-24.1c0.2-5-3.3-21.9-3.3-21.9
					S169.6,55.2,171.3,56.5z"/>
				<g class="st9">
					<path class="st10" d="M165.4,58c0,0,7.4,21.6,8.1,26.6c0.6,5-2.7,17.8-5.3,24c-2,4.8-9.2,5.7-16.5,5.6c7.1,0,14-0.9,16-5.6
						c2.6-6.2,5.9-19,5.3-24c-0.6-5-8.1-26.6-8.1-26.6s3.3-2,5.4-1.8C168.3,56.3,165.4,58,165.4,58z"/>
					<path class="st10" d="M72.8,89.3c6.7-4.5,9.2-10.5,9.2-10.5h0.5c0,0-2.5,5.9-9.2,10.5c-6.7,4.5-10.5,14-10.8,20.6
						c-0.1,1.7,1.5,2,2.6,2.1c-1,0-3.1-0.1-3-2.1C62.2,103.3,66.1,93.8,72.8,89.3z"/>
				</g>
				<path class="st11" d="M171.4,57.1c-0.7,0.8-4.8,1.9-6.2,1.7c-0.2-0.5-0.3-0.8-0.3-0.8s4.6-2.8,6.3-1.5
					C171.3,56.5,171.3,56.7,171.4,57.1z"/>
				<path class="st2" d="M133.6,115.5c-5.5-1.3-5.6-11.4-5.9-12.5c0,0,0,0,0,0c0.1,0.2,0.1,0.3,0.1,0.5c2.9,8.8,8.9,10.1,17.6,10.5
					c8.7,0.3,15.8-8.6,15.8-8.6l0.1-0.3v0c0,0-3.9,11.4-10.1,11.4C142.8,116.4,140.7,117.2,133.6,115.5z"/>
				<path class="st5" d="M162.6,45c0,0-2.1,0-2.3-1.3s2.1-1.8,2.1-1.8c1.3,0,4.1,0.6,3.1,2.2C164.7,45.2,162.6,45,162.6,45z"/>
				<path class="st8" d="M164.9,58c-1.2-0.5-3.7-10.7-3-13.2c1.2-4.3,11.5-3.3,12.2-3.1c4.5,0.8,4.2,10.4,0.8,11.1
					c-2.3,0.4-3.9,0-3.4,3.3C171.7,57,166.1,58.5,164.9,58z"/>
				<g>
					<path class="st5" d="M94.3,100.5c-9.9,0-18,8-18,18c0,9.9,8,18,18,18c9.9,0,18-8,18-18C112.3,108.5,104.2,100.5,94.3,100.5z
						 M94.3,129.6c-6.2,0-11.2-5-11.2-11.2c0-6.2,5-11.2,11.2-11.2c6.2,0,11.2,5,11.2,11.2C105.5,124.6,100.5,129.6,94.3,129.6z"/>
					<path class="st6" d="M94.3,108.6c-5.4,0-9.8,4.4-9.8,9.8c0,5.4,4.4,9.8,9.8,9.8c5.4,0,9.8-4.4,9.8-9.8
						C104.1,113,99.7,108.6,94.3,108.6z M94.3,124.5c-3.4,0-6.1-2.7-6.1-6.1s2.7-6.1,6.1-6.1s6.1,2.7,6.1,6.1S97.7,124.5,94.3,124.5
						z"/>
				</g>
				<path class="st5" d="M104.5,114.9c0,0-1.6,4.2-6.8,4.2c-2.7,0-6.8,0-8.3,0c-3.4,0-4.8-2.5-5.3-4.4l4.9-2.2l13,0.5L104.5,114.9z"
					/>
				<path class="st12" d="M66.3,103.6c2.3-5.9,14.1-20.2,31.9-20.9c0.6,0,1.2,0,1.8,0c-0.4,0-0.9,0-1.3,0
					c-17.8,0.8-29.6,15.1-31.9,20.9c-2.1,5.2-1.4,11,1.3,11c0.9,0,21.7,0.2,36,0.2c-14.3,0-35.6-0.2-36.4-0.2
					C64.9,114.7,64.2,108.8,66.3,103.6z"/>
				<g>
					<path class="st13" d="M68.8,114.7c-2.7,0-3.3-5.8-1.3-11c2.3-5.9,14.1-20.2,31.9-20.9c17.8-0.8,20.9,12.7,22.3,19.8
						c1.4,7-1.8,11.7-3.7,12.2C116.2,115.2,70.1,114.7,68.8,114.7z"/>
					<path class="st14" d="M66.2,103.6c2.3-5.9,14.1-20.2,31.9-20.9c0.6,0,1.2,0,1.8,0c-0.4,0-0.9,0-1.3,0
						c-17.8,0.8-29.6,15.1-31.9,20.9c-2.1,5.2-1.4,11,1.3,11c0.9,0,21.7-1.8,36-1.8c-14.3,0-35.6,1.8-36.4,1.8
						C64.8,114.7,64.1,108.8,66.2,103.6z"/>
					<path class="st4" d="M67.5,114.7c-2.7,0-3.3-5.8-1.3-11c2.3-5.9,14.1-20.2,31.9-20.9c17.8-0.8,20.9,12.7,22.3,19.8
						s-1.8,11.7-3.7,12.2C115,115.2,68.8,114.7,67.5,114.7z"/>
				</g>
				<path class="st3" d="M175,52.9c-0.7,0.1-1.3,0.2-1.9,0.3c-1.9-6.2-0.4-11.7-0.4-11.7c0.7,0,1.3,0.1,1.4,0.1
					C178.7,42.4,178.4,52.2,175,52.9z"/>
				<path class="st5" d="M157.5,48.3c0,0,1.6-0.3,2.1,1.5s-0.9,2.3-2.1,2.6c-1.2,0.3-4.5,1.2-4.5,1.2s-1.5,0.2-1.8-2.1
					C150.9,49.1,157.5,48.3,157.5,48.3z"/>
				<path class="st4" d="M157.5,48.3c0,0-0.3-0.6,1.6-1c1.9-0.4,6.3-2.5,7.7-1.9c1.4,0.6,1.3,1.2,1.5,2.4c0.1,1.2-0.9,2.5-5,3.6
					c-4.1,1.1-4,0.7-4.4,0.4"/>
				<path class="st15" d="M151.3,51.5c-0.1-0.5,0.2-1,0.7-1.3c0,0,3.1,0.8,1.1,3.5C153.1,53.6,151.6,53.8,151.3,51.5z"/>
			</g>
		</g>
	</g>
</g>
<polygon class="st16" points="99.7,93.1 93.2,100.2 93.2,95.4 90.6,95.4 90.6,106.4 90.6,107.1 93.2,104.1 94.5,102.7 96.3,100.7 
	97.9,98.8 100.9,95.4 102.9,93.1 "/>
</svg>
