<?xml version="1.0" encoding="utf-8"?>
<!-- Generator: Adobe Illustrator 16.0.0, SVG Export Plug-In . SVG Version: 6.00 Build 0)  -->
<!DOCTYPE svg PUBLIC "-//W3C//DTD SVG 1.1//EN" "http://www.w3.org/Graphics/SVG/1.1/DTD/svg11.dtd">
<svg version="1.1" xmlns="http://www.w3.org/2000/svg" xmlns:xlink="http://www.w3.org/1999/xlink" x="0px" y="0px" width="280px"
	 height="170px" viewBox="0 0 280 170" enable-background="new 0 0 280 170" xml:space="preserve">
<g id="Layer_1">
	<g>
		<ellipse opacity="0.7" cx="142.632" cy="136.063" rx="76.314" ry="2.98"/>
		<g>
			<circle fill="#D3D3D3" cx="194.272" cy="118.298" r="7.723"/>
			<circle fill="#D3D3D3" cx="94.268" cy="118.298" r="7.723"/>
			<g>
				<path fill="#373636" d="M136.988,78.823c0,0,0.644-9.391-5.294-10.255c-5.937-0.864-39.181,0-42.205,0
					c-3.021,0-7.55,0.325-7.551,10.255l1.029,1.904h50.546L136.988,78.823z"/>
				<path fill="#FBAB20" d="M69.263,88.07c-3.243,1.125,0.247-6.79,1.531-6.79c1.282,0,3.98,0,3.98,0S73.877,86.469,69.263,88.07z"
					/>
				<path fill="#A41D21" d="M69.334,92.28c-1.624-4.273,1.811-7.898,5.21-10.813c3.402-2.915,6.937-1.716,6.937-1.716
					s-0.468,5.934-6.279,9.866C69.388,93.552,69.334,92.28,69.334,92.28z"/>
				<path fill="#282828" d="M194.516,100.465c-9.922,0-17.963,8.042-17.963,17.965c0,9.921,8.041,17.966,17.963,17.966
					c9.923,0,17.963-8.045,17.963-17.966C212.479,108.507,204.438,100.465,194.516,100.465z M194.516,129.594
					c-6.164,0-11.164-4.999-11.164-11.164c0-6.167,5-11.166,11.164-11.166c6.166,0,11.165,4.999,11.165,11.166
					C205.681,124.595,200.682,129.594,194.516,129.594z"/>
				<path fill="#484848" d="M194.516,108.638c-5.404,0-9.79,4.384-9.79,9.792c0,5.407,4.386,9.79,9.79,9.79
					c5.407,0,9.791-4.383,9.791-9.79C204.307,113.021,199.923,108.638,194.516,108.638z M194.516,124.521
					c-3.362,0-6.089-2.728-6.089-6.091s2.727-6.091,6.089-6.091c3.361,0,6.092,2.728,6.092,6.091S197.877,124.521,194.516,124.521z"
					/>
				<path fill="#A41D21" d="M188.43,92.282c2.821-0.218,7.362-0.562,12.178,0.784c7.726,2.163,12.568,7.488,11.65,10.399
					c-0.924,2.913-11.751,0.057-18.497,4.5c-6.739,4.443-10.409,11.38-17.355,10.363c-3.254-0.478-5.069-2.388-4.911-5.407
					C171.494,112.922,173.455,93.438,188.43,92.282z"/>
				<path fill="#C02026" d="M188.448,95.606c-3.688,4.021-6.532,1.508-9.381,7.537c-1.806,3.827-3.742,9.354-6.604,13.153
					c-0.169-0.218-0.32-0.451-0.448-0.701c-0.004-0.009-0.006-0.018-0.013-0.026c-0.119-0.238-0.219-0.489-0.298-0.753
					c-0.022-0.076-0.033-0.157-0.051-0.236c-0.054-0.212-0.103-0.422-0.128-0.648c-0.035-0.321-0.048-0.655-0.031-1.01
					c0,0,1.961-19.484,16.936-20.64c0.504-0.04,1.079-0.08,1.685-0.117C190.013,93.27,189.522,94.434,188.448,95.606z"/>
				<path fill="#ED1F24" d="M171.293,56.466c0,0,1.09,5.166,4.011,13.073c1.844,5,3.236,12.089,9.422,15.227
					c3.127,1.587,6.111,5.528,2.429,9.548c-3.686,4.02-6.531,1.507-9.381,7.535c-2.845,6.031-6.004,16.299-12.615,17.341
					c-4.104,0.648-40.585,0-43.285,0c-2.698,0-4.734-1.227-5.721-4.294c-2.487-7.754-50.621-2.938-50.621-2.938
					s-3.653,0.54-3.556-2.036c0.254-6.649,4.097-16.096,10.788-20.631c6.69-4.532,9.175-10.468,9.175-10.468h55.05
					c0.432,5.613-2.486,6.8-3.347,7.985c-0.866,1.188-8.64,7.881-5.724,16.731c2.915,8.85,8.851,10.146,17.595,10.47
					c8.743,0.322,13.771-3.79,16.361-9.944c2.59-6.151,5.948-13.383,6.406-24.137c0.211-5.002-3.336-21.938-3.336-21.938
					S169.572,55.228,171.293,56.466z"/>
				<g opacity="0.73">
					<path fill="#DB1F26" d="M165.4,57.991c0,0,7.444,21.586,8.093,26.552c0.648,4.965-2.698,17.808-5.29,23.962
						c-2.04,4.844-9.231,5.672-16.463,5.647c7.075-0.012,14.01-0.906,16.007-5.647c2.591-6.154,5.937-18.997,5.288-23.962
						c-0.646-4.966-8.091-26.552-8.091-26.552s3.319-1.98,5.38-1.835C168.265,56.282,165.4,57.991,165.4,57.991z"/>
					<path fill="#DB1F26" d="M72.764,89.291c6.69-4.532,9.175-10.468,9.175-10.468h0.456c0,0-2.482,5.936-9.175,10.468
						c-6.69,4.535-10.532,13.981-10.787,20.631c-0.065,1.703,1.503,2.043,2.58,2.079c-1.006,0.038-3.112-0.112-3.037-2.079
						C62.229,103.272,66.072,93.826,72.764,89.291z"/>
				</g>
				<path fill="#A41D21" d="M171.427,57.052c-0.663,0.844-4.806,1.93-6.225,1.695c-0.161-0.479-0.258-0.756-0.258-0.756
					s4.628-2.763,6.349-1.524C171.293,56.466,171.336,56.671,171.427,57.052z"/>
				<path fill="#373636" d="M133.612,115.521c-5.481-1.324-5.59-11.422-5.852-12.506c0,0,0.017,0,0.019,0
					c0.051,0.177,0.08,0.347,0.139,0.525c2.915,8.85,8.851,10.146,17.595,10.47c8.743,0.322,15.772-8.591,15.772-8.591l0.13-0.323
					v0.002c0,0-3.889,11.438-10.124,11.38C142.827,116.4,140.651,117.222,133.612,115.521z"/>
				<path fill="#282828" d="M162.559,45.009c0,0-2.055,0.025-2.343-1.35s2.087-1.758,2.087-1.758
					c1.349-0.047,4.146,0.618,3.071,2.223C164.685,45.155,162.559,45.009,162.559,45.009z"/>
				<path fill="#ED1F24" d="M164.944,57.991c-1.175-0.501-3.694-10.739-3.024-13.168c1.191-4.31,11.506-3.255,12.224-3.134
					c4.522,0.752,4.192,10.446,0.814,11.076c-2.337,0.435-3.933,0-3.432,3.349C171.665,57.027,166.115,58.494,164.944,57.991z"/>
				<g>
					<path fill="#282828" d="M94.299,100.465c-9.921,0-17.965,8.042-17.965,17.965c0,9.921,8.044,17.966,17.965,17.966
						c9.923,0,17.965-8.045,17.965-17.966C112.264,108.507,104.222,100.465,94.299,100.465z M94.299,129.594
						c-6.164,0-11.164-4.999-11.164-11.164c0-6.167,5-11.166,11.164-11.166c6.166,0,11.164,4.999,11.164,11.166
						C105.463,124.595,100.465,129.594,94.299,129.594z"/>
					<path fill="#484848" d="M94.299,108.638c-5.404,0-9.789,4.384-9.789,9.792c0,5.407,4.385,9.79,9.789,9.79
						c5.406,0,9.791-4.383,9.791-9.79C104.09,113.021,99.705,108.638,94.299,108.638z M94.299,124.521
						c-3.362,0-6.09-2.728-6.09-6.091s2.728-6.091,6.09-6.091s6.09,2.728,6.09,6.091S97.661,124.521,94.299,124.521z"/>
				</g>
				<path fill="#282828" d="M104.502,114.922c0,0-1.608,4.238-6.828,4.238c-2.703,0-6.752,0-8.279,0c-3.385,0-4.817-2.516-5.3-4.401
					l4.859-2.215l13.02,0.543L104.502,114.922z"/>
				<path opacity="0.73" fill="#71A3A0" d="M66.289,103.646c2.322-5.866,14.139-20.182,31.946-20.938
					c0.617-0.027,1.212-0.032,1.793-0.024c-0.438,0.001-0.879,0.005-1.336,0.024c-17.809,0.755-29.626,15.071-31.947,20.938
					c-2.053,5.182-1.376,11.013,1.295,11.008c0.861-0.001,21.657,0.242,35.984,0.242c-14.339,0.004-35.569-0.243-36.441-0.242
					C64.911,114.659,64.236,108.828,66.289,103.646z"/>
				<g>
					<path opacity="0.54" fill="#A91E22" d="M68.758,114.654c-2.669,0.005-3.346-5.826-1.292-11.008
						c2.321-5.866,14.138-20.182,31.946-20.938c17.809-0.756,20.938,12.736,22.344,19.752c1.402,7.016-1.838,11.655-3.672,12.197
						C116.249,115.197,70.054,114.653,68.758,114.654z"/>
					<path fill="#F15A5A" d="M66.171,103.646c2.322-5.866,14.14-20.182,31.947-20.938c0.616-0.027,1.21-0.032,1.793-0.024
						c-0.438,0.001-0.88,0.005-1.336,0.024c-17.81,0.755-29.627,15.071-31.949,20.938c-2.051,5.182-1.376,11.013,1.296,11.008
						c0.863-0.001,21.656-1.788,35.984-1.787c-14.338,0.005-35.568,1.786-36.44,1.787C64.793,114.659,64.119,108.828,66.171,103.646
						z"/>
					<path fill="#A41D21" d="M67.466,114.654c-2.673,0.005-3.347-5.826-1.295-11.008c2.322-5.866,14.14-20.182,31.947-20.938
						c17.808-0.756,20.939,12.736,22.343,19.752c1.404,7.016-1.835,11.655-3.671,12.197
						C114.957,115.197,68.762,114.653,67.466,114.654z"/>
				</g>
				<path fill="#FBAB20" d="M174.952,52.886c-0.703,0.13-1.34,0.185-1.877,0.283c-1.895-6.186-0.358-11.688-0.353-11.702
					c0.739,0.048,1.258,0.107,1.399,0.132C178.729,42.367,178.395,52.244,174.952,52.886z"/>
				<path fill="#282828" d="M157.531,48.276c0,0,1.564-0.27,2.105,1.457s-0.919,2.322-2.105,2.59
					c-1.186,0.269-4.479,1.241-4.479,1.241s-1.469,0.215-1.792-2.105C150.935,49.14,157.531,48.276,157.531,48.276z"/>
				<path fill="#A41D21" d="M157.531,48.276c0,0-0.341-0.646,1.565-1.026c1.908-0.379,6.313-2.537,7.663-1.888
					c1.352,0.646,1.349,1.241,1.457,2.429c0.11,1.186-0.86,2.481-4.963,3.614c-4.104,1.133-4.026,0.704-4.39,0.432"/>
				<path fill="#8F8F8E" d="M151.261,51.459c-0.072-0.521,0.214-0.965,0.686-1.346c0.033,0.008,3.085,0.816,1.106,3.452
					C153.053,53.564,151.584,53.779,151.261,51.459z"/>
			</g>
		</g>
	</g>
</g>
<g id="Layer_2">
</g>
</svg>
