<?xml version="1.0" encoding="UTF-8"?>
<svg width="300px" height="195px" viewBox="0 0 300 195" version="1.1" xmlns="http://www.w3.org/2000/svg" xmlns:xlink="http://www.w3.org/1999/xlink">
    <!-- Generator: Sketch 56 (81588) - https://sketch.com -->
    <title>scooter-icon</title>
    <desc>Created with Sketch.</desc>
    <g id="Page-1" stroke="none" stroke-width="1" fill="none" fill-rule="evenodd">
        <g id="Bike-Bazaar-new-header" transform="translate(-571.000000, -1261.000000)">
            <g id="Scooter" transform="translate(535.500000, 1229.000000)">
                <g id="scooter-icon" transform="translate(35.000000, 32.000000)">
                    <rect id="Rectangle" fill="#FFFFFF" opacity="0.02" x="0.5" y="0" width="300" height="195" rx="4"></rect>
                    <path d="M225.325686,28.8017823 C226.924395,33.1941309 226.622263,37.1362231 225.352446,39.9009849 C224.598844,36.8901628 220.991391,27.8286477 218.417229,21.9009849 C221.064766,23.1355586 224.035152,25.2552662 225.325686,28.8017823 Z M188.803229,4.62715327 C188.130234,4.03611506 187.124425,3.38357444 186.197214,4.14497434 C185.270003,4.90637423 183.091978,8.42492738 182.118714,14.8753006 C181.145449,21.3250589 185.289038,21.5126412 186.522659,20.7543165 C187.756893,19.9953767 190.076148,18.0156139 190.076148,18.0156139 L195.379058,26.6696187 C195.379058,26.6696187 193.681832,27.7323804 189.062971,29.3861804 C184.44411,31.0399803 184.393144,37.3439778 184.393144,37.3439778 C184.393144,37.3439778 182.245207,37.1730011 181.014657,37.4700578 C179.784107,37.7677295 178.090566,38.3686081 178.379168,40.6774087 C178.495223,41.6054801 179.130761,42.6823874 180.81939,42.695918 C182.50802,42.7094485 184.662096,42.11226 184.662096,42.11226 C184.662096,42.11226 184.955611,43.8060365 185.877295,43.6596608 C186.799594,43.513285 189.099814,43.8398629 189.705878,44.7673193 C190.312556,45.6947757 195.449673,55.8851108 195.449673,55.8851108 L197.903405,56.2123036 L196.667943,57.1249995 C196.667943,57.1249995 201.191012,67.3097994 202.086907,70.3923004 C202.982802,73.4748014 204.630904,97.4748887 204.283967,102.392622 C203.937031,107.310355 202.991398,110.37748 203.587638,112.534985 C204.183877,114.69249 206.278392,121.474976 206.278392,121.474976 C206.278392,121.474976 204.09177,126.069821 200.350382,133.112463 C196.608994,140.155104 186.484588,139.150155 186.484588,139.150155 C172.362122,139.035146 163.176593,135.885607 158.598873,132.465458 C151.224169,126.956071 152.328839,110.580438 155.116613,107.528073 C157.905,104.475709 156.993754,103.23828 155.76566,103.227825 C154.537566,103.217984 156.092947,100.770188 156.092947,100.770188 C156.092947,100.770188 161.294539,102.965209 163.766078,101.140433 C168.563627,97.5966635 167.864228,87.9500098 164.227227,82.0777592 C160.590227,76.2055086 154.785027,72.775519 152.34112,71.2176628 C149.897827,69.6604217 146.216002,69.3227734 142.526808,69.9076614 C105.682762,75.7503908 89.4485882,65.1707454 85.7839559,62.6805126 C82.1199377,60.1902798 79.3616388,59.5531148 76.5910589,60.4528951 C73.820479,61.3526755 61.1858486,67.0933109 57.790783,69.2182193 C54.3963314,71.3431277 52.5191898,75.6335362 53.4255231,77.4859889 C54.3318564,79.3384416 54.9379208,80.2658981 54.9379208,80.2658981 C54.9379208,80.2658981 48.4584972,84.211278 45.9869582,86.0360546 C43.5154192,87.8608313 40.1240378,89.6788426 38.2665457,91.5085395 C36.4096677,93.3388513 35.4861411,93.6383681 33.6390878,94.2386317 C31.7920345,94.8388952 20.6624333,104.281361 19.1174912,105.499109 C17.572549,106.716857 13.5437869,111.296941 14.7718808,111.306782 C15.9999747,111.316622 21.194198,114.43418 21.194198,114.43418 C21.194198,114.43418 8.74685201,134.93724 6.57066957,138.302037 C4.39387308,141.666834 4.38159214,143.204394 7.15217204,142.304614 C9.92275194,141.404834 12.3838522,140.80949 13.3122912,139.894334 C14.2407302,138.979178 20.763137,129.806708 21.6989446,127.969016 C22.6347522,126.131324 23.5509102,126.753728 25.0860277,126.766644 C25.3586645,126.769104 27.9757327,127.18855 32.1340587,127.879222 C22.6261555,134.423079 16.3377006,145.350213 16.2376109,157.754635 C16.0742744,177.931733 32.3305537,194.480187 52.4762065,194.644399 C52.5769102,194.645014 52.6757718,194.645629 52.7764755,194.645629 C69.0800364,194.645629 82.9587259,183.872866 87.627939,169.021878 C101.160306,167.732172 113.879675,166.543946 114.723989,166.550711 C116.56613,166.565471 115.080751,160.402929 116.615868,160.415845 C117.789312,160.425685 121.104551,160.990278 123.01608,161.259658 C123.996713,162.797834 124.896291,164.205624 125.481478,165.100484 C127.300899,167.882853 130.380959,166.678021 130.380959,166.678021 C130.380959,166.678021 185.96449,165.438747 193.025416,165.495944 C200.086342,165.553142 201.464877,166.026095 206.714979,162.224631 C211.965081,158.423167 220.645248,148.191625 220.645248,148.191625 L220.790163,149.269147 L228.679439,149.58035 C227.505381,153.015874 226.871071,156.652512 226.840368,160.388784 C226.688085,179.209753 241.85136,194.645629 260.642425,194.8 C260.736375,194.8 260.82971,194.8 260.923659,194.8 C279.587002,194.8 294.845455,179.669791 294.998887,160.942921 C295.071425,151.825803 291.595919,143.225305 285.211673,136.726345 C282.274072,133.736097 278.87962,131.363949 275.187356,129.657872 C281.048434,129.307309 285.890194,129.194144 287.118288,129.203985 C289.8815,129.226125 290.49309,129.539173 289.288944,126.607968 C286.464942,119.735688 278.188817,113.448296 278.188817,113.448296 C278.188817,113.448296 278.654265,112.836962 276.691157,108.823314 C274.728049,104.809667 271.666411,103.708158 266.151655,102.279457 C260.636899,100.850756 254.952052,101.419654 254.022385,102.488566 C253.092718,103.557478 252.328844,103.090059 251.407773,103.082064 C250.486703,103.074684 249.56072,103.682327 248.639649,103.674332 C247.718579,103.666952 248.337538,103.056848 251.121013,100.619507 C253.904488,98.1821665 251.781114,94.935454 251.179962,93.3929735 C250.578196,91.8504929 246.947336,85.2094622 246.502152,83.3606996 C246.056968,81.511937 242.578392,75.0258923 238.940164,69.3067828 C235.302549,63.5882883 223.136437,49.3430989 221.771411,47.3332 C220.40577,45.3233011 220.097518,45.4745971 219.32996,45.4684468 C218.562401,45.4622966 216.866403,46.3713023 215.479885,46.974641 C214.093367,47.5785947 212.861589,48.0294074 212.407194,47.256937 C211.9528,46.4844667 211.8042,45.8682125 213.802309,45.5766911 C215.800418,45.2851696 222.107908,43.6455152 223.954962,43.0452517 C224.135491,42.9868244 224.279178,42.900106 224.405672,42.799857 L224.478744,42.9179417 C228.048813,40.7001646 230.388946,34.9109423 227.953021,28.1382964 C225.567449,21.5046459 218.194587,19.9129634 216.784735,19.6663388 C215.523483,18.8920233 213.578182,18.7025959 210.952517,18.3378866 C207.425431,17.8477123 203.0614,18.1213981 202.355246,18.4215299 C199.432382,19.6632636 196.920316,26.065665 196.920316,26.065665 L191.16424,16.4854339 C191.16424,16.4854339 192.854097,16.3452084 192.563039,14.3439198 C192.27198,12.3426312 191.832323,7.28651768 188.803229,4.62715327 Z M52.7740193,180.500074 C52.7126146,180.500074 52.6505958,180.499459 52.5891912,180.498843 C40.231496,180.398595 30.2593733,170.246391 30.359463,157.868415 C30.4589386,145.552556 40.4936941,135.602696 52.7684929,135.602696 C52.8298976,135.602696 52.8919163,135.603311 52.953321,135.603926 C58.6393959,135.650053 63.8170399,137.827853 67.7438702,141.367932 C64.5882829,141.959585 61.6512962,142.522332 59.0747552,143.024807 C57.1748939,142.224661 55.0920466,141.772003 52.9029691,141.754167 C43.9163918,141.680979 36.5723902,148.918584 36.4993186,157.919462 C36.426247,166.92034 43.6523516,174.276029 52.638929,174.349217 C56.10461,174.377508 59.3234442,173.314746 61.9779692,171.486895 C64.6337223,171.229815 67.8433458,170.919842 71.3563085,170.581579 C67.322634,176.563919 60.4925896,180.500074 52.7740193,180.500074 Z M83.6587394,138.499459 C83.1730283,137.733139 82.660299,136.982195 82.1150253,136.249701 C84.7406902,136.680833 87.2828446,137.095359 89.6905227,137.484055 C87.7046948,137.810017 85.6844803,138.150741 83.6587394,138.499459 Z M260.921817,182.500132 C260.862254,182.500132 260.801464,182.499517 260.741901,182.498902 C248.722546,182.401728 239.023674,172.527516 239.121307,160.489033 C239.218327,148.509593 248.977989,138.832803 260.91629,138.832803 C260.975853,138.832803 261.036644,138.833418 261.096206,138.834033 C273.115561,138.931206 282.814433,148.805419 282.7168,160.843902 C282.61978,172.822727 272.860118,182.500747 260.921817,182.500132 Z" id="Shape" fill="#000000" fill-rule="nonzero"></path>
                    <circle id="Oval" fill="#000000" fill-rule="nonzero" cx="261" cy="161" r="16"></circle>
                    <circle id="Oval" stroke="#FFFFFF" stroke-width="5" cx="52.5" cy="158" r="9.5"></circle>
                    <path d="M149.37878,129.015625 C150.06921,131.526855 150.438106,132.209717 153.603878,136 C155.031744,137.709541 156.697262,139.507324 159.286251,141.020752 C164.337795,143.973698 173.164449,143.566551 180.093992,142.499459 C182.639714,142.10744 185.769161,141.254028 187.854732,140.643433 C189.940304,140.032837 191.959912,139.187164 193.95544,138.252319 C195.08398,137.723633 197.371764,135.643415 199.081905,133.796997 C200.902731,131.831075 202.060944,129.182621 202.376827,127.967407 C204.390987,120.218872 204.154171,118.961792 203.890987,115.955322 C203.71541,113.949616 203.396969,113.026733 203.396969,113.026733 C203.396969,113.026733 204.390987,113.026733 205.383297,113.026733 C207.675777,116.735352 206.114123,124.870039 204.890987,128.566895 C202.105953,136.984497 193.336325,143.778151 178.509396,145.052612 C170.553707,145.73645 162.161443,145.709264 157.574825,142.755005 C154.01192,140.460123 152.092428,137.771864 150.677853,135.766235 C148.988509,133.371032 148.115071,131.674082 147.333492,129.015625 L149.37878,129.015625 Z" id="Fill-476" fill="#FFFFFF" transform="translate(176.945494, 129.222395) scale(-1, 1) translate(-176.945494, -129.222395) "></path>
                    <path d="M225.608722,103.133789 C224.633475,103.133789 220.581917,96.342 220.581917,96.342 C220.581917,96.342 220.581917,94.0761719 229.933416,72.8417969 C239.284915,51.6074219 242.65731,50 242.65731,50 C243.548905,51.196 244.086205,52.629 244.398043,53.747 C244.698902,54.823 244.624968,56.026 244.217235,57.034 L229.933416,88.735 C228.847837,91.42 227.903537,95.603 228.61652,98.511 L225.608722,103.133789 Z" id="Fill-477" fill="#FFFFFF" transform="translate(232.581917, 76.566895) scale(-1, 1) rotate(7.000000) translate(-232.581917, -76.566895) "></path>
                    <path d="M187.105638,10.6005316 C188.171444,13.528764 187.970023,16.1568255 187.123479,18 C186.621077,15.9927853 184.216108,9.9517752 182.5,6 C184.265025,6.82304917 186.245282,8.23618758 187.105638,10.6005316 Z" id="Path" fill="#FFFFFF" transform="translate(185.166667, 12.000000) rotate(36.000000) translate(-185.166667, -12.000000) "></path>
                    <path d="M54.2065822,87.716102 L76.2135822,80.542102 C76.8975822,80.318102 77.2715822,79.583102 77.0485822,78.899102 C76.8255822,78.215102 76.0895822,77.842102 75.4055822,78.064102 L53.3985822,85.239102 C52.7145822,85.463102 52.3415822,86.198102 52.5645822,86.882102 C52.7875822,87.566102 53.5225822,87.939102 54.2065822,87.716102" id="Fill-403" fill="#FFFFFE" transform="translate(64.806532, 82.890342) scale(-1, 1) rotate(-4.000000) translate(-64.806532, -82.890342) "></path>
                    <path d="M26.5920784,99.4503564 C27.7432337,99.6170399 28.8971775,100.437589 29.806678,101.136475 L35.6730427,105.961166 C37.5614645,107.412243 38.4609749,108.322754 40.0178597,110.886963 C40.0178597,110.886963 35.2060921,113.815846 34.9407113,113.623779 C34.6744517,113.431713 16.2888184,99.4503564 16.2888184,99.4503564 L16.6877683,99.4503564 C21.1192767,98.88854 24.6087522,99.1618332 26.5920784,99.4503564 Z" id="Fill-472" fill="#FFFFFF" transform="translate(28.153339, 106.378228) scale(-1, 1) translate(-28.153339, -106.378228) "></path>
                    <g id="Group-9" transform="translate(252.000000, 151.000000)" fill="#FFFFFF">
                        <path d="M4.07324726,10.23 C4.07324726,7.497 6.28824726,5.282 9.02124726,5.282 C11.7532473,5.282 13.9692473,7.497 13.9692473,10.23 C13.9692473,12.963 11.7532473,15.178 9.02124726,15.178 C6.28824726,15.178 4.07324726,12.963 4.07324726,10.23" id="Fill-430"></path>
                        <path d="M7.81724726,1.203 C7.81724726,1.868 8.35624726,2.406 9.02124726,2.406 C9.68524726,2.406 10.2242473,1.868 10.2242473,1.203 C10.2242473,0.539 9.68524726,-2.84217094e-14 9.02124726,-2.84217094e-14 C8.35624726,-2.84217094e-14 7.81724726,0.539 7.81724726,1.203" id="Fill-431"></path>
                        <path d="M16.2372473,4.675 C15.6612473,5.007 15.4642473,5.743 15.7962473,6.318 C16.1282473,6.894 16.8642473,7.091 17.4402473,6.759 C18.0152473,6.426 18.2122473,5.69 17.8802473,5.115 C17.5482473,4.539 16.8122473,4.342 16.2372473,4.675" id="Fill-432"></path>
                        <path d="M17.4402473,13.701 C16.8642473,13.369 16.1282473,13.566 15.7962473,14.142 C15.4642473,14.717 15.6612473,15.453 16.2362473,15.785 C16.8122473,16.118 17.5482473,15.92 17.8802473,15.345 C18.2122473,14.769 18.0152473,14.034 17.4402473,13.701" id="Fill-433"></path>
                        <path d="M10.2242473,19.257 C10.2242473,18.592 9.68524726,18.054 9.02124726,18.054 C8.35624726,18.054 7.81724726,18.592 7.81724726,19.257 C7.81724726,19.921 8.35624726,20.46 9.02124726,20.46 C9.68524726,20.46 10.2242473,19.921 10.2242473,19.257" id="Fill-434"></path>
                        <path d="M1.80524726,15.785 C2.38024726,15.453 2.57824726,14.717 2.24524726,14.142 C1.91324726,13.566 1.17724726,13.369 0.602247264,13.701 C0.0262472635,14.034 -0.170752736,14.769 0.161247264,15.345 C0.493247264,15.92 1.22924726,16.118 1.80524726,15.785" id="Fill-435"></path>
                        <path d="M0.602247264,6.759 C1.17724726,7.091 1.91324726,6.894 2.24524726,6.318 C2.57824726,5.743 2.38024726,5.007 1.80524726,4.675 C1.22924726,4.342 0.493247264,4.539 0.161247264,5.115 C-0.170752736,5.69 0.0262472635,6.426 0.602247264,6.759" id="Fill-436"></path>
                    </g>
                </g>
            </g>
        </g>
    </g>
</svg>