<?xml version="1.0" encoding="UTF-8"?>
<svg width="291px" height="192px" viewBox="0 0 291 192" version="1.1" xmlns="http://www.w3.org/2000/svg" xmlns:xlink="http://www.w3.org/1999/xlink">
    <!-- Generator: sketchtool 55.1 (78136) - https://sketchapp.com -->
    <title>38D6F14C-E71D-4CEA-9D32-8AB43FB44E90</title>
    <desc>Created with sketchtool.</desc>
    <g id="Page-1" stroke="none" stroke-width="1" fill="none" fill-rule="evenodd">
        <g id="Bike-Bazaar-new-header" transform="translate(-575.000000, -1265.000000)">
            <g id="Scooter" transform="translate(535.500000, 1229.000000)">
                <g id="scooter-icon" transform="translate(40.000000, 36.000000)">
                    <path d="M220.325686,25.8017823 C221.924395,30.1941309 221.622263,34.1362231 220.352446,36.9009849 C219.598844,33.8901628 215.991391,24.8286477 213.417229,18.9009849 C216.064766,20.1355586 219.035152,22.2552662 220.325686,25.8017823 Z M183.803229,1.62715327 C183.130234,1.03611506 182.124425,0.383574442 181.197214,1.14497434 C180.270003,1.90637423 178.091978,5.42492738 177.118714,11.8753006 C176.145449,18.3250589 180.289038,18.5126412 181.522659,17.7543165 C182.756893,16.9953767 185.076148,15.0156139 185.076148,15.0156139 L190.379058,23.6696187 C190.379058,23.6696187 188.681832,24.7323804 184.062971,26.3861804 C179.44411,28.0399803 179.393144,34.3439778 179.393144,34.3439778 C179.393144,34.3439778 177.245207,34.1730011 176.014657,34.4700578 C174.784107,34.7677295 173.090566,35.3686081 173.379168,37.6774087 C173.495223,38.6054801 174.130761,39.6823874 175.81939,39.695918 C177.50802,39.7094485 179.662096,39.11226 179.662096,39.11226 C179.662096,39.11226 179.955611,40.8060365 180.877295,40.6596608 C181.799594,40.513285 184.099814,40.8398629 184.705878,41.7673193 C185.312556,42.6947757 190.449673,52.8851108 190.449673,52.8851108 L192.903405,53.2123036 L191.667943,54.1249995 C191.667943,54.1249995 196.191012,64.3097994 197.086907,67.3923004 C197.982802,70.4748014 199.630904,94.4748887 199.283967,99.3926218 C198.937031,104.310355 197.991398,107.37748 198.587638,109.534985 C199.183877,111.69249 201.278392,118.474976 201.278392,118.474976 C201.278392,118.474976 199.09177,123.069821 195.350382,130.112463 C191.608994,137.155104 181.484588,136.150155 181.484588,136.150155 C167.362122,136.035146 158.176593,132.885607 153.598873,129.465458 C146.224169,123.956071 147.328839,107.580438 150.116613,104.528073 C152.905,101.475709 151.993754,100.23828 150.76566,100.227825 C149.537566,100.217984 151.092947,97.7701881 151.092947,97.7701881 C151.092947,97.7701881 156.294539,99.9652093 158.766078,98.1404327 C163.563627,94.5966635 162.864228,84.9500098 159.227227,79.0777592 C155.590227,73.2055086 149.785027,69.775519 147.34112,68.2176628 C144.897827,66.6604217 141.216002,66.3227734 137.526808,66.9076614 C100.682762,72.7503908 84.4485882,62.1707454 80.7839559,59.6805126 C77.1199377,57.1902798 74.3616388,56.5531148 71.5910589,57.4528951 C68.820479,58.3526755 56.1858486,64.0933109 52.790783,66.2182193 C49.3963314,68.3431277 47.5191898,72.6335362 48.4255231,74.4859889 C49.3318564,76.3384416 49.9379208,77.2658981 49.9379208,77.2658981 C49.9379208,77.2658981 43.4584972,81.211278 40.9869582,83.0360546 C38.5154192,84.8608313 35.1240378,86.6788426 33.2665457,88.5085395 C31.4096677,90.3388513 30.4861411,90.6383681 28.6390878,91.2386317 C26.7920345,91.8388952 15.6624333,101.281361 14.1174912,102.499109 C12.572549,103.716857 8.54378689,108.296941 9.77188081,108.306782 C10.9999747,108.316622 16.194198,111.43418 16.194198,111.43418 C16.194198,111.43418 3.74685201,131.93724 1.57066957,135.302037 C-0.606126916,138.666834 -0.618407855,140.204394 2.15217204,139.304614 C4.92275194,138.404834 7.38385217,137.80949 8.31229118,136.894334 C9.24073019,135.979178 15.763137,126.806708 16.6989446,124.969016 C17.6347522,123.131324 18.5509102,123.753728 20.0860277,123.766644 C20.3586645,123.769104 22.9757327,124.18855 27.1340587,124.879222 C17.6261555,131.423079 11.3377006,142.350213 11.2376109,154.754635 C11.0742744,174.931733 27.3305537,191.480187 47.4762065,191.644399 C47.5769102,191.645014 47.6757718,191.645629 47.7764755,191.645629 C64.0800364,191.645629 77.9587259,180.872866 82.627939,166.021878 C96.160306,164.732172 108.879675,163.543946 109.723989,163.550711 C111.56613,163.565471 110.080751,157.402929 111.615868,157.415845 C112.789312,157.425685 116.104551,157.990278 118.01608,158.259658 C118.996713,159.797834 119.896291,161.205624 120.481478,162.100484 C122.300899,164.882853 125.380959,163.678021 125.380959,163.678021 C125.380959,163.678021 180.96449,162.438747 188.025416,162.495944 C195.086342,162.553142 196.464877,163.026095 201.714979,159.224631 C206.965081,155.423167 215.645248,145.191625 215.645248,145.191625 L215.790163,146.269147 L223.679439,146.58035 C222.505381,150.015874 221.871071,153.652512 221.840368,157.388784 C221.688085,176.209753 236.85136,191.645629 255.642425,191.8 C255.736375,191.8 255.82971,191.8 255.923659,191.8 C274.587002,191.8 289.845455,176.669791 289.998887,157.942921 C290.071425,148.825803 286.595919,140.225305 280.211673,133.726345 C277.274072,130.736097 273.87962,128.363949 270.187356,126.657872 C276.048434,126.307309 280.890194,126.194144 282.118288,126.203985 C284.8815,126.226125 285.49309,126.539173 284.288944,123.607968 C281.464942,116.735688 273.188817,110.448296 273.188817,110.448296 C273.188817,110.448296 273.654265,109.836962 271.691157,105.823314 C269.728049,101.809667 266.666411,100.708158 261.151655,99.2794574 C255.636899,97.8507563 249.952052,98.4196536 249.022385,99.4885656 C248.092718,100.557478 247.328844,100.090059 246.407773,100.082064 C245.486703,100.074684 244.56072,100.682327 243.639649,100.674332 C242.718579,100.666952 243.337538,100.056848 246.121013,97.6195072 C248.904488,95.1821665 246.781114,91.935454 246.179962,90.3929735 C245.578196,88.8504929 241.947336,82.2094622 241.502152,80.3606996 C241.056968,78.511937 237.578392,72.0258923 233.940164,66.3067828 C230.302549,60.5882883 218.136437,46.3430989 216.771411,44.3332 C215.40577,42.3233011 215.097518,42.4745971 214.32996,42.4684468 C213.562401,42.4622966 211.866403,43.3713023 210.479885,43.974641 C209.093367,44.5785947 207.861589,45.0294074 207.407194,44.256937 C206.9528,43.4844667 206.8042,42.8682125 208.802309,42.5766911 C210.800418,42.2851696 217.107908,40.6455152 218.954962,40.0452517 C219.135491,39.9868244 219.279178,39.900106 219.405672,39.799857 L219.478744,39.9179417 C223.048813,37.7001646 225.388946,31.9109423 222.953021,25.1382964 C220.567449,18.5046459 213.194587,16.9129634 211.784735,16.6663388 C210.523483,15.8920233 208.578182,15.7025959 205.952517,15.3378866 C202.425431,14.8477123 198.0614,15.1213981 197.355246,15.4215299 C194.432382,16.6632636 191.920316,23.065665 191.920316,23.065665 L186.16424,13.4854339 C186.16424,13.4854339 187.854097,13.3452084 187.563039,11.3439198 C187.27198,9.3426312 186.832323,4.28651768 183.803229,1.62715327 Z M47.7740193,177.500074 C47.7126146,177.500074 47.6505958,177.499459 47.5891912,177.498843 C35.231496,177.398595 25.2593733,167.246391 25.359463,154.868415 C25.4589386,142.552556 35.4936941,132.602696 47.7684929,132.602696 C47.8298976,132.602696 47.8919163,132.603311 47.953321,132.603926 C53.6393959,132.650053 58.8170399,134.827853 62.7438702,138.367932 C59.5882829,138.959585 56.6512962,139.522332 54.0747552,140.024807 C52.1748939,139.224661 50.0920466,138.772003 47.9029691,138.754167 C38.9163918,138.680979 31.5723902,145.918584 31.4993186,154.919462 C31.426247,163.92034 38.6523516,171.276029 47.638929,171.349217 C51.10461,171.377508 54.3234442,170.314746 56.9779692,168.486895 C59.6337223,168.229815 62.8433458,167.919842 66.3563085,167.581579 C62.322634,173.563919 55.4925896,177.500074 47.7740193,177.500074 Z M78.6587394,135.499459 C78.1730283,134.733139 77.660299,133.982195 77.1150253,133.249701 C79.7406902,133.680833 82.2828446,134.095359 84.6905227,134.484055 C82.7046948,134.810017 80.6844803,135.150741 78.6587394,135.499459 Z M255.921817,179.500132 C255.862254,179.500132 255.801464,179.499517 255.741901,179.498902 C243.722546,179.401728 234.023674,169.527516 234.121307,157.489033 C234.218327,145.509593 243.977989,135.832803 255.91629,135.832803 C255.975853,135.832803 256.036644,135.833418 256.096206,135.834033 C268.115561,135.931206 277.814433,145.805419 277.7168,157.843902 C277.61978,169.822727 267.860118,179.500747 255.921817,179.500132 Z" id="Shape" fill="#000000" fill-rule="nonzero"></path>
                    <circle id="Oval" fill="#000000" fill-rule="nonzero" cx="256" cy="158" r="16"></circle>
                    <circle id="Oval" stroke="#FFFFFF" stroke-width="5" cx="47.5" cy="155" r="9.5"></circle>
                    <path d="M144.37878,126.015625 C145.06921,128.526855 145.438106,129.209717 148.603878,133 C150.031744,134.709541 151.697262,136.507324 154.286251,138.020752 C159.337795,140.973698 168.164449,140.566551 175.093992,139.499459 C177.639714,139.10744 180.769161,138.254028 182.854732,137.643433 C184.940304,137.032837 186.959912,136.187164 188.95544,135.252319 C190.08398,134.723633 192.371764,132.643415 194.081905,130.796997 C195.902731,128.831075 197.060944,126.182621 197.376827,124.967407 C199.390987,117.218872 199.154171,115.961792 198.890987,112.955322 C198.71541,110.949616 198.396969,110.026733 198.396969,110.026733 C198.396969,110.026733 199.390987,110.026733 200.383297,110.026733 C202.675777,113.735352 201.114123,121.870039 199.890987,125.566895 C197.105953,133.984497 188.336325,140.778151 173.509396,142.052612 C165.553707,142.73645 157.161443,142.709264 152.574825,139.755005 C149.01192,137.460123 147.092428,134.771864 145.677853,132.766235 C143.988509,130.371032 143.115071,128.674082 142.333492,126.015625 L144.37878,126.015625 Z" id="Fill-476" fill="#FFFFFF" transform="translate(171.945494, 126.222395) scale(-1, 1) translate(-171.945494, -126.222395) "></path>
                    <path d="M220.608722,100.133789 C219.633475,100.133789 215.581917,93.342 215.581917,93.342 C215.581917,93.342 215.581917,91.0761719 224.933416,69.8417969 C234.284915,48.6074219 237.65731,47 237.65731,47 C238.548905,48.196 239.086205,49.629 239.398043,50.747 C239.698902,51.823 239.624968,53.026 239.217235,54.034 L224.933416,85.735 C223.847837,88.42 222.903537,92.603 223.61652,95.511 L220.608722,100.133789 Z" id="Fill-477" fill="#FFFFFF" transform="translate(227.581917, 73.566895) scale(-1, 1) rotate(7.000000) translate(-227.581917, -73.566895) "></path>
                    <path d="M182.105638,7.60053161 C183.171444,10.528764 182.970023,13.1568255 182.123479,15 C181.621077,12.9927853 179.216108,6.9517752 177.5,3 C179.265025,3.82304917 181.245282,5.23618758 182.105638,7.60053161 Z" id="Path" fill="#FFFFFF" transform="translate(180.166667, 9.000000) rotate(36.000000) translate(-180.166667, -9.000000) "></path>
                    <path d="M49.2065822,84.716102 L71.2135822,77.542102 C71.8975822,77.318102 72.2715822,76.583102 72.0485822,75.899102 C71.8255822,75.215102 71.0895822,74.842102 70.4055822,75.064102 L48.3985822,82.239102 C47.7145822,82.463102 47.3415822,83.198102 47.5645822,83.882102 C47.7875822,84.566102 48.5225822,84.939102 49.2065822,84.716102" id="Fill-403" fill="#FFFFFE" transform="translate(59.806532, 79.890342) scale(-1, 1) rotate(-4.000000) translate(-59.806532, -79.890342) "></path>
                    <path d="M21.5920784,96.4503564 C22.7432337,96.6170399 23.8971775,97.4375885 24.806678,98.1364746 L30.6730427,102.961166 C32.5614645,104.412243 33.4609749,105.322754 35.0178597,107.886963 C35.0178597,107.886963 30.2060921,110.815846 29.9407113,110.623779 C29.6744517,110.431713 11.2888184,96.4503564 11.2888184,96.4503564 L11.6877683,96.4503564 C16.1192767,95.88854 19.6087522,96.1618332 21.5920784,96.4503564 Z" id="Fill-472" fill="#FFFFFF" transform="translate(23.153339, 103.378228) scale(-1, 1) translate(-23.153339, -103.378228) "></path>
                    <g id="Group-9" transform="translate(247.000000, 148.000000)" fill="#FFFFFF">
                        <path d="M4.07324726,10.23 C4.07324726,7.497 6.28824726,5.282 9.02124726,5.282 C11.7532473,5.282 13.9692473,7.497 13.9692473,10.23 C13.9692473,12.963 11.7532473,15.178 9.02124726,15.178 C6.28824726,15.178 4.07324726,12.963 4.07324726,10.23" id="Fill-430"></path>
                        <path d="M7.81724726,1.203 C7.81724726,1.868 8.35624726,2.406 9.02124726,2.406 C9.68524726,2.406 10.2242473,1.868 10.2242473,1.203 C10.2242473,0.539 9.68524726,-2.84217094e-14 9.02124726,-2.84217094e-14 C8.35624726,-2.84217094e-14 7.81724726,0.539 7.81724726,1.203" id="Fill-431"></path>
                        <path d="M16.2372473,4.675 C15.6612473,5.007 15.4642473,5.743 15.7962473,6.318 C16.1282473,6.894 16.8642473,7.091 17.4402473,6.759 C18.0152473,6.426 18.2122473,5.69 17.8802473,5.115 C17.5482473,4.539 16.8122473,4.342 16.2372473,4.675" id="Fill-432"></path>
                        <path d="M17.4402473,13.701 C16.8642473,13.369 16.1282473,13.566 15.7962473,14.142 C15.4642473,14.717 15.6612473,15.453 16.2362473,15.785 C16.8122473,16.118 17.5482473,15.92 17.8802473,15.345 C18.2122473,14.769 18.0152473,14.034 17.4402473,13.701" id="Fill-433"></path>
                        <path d="M10.2242473,19.257 C10.2242473,18.592 9.68524726,18.054 9.02124726,18.054 C8.35624726,18.054 7.81724726,18.592 7.81724726,19.257 C7.81724726,19.921 8.35624726,20.46 9.02124726,20.46 C9.68524726,20.46 10.2242473,19.921 10.2242473,19.257" id="Fill-434"></path>
                        <path d="M1.80524726,15.785 C2.38024726,15.453 2.57824726,14.717 2.24524726,14.142 C1.91324726,13.566 1.17724726,13.369 0.602247264,13.701 C0.0262472635,14.034 -0.170752736,14.769 0.161247264,15.345 C0.493247264,15.92 1.22924726,16.118 1.80524726,15.785" id="Fill-435"></path>
                        <path d="M0.602247264,6.759 C1.17724726,7.091 1.91324726,6.894 2.24524726,6.318 C2.57824726,5.743 2.38024726,5.007 1.80524726,4.675 C1.22924726,4.342 0.493247264,4.539 0.161247264,5.115 C-0.170752736,5.69 0.0262472635,6.426 0.602247264,6.759" id="Fill-436"></path>
                    </g>
                </g>
            </g>
        </g>
    </g>
</svg>