<?xml version="1.0" encoding="utf-8"?>
<!-- Generator: Adobe Illustrator 16.0.0, SVG Export Plug-In . SVG Version: 6.00 Build 0)  -->
<!DOCTYPE svg PUBLIC "-//W3C//DTD SVG 1.1//EN" "http://www.w3.org/Graphics/SVG/1.1/DTD/svg11.dtd">
<svg version="1.1" id="Layer_1" xmlns="http://www.w3.org/2000/svg" xmlns:xlink="http://www.w3.org/1999/xlink" x="0px" y="0px"
	 width="300px" height="300px" viewBox="0 0 300 300" enable-background="new 0 0 300 300" xml:space="preserve">
<g>
	<ellipse opacity="0.4" fill="#5D5E5E" cx="58.033" cy="216.496" rx="44.088" ry="1.137"/>
	<g>
		<g>
			<path fill="#373636" d="M25.843,186.554c0-0.227,0.114-0.227,0.114-0.227l0,0c0.111,0,0.111,0.227,0.111,0.227v27.842
				c0,0.227-0.111,0.227-0.111,0.227l0,0c-0.114,0-0.114-0.227-0.114-0.227"/>
			<path fill="#373636" d="M12.035,200.588c-0.227,0-0.227-0.114-0.227-0.114l0,0c0-0.112,0.227-0.112,0.227-0.112h27.84
				c0.228,0,0.228,0.112,0.228,0.112l0,0c0,0.114-0.228,0.114-0.228,0.114"/>
			<path fill="#373636" d="M20.65,187.603c-0.084-0.209,0.021-0.251,0.021-0.251l0,0c0.105-0.043,0.191,0.167,0.191,0.167
				l10.397,25.827c0.085,0.211-0.02,0.252-0.02,0.252l0,0c-0.106,0.043-0.191-0.168-0.191-0.168"/>
			<path fill="#373636" d="M13.084,205.778c-0.211,0.085-0.253-0.02-0.253-0.02l0,0c-0.042-0.106,0.168-0.189,0.168-0.189
				l25.826-10.399c0.21-0.084,0.253,0.021,0.253,0.021l0,0c0.042,0.105-0.167,0.189-0.167,0.189"/>
			<path fill="#373636" d="M15.474,191.313c-0.17-0.15-0.094-0.234-0.094-0.234l0,0c0.074-0.084,0.244,0.066,0.244,0.066
				l20.813,18.491c0.171,0.15,0.096,0.234,0.096,0.234l0,0c-0.075,0.085-0.246-0.066-0.246-0.066"/>
			<path fill="#373636" d="M16.793,210.957c-0.15,0.168-0.234,0.094-0.234,0.094l0,0c-0.083-0.075,0.066-0.245,0.066-0.245
				l18.491-20.813c0.15-0.171,0.236-0.093,0.236-0.093l0,0c0.083,0.073-0.066,0.242-0.066,0.242"/>
			<path fill="#373636" d="M15.431,191.313c-0.168-0.15-0.093-0.234-0.093-0.234l0,0c0.075-0.084,0.244,0.066,0.244,0.066
				l20.815,18.491c0.168,0.15,0.093,0.234,0.093,0.234l0,0c-0.075,0.085-0.243-0.066-0.243-0.066"/>
			<path fill="#373636" d="M16.752,210.957c-0.151,0.168-0.235,0.094-0.235,0.094l0,0c-0.085-0.075,0.066-0.245,0.066-0.245
				l18.491-20.813c0.15-0.171,0.235-0.093,0.235-0.093l0,0c0.086,0.073-0.064,0.242-0.064,0.242"/>
			<path fill="#373636" d="M12.667,196.322c-0.216-0.069-0.181-0.178-0.181-0.178l0,0c0.036-0.108,0.25-0.038,0.25-0.038
				l26.508,8.521c0.214,0.068,0.181,0.177,0.181,0.177l0,0c-0.035,0.108-0.25,0.038-0.25,0.038"/>
			<path fill="#373636" d="M21.803,213.763c-0.07,0.215-0.178,0.181-0.178,0.181l0,0c-0.108-0.034-0.037-0.25-0.037-0.25
				l8.52-26.506c0.068-0.217,0.175-0.181,0.175-0.181l0,0c0.108,0.033,0.038,0.249,0.038,0.249"/>
		</g>
		<g>
			<path fill="#373636" d="M88.772,186.554c0-0.227,0.114-0.227,0.114-0.227l0,0c0.114,0,0.114,0.227,0.114,0.227v27.842
				c0,0.227-0.114,0.227-0.114,0.227l0,0c-0.114,0-0.114-0.227-0.114-0.227"/>
			<path fill="#373636" d="M74.966,200.588c-0.227,0-0.227-0.114-0.227-0.114l0,0c0-0.112,0.227-0.112,0.227-0.112h27.841
				c0.227,0,0.227,0.112,0.227,0.112l0,0c0,0.114-0.227,0.114-0.227,0.114"/>
			<path fill="#373636" d="M83.582,187.603c-0.084-0.209,0.02-0.251,0.02-0.251l0,0c0.104-0.043,0.189,0.167,0.189,0.167
				l10.398,25.827c0.086,0.211-0.019,0.252-0.019,0.252l0,0c-0.105,0.043-0.189-0.168-0.189-0.168"/>
			<path fill="#373636" d="M76.016,205.778c-0.211,0.085-0.253-0.02-0.253-0.02l0,0c-0.042-0.106,0.167-0.189,0.167-0.189
				l25.827-10.399c0.21-0.084,0.253,0.021,0.253,0.021l0,0c0.042,0.105-0.167,0.189-0.167,0.189"/>
			<path fill="#373636" d="M78.405,191.313c-0.17-0.15-0.096-0.234-0.096-0.234l0,0c0.076-0.084,0.246,0.066,0.246,0.066
				l20.814,18.491c0.168,0.15,0.093,0.234,0.093,0.234l0,0c-0.075,0.085-0.243-0.066-0.243-0.066"/>
			<path fill="#373636" d="M79.724,210.957c-0.15,0.168-0.234,0.094-0.234,0.094l0,0c-0.084-0.075,0.066-0.245,0.066-0.245
				l18.493-20.813c0.15-0.171,0.235-0.093,0.235-0.093l0,0c0.084,0.073-0.066,0.242-0.066,0.242"/>
			<path fill="#373636" d="M78.362,191.313c-0.168-0.15-0.093-0.234-0.093-0.234l0,0c0.076-0.084,0.244,0.066,0.244,0.066
				l20.814,18.491c0.168,0.15,0.093,0.234,0.093,0.234l0,0c-0.075,0.085-0.244-0.066-0.244-0.066"/>
			<path fill="#373636" d="M79.684,210.957c-0.151,0.168-0.235,0.094-0.235,0.094l0,0c-0.086-0.075,0.065-0.245,0.065-0.245
				l18.494-20.813c0.149-0.171,0.233-0.093,0.233-0.093l0,0c0.084,0.073-0.065,0.242-0.065,0.242"/>
			<path fill="#373636" d="M75.6,196.322c-0.216-0.069-0.184-0.178-0.184-0.178l0,0c0.035-0.108,0.251-0.038,0.251-0.038
				l26.507,8.521c0.215,0.068,0.181,0.177,0.181,0.177l0,0c-0.034,0.108-0.25,0.038-0.25,0.038"/>
			<path fill="#373636" d="M84.735,213.763c-0.07,0.215-0.178,0.181-0.178,0.181l0,0c-0.108-0.034-0.038-0.25-0.038-0.25
				l8.519-26.506c0.069-0.217,0.177-0.181,0.177-0.181l0,0c0.108,0.033,0.039,0.249,0.039,0.249"/>
		</g>
		<circle fill="none" stroke="#282828" stroke-width="4" stroke-miterlimit="10" cx="25.936" cy="200.623" r="14.153"/>
		<circle fill="none" stroke="#282828" stroke-width="4" stroke-miterlimit="10" cx="88.884" cy="200.623" r="14.153"/>
		<g>
			<g>
				<g>
					<path fill="#282828" d="M86.418,176.716c-2.325,0-4.21-1.885-4.21-4.209s1.885-4.208,4.21-4.208V176.716z"/>
					<path fill="#FBAB20" d="M87.122,176.716h-0.704v-8.417h0.704c0.391,0,0.706,0.315,0.706,0.704v7.01
						C87.827,176.401,87.512,176.716,87.122,176.716z"/>
					<g>
						<circle fill="#484848" cx="88.74" cy="200.556" r="3.752"/>
					</g>
					<polygon fill="#282828" points="39.73,181.977 46.028,204.1 65.827,204.09 71.477,188.286 69.786,182.011 51.588,181.972 					
						"/>
					<g>
						<path fill="#484848" d="M26.446,198.506c0.698,0,1.267,0.568,1.267,1.268s-0.569,1.268-1.267,1.268
							c-0.7,0-1.268-0.568-1.268-1.268S25.746,198.506,26.446,198.506 M26.446,193.181c-3.636,0-6.594,2.958-6.594,6.593
							c0,3.636,2.958,6.593,6.594,6.593c3.635,0,6.592-2.957,6.592-6.593C33.038,196.139,30.081,193.181,26.446,193.181
							L26.446,193.181z"/>
						
							<rect x="34.835" y="185.712" transform="matrix(0.0988 0.9951 -0.9951 0.0988 230.7208 142.4013)" fill="#282828" width="3.804" height="25.75"/>
						<path fill="#282828" d="M27.021,206.788c-2.008,0-6.727-0.584-7.473-5.983c-0.253-1.839,0.115-3.414,1.097-4.68
							c1.858-2.404,5.233-2.821,5.376-2.837l0.027-0.004l0.027,0.001l22.021,0.571l-0.018,0.761l-21.993-0.571
							c-0.301,0.041-3.26,0.5-4.842,2.547c-0.849,1.1-1.166,2.48-0.941,4.108c0.825,5.981,6.975,5.355,7.494,5.292l22.94-6.528
							l0.209,0.731l-22.994,6.544l-0.028,0.003C27.908,206.745,27.563,206.788,27.021,206.788z"/>
					</g>
					<g>
						<polygon fill="#8F8F8E" points="26.886,199.473 26.398,199.21 30.506,182.92 30.997,183.183 						"/>
						<polygon fill="#222222" points="27.58,198.851 26.275,198.191 27.952,191.38 29.256,191.721 						"/>
						
							<ellipse transform="matrix(0.9966 -0.0823 0.0823 0.9966 -14.9796 3.1489)" fill="#B1B2AC" cx="30.713" cy="183.309" rx="0.771" ry="1.062"/>
						
							<ellipse transform="matrix(0.9966 -0.0823 0.0823 0.9966 -16.3251 2.8508)" fill="#373636" cx="26.435" cy="199.547" rx="0.772" ry="0.85"/>
						<polygon fill="#222222" points="31.462,186.736 28.526,185.157 28.95,183.48 31.884,185.061 						"/>
						<polygon fill="#222222" points="28.516,198.533 25.581,196.954 26.003,195.279 28.939,196.858 						"/>
						<g>
							<path fill="#222222" d="M28.675,196.539c-0.013,0.001-0.026,0-0.038-0.004l-2.312-0.533
								c-0.094-0.021-0.162-0.145-0.151-0.272c0.011-0.129,0.097-0.216,0.191-0.193l2.31,0.535c0.093,0.021,0.162,0.144,0.151,0.272
								C28.816,196.454,28.753,196.532,28.675,196.539z"/>
							<path fill="#222222" d="M28.94,195.46c-0.012,0-0.025,0-0.039-0.003l-2.309-0.536c-0.095-0.021-0.163-0.143-0.152-0.271
								c0.011-0.128,0.096-0.217,0.19-0.193l2.311,0.534c0.094,0.023,0.163,0.145,0.15,0.271
								C29.083,195.373,29.018,195.453,28.94,195.46z"/>
							<path fill="#222222" d="M29.207,194.378c-0.013,0-0.026,0-0.041-0.002l-2.31-0.535c-0.094-0.021-0.162-0.143-0.151-0.27
								c0.011-0.131,0.096-0.219,0.192-0.196l2.31,0.536c0.095,0.021,0.162,0.143,0.15,0.272
								C29.348,194.293,29.283,194.371,29.207,194.378z"/>
							<path fill="#222222" d="M29.473,193.298c-0.014,0.002-0.028,0.002-0.041-0.002l-2.31-0.535
								c-0.095-0.021-0.162-0.143-0.151-0.271c0.011-0.128,0.096-0.217,0.191-0.192l2.311,0.533
								c0.093,0.021,0.161,0.144,0.151,0.272C29.613,193.213,29.549,193.292,29.473,193.298z"/>
							<path fill="#222222" d="M29.736,192.219c-0.013,0.001-0.026,0-0.038-0.003l-2.311-0.534c-0.094-0.021-0.161-0.145-0.15-0.272
								c0.01-0.13,0.095-0.217,0.19-0.192l2.309,0.534c0.095,0.021,0.163,0.144,0.152,0.272
								C29.879,192.133,29.815,192.213,29.736,192.219z"/>
							<path fill="#222222" d="M30.003,191.14c-0.013,0.001-0.026,0-0.04-0.004l-2.31-0.535c-0.095-0.021-0.162-0.142-0.152-0.271
								c0.011-0.129,0.098-0.217,0.192-0.191l2.31,0.533c0.094,0.022,0.162,0.142,0.15,0.271
								C30.145,191.053,30.081,191.134,30.003,191.14z"/>
							<path fill="#222222" d="M30.268,190.058c-0.013,0-0.026,0-0.039-0.003l-2.31-0.532c-0.096-0.023-0.163-0.145-0.152-0.273
								c0.01-0.128,0.095-0.217,0.19-0.193l2.311,0.533c0.095,0.023,0.162,0.145,0.152,0.273
								C30.41,189.973,30.345,190.052,30.268,190.058z"/>
							<path fill="#222222" d="M30.533,188.978c-0.013,0.003-0.026,0.001-0.039-0.002l-2.312-0.533
								c-0.094-0.023-0.162-0.145-0.15-0.273c0.011-0.129,0.095-0.217,0.19-0.192l2.31,0.533c0.095,0.022,0.163,0.144,0.152,0.273
								C30.675,188.894,30.612,188.972,30.533,188.978z"/>
							<path fill="#222222" d="M30.798,187.899c-0.012,0.001-0.025,0.001-0.04-0.004l-2.309-0.533
								c-0.094-0.021-0.163-0.145-0.152-0.273c0.011-0.129,0.096-0.216,0.19-0.192l2.311,0.533c0.095,0.023,0.164,0.146,0.152,0.272
								C30.941,187.813,30.875,187.891,30.798,187.899z"/>
							<path fill="#222222" d="M31.064,186.818c-0.013,0.001-0.026,0-0.039-0.004l-2.312-0.533c-0.093-0.021-0.161-0.144-0.15-0.271
								c0.01-0.13,0.097-0.217,0.191-0.194l2.31,0.536c0.095,0.02,0.161,0.143,0.151,0.271
								C31.207,186.734,31.142,186.812,31.064,186.818z"/>
						</g>
					</g>
					<path fill="#3F68B2" d="M21.066,181.001c0,0,0.667-0.49-1.384-0.154c-2.689,0.441-10.167,5.438-10.167,5.438
						s0.717,2.311,1.731,2.311c1.013,0,9.399-5.565,11.29-5.248c1.889,0.317,3.951,0.64,5.71,1.239
						c1.759,0.599,13.188-0.711,13.188-0.711l-0.894-1.353c0,0-14.028-1.369-15.367-1.522S21.066,181.001,21.066,181.001z"/>
					<path fill="#373636" d="M32.467,182.019l-0.425,1.276c0,0,2.436,0.249,5.161,1.898c2.726,1.65,6.595,6.722,6.595,6.722
						l-2.619-9.46L32.467,182.019z"/>
					<polygon fill="#8F8F8E" points="87.617,200.764 76.948,167.081 78.848,166.582 89.765,200.265 					"/>
					<polygon fill="#282828" points="75.799,171.469 77.036,171.139 76.761,170.238 80.984,168.801 81.316,169.767 83.556,177.559 
						83.809,178.512 79.5,179.756 78.838,177.744 72.78,178.717 75.162,172.392 					"/>
					<g>
						<path fill="#212C56" d="M76.501,180.639c-0.821,2.116-2.73,2.208-2.73,2.208H52.117c0,0-1.479-3.535-1.105-5.48
							c0.217-1.154,0.604-2.211,1.666-3.419c0.266-0.306,0.555-0.611,0.906-0.931c0.639-0.584,1.425-1.208,2.415-1.903
							c3.753-2.626,11.738-1.848,14.25-1.631c2.536,0.237,3.542,0.501,4.521,1.439c1.231,1.027,1.731,2.449,1.731,2.449
							S77.831,177.088,76.501,180.639z"/>
					</g>
					<g>
						<path fill="#3F68B2" d="M73.019,179.351c-0.592,1.527-1.966,1.592-1.966,1.592H55.439c0,0-1.067-2.551-0.797-3.951
							c0.158-0.832,0.437-1.592,1.202-2.463c0.192-0.221,0.402-0.441,0.652-0.672c0.462-0.42,1.028-0.871,1.741-1.371
							c2.705-1.894,8.461-1.333,10.274-1.177c1.826,0.172,2.552,0.36,3.259,1.038c0.887,0.741,1.248,1.766,1.248,1.766
							S73.978,176.791,73.019,179.351z"/>
					</g>
					<path fill="#8F8F8E" d="M59.776,195.295l0.141-0.053c0.275-0.104,0.572-0.157,0.872-0.157h3.425
						c0.591,0,1.157,0.206,1.568,0.572l0.017,0.016c0.542,0.482,0.749,1.181,0.54,1.832l-0.217,0.673
						c-0.139,0.429-0.45,0.806-0.877,1.059l-1.676,0.984c-0.363,0.213-0.792,0.327-1.23,0.327h-0.301
						c-0.483,0-0.954-0.139-1.335-0.395l-1.218-0.813c-0.155-0.103-0.292-0.223-0.41-0.359l-0.276-0.315
						c-0.371-0.425-0.519-0.965-0.407-1.487l0.104-0.486C58.627,196.07,59.107,195.547,59.776,195.295z"/>
					<g>
						<polygon fill="#282828" points="78.625,164.642 75.521,165.839 76.237,167.023 77.877,168.468 78.995,168.063 79.216,165.979 
													"/>
						<path fill="#282828" d="M77.375,166.575c-0.326-0.034-0.597-0.293-0.635-0.634c-0.167-1.461-0.634-3.019-0.973-3.244
							c-0.388-0.042-0.61-0.028-0.724-0.012l-0.022,0.033l-4.725,1.436c-0.376,0.126-0.784-0.075-0.909-0.45
							c-0.126-0.377,0.075-0.782,0.452-0.908l4.366-1.314c0.52-0.339,1.414-0.244,1.744-0.209c1.502,0.16,2.032,2.894,2.215,4.509
							c0.044,0.394-0.238,0.749-0.632,0.794C77.479,166.581,77.426,166.581,77.375,166.575z"/>
						<path fill="#8F8F8E" d="M71.937,166.279c-0.072-0.008-0.139-0.041-0.189-0.101l-0.277-0.347l0.1-0.166
							c0.029-0.048,0.72-1.2,1.565-1.766c0.78-0.521,2.3-0.651,2.62-0.675l0.599-0.298l-0.664-1.503
							c-0.062-0.142,0.002-0.306,0.144-0.367c0.141-0.062,0.306,0.001,0.366,0.142l0.877,1.99l-1.175,0.584l-0.057,0.004
							c-0.017,0.001-1.671,0.098-2.402,0.587c-0.568,0.379-1.083,1.103-1.293,1.427l0.032,0.035c0.097,0.12,0.076,0.297-0.043,0.393
							C72.08,166.268,72.007,166.287,71.937,166.279z"/>
						<circle fill="#282828" cx="75.388" cy="161.745" r="0.983"/>
						<path fill="#8F8F8E" d="M69.792,164.344c-0.317-0.033-0.602-0.248-0.708-0.572c-0.141-0.438,0.098-0.909,0.537-1.053
							l4.89-1.594c0.439-0.143,0.91,0.097,1.053,0.536c0.143,0.438-0.098,0.91-0.536,1.052l-4.892,1.594
							C70.023,164.347,69.906,164.355,69.792,164.344z"/>
						<circle fill="#282828" cx="69.891" cy="163.592" r="0.652"/>
					</g>
					<path fill="#373636" d="M52.794,182.206l-0.704-3.041c-0.007,0.001-0.016,0.002-0.022,0.003l0.022-0.007l-0.528-3.573
						c0,0-6.638,0.656-9.69,0.656c-4.271,0-18.494-1.21-20.143-1.469s-1.678-0.629-3.17-0.796c-1.492-0.165-1.444,3.223-1.444,3.223
						l-0.465,0.555c-0.007-0.002-0.015-0.004-0.022-0.008l-0.905,1.084c0,0,1.445,1.276,2.605,1.997
						c0.29,0.182,0.611,0.338,0.931,0.478c0.918,0.396,11.401,0.638,12.394,0.755c1.758,0.204,5.708,0.618,10.664,0.82
						c6.767,0.276,9.018,0.044,9.796-0.011C52.887,182.817,52.794,182.206,52.794,182.206z"/>
					<path fill="#3F68B2" d="M72.864,187.694c0,0,1.843-4.167,9.415-6.567c7.571-2.402,13.488,0.029,13.488,0.029
						s-0.588,1.779-2.048,2.661c-1.462,0.882-4.091-0.943-9.263,0.678c-5.023,1.574-4.77,2.181-7.424,3.942
						c-0.619,0.412-2.145-0.03-2.96-0.292C73.392,187.927,72.864,187.694,72.864,187.694z"/>
					<path fill="#8F8F8E" d="M16.055,203.241h0.231h0.619H17.8h1.075h2.837h1.734h1.912h10.896l6.837,0.825l2.528,0.704h0.161h0.04
						c0,0-0.007,0.004-0.016,0h0.02h0.083h0.33h0.548h0.608h0.716h5.859h5.859h2.871c0,0,0.945-0.003,1.413-0.003h0.088h0.021
						c-0.108,0.006-0.017,0-0.035,0.001l0.042-0.003l0.174-0.014l0.176-0.014c0.051-0.007,0.071-0.024,0.108-0.032
						c0.069-0.027,0.128-0.021,0.21-0.063c0.079-0.037,0.158-0.071,0.237-0.104c0.306-0.174,0.569-0.424,0.775-0.728
						c0.047-0.08,0.098-0.154,0.144-0.235c0.037-0.087,0.074-0.171,0.114-0.256l0.029-0.066l0.031-0.09l0.066-0.18l0.129-0.354
						c0.343-0.946,0.68-1.872,1.006-2.773c0.656-1.805,1.275-3.508,1.832-5.089c0.142-0.396,0.278-0.781,0.413-1.16
						c0.068-0.187,0.133-0.373,0.199-0.56c0.032-0.083,0.132-0.399,0.129-0.462c0.01-0.053,0.022-0.111,0.027-0.188
						c0.005-0.069,0.017-0.141,0.013-0.208c0.006-0.139-0.008-0.274-0.025-0.407c-0.037-0.266-0.118-0.517-0.231-0.734
						c-0.223-0.438-0.557-0.744-0.91-0.894c-0.044-0.017-0.088-0.034-0.132-0.053c-0.041-0.017-0.115-0.039-0.17-0.058
						c-0.119-0.039-0.236-0.078-0.35-0.117c-0.229-0.074-1.544-0.45-1.544-0.45l-1.92-0.231l-1.509-0.006l0.45-1.742l1.499,0.055
						l1.896,0.325c0,0,1.313,0.39,1.538,0.474c0.114,0.042,0.23,0.084,0.348,0.126c0.064,0.026,0.108,0.041,0.189,0.073
						c0.076,0.034,0.152,0.066,0.229,0.1c0.608,0.291,1.196,0.835,1.573,1.602c0.383,0.767,0.545,1.725,0.339,2.729l-0.043,0.199
						l-0.042,0.142l-0.042,0.141l-0.037,0.109l-0.023,0.067c-0.064,0.185-0.13,0.374-0.197,0.563
						c-0.131,0.379-0.267,0.766-0.404,1.161c-0.557,1.58-1.144,3.301-1.767,5.12c-0.31,0.909-0.628,1.844-0.954,2.8l-0.123,0.358
						l-0.061,0.179l-0.031,0.092l-0.044,0.109l-0.188,0.44c-0.075,0.139-0.159,0.273-0.24,0.409
						c-0.344,0.526-0.797,0.967-1.318,1.267l-0.408,0.189c-0.131,0.064-0.307,0.098-0.461,0.142
						c-0.075,0.017-0.168,0.041-0.23,0.049l-0.174,0.018l-0.174,0.016l-0.044,0.005c-0.033,0.002,0.044-0.001-0.081,0.005h-0.021
						H64.11c-0.467,0-1.413,0-1.413,0h-2.871h-5.859h-5.859H47.38h-0.825h-0.852h-0.346h-0.086h-0.022c-0.024-0.011-0.059,0-0.059,0
						h-0.044h-0.168l-2.88,0.701l-5.945,0.787h-12.24h-2.021c0,0-1.869,0.02-1.813,0c0.058-0.019-2.93,0-2.93,0H16.09h-0.684h-0.358
						h-0.104L16.055,203.241z"/>
					<circle fill="#373636" cx="88.734" cy="200.497" r="0.766"/>
					<polygon fill="#373636" points="58.999,189.966 66.253,189.966 64.713,194.559 60.384,194.559 					"/>
					<path fill="#8F8F8E" d="M66.252,189.967h-7.25v-1.778c0-1.114,0.901-2.017,2.016-2.017h3.219c1.112,0,2.015,0.902,2.015,2.017
						V189.967z"/>
					<g>
						<path fill="#373636" d="M57.042,185.854c0,0-0.125,5.591-1.187,6.511c-1.061,0.921-1.627,0.748-1.627,0.748h-6.511
							c0,0-1.204-0.182-1.7-0.677c-0.494-0.496-1.273-2.547-1.768-3.609c-0.497-1.063-0.742-2.476-0.742-2.476
							s-0.108-0.32,0.423-0.673c0.529-0.355,2.724-0.179,2.724-0.179s3.752,0.179,4.354,0.212c0.601,0.036,5.06,0.178,5.414,0.036
							c0.354-0.142,0.621-0.105,0.621-0.105V185.854z"/>
						<path fill="#8F8F8E" d="M55.944,186.501c0,0-0.103,4.612-0.978,5.372c-0.878,0.758-1.345,0.615-1.345,0.615h-5.37
							c0,0-0.994-0.147-1.402-0.558c-0.408-0.408-1.051-2.103-1.46-2.978c-0.409-0.875-0.61-2.042-0.61-2.042
							s-0.089-0.265,0.348-0.556c0.438-0.292,2.248-0.146,2.248-0.146s3.095,0.146,3.592,0.175c0.497,0.029,4.173,0.147,4.466,0.029
							c0.291-0.116,0.511-0.087,0.511-0.087V186.501z"/>
					</g>
				</g>
			</g>
		</g>
	</g>
</g>
<g>
	<ellipse opacity="0.4" fill="#5D5E5E" cx="239.672" cy="122.624" rx="51.126" ry="1.144"/>
	<g>
		<g>
			<path fill="#282828" d="M212.847,91.3l-3.287,2.826l5.242,3.941c0,0,2.047,2.033,2.397,4.439
				c0.349,2.409,2.127,6.502-1.361,13.074l27.754-0.052l11.519-19.258l1.125-2.392l-16.692-10.906l-8.663,4.801l-8.52,3.064
				L212.847,91.3z"/>
		</g>
		<g>
			<g>
				<path fill="#282828" d="M277.994,122.626c-8.362,0-15.167-6.804-15.167-15.167s6.805-15.167,15.167-15.167
					c8.365,0,15.169,6.804,15.169,15.167S286.359,122.626,277.994,122.626z M277.994,98.617c-4.875,0-8.84,3.967-8.84,8.842
					s3.965,8.842,8.84,8.842c4.877,0,8.843-3.967,8.843-8.842S282.871,98.617,277.994,98.617z"/>
			</g>
		</g>
		<g>
			<g>
				<path fill="#282828" d="M201.468,122.626c-8.364,0-15.169-6.804-15.169-15.167s6.805-15.167,15.169-15.167
					c8.363,0,15.167,6.804,15.167,15.167S209.831,122.626,201.468,122.626z M201.468,98.617c-4.877,0-8.844,3.967-8.844,8.842
					s3.967,8.842,8.844,8.842c4.875,0,8.841-3.967,8.841-8.842S206.343,98.617,201.468,98.617z"/>
			</g>
		</g>
		<path fill="#484848" d="M201.411,97.045c-5.715,0-10.346,4.632-10.346,10.344c0,5.714,4.631,10.346,10.346,10.346
			c5.712,0,10.345-4.631,10.345-10.346C211.756,101.677,207.123,97.045,201.411,97.045z M209.047,107.389
			c0,0.998-0.197,1.95-0.546,2.824l-3.887-2.713l3.949-2.757C208.87,105.568,209.047,106.458,209.047,107.389z M200.094,114.903
			c-1.457-0.253-2.769-0.919-3.816-1.874l3.816-2.666V114.903z M195.553,112.284c-0.257-0.306-0.483-0.637-0.689-0.979l3.9-2.726
			c0.168,0.373,0.413,0.697,0.712,0.964L195.553,112.284z M193.774,107.389c0-0.998,0.197-1.948,0.546-2.82l4.194,2.929v0.004
			l-4.13,2.883C193.992,109.466,193.774,108.453,193.774,107.389z M201.411,99.755c0.202,0,0.401,0.015,0.601,0.029v4.764
			c-0.193-0.041-0.395-0.064-0.601-0.064c-0.205,0-0.404,0.022-0.597,0.063v-4.762C201.011,99.77,201.21,99.755,201.411,99.755z
			 M204.18,106.551c-0.12-0.395-0.317-0.75-0.581-1.055l3.888-2.717c0.241,0.319,0.465,0.651,0.654,1.005L204.18,106.551z
			 M199.787,104.419l-3.646-2.547c0.996-0.952,2.251-1.638,3.646-1.94V104.419z M199.338,105.358
			c-0.28,0.286-0.496,0.631-0.641,1.015l-3.929-2.743c0.199-0.349,0.423-0.681,0.672-0.992L199.338,105.358z M206.681,112.907
			c-0.923,0.882-2.063,1.529-3.335,1.861v-4.189L206.681,112.907z M203.483,109.423c0.281-0.288,0.497-0.635,0.641-1.016
			l3.927,2.743c-0.197,0.35-0.423,0.682-0.67,0.994L203.483,109.423z M206.814,101.996l-3.775,2.638v-4.702
			C204.496,100.251,205.799,100.978,206.814,101.996z M201.119,115.012v-4.746c0.098,0.011,0.192,0.03,0.292,0.03
			c0.318,0,0.621-0.065,0.909-0.159v4.829c-0.301,0.037-0.602,0.059-0.909,0.059C201.313,115.025,201.219,115.014,201.119,115.012z"
			/>
		<path fill="#484848" d="M277.855,96.994c-5.714,0-10.347,4.631-10.347,10.345c0,5.712,4.633,10.346,10.347,10.346
			c5.713,0,10.346-4.633,10.346-10.346C288.201,101.625,283.568,96.994,277.855,96.994z M285.49,107.339
			c0,0.996-0.197,1.948-0.544,2.822l-3.885-2.713l3.947-2.757C285.314,105.517,285.49,106.406,285.49,107.339z M276.539,114.852
			c-1.457-0.253-2.771-0.917-3.818-1.872l3.818-2.667V114.852z M271.996,112.232c-0.255-0.306-0.483-0.636-0.688-0.981l3.9-2.724
			c0.168,0.371,0.413,0.697,0.712,0.965L271.996,112.232z M270.22,107.339c0-1,0.197-1.949,0.546-2.824l4.194,2.931v0.002
			l-4.13,2.885C270.438,109.412,270.22,108.401,270.22,107.339z M277.855,99.701c0.203,0,0.402,0.017,0.602,0.031v4.764
			c-0.195-0.042-0.395-0.064-0.602-0.064c-0.204,0-0.403,0.022-0.596,0.063v-4.763C277.456,99.718,277.653,99.701,277.855,99.701z
			 M280.624,106.5c-0.119-0.395-0.318-0.753-0.58-1.055l3.888-2.717c0.241,0.317,0.465,0.651,0.654,1.005L280.624,106.5z
			 M276.232,104.368l-3.646-2.547c0.998-0.952,2.249-1.638,3.646-1.94V104.368z M275.781,105.307
			c-0.28,0.286-0.494,0.631-0.639,1.014l-3.929-2.743c0.199-0.351,0.425-0.681,0.672-0.994L275.781,105.307z M283.124,112.856
			c-0.921,0.88-2.063,1.527-3.333,1.861v-4.19L283.124,112.856z M279.929,109.37c0.28-0.286,0.495-0.632,0.641-1.014l3.927,2.743
			c-0.199,0.349-0.423,0.681-0.672,0.994L279.929,109.37z M283.26,101.944l-3.775,2.638v-4.7
			C280.941,100.197,282.244,100.928,283.26,101.944z M277.566,114.958v-4.744c0.096,0.009,0.189,0.03,0.289,0.03
			c0.319,0,0.622-0.064,0.908-0.159v4.829c-0.299,0.037-0.6,0.061-0.908,0.061C277.758,114.975,277.662,114.962,277.566,114.958z"/>
		<g>
			<path fill="none" stroke="#8F8F8E" stroke-width="18" stroke-linecap="round" stroke-miterlimit="10" d="M244.226,114.418"/>
		</g>
		<g>
			<path fill="none" stroke="#8F8F8E" stroke-width="18" stroke-linecap="round" stroke-miterlimit="10" d="M258.631,77.511"/>
		</g>
		<g>
			<path fill="none" stroke="#8F8F8E" stroke-width="18" stroke-linecap="round" stroke-miterlimit="10" d="M245.15,114.523"/>
		</g>
		<g>
			<path fill="none" stroke="#8F8F8E" stroke-width="18" stroke-linecap="round" stroke-miterlimit="10" d="M257.709,77.407"/>
		</g>
		<g>
			<path fill="#632263" d="M239.344,83.059c0,0,12.992-9.98,14.785-10c3.933-0.046,4.383,10.067,2.844,15.11
				C255.435,93.207,239.344,83.059,239.344,83.059z"/>
		</g>
		<g>
			<circle fill="#484848" cx="243.271" cy="95.97" r="4.776"/>
		</g>
		<g>
			<path fill="#373636" d="M201.422,108.298c-0.179,0-0.356-0.096-0.45-0.264c-0.141-0.249-0.052-0.563,0.195-0.703l15.001-9.523
				c0.249-0.138,0.564-0.05,0.703,0.198c0.14,0.249,0.054,0.564-0.195,0.703l-15.001,9.523
				C201.595,108.276,201.509,108.298,201.422,108.298z"/>
		</g>
		<g>
			<path fill="#632263" d="M230.88,87.773c0,0,0.581,2.583-3.486,4.648c-4.065,2.066-5.938,3.033-5.938,3.033s-0.774-1.031-2.26,0
				c-1.484,1.033-2.259,1.42-3.742,0c-1.484-1.42-6.189-5.264-3.034-7.293c0.904-0.581,2.02-0.825,5.099,0.903
				c3.155,1.771,5.828,1.347,6.972,0.71C228.168,87.727,230.88,87.773,230.88,87.773z"/>
		</g>
		<g>
			<path fill="#B9529F" d="M211.555,89.051c-0.034,0.07-1.975-2.569-9.268-2.569s-12.843,4.771-14.264,7.26
				c0,0,1.876,3.285,5.228,2.099c3.188-1.127,4.519-2.228,8.713-2.228c4.646,0,8.455,3.583,8.972,4.358
				c0.517,0.774,1.088,1.643,3.873,0l-3.454-3.744l1.721-1.098L211.555,89.051z"/>
		</g>
		<g>
			<g>
				<polygon fill="#8F8F8E" points="213.065,107.846 189.831,107.846 188.023,103.975 213.065,103.975 				"/>
			</g>
		</g>
		<g>
			<path fill="#8F8F8E" d="M224.49,107.201h-11.425v-2.582h11.425c3.132,0,3.54-0.498,4.48-2.228l2.269,1.23
				C229.714,106.432,228.264,107.201,224.49,107.201z"/>
		</g>
		<g>
			<path fill="#8F8F8E" d="M230.103,104.296c-0.206,0-0.418-0.05-0.613-0.157c-0.628-0.34-0.86-1.124-0.519-1.749
				c0.957-1.766,1.723-3.47,2.051-4.196c0.104-0.234,0.151-0.339,0.188-0.413c0.318-0.638,1.094-0.896,1.731-0.578
				c0.637,0.319,0.895,1.094,0.577,1.73c-0.023,0.05-0.071,0.16-0.144,0.317c-0.338,0.754-1.131,2.52-2.136,4.37
				C231.005,104.052,230.563,104.296,230.103,104.296z"/>
		</g>
		<g>
			<g>
				<polygon fill="#8F8F8E" points="213.065,113.332 193.284,113.332 191.539,109.46 213.065,109.46 				"/>
			</g>
		</g>
		<g>
			<path fill="#484848" d="M238.565,111.784c0,0-0.07-7.81-0.07-7.682c0,0.129,3.396-1.549,3.396-1.549v1.549h2.787v-1.549
				l3.094,1.549l-0.105,4.807l-2.272,2.875H238.565z"/>
		</g>
		<g>
			<path fill="#484848" d="M233.653,108.556c0-0.922-0.616-1.807-1.833-1.807h-4.491c-0.998,0-1.806,0.81-1.806,1.807
				c0,0.998,0.808,1.808,1.806,1.808v0.151h5.035v-0.227C233.109,110.065,233.653,109.375,233.653,108.556z"/>
		</g>
		<g>
			<polygon fill="#484848" points="230.907,92.486 231.912,95.001 240.755,90.807 239.657,88.418 			"/>
		</g>
		<g>
			<polygon fill="#484848" points="254.612,92.313 253.701,94.723 245.653,90.706 246.651,88.418 			"/>
		</g>
		<g>
			
				<rect x="232.621" y="97.807" transform="matrix(0.4789 0.8779 -0.8779 0.4789 210.3332 -157.9546)" fill="#484848" width="11.193" height="0.775"/>
		</g>
		<g>
			
				<rect x="248.027" y="92.6" transform="matrix(0.8793 0.4762 -0.4762 0.8793 76.735 -106.447)" fill="#484848" width="0.775" height="11.188"/>
		</g>
		<g>
			<path fill="#282828" d="M258.467,78.686c-0.523,0-1.011-0.339-1.171-0.867l-1.815-5.948l-7.027,2.8
				c-0.629,0.249-1.343-0.057-1.592-0.686c-0.252-0.631,0.056-1.343,0.685-1.594l9.505-3.785l2.591,8.496
				c0.197,0.647-0.167,1.333-0.814,1.531C258.707,78.669,258.587,78.686,258.467,78.686z"/>
		</g>
		<g>
			<circle fill="#373636" cx="216.616" cy="98.13" r="0.841"/>
		</g>
		<g>
			<polygon fill="#484848" points="220.42,98.194 225.523,95.13 228.299,100.166 227.587,102.423 222.425,103.108 			"/>
		</g>
		<g>
			<polygon fill="#484848" points="213.694,102.055 218.799,98.991 220.671,103.637 214.362,103.687 			"/>
		</g>
		<g>
			<g>
				<path fill="#282828" d="M264.436,69.032c-2.603,0-6.004,2.108-6.004,4.71s3.401,4.713,6.004,4.713
					c0.133,0,0.264-0.008,0.395-0.019V69.05C264.699,69.039,264.568,69.032,264.436,69.032z"/>
			</g>
			<g>
				<g>
					<path fill="#FBAB20" d="M269.146,73.742c0-2.47-1.898-4.493-4.316-4.692v9.387C267.248,78.237,269.146,76.212,269.146,73.742z"
						/>
				</g>
			</g>
		</g>
		<g>
			<path fill="none" stroke="#010101" stroke-width="19" stroke-linecap="round" stroke-miterlimit="10" d="M253.474,71.186"/>
		</g>
		<g>
			<path fill="none" stroke="#010101" stroke-width="19" stroke-linecap="round" stroke-miterlimit="10" d="M245.207,74.478"/>
		</g>
		<g>
			<path fill="#282828" d="M244.228,115.58c-0.055,0-0.11-0.005-0.166-0.013c-0.636-0.091-1.077-0.681-0.986-1.315l18.048-32.745
				c0.092-0.634,0.681-1.075,1.315-0.985c0.636,0.09,1.077,0.679,0.984,1.315l-18.048,32.745
				C245.294,115.162,244.796,115.58,244.228,115.58z"/>
		</g>
		<g>
			<path fill="#B9529F" d="M234.764,87.839c-0.044,1.418,2.387,1.612,10.132,1.612c7.747,0,11.296,0.774,11.296-5.939
				c0-6.71-5.966-5.55-10.728-3.548C240.701,81.965,234.828,85.708,234.764,87.839z"/>
		</g>
		<g>
			<g>
				<path fill="#8F8F8E" d="M242.43,112.75h-29.364v-2.58h29.364c3.215,0,3.632-0.459,4.58-2.051l2.217,1.321
					C247.679,112.039,246.218,112.75,242.43,112.75z"/>
			</g>
			<g>
				<path fill="#8F8F8E" d="M248.118,110.071c-0.228,0-0.454-0.059-0.661-0.183c-0.612-0.365-0.813-1.157-0.447-1.769
					c1.219-2.045,5.818-10.305,5.865-10.39c0.347-0.622,1.13-0.847,1.756-0.498c0.621,0.347,0.847,1.132,0.498,1.754
					c-0.188,0.341-4.665,8.377-5.902,10.455C248.984,109.846,248.557,110.071,248.118,110.071z"/>
			</g>
		</g>
		<g>
			<path fill="#8F8F8E" d="M277.998,108.621c-0.384,0-0.756-0.188-0.978-0.531l-19.363-29.949c-0.349-0.539-0.193-1.258,0.345-1.606
				c0.539-0.347,1.258-0.192,1.606,0.347l19.363,29.947c0.347,0.539,0.194,1.258-0.345,1.606
				C278.432,108.56,278.212,108.621,277.998,108.621z"/>
		</g>
		<path fill="#282828" d="M264.847,83.025l-4.216,2.553c-0.249,0.151-0.579,0.07-0.73-0.181l-1.313-2.171
			c-0.151-0.251-0.07-0.579,0.179-0.73l4.219-2.551c0.249-0.151,0.579-0.07,0.73,0.179l1.313,2.171
			C265.179,82.548,265.098,82.874,264.847,83.025z"/>
		<path fill="#282828" d="M270.229,92.224l-3.195,1.931c-0.197,0.118-0.453,0.056-0.571-0.14l-1.015-1.675
			c-0.118-0.197-0.054-0.454,0.142-0.572l3.195-1.933c0.195-0.118,0.451-0.055,0.571,0.141l1.013,1.674
			C270.487,91.846,270.425,92.104,270.229,92.224z"/>
		<g>
			<path fill="#B9529F" d="M261.162,104.168c0,0,1.065-7.129,7.54-10.975c6.519-3.872,13.101-1.806,13.101-1.806
				s0.259,2.193-2.194,3.291c0,0-4.388,0-5.485,0.71c-1.098,0.71,1.841,4.595,1.841,4.595l-4.13,2.711c0,0-2.034-4.143-3.326-3.82
				c-1.291,0.323-2.969,4.775-2.969,4.775S263.303,105.522,261.162,104.168z"/>
		</g>
	</g>
</g>
<g>
	<ellipse opacity="0.4" fill="#5D5E5E" cx="239.532" cy="217.938" rx="39.285" ry="1.163"/>
	<g>
		<circle fill="#D3D3D3" cx="269.127" cy="207.424" r="4.57"/>
		<circle fill="#D3D3D3" cx="209.963" cy="207.424" r="4.568"/>
		<g>
			<path fill="#373636" d="M235.236,184.071c0,0,0.381-5.557-3.13-6.068c-3.513-0.511-23.181,0-24.971,0
				c-1.786,0-4.466,0.193-4.468,6.068l0.61,1.126h29.901L235.236,184.071z"/>
			<path fill="#FBAB20" d="M195.172,189.541c-1.92,0.666,0.145-4.018,0.904-4.018c0.758,0,2.354,0,2.354,0
				S197.9,188.594,195.172,189.541z"/>
			<path fill="#75742F" d="M195.211,192.031c-0.959-2.527,1.071-4.673,3.083-6.397c2.014-1.724,4.104-1.015,4.104-1.015
				s-0.275,3.511-3.713,5.838C195.245,192.784,195.211,192.031,195.211,192.031z"/>
			<path fill="#282828" d="M269.271,196.873c-5.869,0-10.626,4.759-10.626,10.628c0,5.87,4.757,10.629,10.626,10.629
				c5.87,0,10.629-4.759,10.629-10.629C279.899,201.632,275.141,196.873,269.271,196.873z M269.271,214.106
				c-3.647,0-6.604-2.957-6.604-6.605c0-3.647,2.956-6.605,6.604-6.605c3.648,0,6.605,2.958,6.605,6.605
				C275.876,211.149,272.919,214.106,269.271,214.106z"/>
			<path fill="#484848" d="M269.271,201.71c-3.197,0-5.791,2.592-5.791,5.791s2.594,5.793,5.791,5.793
				c3.199,0,5.793-2.594,5.793-5.793S272.47,201.71,269.271,201.71z M269.271,211.104c-1.989,0-3.601-1.611-3.601-3.603
				c0-1.989,1.611-3.603,3.601-3.603c1.991,0,3.604,1.613,3.604,3.603C272.875,209.492,271.262,211.104,269.271,211.104z"/>
			<path fill="#75742F" d="M265.672,192.033c1.668-0.13,4.355-0.332,7.203,0.464c4.571,1.277,7.437,4.428,6.893,6.152
				c-0.546,1.723-6.95,0.032-10.943,2.661c-3.986,2.629-6.157,6.732-10.267,6.131c-1.927-0.28-2.999-1.411-2.904-3.198
				C255.653,204.243,256.811,192.716,265.672,192.033z"/>
			<path opacity="0.6" fill="#E7E515" d="M265.681,194c-2.181,2.377-3.863,0.891-5.549,4.458c-1.069,2.264-2.214,5.534-3.906,7.782
				c-0.102-0.13-0.189-0.267-0.265-0.415c-0.004-0.006-0.006-0.011-0.008-0.017c-0.071-0.141-0.13-0.289-0.179-0.445
				c-0.013-0.045-0.019-0.094-0.029-0.139c-0.03-0.125-0.061-0.251-0.075-0.385c-0.021-0.189-0.028-0.386-0.017-0.597
				c0,0,1.157-11.527,10.019-12.21c0.298-0.024,0.638-0.049,0.996-0.069C266.607,192.617,266.317,193.306,265.681,194z"/>
			<path fill="#E7E515" d="M255.533,170.844c0,0,0.644,3.055,2.371,7.733c1.093,2.959,1.914,7.152,5.575,9.009
				c1.851,0.938,3.616,3.271,1.436,5.648c-2.181,2.379-3.861,0.891-5.549,4.458c-1.683,3.567-3.552,9.644-7.465,10.259
				c-2.426,0.385-24.01,0-25.606,0s-2.8-0.726-3.383-2.54c-1.474-4.587-29.949-1.738-29.949-1.738s-2.162,0.321-2.104-1.204
				c0.15-3.934,2.425-9.523,6.382-12.205c3.96-2.684,5.427-6.192,5.427-6.192h32.568c0.256,3.319-1.469,4.021-1.979,4.723
				c-0.511,0.702-5.109,4.661-3.387,9.898c1.727,5.235,5.239,6.003,10.41,6.194c5.172,0.191,8.146-2.242,9.68-5.883
				c1.533-3.638,3.52-7.918,3.788-14.279c0.128-2.96-1.972-12.979-1.972-12.979S254.514,170.11,255.533,170.844z"/>
			<g opacity="0.73">
				<path fill="#75742F" d="M252.046,171.746c0,0,4.404,12.77,4.787,15.706c0.385,2.939-1.595,10.537-3.128,14.178
					c-1.208,2.865-5.461,3.354-9.741,3.342c4.187-0.008,8.289-0.537,9.471-3.342c1.531-3.641,3.513-11.238,3.128-14.178
					c-0.383-2.937-4.786-15.706-4.786-15.706s1.965-1.173,3.183-1.086C253.741,170.733,252.046,171.746,252.046,171.746z"/>
				<path fill="#75742F" d="M197.241,190.264c3.96-2.684,5.427-6.192,5.427-6.192h0.271c0,0-1.47,3.509-5.427,6.192
					c-3.958,2.682-6.232,8.271-6.382,12.205c-0.038,1.007,0.889,1.208,1.525,1.229c-0.593,0.024-1.841-0.065-1.796-1.229
					C191.01,198.535,193.284,192.945,197.241,190.264z"/>
			</g>
			<path fill="#75742F" d="M255.611,171.189c-0.392,0.501-2.843,1.143-3.682,1.004c-0.098-0.284-0.153-0.447-0.153-0.447
				s2.737-1.636,3.757-0.902C255.533,170.844,255.559,170.966,255.611,171.189z"/>
			<path fill="#373636" d="M233.24,205.78c-3.243-0.782-3.307-6.757-3.461-7.399h0.01c0.03,0.105,0.047,0.207,0.081,0.312
				c1.727,5.235,5.239,6.003,10.41,6.194c5.172,0.191,9.332-5.083,9.332-5.083l0.075-0.191v0.002c0,0-2.299,6.767-5.988,6.732
				C238.691,206.302,237.406,206.786,233.24,205.78z"/>
			<path fill="#282828" d="M250.367,164.063c0,0-1.218,0.018-1.389-0.797c-0.169-0.813,1.234-1.04,1.234-1.04
				c0.8-0.028,2.454,0.366,1.818,1.315C251.622,164.15,250.367,164.063,250.367,164.063z"/>
			<path fill="#E7E515" d="M251.776,171.746c-0.694-0.298-2.185-6.354-1.789-7.791c0.706-2.55,6.807-1.927,7.23-1.854
				c2.676,0.444,2.482,6.179,0.484,6.553c-1.383,0.257-2.329,0-2.032,1.979C255.752,171.176,252.469,172.043,251.776,171.746z"/>
			<g>
				<path fill="#282828" d="M209.98,196.873c-5.869,0-10.626,4.759-10.626,10.628c0,5.87,4.757,10.629,10.626,10.629
					c5.872,0,10.629-4.759,10.629-10.629C220.609,201.632,215.853,196.873,209.98,196.873z M209.98,214.106
					c-3.646,0-6.604-2.957-6.604-6.605c0-3.647,2.958-6.605,6.604-6.605c3.648,0,6.605,2.958,6.605,6.605
					C216.586,211.149,213.629,214.106,209.98,214.106z"/>
				<path fill="#484848" d="M209.98,201.71c-3.197,0-5.79,2.592-5.79,5.791s2.593,5.793,5.79,5.793c3.2,0,5.793-2.594,5.793-5.793
					S213.181,201.71,209.98,201.71z M209.98,211.104c-1.987,0-3.601-1.611-3.601-3.603c0-1.989,1.613-3.603,3.601-3.603
					c1.989,0,3.604,1.613,3.604,3.603C213.584,209.492,211.97,211.104,209.98,211.104z"/>
			</g>
			<path fill="#282828" d="M216.018,205.428c0,0-0.951,2.505-4.04,2.505c-1.599,0-3.993,0-4.897,0c-2.003,0-2.849-1.486-3.134-2.603
				l2.873-1.31l7.702,0.32L216.018,205.428z"/>
			<path opacity="0.73" fill="#71A3A0" d="M193.409,198.757c1.376-3.472,8.366-11.942,18.902-12.389
				c0.364-0.016,0.715-0.019,1.061-0.014c-0.26,0-0.521,0.002-0.79,0.014c-10.537,0.446-17.527,8.917-18.902,12.389
				c-1.214,3.066-0.813,6.513,0.768,6.511c0.511,0,12.813,0.144,21.287,0.144c-8.482,0.003-21.041-0.144-21.558-0.144
				C192.595,205.27,192.195,201.823,193.409,198.757z"/>
			<g>
				<path opacity="0.6" fill="#75742F" d="M194.871,205.268c-1.58,0.002-1.979-3.444-0.766-6.511
					c1.374-3.472,8.365-11.942,18.902-12.389c10.534-0.447,12.387,7.536,13.218,11.687c0.829,4.151-1.086,6.895-2.171,7.215
					C222.97,205.589,195.639,205.268,194.871,205.268z"/>
				<path fill="#F15A5A" d="M193.34,198.757c1.374-3.472,8.365-11.942,18.9-12.389c0.366-0.016,0.717-0.019,1.061-0.014
					c-0.26,0-0.519,0.002-0.788,0.014c-10.537,0.446-17.529,8.917-18.902,12.389c-1.214,3.066-0.814,6.513,0.768,6.511
					c0.51,0,12.813-1.058,21.289-1.058c-8.484,0.004-21.043,1.058-21.56,1.058C192.527,205.27,192.126,201.823,193.34,198.757z"/>
				<path fill="#75742F" d="M194.107,205.268c-1.58,0.002-1.981-3.444-0.768-6.511c1.374-3.472,8.365-11.942,18.9-12.389
					c10.538-0.447,12.389,7.536,13.22,11.687c0.831,4.151-1.086,6.895-2.171,7.215C222.202,205.589,194.873,205.268,194.107,205.268
					z"/>
			</g>
			<path fill="#FBAB20" d="M257.696,168.726c-0.416,0.076-0.792,0.11-1.108,0.167c-1.123-3.659-0.213-6.913-0.211-6.923
				c0.439,0.028,0.745,0.063,0.83,0.077C259.932,162.501,259.734,168.346,257.696,168.726z"/>
			<path fill="#282828" d="M247.391,165.997c0,0,0.925-0.158,1.246,0.863c0.321,1.021-0.544,1.373-1.246,1.532
				c-0.702,0.16-2.647,0.734-2.647,0.734s-0.871,0.127-1.063-1.246C243.489,166.509,247.391,165.997,247.391,165.997z"/>
			<path fill="#75742F" d="M247.391,165.997c0,0-0.202-0.381,0.927-0.606c1.128-0.226,3.732-1.501,4.532-1.116
				c0.799,0.383,0.799,0.735,0.863,1.438c0.063,0.699-0.509,1.467-2.938,2.137c-2.426,0.67-2.381,0.417-2.595,0.256"/>
			<path fill="#8F8F8E" d="M243.681,167.881c-0.043-0.308,0.128-0.57,0.407-0.798c0.019,0.006,1.824,0.484,0.655,2.044
				C244.743,169.127,243.872,169.254,243.681,167.881z"/>
		</g>
	</g>
</g>
<g>
	<ellipse opacity="0.4" fill="#5D5E5E" cx="57.8" cy="123.132" rx="38.826" ry="1.151"/>
	<g>
		<circle fill="#D3D3D3" cx="87.049" cy="112.742" r="4.517"/>
		<circle fill="#D3D3D3" cx="28.576" cy="112.742" r="4.515"/>
		<g>
			<path fill="#373636" d="M53.555,89.661c0,0,0.376-5.491-3.094-5.997c-3.472-0.504-22.91,0-24.679,0
				c-1.765,0-4.414,0.19-4.416,5.997l0.603,1.113h29.553L53.555,89.661z"/>
			<path fill="#FBAB20" d="M13.957,95.067c-1.897,0.658,0.143-3.97,0.894-3.97c0.749,0,2.328,0,2.328,0S16.654,94.13,13.957,95.067z
				"/>
			<path fill="#1B6054" d="M13.996,97.529c-0.948-2.499,1.059-4.619,3.047-6.322c1.99-1.704,4.056-1.003,4.056-1.003
				s-0.272,3.47-3.67,5.769C14.029,98.271,13.996,97.529,13.996,97.529z"/>
			<path fill="#282828" d="M87.191,102.314c-5.801,0-10.502,4.702-10.502,10.504c0,5.801,4.702,10.504,10.502,10.504
				c5.801,0,10.504-4.704,10.504-10.504C97.695,107.016,92.992,102.314,87.191,102.314z M87.191,119.346
				c-3.605,0-6.526-2.923-6.526-6.528c0-3.606,2.921-6.528,6.526-6.528c3.605,0,6.528,2.922,6.528,6.528
				C93.719,116.423,90.796,119.346,87.191,119.346z"/>
			<path fill="#484848" d="M87.191,107.094c-3.16,0-5.723,2.563-5.723,5.725c0,3.162,2.563,5.725,5.723,5.725
				c3.162,0,5.726-2.563,5.726-5.725C92.917,109.656,90.353,107.094,87.191,107.094z M87.191,116.379
				c-1.966,0-3.559-1.594-3.559-3.561s1.593-3.561,3.559-3.561c1.968,0,3.563,1.594,3.563,3.561S89.159,116.379,87.191,116.379z"/>
			<path fill="#1B6054" d="M83.634,97.531c1.648-0.128,4.304-0.329,7.12,0.457c4.518,1.264,7.35,4.378,6.812,6.082
				c-0.54,1.703-6.87,0.032-10.816,2.63c-3.939,2.599-6.085,6.654-10.146,6.059c-1.905-0.277-2.964-1.395-2.871-3.16
				C73.732,109.599,74.876,98.205,83.634,97.531z"/>
			<path opacity="0.6" fill="#6EC8B8" d="M83.644,99.474c-2.155,2.35-3.819,0.881-5.484,4.406c-1.057,2.238-2.188,5.47-3.861,7.692
				c-0.1-0.128-0.187-0.264-0.261-0.41c-0.004-0.006-0.006-0.011-0.007-0.017c-0.071-0.139-0.128-0.286-0.176-0.44
				c-0.013-0.045-0.019-0.093-0.03-0.138c-0.03-0.123-0.06-0.248-0.074-0.379c-0.021-0.188-0.028-0.383-0.017-0.59
				c0,0,1.144-11.394,9.902-12.068c0.294-0.024,0.63-0.048,0.984-0.069C84.56,98.106,84.272,98.788,83.644,99.474z"/>
			<path fill="#6EC8B8" d="M73.614,76.588c0,0,0.636,3.02,2.344,7.644c1.079,2.924,1.892,7.07,5.51,8.903
				c1.829,0.928,3.574,3.233,1.419,5.583c-2.155,2.352-3.817,0.882-5.484,4.407c-1.664,3.526-3.511,9.53-7.378,10.139
				c-2.398,0.379-23.729,0-25.308,0s-2.767-0.718-3.344-2.512c-1.456-4.532-29.599-1.716-29.599-1.716s-2.137,0.316-2.079-1.19
				c0.148-3.888,2.396-9.412,6.308-12.063c3.913-2.652,5.363-6.121,5.363-6.121h32.188c0.252,3.282-1.452,3.976-1.957,4.669
				c-0.504,0.694-5.05,4.607-3.347,9.783c1.706,5.173,5.178,5.932,10.289,6.121c5.111,0.189,8.051-2.216,9.566-5.814
				c1.515-3.596,3.479-7.825,3.745-14.113c0.126-2.925-1.949-12.826-1.949-12.826S72.606,75.864,73.614,76.588z"/>
			<g opacity="0.73">
				<path fill="#239680" d="M70.168,77.48c0,0,4.353,12.62,4.731,15.524c0.38,2.903-1.576,10.413-3.092,14.011
					c-1.194,2.832-5.396,3.316-9.627,3.302c4.138-0.007,8.192-0.53,9.36-3.302c1.514-3.598,3.472-11.108,3.092-14.011
					C74.253,90.1,69.901,77.48,69.901,77.48s1.942-1.159,3.146-1.074C71.843,76.479,70.168,77.48,70.168,77.48z"/>
				<path fill="#1B6054" d="M16.003,95.782c3.913-2.652,5.363-6.121,5.363-6.121h0.267c0,0-1.452,3.469-5.364,6.121
					c-3.911,2.65-6.159,8.174-6.307,12.063c-0.037,0.995,0.879,1.194,1.508,1.215c-0.586,0.023-1.819-0.065-1.775-1.215
					C9.844,103.956,12.091,98.432,16.003,95.782z"/>
			</g>
			<path fill="#1B6054" d="M73.691,76.93c-0.387,0.495-2.81,1.129-3.639,0.991c-0.096-0.28-0.152-0.441-0.152-0.441
				s2.706-1.616,3.713-0.892C73.614,76.588,73.64,76.708,73.691,76.93z"/>
			<path fill="#373636" d="M51.581,111.118c-3.205-0.774-3.268-6.679-3.42-7.313h0.009c0.03,0.104,0.046,0.203,0.08,0.308
				c1.706,5.173,5.178,5.932,10.289,6.121c5.111,0.189,9.223-5.023,9.223-5.023l0.074-0.189v0.001c0,0-2.271,6.688-5.918,6.655
				C56.969,111.632,55.698,112.111,51.581,111.118z"/>
			<path fill="#282828" d="M68.508,69.888c0,0-1.204,0.016-1.372-0.788c-0.167-0.803,1.22-1.028,1.22-1.028
				c0.79-0.028,2.426,0.361,1.797,1.299C69.749,69.974,68.508,69.888,68.508,69.888z"/>
			<path fill="#6EC8B8" d="M69.901,77.48c-0.686-0.294-2.159-6.28-1.768-7.7c0.697-2.521,6.727-1.904,7.146-1.833
				c2.645,0.44,2.454,6.108,0.479,6.476c-1.367,0.254-2.302,0-2.009,1.958C73.831,76.916,70.585,77.774,69.901,77.48z"/>
			<g>
				<path fill="#282828" d="M28.594,102.314c-5.801,0-10.503,4.702-10.503,10.504c0,5.801,4.702,10.504,10.503,10.504
					c5.803,0,10.504-4.704,10.504-10.504C39.098,107.016,34.396,102.314,28.594,102.314z M28.594,119.346
					c-3.604,0-6.526-2.923-6.526-6.528c0-3.606,2.923-6.528,6.526-6.528c3.605,0,6.528,2.922,6.528,6.528
					C35.122,116.423,32.199,119.346,28.594,119.346z"/>
				<path fill="#484848" d="M28.594,107.094c-3.161,0-5.724,2.563-5.724,5.725c0,3.162,2.563,5.725,5.724,5.725
					c3.162,0,5.725-2.563,5.725-5.725C34.319,109.656,31.755,107.094,28.594,107.094z M28.594,116.379
					c-1.964,0-3.559-1.594-3.559-3.561s1.595-3.561,3.559-3.561c1.966,0,3.561,1.594,3.561,3.561S30.56,116.379,28.594,116.379z"/>
			</g>
			<path fill="#282828" d="M34.56,110.768c0,0-0.94,2.477-3.993,2.477c-1.58,0-3.947,0-4.84,0c-1.979,0-2.815-1.47-3.097-2.573
				l2.839-1.294l7.613,0.318L34.56,110.768z"/>
			<path opacity="0.73" fill="#71A3A0" d="M12.216,104.176c1.359-3.431,8.268-11.803,18.681-12.244
				c0.36-0.015,0.707-0.019,1.048-0.014c-0.256,0-0.514,0.002-0.781,0.014c-10.414,0.441-17.322,8.813-18.681,12.244
				c-1.2,3.029-0.803,6.437,0.758,6.436c0.504,0,12.663,0.14,21.039,0.141c-8.383,0.003-20.795-0.141-21.306-0.141
				C11.411,110.613,11.016,107.205,12.216,104.176z"/>
			<g>
				<path opacity="0.6" fill="#239680" d="M13.66,110.611c-1.562,0.001-1.957-3.406-0.756-6.436
					c1.357-3.431,8.268-11.803,18.681-12.244c10.412-0.441,12.242,7.447,13.064,11.549c0.819,4.103-1.074,6.815-2.146,7.132
					C41.431,110.927,14.419,110.61,13.66,110.611z"/>
				<path fill="#F15A5A" d="M12.147,104.176c1.357-3.431,8.268-11.803,18.68-12.244c0.361-0.015,0.708-0.019,1.048-0.014
					c-0.256,0-0.512,0.002-0.779,0.014c-10.414,0.441-17.324,8.813-18.681,12.244c-1.2,3.029-0.805,6.437,0.758,6.436
					c0.505,0,12.664-1.046,21.041-1.046c-8.385,0.004-20.797,1.046-21.307,1.046C11.344,110.613,10.947,107.205,12.147,104.176z"/>
				<path fill="#1B6054" d="M12.906,110.611c-1.562,0.001-1.958-3.406-0.759-6.436c1.357-3.431,8.268-11.803,18.68-12.244
					c10.415-0.441,12.244,7.447,13.065,11.549c0.821,4.103-1.074,6.815-2.146,7.132C40.672,110.927,13.662,110.61,12.906,110.611z"
					/>
			</g>
			<path fill="#FBAB20" d="M75.752,74.495c-0.412,0.075-0.783,0.108-1.096,0.165c-1.109-3.617-0.209-6.833-0.208-6.842
				c0.434,0.028,0.736,0.062,0.82,0.076C77.961,68.343,77.766,74.119,75.752,74.495z"/>
			<path fill="#282828" d="M65.566,71.798c0,0,0.915-0.157,1.231,0.853c0.317,1.009-0.538,1.356-1.231,1.514
				c-0.693,0.158-2.617,0.725-2.617,0.725s-0.86,0.126-1.05-1.23C61.711,72.305,65.566,71.798,65.566,71.798z"/>
			<path fill="#1B6054" d="M65.566,71.798c0,0-0.2-0.377,0.917-0.599c1.114-0.223,3.688-1.483,4.479-1.104
				c0.79,0.379,0.79,0.727,0.854,1.421c0.063,0.692-0.503,1.451-2.903,2.112c-2.398,0.663-2.354,0.413-2.564,0.253"/>
			<path fill="#8F8F8E" d="M61.9,73.66c-0.042-0.304,0.126-0.564,0.403-0.788c0.019,0.005,1.802,0.479,0.647,2.019
				C62.95,74.891,62.089,75.017,61.9,73.66z"/>
		</g>
	</g>
</g>
<g>
	<ellipse opacity="0.4" fill="#5D5E5E" cx="148.207" cy="173.653" rx="43.027" ry="1.108"/>
	<g>
		<g>
			<path fill="#373636" d="M116.792,144.431c0-0.221,0.111-0.221,0.111-0.221l0,0c0.109,0,0.109,0.221,0.109,0.221v27.17
				c0,0.223-0.109,0.223-0.109,0.223l0,0c-0.111,0-0.111-0.223-0.111-0.223"/>
			<path fill="#373636" d="M103.315,158.128c-0.221,0-0.221-0.111-0.221-0.111l0,0c0-0.111,0.221-0.111,0.221-0.111h27.17
				c0.222,0,0.222,0.111,0.222,0.111l0,0c0,0.111-0.222,0.111-0.222,0.111"/>
			<path fill="#373636" d="M111.725,145.454c-0.083-0.204,0.02-0.246,0.02-0.246l0,0c0.103-0.041,0.187,0.164,0.187,0.164
				l10.147,25.205c0.084,0.205-0.02,0.247-0.02,0.247l0,0c-0.104,0.041-0.186-0.164-0.186-0.164"/>
			<path fill="#373636" d="M104.34,163.193c-0.206,0.083-0.247-0.021-0.247-0.021l0,0c-0.042-0.103,0.164-0.185,0.164-0.185
				l25.205-10.147c0.206-0.083,0.247,0.019,0.247,0.019l0,0c0.041,0.104-0.165,0.185-0.165,0.185"/>
			<path fill="#373636" d="M106.672,149.076c-0.166-0.147-0.091-0.229-0.091-0.229l0,0c0.072-0.082,0.238,0.064,0.238,0.064
				l20.313,18.046c0.165,0.146,0.091,0.229,0.091,0.229l0,0c-0.073,0.083-0.237-0.065-0.237-0.065"/>
			<path fill="#373636" d="M107.96,168.246c-0.147,0.164-0.229,0.093-0.229,0.093l0,0c-0.083-0.075,0.064-0.239,0.064-0.239
				l18.046-20.313c0.147-0.166,0.229-0.091,0.229-0.091l0,0c0.082,0.072-0.064,0.238-0.064,0.238"/>
			<path fill="#373636" d="M106.631,149.076c-0.165-0.147-0.091-0.229-0.091-0.229l0,0c0.073-0.082,0.237,0.064,0.237,0.064
				l20.313,18.046c0.165,0.146,0.093,0.229,0.093,0.229l0,0c-0.075,0.083-0.24-0.065-0.24-0.065"/>
			<path fill="#373636" d="M107.919,168.246c-0.146,0.164-0.229,0.093-0.229,0.093l0,0c-0.083-0.075,0.064-0.239,0.064-0.239
				l18.046-20.313c0.146-0.166,0.229-0.091,0.229-0.091l0,0c0.084,0.072-0.062,0.238-0.062,0.238"/>
			<path fill="#373636" d="M103.933,153.965c-0.211-0.067-0.176-0.173-0.176-0.173l0,0c0.034-0.105,0.243-0.038,0.243-0.038
				l25.869,8.315c0.211,0.067,0.177,0.172,0.177,0.172l0,0c-0.034,0.106-0.245,0.038-0.245,0.038"/>
			<path fill="#373636" d="M112.849,170.986c-0.068,0.208-0.173,0.174-0.173,0.174l0,0c-0.106-0.033-0.037-0.243-0.037-0.243
				l8.315-25.868c0.066-0.211,0.172-0.177,0.172-0.177l0,0c0.105,0.033,0.037,0.244,0.037,0.244"/>
		</g>
		<g>
			<path fill="#373636" d="M178.206,144.431c0-0.221,0.111-0.221,0.111-0.221l0,0c0.11,0,0.11,0.221,0.11,0.221v27.17
				c0,0.223-0.11,0.223-0.11,0.223l0,0c-0.111,0-0.111-0.223-0.111-0.223"/>
			<path fill="#373636" d="M164.731,158.128c-0.221,0-0.221-0.111-0.221-0.111l0,0c0-0.111,0.221-0.111,0.221-0.111h27.171
				c0.222,0,0.222,0.111,0.222,0.111l0,0c0,0.111-0.222,0.111-0.222,0.111"/>
			<path fill="#373636" d="M173.141,145.454c-0.082-0.204,0.021-0.246,0.021-0.246l0,0c0.102-0.041,0.184,0.164,0.184,0.164
				l10.148,25.205c0.084,0.205-0.021,0.247-0.021,0.247l0,0c-0.102,0.041-0.184-0.164-0.184-0.164"/>
			<path fill="#373636" d="M165.756,163.193c-0.205,0.083-0.246-0.021-0.246-0.021l0,0c-0.041-0.103,0.162-0.185,0.162-0.185
				l25.208-10.147c0.206-0.083,0.246,0.019,0.246,0.019l0,0c0.042,0.104-0.163,0.185-0.163,0.185"/>
			<path fill="#373636" d="M168.088,149.076c-0.164-0.147-0.093-0.229-0.093-0.229l0,0c0.075-0.082,0.239,0.064,0.239,0.064
				l20.314,18.046c0.164,0.146,0.092,0.229,0.092,0.229l0,0c-0.074,0.083-0.239-0.065-0.239-0.065"/>
			<path fill="#373636" d="M169.378,168.246c-0.147,0.164-0.229,0.093-0.229,0.093l0,0c-0.082-0.075,0.063-0.239,0.063-0.239
				l18.047-20.313c0.146-0.166,0.229-0.091,0.229-0.091l0,0c0.081,0.072-0.064,0.238-0.064,0.238"/>
			<path fill="#373636" d="M168.046,149.076c-0.163-0.147-0.091-0.229-0.091-0.229l0,0c0.074-0.082,0.238,0.064,0.238,0.064
				l20.314,18.046c0.164,0.146,0.093,0.229,0.093,0.229l0,0c-0.076,0.083-0.239-0.065-0.239-0.065"/>
			<path fill="#373636" d="M169.336,168.246c-0.146,0.164-0.229,0.093-0.229,0.093l0,0c-0.082-0.075,0.065-0.239,0.065-0.239
				l18.047-20.313c0.146-0.166,0.229-0.091,0.229-0.091l0,0c0.082,0.072-0.064,0.238-0.064,0.238"/>
			<path fill="#373636" d="M165.351,153.965c-0.211-0.067-0.177-0.173-0.177-0.173l0,0c0.033-0.105,0.245-0.038,0.245-0.038
				l25.867,8.315c0.21,0.067,0.176,0.172,0.176,0.172l0,0c-0.032,0.106-0.244,0.038-0.244,0.038"/>
			<path fill="#373636" d="M174.266,170.986c-0.067,0.208-0.174,0.174-0.174,0.174l0,0c-0.105-0.033-0.037-0.243-0.037-0.243
				l8.313-25.868c0.07-0.211,0.174-0.177,0.174-0.177l0,0c0.105,0.033,0.038,0.244,0.038,0.244"/>
		</g>
		<circle fill="none" stroke="#282828" stroke-width="4" stroke-miterlimit="10" cx="116.883" cy="158.161" r="13.813"/>
		<circle fill="none" stroke="#282828" stroke-width="4" stroke-miterlimit="10" cx="178.316" cy="158.161" r="13.812"/>
		<g>
			<g>
				<g>
					<path fill="#282828" d="M175.909,134.83c-2.27,0-4.109-1.839-4.109-4.107c0-2.27,1.84-4.107,4.109-4.107V134.83z"/>
					<path fill="#FBAB20" d="M176.596,134.83h-0.687v-8.215h0.687c0.381,0,0.688,0.308,0.688,0.688v6.84
						C177.283,134.522,176.977,134.83,176.596,134.83z"/>
					<g>
						<circle fill="#484848" cx="178.174" cy="158.097" r="3.662"/>
					</g>
					<polygon fill="#282828" points="130.345,139.963 136.49,161.555 155.813,161.545 161.327,146.122 159.677,139.996 
						141.917,139.959 					"/>
					<g>
						<path fill="#484848" d="M117.381,156.096c0.681,0,1.237,0.556,1.237,1.236c0,0.683-0.556,1.239-1.237,1.239
							c-0.683,0-1.237-0.557-1.237-1.239C116.144,156.651,116.698,156.096,117.381,156.096 M117.381,150.898
							c-3.549,0-6.436,2.887-6.436,6.434c0,3.549,2.887,6.436,6.436,6.436c3.547,0,6.433-2.887,6.433-6.436
							C123.813,153.785,120.928,150.898,117.381,150.898L117.381,150.898z"/>
						
							<rect x="125.568" y="143.611" transform="matrix(0.099 0.9951 -0.9951 0.099 270.2222 13.9224)" fill="#282828" width="3.711" height="25.128"/>
						<path fill="#282828" d="M117.941,164.179c-1.959,0-6.565-0.571-7.293-5.84c-0.247-1.795,0.113-3.331,1.07-4.568
							c1.814-2.345,5.108-2.752,5.247-2.769l0.027-0.003l0.025,0.001l21.493,0.559l-0.02,0.742l-21.463-0.559
							c-0.293,0.042-3.181,0.488-4.725,2.486c-0.829,1.072-1.138,2.421-0.919,4.011c0.806,5.835,6.807,5.227,7.315,5.163
							l22.386-6.371l0.205,0.714l-22.439,6.387l-0.028,0.003C118.808,164.137,118.471,164.179,117.941,164.179z"/>
					</g>
					<g>
						<polygon fill="#8F8F8E" points="117.81,157.038 117.334,156.783 121.343,140.884 121.822,141.14 						"/>
						<polygon fill="#222222" points="118.487,156.434 117.214,155.787 118.85,149.14 120.124,149.474 						"/>
						
							<ellipse transform="matrix(0.9966 -0.0826 0.0826 0.9966 -11.2587 10.5281)" fill="#B1B2AC" cx="121.545" cy="141.264" rx="0.753" ry="1.038"/>
						
							<ellipse transform="matrix(0.9966 -0.0829 0.0829 0.9966 -12.6262 10.2758)" fill="#373636" cx="117.37" cy="157.112" rx="0.754" ry="0.829"/>
						<polygon fill="#222222" points="122.276,144.609 119.41,143.068 119.825,141.432 122.687,142.974 						"/>
						<polygon fill="#222222" points="119.401,156.122 116.537,154.581 116.948,152.946 119.814,154.487 						"/>
						<g>
							<path fill="#222222" d="M119.556,154.177c-0.012,0-0.025,0-0.037-0.004l-2.257-0.521c-0.091-0.021-0.157-0.141-0.146-0.266
								c0.011-0.125,0.095-0.211,0.187-0.188l2.254,0.521c0.091,0.022,0.158,0.142,0.147,0.268
								C119.694,154.092,119.632,154.17,119.556,154.177z"/>
							<path fill="#222222" d="M119.814,153.121c-0.011,0.002-0.025,0-0.037-0.001l-2.255-0.522
								c-0.092-0.021-0.158-0.14-0.147-0.268c0.011-0.124,0.093-0.21,0.187-0.187l2.254,0.52c0.092,0.023,0.16,0.142,0.147,0.268
								C119.954,153.039,119.891,153.116,119.814,153.121z"/>
							<path fill="#222222" d="M120.075,152.068c-0.015,0-0.027,0-0.04-0.004l-2.254-0.522c-0.091-0.021-0.16-0.14-0.148-0.265
								c0.011-0.127,0.095-0.213,0.188-0.189l2.255,0.523c0.091,0.021,0.158,0.139,0.146,0.266
								C120.213,151.984,120.15,152.062,120.075,152.068z"/>
							<path fill="#222222" d="M120.334,151.014c-0.013,0.001-0.026,0.001-0.04-0.004l-2.255-0.521
								c-0.093-0.021-0.157-0.139-0.148-0.265c0.011-0.127,0.095-0.211,0.188-0.188l2.255,0.521c0.091,0.02,0.157,0.14,0.146,0.265
								C120.472,150.929,120.41,151.006,120.334,151.014z"/>
							<path fill="#222222" d="M120.591,149.959c-0.012,0.001-0.025,0-0.037-0.003l-2.255-0.521c-0.093-0.02-0.157-0.14-0.146-0.265
								c0.009-0.126,0.093-0.211,0.185-0.188l2.254,0.521c0.093,0.021,0.16,0.141,0.149,0.266
								C120.731,149.875,120.669,149.953,120.591,149.959z"/>
							<path fill="#222222" d="M120.851,148.906c-0.013,0.001-0.025,0-0.038-0.003l-2.254-0.521
								c-0.093-0.021-0.16-0.139-0.148-0.265c0.011-0.125,0.095-0.211,0.188-0.188l2.253,0.521c0.093,0.022,0.159,0.139,0.148,0.266
								C120.991,148.822,120.928,148.899,120.851,148.906z"/>
							<path fill="#222222" d="M121.11,147.852c-0.013,0-0.025,0-0.038-0.002l-2.254-0.521c-0.093-0.021-0.16-0.14-0.148-0.266
								c0.011-0.125,0.092-0.211,0.186-0.189l2.255,0.521c0.093,0.023,0.16,0.141,0.148,0.266
								C121.25,147.767,121.186,147.845,121.11,147.852z"/>
							<path fill="#222222" d="M121.37,146.796c-0.013,0.003-0.025,0.001-0.038-0.001l-2.257-0.521
								c-0.091-0.022-0.157-0.141-0.146-0.266c0.011-0.126,0.093-0.212,0.187-0.189l2.254,0.521
								c0.093,0.022,0.159,0.141,0.148,0.267C121.507,146.713,121.446,146.791,121.37,146.796z"/>
							<path fill="#222222" d="M121.628,145.743c-0.012,0.001-0.025,0.001-0.039-0.003l-2.253-0.521
								c-0.093-0.021-0.159-0.14-0.148-0.265c0.011-0.126,0.093-0.211,0.186-0.188l2.254,0.52c0.091,0.022,0.16,0.142,0.149,0.267
								C121.766,145.659,121.705,145.736,121.628,145.743z"/>
							<path fill="#222222" d="M121.888,144.689c-0.013,0.001-0.025,0-0.039-0.004l-2.255-0.521
								c-0.091-0.021-0.158-0.141-0.147-0.266c0.009-0.126,0.095-0.211,0.186-0.188l2.255,0.521
								c0.093,0.021,0.157,0.141,0.146,0.266C122.028,144.606,121.963,144.683,121.888,144.689z"/>
						</g>
					</g>
					<path fill="#ED2224" d="M112.13,139.012c0,0,0.651-0.479-1.351-0.15c-2.625,0.431-9.923,5.308-9.923,5.308
						s0.7,2.256,1.69,2.256c0.988,0,9.172-5.433,11.018-5.124c1.844,0.31,3.857,0.625,5.574,1.209s12.869-0.693,12.869-0.693
						l-0.872-1.32c0,0-13.69-1.336-14.997-1.486C114.833,138.862,112.13,139.012,112.13,139.012z"/>
					<path fill="#373636" d="M123.256,140.004l-0.413,1.246c0,0,2.377,0.243,5.038,1.853c2.659,1.61,6.433,6.56,6.433,6.56
						l-2.555-9.232L123.256,140.004z"/>
					<polygon fill="#8F8F8E" points="177.078,158.3 166.667,125.426 168.521,124.939 179.175,157.811 					"/>
					<polygon fill="#282828" points="165.547,129.708 166.752,129.386 166.486,128.507 170.605,127.104 170.929,128.048 
						173.115,135.653 173.363,136.583 169.157,137.797 168.514,135.833 162.6,136.782 164.923,130.61 					"/>
					<g>
						<path fill="#A41D21" d="M166.229,138.657c-0.8,2.066-2.662,2.155-2.662,2.155h-21.134c0,0-1.443-3.45-1.078-5.349
							c0.211-1.126,0.59-2.157,1.625-3.336c0.259-0.298,0.542-0.596,0.883-0.908c0.625-0.57,1.391-1.179,2.356-1.858
							c3.664-2.563,11.456-1.802,13.908-1.592c2.474,0.232,3.457,0.49,4.412,1.404c1.202,1.004,1.689,2.392,1.689,2.392
							S167.529,135.192,166.229,138.657z"/>
					</g>
					<g>
						<path fill="#ED2224" d="M162.831,137.401c-0.577,1.491-1.918,1.555-1.918,1.555h-15.238c0,0-1.041-2.489-0.776-3.857
							c0.152-0.812,0.424-1.554,1.171-2.404c0.188-0.215,0.392-0.431,0.637-0.655c0.45-0.411,1.002-0.851,1.698-1.339
							c2.641-1.847,8.259-1.301,10.027-1.148c1.783,0.167,2.49,0.353,3.181,1.012c0.867,0.723,1.218,1.725,1.218,1.725
							S163.769,134.902,162.831,137.401z"/>
					</g>
					<path fill="#8F8F8E" d="M149.907,152.963l0.138-0.053c0.269-0.102,0.558-0.154,0.851-0.154h3.345
						c0.576,0,1.128,0.202,1.53,0.561l0.014,0.014c0.531,0.473,0.732,1.152,0.528,1.788l-0.212,0.656
						c-0.136,0.421-0.438,0.787-0.856,1.034l-1.635,0.96c-0.355,0.209-0.771,0.319-1.2,0.319h-0.291
						c-0.475,0-0.933-0.135-1.307-0.384l-1.188-0.797c-0.151-0.099-0.284-0.216-0.4-0.348l-0.271-0.309
						c-0.361-0.416-0.504-0.941-0.395-1.452l0.1-0.474C148.787,153.718,149.254,153.208,149.907,152.963z"/>
					<g>
						<polygon fill="#282828" points="168.302,123.045 165.274,124.216 165.973,125.369 167.573,126.778 168.664,126.387 
							168.88,124.351 						"/>
						<path fill="#282828" d="M167.083,124.933c-0.317-0.034-0.583-0.286-0.62-0.618c-0.163-1.426-0.619-2.947-0.949-3.168
							c-0.379-0.039-0.596-0.025-0.705-0.01l-0.021,0.033l-4.613,1.4c-0.367,0.124-0.765-0.074-0.888-0.44
							c-0.123-0.367,0.075-0.762,0.442-0.886l4.261-1.283c0.51-0.331,1.38-0.238,1.702-0.203c1.466,0.156,1.983,2.824,2.161,4.4
							c0.045,0.384-0.232,0.73-0.616,0.775C167.185,124.938,167.133,124.938,167.083,124.933z"/>
						<path fill="#8F8F8E" d="M161.776,124.645c-0.069-0.008-0.137-0.041-0.185-0.1l-0.269-0.337l0.097-0.162
							c0.027-0.046,0.701-1.173,1.527-1.724c0.762-0.507,2.244-0.636,2.559-0.657l0.584-0.291l-0.646-1.468
							c-0.061-0.137,0-0.297,0.14-0.358c0.137-0.06,0.296,0.001,0.357,0.139l0.856,1.942l-1.15,0.57l-0.055,0.003
							c-0.017,0.001-1.631,0.096-2.342,0.572c-0.557,0.371-1.059,1.077-1.265,1.392l0.032,0.037
							c0.093,0.117,0.074,0.288-0.042,0.383C161.915,124.633,161.844,124.652,161.776,124.645z"/>
						<circle fill="#282828" cx="165.144" cy="120.219" r="0.959"/>
						<path fill="#8F8F8E" d="M159.684,122.755c-0.311-0.032-0.588-0.242-0.689-0.558c-0.141-0.428,0.095-0.887,0.522-1.027
							l4.771-1.557c0.43-0.139,0.89,0.096,1.029,0.523c0.138,0.428-0.095,0.888-0.522,1.028l-4.773,1.555
							C159.907,122.756,159.794,122.767,159.684,122.755z"/>
						<circle fill="#282828" cx="159.78" cy="122.021" r="0.638"/>
					</g>
					<path fill="#373636" d="M143.095,140.188l-0.688-2.968c-0.007,0.001-0.015,0.002-0.021,0.003l0.021-0.008l-0.515-3.487
						c0,0-6.479,0.639-9.457,0.639c-4.168,0-18.047-1.18-19.657-1.432c-1.609-0.253-1.638-0.614-3.094-0.776
						c-1.457-0.163-1.41,3.144-1.41,3.144l-0.455,0.542c-0.006-0.002-0.014-0.004-0.021-0.008l-0.883,1.058
						c0,0,1.409,1.246,2.542,1.949c0.283,0.176,0.597,0.331,0.909,0.465c0.896,0.386,11.127,0.624,12.097,0.737
						c1.714,0.2,5.568,0.603,10.407,0.801c6.603,0.27,8.8,0.043,9.559-0.01C143.184,140.785,143.095,140.188,143.095,140.188z"/>
					<path fill="#ED2224" d="M162.682,145.543c0,0,1.8-4.066,9.188-6.409c7.388-2.343,13.165,0.029,13.165,0.029
						s-0.573,1.736-2.001,2.597c-1.427,0.861-3.993-0.921-9.04,0.662c-4.902,1.536-4.654,2.127-7.244,3.847
						c-0.604,0.402-2.093-0.029-2.891-0.285C163.195,145.771,162.682,145.543,162.682,145.543z"/>
					<path fill="#8F8F8E" d="M107.239,160.716h0.227h0.604h0.873h1.049h2.769h1.693h1.864h10.632l6.673,0.807l2.468,0.687h0.157
						h0.04c0,0-0.005,0.005-0.016,0h0.02h0.08h0.323h0.534h0.596h0.699h5.716h5.718h2.803c0,0,0.921-0.004,1.377-0.004h0.086h0.021
						c-0.104,0.007-0.018,0-0.036,0.002l0.044-0.003l0.168-0.014l0.171-0.013c0.052-0.007,0.07-0.023,0.106-0.031
						c0.069-0.027,0.126-0.021,0.205-0.062c0.076-0.036,0.154-0.07,0.231-0.1c0.298-0.171,0.555-0.416,0.757-0.711
						c0.046-0.079,0.096-0.152,0.142-0.23c0.034-0.083,0.069-0.168,0.109-0.25l0.028-0.064l0.032-0.088l0.063-0.175l0.127-0.347
						c0.334-0.925,0.663-1.828,0.983-2.708c0.638-1.76,1.242-3.423,1.788-4.965c0.136-0.386,0.27-0.762,0.4-1.132
						c0.065-0.183,0.131-0.364,0.194-0.545c0.031-0.082,0.13-0.391,0.126-0.453c0.011-0.052,0.022-0.109,0.026-0.183
						c0.005-0.068,0.017-0.136,0.014-0.203c0.005-0.135-0.009-0.268-0.025-0.397c-0.036-0.258-0.115-0.503-0.227-0.715
						c-0.217-0.427-0.543-0.727-0.888-0.873c-0.043-0.017-0.087-0.035-0.129-0.051c-0.038-0.016-0.113-0.039-0.166-0.056
						c-0.117-0.04-0.23-0.077-0.342-0.114c-0.222-0.073-1.506-0.44-1.506-0.44l-1.875-0.227l-1.474-0.005l0.441-1.699l1.46,0.052
						l1.852,0.319c0,0,1.279,0.38,1.502,0.461c0.109,0.041,0.224,0.082,0.338,0.124c0.063,0.024,0.107,0.039,0.185,0.071
						c0.072,0.032,0.148,0.064,0.224,0.097c0.594,0.284,1.167,0.815,1.535,1.563c0.373,0.747,0.532,1.683,0.331,2.664l-0.043,0.194
						l-0.04,0.139l-0.042,0.137L161,151.279l-0.023,0.066c-0.063,0.18-0.126,0.365-0.189,0.549c-0.13,0.37-0.263,0.747-0.396,1.134
						c-0.542,1.543-1.115,3.223-1.725,4.998c-0.302,0.887-0.612,1.798-0.932,2.731l-0.117,0.35l-0.062,0.176l-0.029,0.088
						l-0.043,0.105l-0.184,0.431c-0.073,0.137-0.156,0.267-0.235,0.401c-0.336,0.513-0.777,0.942-1.286,1.234l-0.398,0.185
						c-0.126,0.064-0.3,0.097-0.45,0.139c-0.074,0.017-0.162,0.04-0.226,0.048l-0.169,0.018l-0.171,0.017l-0.042,0.004
						c-0.03,0.001,0.042-0.002-0.077,0.003h-0.021h-0.086c-0.456,0-1.377,0-1.377,0h-2.803h-5.718h-5.716h-0.712h-0.806h-0.832
						h-0.338h-0.084h-0.02c-0.023-0.009-0.059,0-0.059,0h-0.041h-0.166l-2.812,0.687l-5.8,0.768h-11.947h-1.972
						c0,0-1.824,0.017-1.77,0c0.056-0.019-2.86,0-2.86,0h-1.032h-0.667h-0.35h-0.102L107.239,160.716z"/>
					<circle fill="#373636" cx="178.169" cy="158.038" r="0.748"/>
					<polygon fill="#373636" points="149.149,147.761 156.231,147.761 154.727,152.244 150.501,152.244 					"/>
					<path fill="#8F8F8E" d="M156.229,147.762h-7.076v-1.736c0-1.087,0.88-1.968,1.968-1.968h3.142c1.087,0,1.967,0.881,1.967,1.968
						V147.762z"/>
					<g>
						<path fill="#373636" d="M147.24,143.748c0,0-0.122,5.457-1.159,6.355c-1.035,0.897-1.587,0.73-1.587,0.73h-6.355
							c0,0-1.175-0.177-1.658-0.661c-0.484-0.484-1.244-2.486-1.727-3.522c-0.485-1.037-0.724-2.417-0.724-2.417
							s-0.105-0.312,0.413-0.656c0.518-0.346,2.659-0.173,2.659-0.173s3.662,0.173,4.248,0.207c0.586,0.034,4.939,0.173,5.286,0.034
							c0.345-0.137,0.604-0.103,0.604-0.103V143.748z"/>
						<path fill="#8F8F8E" d="M146.168,144.379c0,0-0.1,4.501-0.955,5.242c-0.856,0.741-1.311,0.602-1.311,0.602h-5.242
							c0,0-0.97-0.146-1.368-0.544c-0.399-0.399-1.026-2.052-1.425-2.907c-0.399-0.854-0.596-1.994-0.596-1.994
							s-0.088-0.257,0.339-0.542c0.428-0.284,2.194-0.143,2.194-0.143s3.02,0.143,3.504,0.171c0.485,0.028,4.074,0.144,4.359,0.028
							c0.285-0.113,0.499-0.084,0.499-0.084V144.379z"/>
					</g>
				</g>
			</g>
		</g>
	</g>
</g>
</svg>
