<?xml version="1.0" encoding="utf-8"?>
<!-- Generator: Adobe Illustrator 24.1.3, SVG Export Plug-In . SVG Version: 6.00 Build 0)  -->
<svg version="1.1" id="Layer_1" xmlns="http://www.w3.org/2000/svg" xmlns:xlink="http://www.w3.org/1999/xlink" x="0px" y="0px"
	 viewBox="0 0 30 30" enable-background="new 0 0 30 30" xml:space="preserve">
<g>
	<g>
		<path fill="#000000" d="M15.099,29.336c-7.882,0-14.295-6.413-14.295-14.295c0-7.882,6.413-14.294,14.295-14.294
			c7.883,0,14.296,6.413,14.296,14.294C29.395,22.923,22.982,29.336,15.099,29.336z M15.099,6.707c-4.595,0-8.333,3.739-8.333,8.334
			c0,4.595,3.737,8.333,8.333,8.333c4.596,0,8.334-3.737,8.334-8.333C23.432,10.446,19.695,6.707,15.099,6.707z"/>
	</g>
</g>
<path fill="#000000" d="M14.968,5.178c-5.386,0-9.752,4.364-9.752,9.75c0,5.384,4.367,9.75,9.752,9.75c5.384,0,9.75-4.366,9.75-9.75
	C24.719,9.542,20.352,5.178,14.968,5.178z M22.163,14.928c0,0.939-0.186,1.836-0.513,2.66l-3.661-2.558l3.72-2.599
	C21.998,13.211,22.163,14.049,22.163,14.928z M13.727,22.009c-1.373-0.239-2.612-0.865-3.599-1.765l3.599-2.513V22.009z
	 M9.445,19.54c-0.24-0.287-0.456-0.599-0.649-0.923l3.677-2.568c0.158,0.349,0.389,0.656,0.671,0.91L9.445,19.54z M7.771,14.928
	c0-0.941,0.186-1.837,0.515-2.66l3.953,2.761c0,0,0,0.002,0,0.003l-3.892,2.72C7.976,16.883,7.771,15.929,7.771,14.928z
	 M14.968,7.73c0.191,0,0.378,0.014,0.567,0.029v4.489c-0.185-0.039-0.372-0.06-0.567-0.06c-0.193,0-0.38,0.02-0.562,0.058V7.758
	C14.59,7.745,14.778,7.73,14.968,7.73z M17.577,14.137c-0.113-0.371-0.301-0.708-0.547-0.994l3.664-2.56
	c0.228,0.299,0.437,0.613,0.617,0.946L17.577,14.137z M13.438,12.128l-3.436-2.4c0.939-0.898,2.119-1.545,3.436-1.83V12.128z
	 M13.012,13.012c-0.264,0.269-0.466,0.595-0.601,0.957l-3.703-2.585c0.188-0.329,0.4-0.641,0.633-0.935L13.012,13.012z
	 M19.932,20.127c-0.867,0.83-1.943,1.44-3.141,1.754v-3.948L19.932,20.127z M16.922,16.843c0.264-0.269,0.466-0.597,0.603-0.956
	l3.701,2.585c-0.188,0.328-0.399,0.641-0.633,0.935L16.922,16.843z M20.061,9.844l-3.559,2.485V7.9
	C17.876,8.198,19.103,8.885,20.061,9.844z M14.695,22.11v-4.471c0.091,0.01,0.18,0.028,0.273,0.028c0.301,0,0.585-0.061,0.855-0.15
	v4.552c-0.282,0.034-0.565,0.057-0.855,0.057C14.876,22.125,14.785,22.113,14.695,22.11z"/>
</svg>
