<?xml version="1.0" encoding="utf-8"?>
<!-- Generator: Adobe Illustrator 16.0.0, SVG Export Plug-In . SVG Version: 6.00 Build 0)  -->
<!DOCTYPE svg PUBLIC "-//W3C//DTD SVG 1.1//EN" "http://www.w3.org/Graphics/SVG/1.1/DTD/svg11.dtd">
<svg version="1.1" id="Layer_1" xmlns="http://www.w3.org/2000/svg" xmlns:xlink="http://www.w3.org/1999/xlink" x="0px" y="0px"
	 width="300px" height="300px" viewBox="0 0 300 300" enable-background="new 0 0 300 300" xml:space="preserve">
<g>
	<g id="XMLID_1_">
		<g>
			<path fill="#AFB0B0" d="M94.789,132.743h-1.1c0.103-0.448,0.156-0.914,0.156-1.393c0-3.498-2.836-6.335-6.335-6.335
				c-0.625,0-1.228,0.092-1.798,0.26c-1.047-2.058-3.182-3.468-5.648-3.468c-2.597,0-4.828,1.563-5.808,3.8
				c-0.812-0.379-1.718-0.592-2.673-0.592c-3.499,0-6.336,2.837-6.336,6.335c0,0.479,0.055,0.944,0.155,1.393h-0.93
				c-1.358,0-2.472,1.111-2.472,2.472s1.113,2.472,2.472,2.472h30.315c1.359,0,2.472-1.111,2.472-2.472
				S96.148,132.743,94.789,132.743z"/>
		</g>
	</g>
	<g id="XMLID_323_">
		<g>
			<path fill="#AFB0B0" d="M215.844,150.874h-1.515c0.141-0.617,0.215-1.258,0.215-1.918c0-4.82-3.907-8.729-8.729-8.729
				c-0.861,0-1.691,0.126-2.477,0.357c-1.442-2.834-4.385-4.777-7.783-4.777c-3.578,0-6.653,2.153-8.002,5.235
				c-1.118-0.522-2.366-0.815-3.683-0.815c-4.821,0-8.73,3.908-8.73,8.729c0,0.66,0.076,1.301,0.214,1.918h-1.281
				c-1.872,0-3.405,1.533-3.405,3.406s1.533,3.406,3.405,3.406h41.771c1.873,0,3.405-1.533,3.405-3.406
				S217.717,150.874,215.844,150.874z"/>
		</g>
	</g>
	<g id="XMLID_147_">
		<g>
			<g id="XMLID_47_">
				<path fill="#B42026" d="M137.703,65.636c-0.936-0.043-1.793-0.516-2.457-1.156c-0.748-0.722-1.248-1.655-1.626-2.614
					c-0.228-0.573-0.418-1.161-0.608-1.749c-0.084-0.258-0.43-0.25-0.518,0c-0.29,0.839-0.646,1.652-1.071,2.433
					c-0.35,0.648-0.74,1.297-1.314,1.774c-0.023,0.02-0.048,0.04-0.073,0.059c-0.628,0.39-1.369,0.583-2.116,0.544
					c-0.297-0.015-0.371,0.473-0.071,0.527c2.044,0.368,3.758,1.966,4.379,3.934c0.177,0.557,0.263,1.133,0.248,1.718
					c-0.008,0.319,0.428,0.342,0.527,0.071c0.66-1.79,1.426-3.784,3.252-4.675c0.452-0.221,0.945-0.338,1.449-0.33
					C138.049,66.178,138.047,65.651,137.703,65.636z"/>
			</g>
			<g id="XMLID_46_">
				<path fill="#B42026" d="M147.418,49.868c-0.513-0.024-0.982-0.283-1.347-0.634c-0.409-0.396-0.684-0.907-0.891-1.432
					c-0.124-0.314-0.23-0.636-0.333-0.958c-0.046-0.142-0.235-0.137-0.284,0c-0.159,0.46-0.355,0.906-0.585,1.333
					c-0.195,0.355-0.407,0.711-0.721,0.972c-0.015,0.01-0.028,0.021-0.041,0.031c-0.346,0.214-0.751,0.32-1.16,0.299
					c-0.162-0.008-0.203,0.259-0.04,0.289c1.12,0.201,2.06,1.077,2.4,2.155c0.098,0.305,0.144,0.621,0.136,0.941
					c-0.005,0.174,0.233,0.187,0.289,0.039c0.361-0.981,0.781-2.074,1.782-2.562c0.247-0.121,0.519-0.185,0.794-0.181
					C147.607,50.166,147.605,49.877,147.418,49.868z"/>
			</g>
			<g id="XMLID_45_">
				<path fill="#B42026" d="M168.165,42.031c-0.748-0.034-1.431-0.412-1.962-0.923c-0.596-0.576-0.996-1.322-1.299-2.086
					c-0.18-0.458-0.333-0.927-0.483-1.396c-0.067-0.206-0.345-0.2-0.415,0c-0.232,0.67-0.518,1.32-0.854,1.943
					c-0.28,0.517-0.594,1.036-1.05,1.416c-0.021,0.016-0.039,0.031-0.06,0.047c-0.501,0.311-1.093,0.465-1.69,0.435
					c-0.236-0.012-0.296,0.378-0.056,0.42c1.631,0.292,2.999,1.57,3.496,3.14c0.142,0.445,0.209,0.904,0.198,1.371
					c-0.006,0.254,0.341,0.274,0.42,0.057c0.527-1.428,1.138-3.02,2.597-3.732c0.361-0.176,0.756-0.27,1.157-0.264
					C168.441,42.464,168.439,42.043,168.165,42.031z"/>
			</g>
			<g id="XMLID_44_">
				<path fill="#B42026" d="M189.569,50.169c-0.655-0.03-1.254-0.361-1.719-0.809c-0.524-0.505-0.874-1.159-1.14-1.83
					c-0.159-0.402-0.293-0.813-0.426-1.224c-0.059-0.181-0.3-0.176-0.361,0c-0.204,0.587-0.455,1.156-0.75,1.703
					c-0.245,0.454-0.52,0.909-0.921,1.242c-0.018,0.014-0.033,0.028-0.052,0.042c-0.439,0.273-0.958,0.408-1.481,0.381
					c-0.209-0.011-0.261,0.331-0.051,0.369c1.432,0.257,2.631,1.377,3.066,2.754c0.125,0.391,0.183,0.793,0.173,1.203
					c-0.005,0.223,0.299,0.239,0.369,0.05c0.463-1.253,0.998-2.649,2.278-3.273c0.315-0.154,0.663-0.236,1.014-0.231
					C189.813,50.549,189.81,50.181,189.569,50.169z"/>
			</g>
			<g id="XMLID_43_">
				<path fill="#B42026" d="M210.106,59.11c-0.808-0.038-1.547-0.446-2.121-0.999c-0.646-0.623-1.077-1.428-1.405-2.256
					c-0.196-0.495-0.36-1.002-0.524-1.509c-0.071-0.224-0.371-0.217-0.445,0c-0.251,0.724-0.561,1.426-0.925,2.1
					c-0.304,0.56-0.642,1.12-1.135,1.532c-0.022,0.018-0.043,0.034-0.065,0.05c-0.541,0.337-1.181,0.503-1.827,0.471
					c-0.257-0.013-0.32,0.409-0.061,0.455c1.764,0.316,3.244,1.698,3.78,3.396c0.153,0.481,0.227,0.979,0.215,1.483
					c-0.008,0.275,0.367,0.295,0.454,0.062c0.57-1.545,1.23-3.267,2.809-4.037c0.389-0.189,0.816-0.291,1.251-0.284
					C210.406,59.578,210.403,59.124,210.106,59.11z"/>
			</g>
		</g>
	</g>
	<g id="XMLID_146_">
		<g id="XMLID_286_">
			<path fill="#ED1F24" d="M148.623,65.697c0,0,13.716-17.333,28.668-8.091c14.953,9.241,27.107,13.313,32.33,10.465
				c0,0-11.736,19.065-26.5,17.953c-14.765-1.113-31.888-2.958-34.498,2.541V65.697z"/>
		</g>
		<g id="XMLID_275_">
			<path fill="#191B1C" d="M148.662,116.367h-0.08c-0.729,0-1.324-0.596-1.324-1.324V62.087c0-0.728,0.596-1.324,1.324-1.324h0.08
				c0.729,0,1.324,0.596,1.324,1.324v52.956C149.986,115.771,149.391,116.367,148.662,116.367z"/>
		</g>
	</g>
	<g id="XMLID_72_">
		<g id="XMLID_279_">
			<g>
				<path fill="#250D0D" d="M154.075,266.855c0,0,40.155-105.224,69.196-95.911s63.045,95.911,63.045,95.911H154.075z"/>
			</g>
		</g>
		<g id="XMLID_277_">
			<g>
				<path fill="#250D0D" d="M12.275,266.855c0,0,42.018-108.91,72.405-99.272c30.387,9.639,65.969,99.272,65.969,99.272H12.275z"/>
			</g>
		</g>
		<g id="XMLID_278_">
			<g>
				<linearGradient id="SVGID_1_" gradientUnits="userSpaceOnUse" x1="65.1011" y1="189.5068" x2="229.416" y2="189.5068">
					<stop  offset="0" style="stop-color:#ED1F24"/>
					<stop  offset="1" style="stop-color:#260D0D"/>
				</linearGradient>
				<path fill="url(#SVGID_1_)" d="M65.101,266.855c0,0,50.901-166.785,86.983-153.998c36.085,12.789,77.332,153.998,77.332,153.998
					H65.101z"/>
			</g>
		</g>
	</g>
	<polygon fill="#FFFFFF" points="177.931,66.847 172.319,73.001 172.319,68.846 170.061,68.846 170.061,78.331 170.061,78.969 
		172.319,76.393 173.439,75.115 174.957,73.384 176.383,71.761 178.938,68.846 180.688,66.847 	"/>
</g>
</svg>
