<?xml version="1.0" encoding="utf-8"?>
<!-- Generator: Adobe Illustrator 16.0.0, SVG Export Plug-In . SVG Version: 6.00 Build 0)  -->
<!DOCTYPE svg PUBLIC "-//W3C//DTD SVG 1.1//EN" "http://www.w3.org/Graphics/SVG/1.1/DTD/svg11.dtd">
<svg version="1.1" id="Layer_1" xmlns="http://www.w3.org/2000/svg" xmlns:xlink="http://www.w3.org/1999/xlink" x="0px" y="0px"
	 width="300px" height="300px" viewBox="0 0 300 300" enable-background="new 0 0 300 300" xml:space="preserve">
<g>
	<polygon fill="#453431" points="276.627,90.373 17.823,90.373 33.816,227.773 262.96,227.773 	"/>
	<rect x="22.2" y="212.312" fill="#CDCCCC" width="251.721" height="12.758"/>
	<rect x="78.043" y="209.417" fill="#453431" width="47.479" height="13.743"/>
	<polygon fill="#9E9E9E" points="290,86 13.638,86 20.045,139.346 277.559,139.346 	"/>
	<polygon fill="#4B7775" points="267.553,140.671 125.439,140.671 125.439,208.93 260.542,208.93 	"/>
	<polygon fill="#719B98" points="264.701,143.002 127.439,143.002 127.439,208.84 258.479,208.84 	"/>
	<polygon opacity="0.6" fill="#BBD9D7" points="176.875,143.002 127.229,208.84 199.744,208.84 249.39,143.002 	"/>
	<polygon fill="#4B7775" points="78.461,140.671 25.486,140.671 34.856,208.93 78.461,208.93 	"/>
	<polygon fill="#96C1BF" points="76.46,143.338 27.486,143.338 36.148,208.84 76.46,208.84 	"/>
	<polygon fill="#719B98" points="27.486,143.338 28.199,147.395 46.475,151.001 46.475,192.84 33.832,192.84 36.148,208.84 
		76.46,208.84 76.46,143.338 	"/>
	<polygon opacity="0.6" fill="#BBD9D7" points="76.887,143.338 53.222,143.338 32.161,167.518 36.574,208.84 54.566,208.84 
		76.887,170.327 	"/>
	<rect x="81.295" y="137.526" fill="#CDCCCC" width="40.98" height="75.633"/>
	<rect x="83.795" y="139.856" fill="#4B7775" width="35.979" height="80.786"/>
	<rect x="85.129" y="141.287" fill="#719B98" width="33.313" height="77.356"/>
	<polygon fill="#96C1BF" points="95.394,218.644 118.025,178.112 118.025,141.023 108.178,141.023 85.544,164.657 85.544,218.644 	
		"/>
	<rect x="13.584" y="223.07" fill="#9E9E9E" width="267.608" height="4.998"/>
	<polygon fill="#ED1F24" points="263.819,93.871 35.148,93.871 40.479,132.906 258.154,132.906 	"/>
	<polygon fill="#D71F26" points="35.148,93.871 40.479,132.906 43.958,132.906 39.483,96.871 258.486,96.871 253.729,132.906 
		258.154,132.906 263.819,93.871 	"/>
	<rect x="23.15" y="138.657" fill="#9E9E9E" width="56.643" height="2.529"/>
	<rect x="122.275" y="210.823" fill="#9E9E9E" width="145.131" height="2.531"/>
	<rect x="29.148" y="210.823" fill="#9E9E9E" width="52.146" height="2.531"/>
	<polygon fill="#CDCCCC" points="290,86 13.638,86 17.487,89.315 286.082,89.373 	"/>
	<polygon fill="#CDCCCC" points="258.154,133.139 40.178,133.139 43.534,131.148 254.737,131.113 	"/>
	<rect x="84.791" y="152.519" fill="#4B7775" width="34.233" height="4.497"/>
	<rect x="82.541" y="152.519" fill="#CDCCCC" width="38.732" height="2.748"/>
	<polygon fill="#9E9E9E" points="269.193,140.339 266.954,140.339 260.136,209.103 262.375,209.103 	"/>
	<rect x="124.104" y="138.657" fill="#9E9E9E" width="149.707" height="2.529"/>
	<g>
		<path fill="#FFFFFF" d="M118.436,119.113h-4.643v-10.606h4.128c0.718,0,1.338,0.085,1.857,0.258
			c0.522,0.173,0.915,0.405,1.178,0.698c0.474,0.547,0.713,1.163,0.713,1.85c0,0.831-0.268,1.448-0.806,1.852
			c-0.181,0.143-0.307,0.23-0.378,0.267c-0.07,0.036-0.196,0.095-0.38,0.174c0.656,0.144,1.182,0.437,1.569,0.887
			c0.389,0.451,0.585,1.01,0.585,1.678c0,0.738-0.253,1.392-0.758,1.956C120.914,118.788,119.893,119.113,118.436,119.113
			 M116.161,112.8h1.122c0.656,0,1.146-0.069,1.465-0.211c0.32-0.142,0.479-0.445,0.479-0.917c0-0.471-0.146-0.782-0.441-0.933
			c-0.293-0.152-0.789-0.228-1.486-0.228h-1.138V112.8z M116.161,117.112h1.624c0.676,0,1.186-0.084,1.523-0.25
			c0.339-0.168,0.51-0.497,0.51-0.985c0-0.492-0.181-0.815-0.541-0.971c-0.357-0.16-0.934-0.237-1.722-0.237h-1.395V117.112z"/>
		<rect x="123.795" y="108.508" fill="#FFFFFF" width="2.366" height="10.607"/>
		<polygon fill="#FFFFFF" points="147.102,108.508 147.102,110.615 141.82,110.615 141.82,112.803 146.57,112.803 146.57,114.822 
			141.82,114.822 141.82,117.021 147.268,117.021 147.268,119.113 139.453,119.113 139.453,108.508 		"/>
		<polygon fill="#FFFFFF" points="131.045,119.113 131.045,117.104 129.25,119.113 		"/>
		<path fill="#FFFFFF" d="M134.107,113.675l-1.598,1.79l2.708,3.648h2.764c-0.485-0.678-1.22-1.705-2.2-3.088
			C135.052,115.002,134.496,114.22,134.107,113.675"/>
		<polygon fill="#FFFFFF" points="136.926,106.41 131.045,112.862 131.045,108.508 128.678,108.508 128.678,118.448 
			128.678,119.113 131.045,116.416 132.222,115.075 133.812,113.263 135.305,111.56 137.983,108.508 139.814,106.41 		"/>
		<path fill="#FFFFFF" d="M155.402,118.92h-4.595v-10.495h4.084c0.71,0,1.323,0.083,1.84,0.256c0.514,0.167,0.898,0.397,1.149,0.689
			c0.479,0.538,0.719,1.153,0.719,1.832c0,0.822-0.261,1.432-0.781,1.832c-0.188,0.138-0.32,0.228-0.391,0.262
			c-0.069,0.036-0.193,0.093-0.377,0.173c0.652,0.141,1.172,0.435,1.557,0.876c0.386,0.445,0.577,1.001,0.577,1.662
			c0,0.731-0.251,1.375-0.75,1.934C157.843,118.594,156.833,118.92,155.402,118.92 M152.578,112.778h2.253
			c1.28,0,1.923-0.434,1.923-1.305c0-0.502-0.157-0.861-0.465-1.083c-0.313-0.221-0.792-0.329-1.443-0.329h-2.268V112.778z
			 M152.578,117.284h2.778c0.65,0,1.148-0.104,1.494-0.309c0.343-0.205,0.519-0.593,0.519-1.164c0-0.93-0.747-1.395-2.238-1.395
			h-2.553V117.284z"/>
		<path fill="#FFFFFF" d="M162.775,116.533l-1.05,2.387h-1.895l4.625-10.495h1.893l4.627,10.495h-1.893l-1.055-2.387H162.775z
			 M167.31,114.896l-1.907-4.326l-1.908,4.326H167.31z"/>
		<polygon fill="#FFFFFF" points="177.792,110.045 171.876,110.045 171.876,108.425 180.254,108.425 180.254,109.804 
			174.158,117.24 174.158,117.284 180.341,117.284 180.341,118.92 171.68,118.92 171.68,117.554 177.792,110.09 		"/>
		<path fill="#FFFFFF" d="M184.055,116.533L183,118.92h-1.892l4.624-10.495h1.893l4.624,10.495h-1.891l-1.051-2.387H184.055z
			 M188.588,114.896l-1.908-4.326l-1.906,4.326H188.588z"/>
		<path fill="#FFFFFF" d="M195.195,116.533l-1.052,2.387h-1.892l4.623-10.495h1.895l4.623,10.495h-1.891l-1.051-2.387H195.195z
			 M199.729,114.896l-1.904-4.326l-1.91,4.326H199.729z"/>
		<path fill="#FFFFFF" d="M213.229,111.833c0,1.73-0.755,2.822-2.266,3.274l2.747,3.813h-2.251l-2.511-3.527h-2.327v3.527h-1.771
			v-10.495h3.904c1.601,0,2.747,0.268,3.437,0.809C212.885,109.774,213.229,110.641,213.229,111.833 M210.871,113.319
			c0.362-0.311,0.539-0.807,0.539-1.491c0-0.688-0.183-1.158-0.556-1.413c-0.368-0.256-1.029-0.384-1.979-0.384h-2.254v3.752h2.208
			C209.83,113.783,210.512,113.629,210.871,113.319"/>
		<polygon fill="#FFFFFF" points="215.139,107.33 214.137,107.33 214.137,106.738 216.866,106.738 216.866,107.33 215.862,107.33 
			215.862,109.871 215.139,109.871 		"/>
		<polygon fill="#FFFFFF" points="220.105,109.871 220.099,107.991 219.178,109.539 218.853,109.539 217.933,108.033 
			217.933,109.871 217.256,109.871 217.256,106.738 217.854,106.738 219.025,108.685 220.181,106.738 220.774,106.738 
			220.785,109.871 		"/>
	</g>
	<polygon fill="#FFFFFF" points="94.347,96.757 80.209,112.262 80.209,101.792 74.519,101.792 74.519,125.688 74.519,127.294 
		80.209,120.806 83.031,117.586 86.854,113.227 90.445,109.138 96.883,101.792 101.291,96.757 	"/>
</g>
</svg>
