<svg xmlns="http://www.w3.org/2000/svg" width="20" height="20" viewBox="0 0 20 20">
    <path fill="#FFF" fill-rule="nonzero" d="M19.959 12.26v7.719h-4.278v-7.203c0-1.809-.619-3.044-2.167-3.044-1.182 0-1.886.832-2.195 1.637-.113.288-.142.689-.142 1.092v7.518h-4.28s.058-12.199 0-13.462h4.28v1.908l-.028.043h.028v-.043c.568-.916 1.583-2.225 3.856-2.225 2.815 0 4.926 1.924 4.926 6.06zM2.421.026C.958.027 0 1.032 0 2.353 0 3.645.93 4.68 2.365 4.68h.028c1.493 0 2.42-1.035 2.42-2.327C4.787 1.032 3.887.027 2.422.027zM.254 19.98h4.278V6.517H.254v13.462z"/>
</svg>
