<svg xmlns="http://www.w3.org/2000/svg" width="22" height="22" viewBox="0 0 22 22">
    <path fill="none" fill-rule="evenodd" stroke="#FFF" stroke-linecap="round" stroke-linejoin="round" d="M8.334 6.795a2.084 2.084 0 0 0 0-2.955L6.106 1.614a2.087 2.087 0 0 0-2.957 0L1.921 2.84C.875 3.886.693 5.567 1.512 6.795c3.547 5.362 8.277 10.089 13.69 13.68 1.227.817 2.91.68 3.956-.41l1.228-1.227a2.084 2.084 0 0 0 0-2.954l-2.228-2.227a2.087 2.087 0 0 0-2.957 0l-.727.727c-2.456-2-4.821-4.363-6.822-6.817l.682-.772z"/>
</svg>
