<?xml version="1.0" encoding="UTF-8"?>
<svg width="96px" height="103px" viewBox="0 0 96 103" version="1.1" xmlns="http://www.w3.org/2000/svg" xmlns:xlink="http://www.w3.org/1999/xlink">
    <!-- Generator: sketchtool 55.1 (78136) - https://sketchapp.com -->
    <title>E7437307-A0F8-4880-9635-676CBA70C0A4</title>
    <desc>Created with sketchtool.</desc>
    <g id="Page-1" stroke="none" stroke-width="1" fill="none" fill-rule="evenodd">
        <g id="Bike-Bazaar-new-header" transform="translate(-995.000000, -2375.000000)">
            <g id="Group-7" transform="translate(823.500000, 2337.000000)">
                <g id="Group-6" transform="translate(131.000000, 0.000000)">
                    <g id="doc-trans-icon" transform="translate(42.000000, 39.000000)">
                        <polygon id="Path" stroke="#EB2C2D" stroke-width="2" stroke-linejoin="round" points="78 17.7391304 60.2608696 0 29.2173913 0 29.2173913 66.5217391 78 66.5217391"></polygon>
                        <polyline id="Path" stroke="#EB2C2D" stroke-width="2" stroke-linecap="round" stroke-linejoin="round" points="60.2608696 0 60.2608696 17.7391304 78 17.7391304"></polyline>
                        <rect id="Rectangle" stroke="#231F20" stroke-width="2" stroke-linejoin="round" x="0" y="69.9565217" width="17.7391304" height="31.0434783"></rect>
                        <path d="M17.7391304,96.5652174 L93.1304348,96.5652174 C93.1304348,89.9130435 77.6086957,83.2608696 59.8695652,83.2608696 L28.826087,83.2608696" id="Path" stroke="#231F20" stroke-width="2" stroke-linecap="round" stroke-linejoin="round"></path>
                        <path d="M17.7391304,74.3913043 L33.2608696,74.3913043 C43.6826087,74.3913043 48.7826087,81.0434783 51,83.2608696" id="Path" stroke="#231F20" stroke-width="2" stroke-linejoin="round"></path>
                        <path d="M8.86956522,89.9130435 C7.53913043,89.9130435 6.65217391,90.8 6.65217391,92.1304348 C6.65217391,93.4608696 7.53913043,94.3478261 8.86956522,94.3478261 C10.2,94.3478261 11.0869565,93.4608696 11.0869565,92.1304348 C11.0869565,90.8 10.2,89.9130435 8.86956522,89.9130435 L8.86956522,89.9130435 Z" id="Path" fill="#231F20" fill-rule="nonzero"></path>
                    </g>
                </g>
            </g>
        </g>
    </g>
</svg>