<svg xmlns="http://www.w3.org/2000/svg" width="25" height="20" viewBox="0 0 25 20">
    <path fill="#FFF" fill-rule="nonzero" d="M24.578 2.38c-.904.4-1.875.673-2.895.794A5.063 5.063 0 0 0 23.9.386c-.976.578-2.055.997-3.203 1.224a5.042 5.042 0 0 0-8.592 4.597A14.315 14.315 0 0 1 1.712.94a5.004 5.004 0 0 0-.681 2.534c0 1.75.89 3.293 2.242 4.196a5.042 5.042 0 0 1-2.284-.632V7.1a5.047 5.047 0 0 0 4.044 4.943 5.107 5.107 0 0 1-1.329.177 4.84 4.84 0 0 1-.949-.094 5.045 5.045 0 0 0 4.71 3.502 10.116 10.116 0 0 1-6.262 2.155c-.407 0-.808-.025-1.203-.07a14.252 14.252 0 0 0 7.728 2.27c9.275 0 14.345-7.683 14.345-14.346l-.017-.652a10.068 10.068 0 0 0 2.522-2.605z"/>
</svg>
