<?xml version="1.0" encoding="UTF-8"?>
<svg width="88px" height="83px" viewBox="0 0 88 83" version="1.1" xmlns="http://www.w3.org/2000/svg" xmlns:xlink="http://www.w3.org/1999/xlink">
    <!-- Generator: Sketch 56 (81588) - https://sketch.com -->
    <title>noun_Call Center_1825075</title>
    <desc>Created with Sketch.</desc>
    <g id="Page-1" stroke="none" stroke-width="1" fill="none" fill-rule="evenodd">
        <g id="BB-Franchise-Owner-opt2" transform="translate(-1042.000000, -1780.000000)" fill-rule="nonzero">
            <g id="Group-6" transform="translate(274.000000, 1162.000000)">
                <g id="Group-2" transform="translate(300.000000, 579.000000)">
                    <g id="Group-5" transform="translate(462.000000, 80.000000) scale(-1, 1) translate(-462.000000, -80.000000) translate(332.000000, 0.000000)">
                        <g id="noun_Call-Center_1825075" transform="translate(80.000000, 80.500000) scale(-1, 1) translate(-80.000000, -80.500000) translate(36.000000, 39.000000)">
                            <path d="M61.9318182,46.7974194 C62.5890909,47.5020968 62.5563636,48.596129 61.8636364,49.2651613 C61.1763636,49.9287097 60.0690909,49.9122581 59.3954545,49.2267742 C59.0954545,48.9251613 56.3272727,46.345 51.6990909,49.4680645 C51.4018182,49.6709677 51.0609091,49.7669355 50.7254545,49.7669355 C50.1609091,49.7669355 49.6072727,49.4927419 49.2690909,48.9854839 C48.7290909,48.1793548 48.9445455,47.0853226 49.7463636,46.5396774 C55.5336364,42.6324194 60.2436364,44.9932258 61.9318182,46.7974194 Z" id="Path" fill="#000000"></path>
                            <path d="M38.2590909,46.5424194 C39.0636364,47.0853226 39.2763636,48.1820968 38.7390909,48.9882258 C38.3981818,49.4982258 37.8472727,49.7696774 37.2827273,49.7696774 C36.9472727,49.7696774 36.6063636,49.6737097 36.3063636,49.4708065 C31.6890909,46.3587097 28.9290909,48.9169355 28.6154545,49.2295161 C27.9527273,49.9204839 26.8536364,49.9506452 26.15,49.2898387 C25.4463636,48.6235484 25.4136364,47.5075806 26.0763636,46.7974194 C27.7536364,44.9932258 32.4718182,42.6324194 38.2590909,46.5424194 Z" id="Path" fill="#000000"></path>
                            <path d="M81.6281818,28.9062903 C79.1818182,12.7398387 63.5572727,0.623225806 44,0.623225806 C24.4454545,0.623225806 8.82090909,12.7398387 6.37727273,28.9062903 C3.12909091,30.2196774 -0.440909091,33.7348387 0.524545455,43.0108065 C1.58545455,53.2025806 6.56818182,54.9985484 10.2090909,55.2754839 C14.4663636,58.6179032 25.2854545,66.1664516 37.6318182,67.638871 C38.0272727,68.913871 39.1672727,69.8625806 40.5609091,69.8625806 L45.3063636,69.8625806 C47.0218182,69.8625806 48.4181818,68.4559677 48.4181818,66.7312903 C48.4181818,65.0066129 47.0218182,63.6027419 45.3063636,63.6027419 L40.5609091,63.6027419 C39.4945455,63.6027419 38.6,64.1758065 38.0409091,64.9983871 C26.6054545,63.6712903 16.2554545,56.6025806 12.0472727,53.3533871 C11.5481818,49.2953226 10.4763636,39.7780645 10.5636364,33.3317742 C10.5636364,17.5601613 25.2527273,5.20774194 44.0027273,5.20774194 C62.7554545,5.20774194 77.4445455,17.5601613 77.4445455,33.3317742 C77.5563636,41.7083871 75.7072727,55.3166129 75.7072727,55.3166129 C79.1409091,55.3879032 86.1963636,55.3687097 87.4781818,43.0135484 C88.4409091,33.7348387 84.8763636,30.2196774 81.6281818,28.9062903 Z" id="Path" fill="#FF0000"></path>
                            <path d="M74.6790909,36.8469355 C74.6790909,18.3662903 63.4945455,7.76870968 44,7.76870968 C24.5054545,7.76870968 13.3236364,18.3662903 13.3236364,36.8469355 C13.3236364,41.8208065 14.1581818,47.0359677 15.6090909,52.1003226 L15.6363636,52.1003226 C15.8190909,52.7391935 15.9772727,53.3862903 16.1790909,54.0169355 C18.1754545,55.3303226 20.6027273,56.7479032 23.2945455,58.075 C22.4463636,56.1446774 21.6909091,54.1430645 21.0581818,52.0975806 L21.1072727,52.0975806 C19.8009091,47.8941935 18.9172727,43.54 18.68,39.3146774 C26.6927273,36.443871 31.7109091,27.9466129 31.7109091,27.9466129 C49.7545455,44.3982258 65.6436364,41.2559677 69.0554545,42.308871 C68.6654545,45.5745161 67.9372727,48.8840323 66.9445455,52.0975806 C62.8181818,65.4206452 53.9381818,77.0848387 44,77.0848387 C38.39,77.0848387 33.1290909,73.3558065 28.8609091,67.723871 C23.2890909,65.8291935 18.41,63.0790323 14.7936364,60.6962903 C14.3736364,68.486129 17.39,78.3625806 29.3627273,75.9743548 C33.71,79.9419355 38.6954545,82.3740323 44,82.3740323 C49.3072727,82.3740323 54.2927273,79.9419355 58.64,75.9743548 C74.6790909,79.1741935 74.6790909,60.3233871 71.8209091,54.0224194 C72.0227273,53.3890323 72.1836364,52.7391935 72.3636364,52.0975806 C73.8227273,47.0359677 74.6790909,41.8235484 74.6790909,36.8469355 Z" id="Path" fill="#000000"></path>
                        </g>
                    </g>
                </g>
            </g>
        </g>
    </g>
</svg>