<svg xmlns="http://www.w3.org/2000/svg" width="14" height="14" viewBox="0 0 14 14">
    <g fill="none" fill-rule="evenodd" stroke="#231F20" stroke-linejoin="round" stroke-width=".5" opacity=".75">
        <path stroke-linecap="round" d="M11.304 7.783H13V6.217h-1.696c-.104-.443-.287-1.147-.521-1.513l1.2-1.2-1.487-1.487-1.2 1.2c-.392-.234-1.07-.417-1.513-.521V1H6.217v1.696c-.443.104-1.147.287-1.513.521l-1.2-1.2-1.487 1.487 1.2 1.2c-.234.392-.417 1.07-.521 1.513H1v1.566h1.696c.104.443.287 1.147.521 1.513l-1.2 1.2 1.487 1.487 1.2-1.2c.392.234 1.07.417 1.513.521V13h1.566v-1.696c.443-.104 1.147-.287 1.513-.521l1.2 1.2 1.487-1.487-1.2-1.2c.234-.366.417-1.07.521-1.513z"/>
        <path d="M9.087 6.478L6.478 10.13 7 7.783H4.913L7.522 4.13 7 6.478z"/>
    </g>
</svg>
