<?xml version="1.0" encoding="UTF-8"?>
<svg width="17px" height="25px" viewBox="0 0 17 25" version="1.1" xmlns="http://www.w3.org/2000/svg" xmlns:xlink="http://www.w3.org/1999/xlink">
    <!-- Generator: Sketch 56 (81588) - https://sketch.com -->
    <title>Shape</title>
    <desc>Created with Sketch.</desc>
    <g id="Page-1" stroke="none" stroke-width="1" fill="none" fill-rule="evenodd">
        <g id="BB-Locate-Store-1B" transform="translate(-723.000000, -482.000000)" fill="#000000" fill-rule="nonzero">
            <g id="City-Location" transform="translate(40.000000, 409.000000)">
                <g id="Location-Drop-Down" transform="translate(662.000000, 25.000000)">
                    <g id="Location" transform="translate(0.000000, 31.000000)">
                        <g id="Search">
                            <path d="M29.4933082,42 L31.9923812,37.7537196 C31.9923812,37.7537196 31.9923812,37.7537196 31.9923812,37.753239 L36.8424663,29.5115336 C36.8424663,29.511053 36.8429517,29.5105725 36.8429517,29.5100919 C38.3604541,26.9409865 38.3866682,23.8653647 36.9133413,21.2818423 C35.39147,18.6132598 32.6156931,17.0129753 29.4874829,17 C26.3922829,17 23.6315549,18.582023 22.1067708,21.232344 C20.6183952,23.8192303 20.6319877,26.9035024 22.1426938,29.4831802 L27.0112258,37.7743839 L29.4933082,42 Z M29.4918519,20.4182653 C32.3326784,20.4182653 34.643884,22.7148899 34.643884,25.5372535 C34.643884,28.3596171 32.3326784,30.6562416 29.4918519,30.6562416 C26.6510253,30.6562416 24.3398197,28.3596171 24.3398197,25.5372535 C24.3398197,22.7148899 26.6515108,20.4182653 29.4918519,20.4182653 Z" id="Shape"></path>
                        </g>
                    </g>
                </g>
            </g>
        </g>
    </g>
</svg>