<svg xmlns="http://www.w3.org/2000/svg" width="80" height="76" viewBox="0 0 80 76">
    <g fill="none" fill-rule="evenodd">
        <path fill="#000" fill-rule="nonzero" d="M79.687 73.192c-.605 1.408-1.671 1.922-3.195 1.883-2.969-.074-5.939-.02-8.909-.023-1.799-.002-2.784-.98-2.784-2.773-.003-12.73-.003-25.463 0-38.196 0-1.795.979-2.766 2.785-2.769 2.97-.002 5.94.052 8.909-.022 1.524-.039 2.59.474 3.194 1.883v40.017z"/>
        <path fill="#F00" fill-rule="nonzero" d="M79.687 18.439c-.358.493-.627 1.106-1.093 1.457-1.521 1.146-3.641.119-3.866-1.82-.271-2.334-.531-4.67-.957-7.144-.06.128-.106.266-.182.384-8.281 12.894-19.528 22.457-33.071 29.443-7.443 3.84-15.192 6.85-23.4 8.608-4.306.923-8.653 1.494-13.065 1.457-.618-.006-1.246-.034-1.852-.147-1.02-.188-1.55-.945-1.929-1.836v-1.24c.676-1.458 1.8-1.851 3.386-1.794 4.333.152 8.615-.432 12.821-1.439 17.398-4.164 32.567-12.295 44.908-25.402 3.144-3.338 5.903-6.98 8.334-10.871.148-.238.281-.487.484-.843-.292.055-.48.077-.662.128-2.581.733-5.155 1.492-7.741 2.198-1.907.521-3.514-.874-3.222-2.763.157-1.02.779-1.69 1.75-1.97 4.858-1.402 9.72-2.793 14.589-4.157 1.474-.413 2.887.599 3.065 2.146.527 4.541 1.035 9.084 1.557 13.625.021.199.096.391.146.586v1.394z"/>
        <path fill="#000" fill-rule="nonzero" d="M.271 60.163c.602-1.411 1.663-1.925 3.191-1.883 2.991.077 5.987.019 8.98.023 1.726.003 2.719 1.02 2.719 2.76 0 3.742.002 7.483-.002 11.226-.001 1.777-.998 2.761-2.792 2.765-2.968.002-5.937-.05-8.904.021-1.52.035-2.591-.469-3.193-1.883l.001-13.029zM58.166 60.474l-.001 11.633c-.001 2.032-.907 2.945-2.917 2.947-3.051 0-6.101.002-9.151-.002-1.838-.002-2.82-.982-2.82-2.831-.004-7.857-.006-15.717-.001-23.573.001-1.736 1.025-2.754 2.744-2.754 3.102-.002 6.204-.006 9.306.001 1.904.002 2.841.95 2.842 2.868.004 3.903.001 7.809.001 11.711h-.003zM21.791 65.03c0-2.403-.005-4.807.001-7.209.005-1.739 1-2.734 2.747-2.738 3.074-.007 6.149-.009 9.224 0 1.944.006 2.92.982 2.921 2.905.001 4.702.001 9.405-.003 14.107-.002 2.014-.936 2.956-2.927 2.958-3.075 0-6.15.004-9.224-.002-1.757-.003-2.734-.98-2.738-2.733-.005-2.43-.001-4.858-.001-7.288z"/>
        <text fill="#000" font-family="RupeeForadian, Rupee Foradian" font-size="28" letter-spacing=".35">
            <tspan x="31" y="26">`</tspan>
        </text>
    </g>
</svg>
