<?xml version="1.0" encoding="UTF-8"?>
<svg width="112px" height="67px" viewBox="0 0 112 67" version="1.1" xmlns="http://www.w3.org/2000/svg" xmlns:xlink="http://www.w3.org/1999/xlink">
    <!-- Generator: Sketch 56 (81588) - https://sketch.com -->
    <title>shake hand</title>
    <desc>Created with Sketch.</desc>
    <g id="Page-1" stroke="none" stroke-width="1" fill="none" fill-rule="evenodd">
        <g id="BB-Franchise-Owner-opt2" transform="translate(-1030.000000, -2110.000000)" fill-rule="nonzero">
            <g id="Group-6" transform="translate(274.000000, 1162.000000)">
                <g id="Group-2" transform="translate(230.000000, 901.000000)">
                    <g id="Group-5" transform="translate(532.000000, 80.000000) scale(-1, 1) translate(-532.000000, -80.000000) translate(402.000000, 0.000000)">
                        <g id="shake-hand" transform="translate(24.000000, 47.000000)">
                            <g id="Group" transform="translate(0.000000, 1.732759)" fill="#000000">
                                <path d="M32.5439453,52.7744527 L39.5599687,46.9257494 C40.9475211,45.7433545 41.1236085,43.6488149 39.9528549,42.2472658 C38.8000856,40.8674724 36.7664843,40.6708723 35.3753745,41.8049655 L28.3583629,47.6534692 C26.9636958,48.8274811 26.7755531,50.9212223 27.9382039,52.3295576 C29.0927519,53.728512 31.1476972,53.9269085 32.5439453,52.7744527 L32.5439453,52.7744527 Z" id="Path"></path>
                                <path d="M40.9208412,48.3420685 L35.4315011,52.9181604 C34.036834,54.0921723 33.8488889,56.1859135 35.0115397,57.5942488 C36.1662853,58.9932033 38.2210329,59.1915997 39.6172811,58.0391439 L45.1066212,53.4626528 C46.5026717,52.2902376 46.6933836,50.1968956 45.5325115,48.7869635 C44.3775682,47.3844164 42.3180775,47.1854212 40.9210389,48.3418689 L40.9210389,48.3420685 L40.9208412,48.3420685 Z" id="Path"></path>
                                <path d="M20.4014284,0.199194822 L0.0990120761,33.9413606 L15.1452903,43.1749788 L17.792727,38.7747292 L22.0192185,41.9085548 C20.9445126,43.3861492 21.2591378,45.464322 22.7223821,46.5497143 C23.9362188,47.450482 25.6006494,47.4023799 26.7619167,46.4339498 L30.6427553,43.1983313 C32.0374224,42.0241197 32.2255652,39.9305781 31.0629144,38.5220432 C29.9081687,37.1230888 27.8532235,36.9246923 26.4569754,38.0773477 L23.4856249,40.5549082 L18.807749,37.0867627 L31.5607415,15.8910763 C35.7573911,15.9916717 39.9564122,15.8517563 44.1374491,15.4715297 C47.1052422,14.5362322 50.2408223,14.2753628 53.3200781,14.7076834 C50.8864759,16.2379707 48.2991184,17.5029975 45.6012864,18.4822058 C43.8929822,19.1031427 43.0070119,21.0054732 43.6218353,22.7303647 C43.9811247,23.7383144 44.7997036,24.5091465 45.8202592,24.8005538 C50.8451714,26.2406245 56.2190963,25.7629961 60.9179209,23.459282 L82.2171774,40.9235583 C83.5553226,42.0185311 83.7612519,44.0022959 82.6766646,45.3535474 C81.6355556,46.6507088 79.7734961,46.9023969 78.4315959,45.9267814 L62.4977663,34.3648991 C62.0546823,34.0569256 61.4481593,34.1698958 61.1432179,34.6175852 C60.8467745,35.0527001 60.9432174,35.6460931 61.3614002,35.9624496 L76.7410784,47.1229483 C78.2061014,48.206145 78.5242839,50.283719 77.4521471,51.7633094 C76.3928562,53.2247368 74.369334,53.5590567 72.9039157,52.5149805 L58.3862948,41.980209 C57.9432108,41.6722354 57.3364901,41.7852057 57.0317463,42.2330946 C56.7355006,42.66801 56.8317459,43.261403 57.2501263,43.5779591 L70.0630004,52.8756468 C71.529802,53.9560492 71.8515419,56.0330245 70.781579,57.5144112 C69.7226834,58.9806288 67.6940228,59.3159468 66.2270235,58.2678786 L54.1758112,49.523665 C53.7327272,49.2156915 53.1262041,49.3286617 52.8212628,49.776351 C52.525017,50.211466 52.6214599,50.804859 53.0396427,51.1212155 L62.2614022,57.8130039 C63.5610098,58.775047 63.8424333,60.6194953 62.889862,61.9320255 C61.949939,63.227191 60.1566544,63.5239873 58.8568492,62.5996674 L52.5246218,58.0052129 C53.2744258,56.3354094 52.5418155,54.3678117 50.8884522,53.610552 C49.7455643,53.0870169 48.4072214,53.2662523 47.4390374,54.0728117 L43.8010848,57.1050439 C42.4161015,58.2906323 42.2447572,60.3859703 43.4186728,61.7843259 C44.5708493,63.1575327 46.5965455,63.3533344 47.9854813,62.2258278 L51.2511012,59.5037647 L57.7194949,64.1972179 C59.9019108,65.7807968 62.9424313,65.2776203 64.5102213,63.073304 C65.1278116,62.2048705 65.4483657,61.1570019 65.4228716,60.0883756 C67.8928375,61.6064876 71.1137932,60.8148978 72.616761,58.3205714 C73.2363275,57.2924627 73.4898854,56.081925 73.3361301,54.8885524 C76.1082706,55.717666 79.0215182,54.1199159 79.8424686,51.3200111 C80.114406,50.3926974 80.1292281,49.4077009 79.8853541,48.4722038 C82.6764669,48.6759893 85.1025593,46.5561013 85.3043384,43.7372351 C85.326868,43.4220761 85.3205439,43.1053204 85.2851683,42.7913591 L91.7221391,36.8240969 L76.0311954,14.1536105 L71.4894857,15.8309985 L62.6232607,12.6323049 C60.350726,11.8125723 57.8406414,12.0041826 55.7159332,13.1596323 C51.7700747,12.2181473 47.6481288,12.3456879 43.7666973,13.5288812 C40.0989027,13.8556166 36.417274,13.9941348 32.7356453,13.9444359 L35.4506711,9.43161536 L20.405381,0.198396446 L3.76759724,27.8531445" id="Path"></path>
                            </g>
                            <g id="Group" transform="translate(17.230769, 0.000000)">
                                <polygon id="Path" fill="#FF0000" points="73.6815931 0.0662438871 59.2287907 10.2542345 80.2190872 40.5370688 94.6709003 30.3490782"></polygon>
                                <path d="M0.00633113859,39.3608408 L5.2267506,44.2894259 C4.15085274,45.7665448 4.2679788,46.0482809 5.73284599,47.1333238 C6.94802891,48.0338017 7.82291312,47.985715 8.98546844,47.0175966 L12.8706112,43.7830193 C14.2668251,42.6091856 14.4551765,40.5163177 13.2912362,39.1082361 C12.1352099,37.7097318 11.067226,39.3071672 9.66942926,40.4594517 L6.69478336,42.9362149 L1.02247888,37.6734174 L13.7896155,16.4845519 C17.9909195,16.5851149 22.1945977,16.4452445 26.3802717,16.0651403 C29.3513564,15.1301437 36.2495275,14.8693583 39.3321985,15.3015398 C36.8958972,16.8313346 34.3056701,18.0959544 31.604846,19.0748475 C29.8946472,19.6955846 29.0076942,21.597303 29.6231996,23.3216393 C29.9828874,24.3292647 27.0432606,25.0998487 28.0649481,25.3911622 C33.0954334,26.8307696 38.4753185,26.3532948 43.1793544,24.0503221 L64.5022335,41.5089784 C65.8418629,42.6035987 66.0480206,44.5867252 64.9622303,45.9375418 C63.9199666,47.2342859 62.055842,47.4858929 60.7124535,46.5105914 L44.760952,34.9524298 C44.3173766,34.6445553 43.7101808,34.7574892 43.4049012,35.2050345 C43.1081291,35.6400094 43.4025271,37.0313306 43.8211736,37.3475853 L59.020061,48.1054329 C60.4867088,49.188281 60.8052443,50.866127 59.7319184,52.3452412 C58.6714527,53.8061983 56.6456862,54.1404107 55.1786427,53.0966704 L40.6449205,42.565289 C40.2013451,42.2574146 39.5939515,42.3703484 39.2888698,42.8180933 C38.9922955,43.2528687 39.0886475,44.44466 39.5074919,44.7611143 L52.3345765,53.8562803 C53.803005,54.936335 54.1251017,56.6135823 53.0539521,58.0944923 C51.9938821,59.5602381 49.9629716,59.8954481 48.4943453,58.8477172 L36.4297671,50.1063176 C35.9861917,49.7984431 35.378996,49.911377 35.0737164,50.3589223 C34.7771421,50.7938972 34.873692,51.9856886 35.2923385,52.3019433 L44.5243257,58.7920484 C45.8253747,59.753782 46.1071103,61.1985771 45.1534826,62.510685 C44.2125171,63.8054337 42.4172436,64.1021345 41.1159968,63.1781121 L34.7767464,58.5851361 C35.527382,56.9158699 34.7939592,56.9442031 33.1387622,56.1871871 C31.9946067,55.6638205 30.6547795,55.8429983 29.6855218,56.6492981 L26.0435343,59.6805545 C24.6570149,60.8657614 26.9799493,62.1379633 28.1551669,63.5360685 C29.3086212,64.9088334 28.8420954,63.9315365 30.2325717,62.8043928 L33.5018134,60.0832056 L39.9773811,64.7751484 C42.1622174,66.3582177 45.2061102,65.8552031 46.775639,63.6515962 C47.3939142,62.7834422 47.7148238,61.7359108 47.6893014,60.6676284 C50.1620067,62.1852519 53.3865348,61.3939168 54.8911694,58.9003931 C55.5114232,57.8726152 55.7652622,56.6624671 55.6113364,55.4694785 C58.3865515,56.2983252 61.30303,54.7010893 62.124891,51.9020856 C62.3971299,50.9750702 62.4119685,49.9903908 62.167824,49.0551947 C64.9620324,49.2589146 67.3908155,47.1397088 67.5928184,44.3217497 C67.6153731,44.0066922 67.6090419,43.6900384 67.5736271,43.3761781 L74.017737,37.4108362 L58.3093907,16.9424727 L53.762644,18.619321 L44.8865855,15.4216567 C42.6115304,14.6021879 44.4513197,12.9979685 42.324255,14.1530464 C38.3740202,13.2118644 29.894845,12.9403044 26.0091087,14.1231169 C22.3372462,14.4497472 18.6515343,14.5882208 14.9658224,14.5385379" id="Path" fill="#000000"></path>
                            </g>
                            <path d="M31.8429519,40.1883339 C32.9845614,41.6108262 33.0423364,43.4277565 31.9721907,44.2461121 L26.1516129,48.6983283 C25.0814672,49.5168804 23.2882284,49.0273214 22.1468202,47.6048291 L22.1468202,47.6048291 C21.0052107,46.1823368 20.9474357,44.3654065 22.0173801,43.5468544 L27.8379579,39.0946382 C28.9083049,38.2762826 30.7013424,38.7658416 31.8429519,40.1883339 L31.8429519,40.1883339 Z" id="Path" fill="#FF0000"></path>
                            <path d="M52.437761,56.3641621 C53.6036136,57.7881131 53.7470755,59.6056113 52.7584053,60.4235958 L47.3812768,64.8717627 C46.3924071,65.6897472 44.6459228,65.1979135 43.4802697,63.7739625 L43.4802697,63.7739625 C42.314417,62.3496103 42.1707556,60.5321121 43.1596253,59.7143282 L48.5367538,55.2661613 C49.525424,54.4481768 51.2721079,54.9400105 52.437761,56.3641621 L52.437761,56.3641621 Z" id="Path" fill="#FF0000"></path>
                            <path d="M45.6845197,50.4489181 C46.8142541,51.8694973 46.8007197,53.8127631 45.6545508,54.7888985 L39.4210005,60.0976103 C38.2746382,61.0739458 36.4297084,60.7129478 35.3001674,59.2925687 L35.3001674,59.2925687 C34.1704331,57.8717895 34.1837742,55.9285236 35.3301364,54.9525883 L41.5636867,49.6438765 C42.7098556,48.667541 44.5549788,49.0281388 45.6845197,50.4489181 L45.6845197,50.4489181 Z" id="Path" fill="#FF0000"></path>
                            <path d="M39.9883722,44.0133071 C41.157864,45.4514985 41.0141544,47.5270402 39.6671273,48.6489875 L32.342142,54.7498039 C30.9951149,55.8717512 28.9553596,55.614461 27.786068,54.1764722 L27.786068,54.1764722 C26.6163761,52.7382808 26.7602859,50.6625365 28.107313,49.5407918 L35.4322982,43.4399754 C36.7791252,42.3180281 38.8190807,42.5749131 39.9883722,44.0133071 L39.9883722,44.0133071 Z" id="Path" fill="#FF0000"></path>
                            <path d="M43.7324734,22.7448189 C43.7324734,22.7448189 43.6265179,20.4884897 47.1315337,19.7242298 C49.3893526,18.7362891 54.8917381,16.1017139 56.3650523,14.6925041 C57.9737211,14.1212512 59.8669111,12.1236589 71.6974246,17.5694832 L76.2318069,15.895561 L91.8974359,38.5192054 L85.4708502,44.4741379 C85.4708502,44.4741379 74.7081787,30.512304 60.6991649,25.433173 C54.4838982,28.2219147 42.5545324,28.4356366 43.7324734,22.7448189 Z" id="Path" fill="#FF0000"></path>
                        </g>
                    </g>
                </g>
            </g>
        </g>
    </g>
</svg>