<?xml version="1.0" encoding="UTF-8"?>
<svg width="33px" height="30px" viewBox="0 0 33 30" version="1.1" xmlns="http://www.w3.org/2000/svg" xmlns:xlink="http://www.w3.org/1999/xlink">
    <!-- Generator: Sketch 56 (81588) - https://sketch.com -->
    <title>Group</title>
    <desc>Created with Sketch.</desc>
    <g id="Page-1" stroke="none" stroke-width="1" fill="none" fill-rule="evenodd">
        <g id="BB-Locate-Store-1B" transform="translate(-94.000000, -479.000000)" fill="#000000">
            <g id="City-Location" transform="translate(40.000000, 409.000000)">
                <g id="City-Drop-Down" transform="translate(32.000000, 25.000000)">
                    <g id="City" transform="translate(2.000000, 30.000000)">
                        <g id="Group" transform="translate(20.000000, 15.000000)">
                            <path d="M12.58125,0.957888889 L12.58125,4.29122222 L9.28125,4.29122222 L9.28125,8.73566667 L14.78125,8.73566667 C15.084993,8.73566667 15.331217,8.98433333 15.33125,9.29122222 L15.33125,11.5134444 C15.331217,11.8202222 15.084993,12.0688889 14.78125,12.069 L14.23125,12.069 L14.23125,28.1801111 L13.68125,28.1801111 L13.68125,11.5134444 L14.78125,11.5134444 L14.78125,9.29122222 L5.98125,9.29122222 L5.98125,11.5134444 L7.08125,11.5134444 L7.08125,28.1801111 L6.53125,28.1801111 L6.53125,14.2912222 L1.58125,14.2912222 L1.58125,28.1801111 L1.77635684e-15,28.1801111 L1.77635684e-15,29.2912222 L32.8625,29.2912222 L32.8625,28.1801111 L31.28125,28.1801111 L31.28125,10.9578889 L27.98125,10.9578889 L27.98125,6.51344444 L25.3,6.51344444 L25.3,8.18011111 L26.33125,8.18011111 L26.33125,28.1801111 L25.78125,28.1801111 L25.78125,8.73566667 L24.75,8.73566667 L24.75,6.51344444 L23.03125,6.51344444 L23.03125,3.73566667 L21.93125,3.73566667 L21.93125,6.51344444 L20.35,6.51344444 L20.35,8.73566667 L19.18125,8.73566667 L19.18125,28.1801111 L18.63125,28.1801111 L18.63125,8.73566667 L18.63125,8.18011111 L19.8,8.18011111 L19.8,6.51344444 L19.18125,6.51344444 L19.18125,0.957888889 L12.58125,0.957888889 Z M20.9,10.4023333 L22,10.4023333 L22,11.5134444 L20.9,11.5134444 L20.9,10.4023333 Z M23.1,10.4023333 L24.2,10.4023333 L24.2,11.5134444 L23.1,11.5134444 L23.1,10.4023333 Z M8.8,12.6245556 L12.1,12.6245556 L12.1,13.7356667 L8.8,13.7356667 L8.8,12.6245556 Z M20.9,12.6245556 L22,12.6245556 L22,13.7356667 L20.9,13.7356667 L20.9,12.6245556 Z M23.1,12.6245556 L24.2,12.6245556 L24.2,13.7356667 L23.1,13.7356667 L23.1,12.6245556 Z M8.8,14.8467778 L12.1,14.8467778 L12.1,15.9578889 L8.8,15.9578889 L8.8,14.8467778 Z M20.9,14.8467778 L22,14.8467778 L22,15.9578889 L20.9,15.9578889 L20.9,14.8467778 Z M23.1,14.8467778 L24.2,14.8467778 L24.2,15.9578889 L23.1,15.9578889 L23.1,14.8467778 Z M8.8,17.069 L12.1,17.069 L12.1,18.1801111 L8.8,18.1801111 L8.8,17.069 Z M20.9,17.069 L22,17.069 L22,18.1801111 L20.9,18.1801111 L20.9,17.069 Z M23.1,17.069 L24.2,17.069 L24.2,18.1801111 L23.1,18.1801111 L23.1,17.069 Z M8.8,19.2912222 L12.1,19.2912222 L12.1,20.4023333 L8.8,20.4023333 L8.8,19.2912222 Z M20.9,19.2912222 L22,19.2912222 L22,20.4023333 L20.9,20.4023333 L20.9,19.2912222 Z M23.1,19.2912222 L24.2,19.2912222 L24.2,20.4023333 L23.1,20.4023333 L23.1,19.2912222 Z M8.8,21.5134444 L12.1,21.5134444 L12.1,22.6245556 L8.8,22.6245556 L8.8,21.5134444 Z M20.9,21.5134444 L22,21.5134444 L22,22.6245556 L20.9,22.6245556 L20.9,21.5134444 Z M23.1,21.5134444 L24.2,21.5134444 L24.2,22.6245556 L23.1,22.6245556 L23.1,21.5134444 Z M8.8,23.7356667 L12.1,23.7356667 L12.1,24.8467778 L8.8,24.8467778 L8.8,23.7356667 Z M20.9,23.7356667 L22,23.7356667 L22,24.8467778 L20.9,24.8467778 L20.9,23.7356667 Z M23.1,23.7356667 L24.2,23.7356667 L24.2,24.8467778 L23.1,24.8467778 L23.1,23.7356667 Z M8.8,25.9578889 L12.1,25.9578889 L12.1,27.069 L8.8,27.069 L8.8,25.9578889 Z M20.9,25.9578889 L22,25.9578889 L22,27.069 L20.9,27.069 L20.9,25.9578889 Z M23.1,25.9578889 L24.2,25.9578889 L24.2,27.069 L23.1,27.069 L23.1,25.9578889 Z" id="Shape"></path>
                        </g>
                    </g>
                </g>
            </g>
        </g>
    </g>
</svg>