<svg xmlns="http://www.w3.org/2000/svg" width="85" height="81" viewBox="0 0 85 81">
    <g fill="none" fill-rule="nonzero">
        <path fill="#000" d="M81.713 14.98c-.013-3.074-2.525-5.572-5.584-5.572l-13.922.027c.107.2.187.4.28.614.962 2.258 1.483 4.436 1.657 6.493l10.461-.026.094 43.542-64.398.133-.094-43.542 14.55-.026c.16-2.058.668-4.236 1.617-6.507.08-.214.173-.414.267-.615l-17.97.04C5.598 9.555 3.1 12.067 3.1 15.14v52.174l78.707-.16-.094-52.174zM83.998 69.156l-82.996.16A1 1 0 0 0 0 70.32a9.96 9.96 0 0 0 2.953 7.067 9.914 9.914 0 0 0 7.054 2.913h.027l64.986-.12a9.96 9.96 0 0 0 7.067-2.953A9.92 9.92 0 0 0 85 70.145a.998.998 0 0 0-1.002-.989zm-34.28 6.57l-14.407.028h-.003a1.003 1.003 0 0 1-.002-2.004l14.406-.029h.003a1.003 1.003 0 0 1 .003 2.004z"/>
        <path fill="#F00" d="M44.512 35.23c-.02 0-.039.003-.059.003-.02 0-.04-.003-.059-.003-2-.075-4.148-3.936-5.162-10.023 1.714.181 3.472.275 5.212.275 1.744 0 3.508-.094 5.227-.276-1.013 6.087-3.16 9.95-5.159 10.024zm-.068-11.752c-1.956 0-3.798-.11-5.503-.305a47.806 47.806 0 0 1-.287-4.51h11.595a47.8 47.8 0 0 1-.288 4.508 48.375 48.375 0 0 1-5.517.307zm.01-23.392c2.014 0 4.192 3.885 5.216 10.033a49.748 49.748 0 0 0-5.226-.277c-1.74 0-3.497.094-5.21.276C40.256 3.971 42.436.086 44.453.086zm-.01 11.76c1.96 0 3.808.111 5.516.308.162 1.409.257 2.921.288 4.505H38.654c.031-1.585.126-3.098.288-4.507a48.29 48.29 0 0 1 5.502-.306zm7.809 4.813a49.601 49.601 0 0 0-.258-4.214c5.133.855 8.687 2.515 9.718 4.215h-9.46zm-15.604 0h-9.46c1.03-1.701 4.585-3.361 9.719-4.216a49.555 49.555 0 0 0-.259 4.216zm0 2.004c.028 1.413.11 2.83.258 4.219-5.14-.855-8.696-2.518-9.722-4.22h9.464zm15.604 0h9.462c-1.027 1.701-4.582 3.362-9.72 4.217.147-1.387.23-2.804.258-4.217zm8.39-7.837c.4.945.71 1.917.935 2.91-2.251-1.608-5.835-2.736-9.85-3.35-.615-4.024-1.746-7.614-3.359-9.865a17.538 17.538 0 0 1 12.275 10.305zM40.537.52c-1.613 2.25-2.746 5.84-3.36 9.865-4.026.614-7.617 1.747-9.867 3.36A17.553 17.553 0 0 1 40.536.52zM27.331 21.598c2.252 1.604 5.833 2.73 9.843 3.342.611 4.003 1.734 7.578 3.334 9.83-6.531-1.503-11.674-6.645-13.177-13.172zM48.396 34.77c1.6-2.253 2.722-5.829 3.333-9.832 4.003-.611 7.578-1.734 9.83-3.333A17.606 17.606 0 0 1 48.396 34.77zM65.614 45.24l-.481 4.958a.99.99 0 0 1-.989.908h-.107a1.003 1.003 0 0 1-.895-1.095l.24-2.606-6.065 4.904c.133.334.2.708.2 1.095a3.165 3.165 0 0 1-3.166 3.167 3.165 3.165 0 0 1-3.167-3.167c0-.093 0-.2.014-.294l-6.44-3.22a3.147 3.147 0 0 1-2.298.989c-.708 0-1.39-.24-1.924-.655l-2.124 1.577a3.165 3.165 0 0 1-3.1 3.808 3.165 3.165 0 0 1-3.166-3.167c0-.267.04-.534.106-.788l-3.78-3.073a3.237 3.237 0 0 1-1.67.468c-.589 0-1.163-.16-1.657-.468l-4.503 3.3c.107.32.174.655.174 1.015 0 1.75-1.43 3.167-3.167 3.167a3.165 3.165 0 0 1-3.166-3.167 3.162 3.162 0 0 1 3.166-3.153c.655 0 1.256.2 1.764.548l4.449-3.247a3.106 3.106 0 0 1-.227-1.162c0-1.737 1.43-3.153 3.166-3.153a3.162 3.162 0 0 1 3.167 3.153c0 .401-.08.788-.227 1.15l3.607 2.938a3.144 3.144 0 0 1 1.964-.694 3.15 3.15 0 0 1 2.084.788l2.018-1.496a3.006 3.006 0 0 1-.12-.855 3.162 3.162 0 0 1 3.166-3.154 3.162 3.162 0 0 1 3.166 3.154c0 .12 0 .24-.013.36l6.4 3.207a3.127 3.127 0 0 1 2.338-1.029 3.17 3.17 0 0 1 1.71.508l6.012-4.85-2.525-.24a1.006 1.006 0 0 1-.908-1.096.995.995 0 0 1 1.095-.895l4.97.467c.406 0 .972.467.909 1.096z"/>
    </g>
</svg>
