<svg xmlns="http://www.w3.org/2000/svg" width="89" height="65" viewBox="0 0 89 65">
    <g fill="none" fill-rule="nonzero">
        <path fill="#F00" d="M55.44 29.807l-5.656-4.55 1.67-2.043c1.019-1.3.463-3.25-1.206-3.714l-14.926-4.364c-2.04-.65-3.801 1.578-2.781 3.528l7.416 13.65c.835 1.486 2.874 1.672 3.894.372l1.669-2.043 5.84 4.736c1.576 1.3 4.08.928 5.1-1.022.741-1.578.277-3.436-1.02-4.55z"/>
        <path fill="#000" d="M88.073 54.507H54.976c-.185 0-.37.186-.37.372v1.207c0 .743-.65 1.393-1.391 1.393H35.97c-.835 0-1.39-.65-1.39-1.393v-1.3c0-.186-.186-.372-.372-.372H.927c-.278 0-.463.186-.463.465v5.107a4.455 4.455 0 0 0 4.45 4.457h79.08c2.503 0 4.45-2.043 4.45-4.457v-5.107c.092-.186-.093-.372-.371-.372zM10.569 50.7h67.77c2.132 0 3.893-1.764 3.893-3.9V9.007c0-4.736-3.893-8.636-8.622-8.636H15.204c-4.728 0-8.622 3.9-8.622 8.636V46.8c.093 2.136 1.854 3.9 3.987 3.9zm3.986-41.693c0-.464.371-.743.742-.743h58.406c.464 0 .742.372.742.743v33.8h-59.89v-33.8z"/>
    </g>
</svg>
