<svg xmlns="http://www.w3.org/2000/svg" width="14" height="14" viewBox="0 0 14 14">
    <path fill="none" fill-rule="evenodd" stroke="#232B2B" stroke-linejoin="round" stroke-width=".5" d="M7 13h6s0-1.07-.522-2.114c-.391-.783-2.087-1.304-4.174-2.087V7.233s.783-.522.783-1.566c.26 0 .522-1.044 0-1.305 0-.156.704-1.46.522-2.348C9.348.709 5.696.709 5.435 1.753c-1.565 0-.522 2.4-.522 2.61-.522.26-.26 1.304 0 1.304 0 1.044.783 1.566.783 1.566v1.566c-2.087.783-3.783 1.304-4.174 2.087C1 11.93 1 13 1 13h6z" opacity=".75"/>
</svg>
