<svg xmlns="http://www.w3.org/2000/svg" width="22" height="22" viewBox="0 0 22 22">
    <path fill="none" fill-rule="evenodd" stroke="#FFF" stroke-linejoin="round" stroke-width="2" d="M11 21h10s0-1.783-.87-3.523c-.652-1.305-3.478-2.174-6.956-3.48v-2.609s1.304-.87 1.304-2.61c.435 0 .87-1.739 0-2.174 0-.26 1.174-2.435.87-3.914C14.913.515 8.826.515 8.39 2.255c-2.608 0-.87 4.001-.87 4.35-.869.434-.434 2.174 0 2.174 0 1.74 1.305 2.61 1.305 2.61v2.609c-3.478 1.305-6.304 2.174-6.956 3.48C1 19.216 1 21 1 21h10z"/>
</svg>
